M48
;DRILL file {KiCad 5.0.1+dfsg1-3~bpo9+1} date Sat 29 Dec 2018 06:45:18 PM UTC
;FORMAT={3:3/ absolute / metric / suppress leading zeros}
FMAT,2
METRIC,TZ
T1C0.400
T2C0.650
T3C0.700
T4C1.000
T5C1.016
%
G90
G05
M71
T1
X165608Y-104140
X168275Y-111125
X168497Y-83598
X169418Y-89916
X171450Y-116840
X171958Y-120206
X172792Y-119761
X175641Y-122936
X176530Y-111125
X177038Y-112776
X177632Y-85367
X178605Y-97620
X179070Y-89535
X179153Y-117231
X179223Y-115417
X179240Y-105240
X179832Y-112776
X179873Y-118405
X180340Y-123190
X180391Y-110744
X180523Y-117927
X180975Y-127000
X181173Y-118435
X181610Y-112141
X182273Y-121285
X182436Y-125793
X182978Y-112395
X183309Y-108776
X183896Y-91270
X183897Y-118364
X183903Y-115570
X183980Y-92540
X184121Y-122041
X184404Y-120904
X184633Y-105029
X185674Y-115062
X186055Y-105842
X186162Y-121951
X188722Y-121412
X191658Y-119746
X192723Y-109982
X195263Y-111506
X195750Y-91270
X196004Y-100160
X197124Y-98890
X197729Y-101860
X201581Y-84106
X201676Y-116840
X201760Y-103970
X201824Y-90000
X201867Y-99187
X201994Y-101092
X202121Y-88106
X202374Y-109855
X202395Y-102700
X202799Y-92540
X203623Y-115993
X204115Y-93498
X204724Y-105664
X206311Y-116332
X207010Y-106236
X207264Y-102108
X207451Y-109604
X208538Y-102870
X208788Y-116191
X210312Y-102108
X210881Y-104140
X211201Y-101791
X211201Y-101791
X211734Y-94488
X212919Y-109604
X212979Y-84106
X213106Y-98831
X213106Y-100076
X213170Y-102743
X213360Y-95479
X213360Y-97993
X213932Y-93663
X217170Y-112776
X217676Y-93980
T4
X167640Y-113792
X167640Y-116332
X167640Y-120904
X167640Y-123444
X163068Y-113792
X163068Y-116332
X163195Y-97155
X163195Y-99695
X163068Y-120904
X163068Y-123444
X165735Y-106680
X165735Y-109220
X168275Y-106680
X168275Y-109220
X170815Y-106680
X170815Y-109220
X173355Y-106680
X173355Y-109220
X163195Y-88900
X163195Y-91440
X211519Y-112776
X214059Y-112776
T5
X164890Y-129010
X164890Y-131550
X167430Y-129010
X167430Y-131550
X169970Y-129010
X169970Y-131550
X172510Y-129010
X172510Y-131550
X175050Y-129010
X175050Y-131550
X177590Y-129010
X177590Y-131550
X180130Y-129010
X180130Y-131550
X182670Y-129010
X182670Y-131550
X185210Y-129010
X185210Y-131550
X187750Y-129010
X187750Y-131550
X190290Y-129010
X190290Y-131550
X192830Y-129010
X192830Y-131550
X195370Y-129010
X195370Y-131550
X197910Y-129010
X197910Y-131550
X200450Y-129010
X200450Y-131550
X202990Y-129010
X202990Y-131550
X205530Y-129010
X205530Y-131550
X208070Y-129010
X208070Y-131550
X210610Y-129010
X210610Y-131550
X213150Y-129010
X213150Y-131550
T2
X216247Y-96665G85X215847Y-96665
G05
X216247Y-101505G85X215847Y-101505
G05
T3
X219297Y-96355G85X218797Y-96355
G05
X219297Y-101815G85X218797Y-101815
G05
T0
M30
