G04 #@! TF.GenerationSoftware,KiCad,Pcbnew,5.0.1+dfsg1-3~bpo9+1*
G04 #@! TF.CreationDate,2018-12-29T18:45:15+00:00*
G04 #@! TF.ProjectId,esp32_io_board,65737033325F696F5F626F6172642E6B,rev?*
G04 #@! TF.SameCoordinates,Original*
G04 #@! TF.FileFunction,Copper,L2,Bot,Signal*
G04 #@! TF.FilePolarity,Positive*
%FSLAX46Y46*%
G04 Gerber Fmt 4.6, Leading zero omitted, Abs format (unit mm)*
G04 Created by KiCad (PCBNEW 5.0.1+dfsg1-3~bpo9+1) date Sat 29 Dec 2018 06:45:15 PM UTC*
%MOMM*%
%LPD*%
G01*
G04 APERTURE LIST*
G04 #@! TA.AperFunction,ComponentPad*
%ADD10C,1.879600*%
G04 #@! TD*
G04 #@! TA.AperFunction,ComponentPad*
%ADD11O,1.700000X1.700000*%
G04 #@! TD*
G04 #@! TA.AperFunction,ComponentPad*
%ADD12R,1.700000X1.700000*%
G04 #@! TD*
G04 #@! TA.AperFunction,ComponentPad*
%ADD13O,1.700000X1.350000*%
G04 #@! TD*
G04 #@! TA.AperFunction,ComponentPad*
%ADD14O,1.500000X1.100000*%
G04 #@! TD*
G04 #@! TA.AperFunction,ViaPad*
%ADD15C,0.600000*%
G04 #@! TD*
G04 #@! TA.AperFunction,Conductor*
%ADD16C,0.250000*%
G04 #@! TD*
G04 #@! TA.AperFunction,Conductor*
%ADD17C,0.254000*%
G04 #@! TD*
G04 APERTURE END LIST*
D10*
G04 #@! TO.P,J5,1*
G04 #@! TO.N,Net-(D8-Pad1)*
X213150000Y-129010000D03*
G04 #@! TO.P,J5,2*
G04 #@! TO.N,Net-(J5-Pad2)*
X213150000Y-131550000D03*
G04 #@! TO.P,J5,3*
G04 #@! TO.N,/sda0*
X210610000Y-129010000D03*
G04 #@! TO.P,J5,4*
G04 #@! TO.N,Net-(J5-Pad4)*
X210610000Y-131550000D03*
G04 #@! TO.P,J5,5*
G04 #@! TO.N,/scl0*
X208070000Y-129010000D03*
G04 #@! TO.P,J5,6*
G04 #@! TO.N,GND*
X208070000Y-131550000D03*
G04 #@! TO.P,J5,7*
G04 #@! TO.N,Net-(J5-Pad7)*
X205530000Y-129010000D03*
G04 #@! TO.P,J5,8*
G04 #@! TO.N,/rx*
X205530000Y-131550000D03*
G04 #@! TO.P,J5,9*
G04 #@! TO.N,GND*
X202990000Y-129010000D03*
G04 #@! TO.P,J5,10*
G04 #@! TO.N,/tx*
X202990000Y-131550000D03*
G04 #@! TO.P,J5,11*
G04 #@! TO.N,Net-(J5-Pad11)*
X200450000Y-129010000D03*
G04 #@! TO.P,J5,12*
G04 #@! TO.N,Net-(J5-Pad12)*
X200450000Y-131550000D03*
G04 #@! TO.P,J5,13*
G04 #@! TO.N,Net-(J5-Pad13)*
X197910000Y-129010000D03*
G04 #@! TO.P,J5,14*
G04 #@! TO.N,GND*
X197910000Y-131550000D03*
G04 #@! TO.P,J5,15*
G04 #@! TO.N,Net-(J5-Pad15)*
X195370000Y-129010000D03*
G04 #@! TO.P,J5,16*
G04 #@! TO.N,Net-(J5-Pad16)*
X195370000Y-131550000D03*
G04 #@! TO.P,J5,17*
G04 #@! TO.N,Net-(D8-Pad1)*
X192830000Y-129010000D03*
G04 #@! TO.P,J5,18*
G04 #@! TO.N,Net-(J5-Pad18)*
X192830000Y-131550000D03*
G04 #@! TO.P,J5,19*
G04 #@! TO.N,/mosi*
X190290000Y-129010000D03*
G04 #@! TO.P,J5,20*
G04 #@! TO.N,GND*
X190290000Y-131550000D03*
G04 #@! TO.P,J5,21*
G04 #@! TO.N,/miso*
X187750000Y-129010000D03*
G04 #@! TO.P,J5,22*
G04 #@! TO.N,Net-(J5-Pad22)*
X187750000Y-131550000D03*
G04 #@! TO.P,J5,23*
G04 #@! TO.N,/clk*
X185210000Y-129010000D03*
G04 #@! TO.P,J5,24*
G04 #@! TO.N,/cs*
X185210000Y-131550000D03*
G04 #@! TO.P,J5,25*
G04 #@! TO.N,GND*
X182670000Y-129010000D03*
G04 #@! TO.P,J5,26*
G04 #@! TO.N,Net-(J5-Pad26)*
X182670000Y-131550000D03*
G04 #@! TO.P,J5,27*
G04 #@! TO.N,/id_sda*
X180130000Y-129010000D03*
G04 #@! TO.P,J5,28*
G04 #@! TO.N,/id_clk*
X180130000Y-131550000D03*
G04 #@! TO.P,J5,29*
G04 #@! TO.N,Net-(J5-Pad29)*
X177590000Y-129010000D03*
G04 #@! TO.P,J5,30*
G04 #@! TO.N,GND*
X177590000Y-131550000D03*
G04 #@! TO.P,J5,31*
G04 #@! TO.N,Net-(J5-Pad31)*
X175050000Y-129010000D03*
G04 #@! TO.P,J5,32*
G04 #@! TO.N,Net-(J5-Pad32)*
X175050000Y-131550000D03*
G04 #@! TO.P,J5,33*
G04 #@! TO.N,Net-(J5-Pad33)*
X172510000Y-129010000D03*
G04 #@! TO.P,J5,34*
G04 #@! TO.N,GND*
X172510000Y-131550000D03*
G04 #@! TO.P,J5,35*
G04 #@! TO.N,Net-(J5-Pad35)*
X169970000Y-129010000D03*
G04 #@! TO.P,J5,36*
G04 #@! TO.N,Net-(J5-Pad36)*
X169970000Y-131550000D03*
G04 #@! TO.P,J5,37*
G04 #@! TO.N,Net-(J5-Pad37)*
X167430000Y-129010000D03*
G04 #@! TO.P,J5,38*
G04 #@! TO.N,Net-(J5-Pad38)*
X167430000Y-131550000D03*
G04 #@! TO.P,J5,39*
G04 #@! TO.N,GND*
X164890000Y-129010000D03*
G04 #@! TO.P,J5,40*
G04 #@! TO.N,Net-(J5-Pad40)*
X164890000Y-131550000D03*
G04 #@! TD*
D11*
G04 #@! TO.P,J13,2*
G04 #@! TO.N,Net-(J13-Pad2)*
X167640000Y-123444000D03*
D12*
G04 #@! TO.P,J13,1*
G04 #@! TO.N,Net-(J13-Pad1)*
X167640000Y-120904000D03*
G04 #@! TD*
G04 #@! TO.P,J4,1*
G04 #@! TO.N,Net-(J4-Pad1)*
X163195000Y-97155000D03*
D11*
G04 #@! TO.P,J4,2*
G04 #@! TO.N,Net-(J4-Pad2)*
X163195000Y-99695000D03*
G04 #@! TD*
D13*
G04 #@! TO.P,J1,6*
G04 #@! TO.N,Net-(J1-Pad6)*
X219047000Y-96355000D03*
X219047000Y-101815000D03*
D14*
X216047000Y-96665000D03*
X216047000Y-101505000D03*
G04 #@! TD*
D11*
G04 #@! TO.P,J2,8*
G04 #@! TO.N,Net-(J2-Pad8)*
X165735000Y-109220000D03*
G04 #@! TO.P,J2,7*
G04 #@! TO.N,Net-(J2-Pad7)*
X165735000Y-106680000D03*
G04 #@! TO.P,J2,6*
G04 #@! TO.N,Net-(J2-Pad6)*
X168275000Y-109220000D03*
G04 #@! TO.P,J2,5*
G04 #@! TO.N,Net-(J2-Pad5)*
X168275000Y-106680000D03*
G04 #@! TO.P,J2,4*
G04 #@! TO.N,Net-(J2-Pad4)*
X170815000Y-109220000D03*
G04 #@! TO.P,J2,3*
G04 #@! TO.N,Net-(J2-Pad3)*
X170815000Y-106680000D03*
G04 #@! TO.P,J2,2*
G04 #@! TO.N,Net-(J2-Pad2)*
X173355000Y-109220000D03*
D12*
G04 #@! TO.P,J2,1*
G04 #@! TO.N,Net-(J2-Pad1)*
X173355000Y-106680000D03*
G04 #@! TD*
D11*
G04 #@! TO.P,J3,2*
G04 #@! TO.N,Net-(J3-Pad2)*
X163195000Y-88900000D03*
D12*
G04 #@! TO.P,J3,1*
G04 #@! TO.N,Net-(J3-Pad1)*
X163195000Y-91440000D03*
G04 #@! TD*
G04 #@! TO.P,J7,1*
G04 #@! TO.N,VCC*
X211518500Y-112776000D03*
D11*
G04 #@! TO.P,J7,2*
G04 #@! TO.N,GND*
X214058500Y-112776000D03*
G04 #@! TD*
D12*
G04 #@! TO.P,J11,1*
G04 #@! TO.N,Net-(J11-Pad1)*
X163068000Y-116332000D03*
D11*
G04 #@! TO.P,J11,2*
G04 #@! TO.N,Net-(J11-Pad2)*
X163068000Y-113792000D03*
G04 #@! TD*
G04 #@! TO.P,J12,2*
G04 #@! TO.N,Net-(J12-Pad2)*
X167640000Y-113792000D03*
D12*
G04 #@! TO.P,J12,1*
G04 #@! TO.N,Net-(J12-Pad1)*
X167640000Y-116332000D03*
G04 #@! TD*
G04 #@! TO.P,J14,1*
G04 #@! TO.N,Net-(J14-Pad1)*
X163068000Y-120904000D03*
D11*
G04 #@! TO.P,J14,2*
G04 #@! TO.N,Net-(J14-Pad2)*
X163068000Y-123444000D03*
G04 #@! TD*
D15*
G04 #@! TO.N,+3V3*
X210312000Y-102108000D03*
X183896000Y-91270000D03*
G04 #@! TO.N,GND*
X179070000Y-89535000D03*
X204114500Y-93497500D03*
X201823500Y-90000000D03*
X212979000Y-84106000D03*
X183309500Y-108775500D03*
X181610000Y-112141000D03*
X172792000Y-119761000D03*
X171958000Y-120205500D03*
X217170000Y-112776000D03*
X203622500Y-115992500D03*
X201580500Y-84106000D03*
X169418000Y-89916000D03*
X168497000Y-83598000D03*
X177632000Y-85366500D03*
X185674000Y-115062000D03*
X212918500Y-109604000D03*
X207451500Y-109604000D03*
X204724000Y-105664000D03*
X207010000Y-106235500D03*
X213360000Y-97993000D03*
X211734500Y-94488000D03*
X207264000Y-102108000D03*
X183897000Y-118364000D03*
X213360000Y-95478500D03*
X206311500Y-116332000D03*
X208788000Y-116191000D03*
X180391000Y-110744000D03*
G04 #@! TO.N,+5V*
X217675500Y-93980000D03*
X213169500Y-102743000D03*
G04 #@! TO.N,/RESET*
X183980000Y-92540000D03*
X201993500Y-101092000D03*
G04 #@! TO.N,Net-(D1-Pad1)*
X210881002Y-104140000D03*
X213106000Y-100076000D03*
G04 #@! TO.N,Net-(D2-Pad1)*
X213106000Y-98831000D03*
X208538000Y-102870000D03*
G04 #@! TO.N,Net-(F1-Pad1)*
X211201000Y-101790500D03*
X211201000Y-101790500D03*
X213931500Y-93662500D03*
G04 #@! TO.N,Net-(J2-Pad6)*
X168275000Y-111125000D03*
X178605000Y-97620000D03*
G04 #@! TO.N,Net-(J2-Pad5)*
X165608000Y-104140000D03*
G04 #@! TO.N,Net-(J2-Pad1)*
X179240000Y-105240000D03*
G04 #@! TO.N,Net-(J11-Pad1)*
X179873000Y-118405000D03*
X171450000Y-116840000D03*
G04 #@! TO.N,Net-(J11-Pad2)*
X179152968Y-117230990D03*
G04 #@! TO.N,Net-(J12-Pad2)*
X180523000Y-117927000D03*
G04 #@! TO.N,Net-(J12-Pad1)*
X181173000Y-118435000D03*
G04 #@! TO.N,Net-(J13-Pad1)*
X182273010Y-121285000D03*
G04 #@! TO.N,Net-(J13-Pad2)*
X180340000Y-123190000D03*
X175641000Y-122936000D03*
G04 #@! TO.N,Net-(J14-Pad2)*
X184121256Y-122041423D03*
G04 #@! TO.N,Net-(J14-Pad1)*
X184404000Y-120904000D03*
G04 #@! TO.N,Net-(JP3-Pad1)*
X176530000Y-111125000D03*
X179223000Y-115417000D03*
G04 #@! TO.N,Net-(SW2-Pad1)*
X202120500Y-88106000D03*
X202374500Y-109855000D03*
G04 #@! TO.N,/sda0*
X201866500Y-99187000D03*
G04 #@! TO.N,/scl0*
X201676000Y-116840000D03*
X202798500Y-92540000D03*
G04 #@! TO.N,/rx*
X201760000Y-103970000D03*
G04 #@! TO.N,/tx*
X202395000Y-102700000D03*
G04 #@! TO.N,/mosi*
X195750000Y-91270000D03*
G04 #@! TO.N,/miso*
X197124500Y-98890000D03*
G04 #@! TO.N,/clk*
X196004000Y-100160000D03*
G04 #@! TO.N,/cs*
X197729010Y-101860281D03*
G04 #@! TO.N,Net-(J5-Pad35)*
X180975000Y-127000000D03*
G04 #@! TO.N,/id_sda*
X188722000Y-121412000D03*
G04 #@! TO.N,/id_clk*
X191658000Y-119746000D03*
G04 #@! TO.N,Net-(JP4-Pad2)*
X182978000Y-112395000D03*
X182435500Y-125793500D03*
G04 #@! TO.N,Net-(JP7-Pad2)*
X183903000Y-115570000D03*
X186162012Y-121950839D03*
G04 #@! TO.N,Net-(J4-Pad1)*
X186055000Y-105841800D03*
G04 #@! TO.N,Net-(J4-Pad2)*
X184632600Y-105029000D03*
G04 #@! TO.N,Net-(R14-Pad1)*
X179832000Y-112776000D03*
X195262500Y-111506000D03*
G04 #@! TO.N,Net-(R13-Pad1)*
X192722500Y-109982000D03*
X177038000Y-112776000D03*
G04 #@! TD*
D16*
G04 #@! TO.N,+5V*
X213556010Y-102356490D02*
X213169500Y-102743000D01*
X213556010Y-100550992D02*
X213556010Y-102356490D01*
X214376000Y-99731002D02*
X213556010Y-100550992D01*
X217675500Y-93980000D02*
X216659500Y-94996000D01*
X216659500Y-94996000D02*
X215900000Y-94996000D01*
X215900000Y-94996000D02*
X214376000Y-96520000D01*
X214376000Y-96520000D02*
X214376000Y-99731002D01*
G04 #@! TO.N,/RESET*
X196050001Y-90644999D02*
X185875001Y-90644999D01*
X185875001Y-90644999D02*
X184279999Y-92240001D01*
X200602011Y-99700511D02*
X200602011Y-95197009D01*
X184279999Y-92240001D02*
X183980000Y-92540000D01*
X200602011Y-95197009D02*
X196050001Y-90644999D01*
X201993500Y-101092000D02*
X200602011Y-99700511D01*
G04 #@! TO.N,Net-(D1-Pad1)*
X213106000Y-101915002D02*
X210881002Y-104140000D01*
X213106000Y-100076000D02*
X213106000Y-101915002D01*
G04 #@! TO.N,Net-(D2-Pad1)*
X212090000Y-102108000D02*
X212090000Y-99847000D01*
X212090000Y-99847000D02*
X213106000Y-98831000D01*
X211328000Y-102870000D02*
X212090000Y-102108000D01*
X208538000Y-102870000D02*
X211328000Y-102870000D01*
G04 #@! TO.N,Net-(F1-Pad1)*
X213631501Y-93962499D02*
X213931500Y-93662500D01*
X212480999Y-95113001D02*
X213631501Y-93962499D01*
X211639991Y-101351509D02*
X211639991Y-99660599D01*
X212480999Y-98819591D02*
X212480999Y-95113001D01*
X211639991Y-99660599D02*
X212480999Y-98819591D01*
X211201000Y-101790500D02*
X211639991Y-101351509D01*
G04 #@! TO.N,Net-(J2-Pad6)*
X168574999Y-110825001D02*
X168275000Y-111125000D01*
X169450001Y-109949999D02*
X168574999Y-110825001D01*
X169450001Y-103599999D02*
X169450001Y-109949999D01*
X175430000Y-97620000D02*
X169450001Y-103599999D01*
X178605000Y-97620000D02*
X175430000Y-97620000D01*
G04 #@! TO.N,Net-(J2-Pad5)*
X165608000Y-104140000D02*
X165608000Y-104140000D01*
X168275000Y-106680000D02*
X167005000Y-105410000D01*
X167005000Y-105410000D02*
X166370000Y-105410000D01*
X165608000Y-104648000D02*
X165608000Y-104140000D01*
X166370000Y-105410000D02*
X165608000Y-104648000D01*
G04 #@! TO.N,Net-(J2-Pad1)*
X177800000Y-106680000D02*
X179240000Y-105240000D01*
X173355000Y-106680000D02*
X177800000Y-106680000D01*
G04 #@! TO.N,Net-(J11-Pad1)*
X171450000Y-116840000D02*
X171450000Y-116840000D01*
X172212000Y-116840000D02*
X171450000Y-116840000D01*
X179873000Y-118405000D02*
X179324000Y-117856000D01*
X173228000Y-117856000D02*
X172212000Y-116840000D01*
X179324000Y-117856000D02*
X173228000Y-117856000D01*
G04 #@! TO.N,Net-(J11-Pad2)*
X163068000Y-113792000D02*
X164243001Y-114967001D01*
X178852969Y-116930991D02*
X179152968Y-117230990D01*
X176888979Y-114967001D02*
X178852969Y-116930991D01*
X164243001Y-114967001D02*
X176888979Y-114967001D01*
G04 #@! TO.N,Net-(J12-Pad2)*
X176530000Y-113792000D02*
X179343989Y-116605989D01*
X179626253Y-116605989D02*
X180523000Y-117502736D01*
X167640000Y-113792000D02*
X176530000Y-113792000D01*
X179343989Y-116605989D02*
X179626253Y-116605989D01*
X180523000Y-117502736D02*
X180523000Y-117927000D01*
G04 #@! TO.N,Net-(J12-Pad1)*
X169672000Y-116332000D02*
X167640000Y-116332000D01*
X171704000Y-118364000D02*
X169672000Y-116332000D01*
X181173000Y-118435000D02*
X180577999Y-119030001D01*
X180577999Y-119030001D02*
X176784000Y-119030001D01*
X176784000Y-119030001D02*
X176117999Y-118364000D01*
X176117999Y-118364000D02*
X171704000Y-118364000D01*
G04 #@! TO.N,Net-(J13-Pad1)*
X182146010Y-121412000D02*
X182273010Y-121285000D01*
X168148000Y-121412000D02*
X182146010Y-121412000D01*
X167640000Y-120904000D02*
X168148000Y-121412000D01*
G04 #@! TO.N,Net-(J13-Pad2)*
X176657000Y-123952000D02*
X175641000Y-122936000D01*
X179578000Y-123952000D02*
X176657000Y-123952000D01*
X180340000Y-123190000D02*
X179578000Y-123952000D01*
G04 #@! TO.N,Net-(J14-Pad2)*
X164243001Y-124619001D02*
X181543678Y-124619001D01*
X181543678Y-124619001D02*
X183821257Y-122341422D01*
X183821257Y-122341422D02*
X184121256Y-122041423D01*
X163068000Y-123444000D02*
X164243001Y-124619001D01*
G04 #@! TO.N,Net-(J14-Pad1)*
X165343001Y-122079001D02*
X182404011Y-122079001D01*
X164168000Y-120904000D02*
X165343001Y-122079001D01*
X163068000Y-120904000D02*
X164168000Y-120904000D01*
X183579012Y-120904000D02*
X183979736Y-120904000D01*
X183979736Y-120904000D02*
X184404000Y-120904000D01*
X182404011Y-122079001D02*
X183579012Y-120904000D01*
G04 #@! TO.N,Net-(JP3-Pad1)*
X176225200Y-111429800D02*
X176225200Y-112850790D01*
X176225200Y-112850790D02*
X177674410Y-114300000D01*
X176530000Y-111125000D02*
X176225200Y-111429800D01*
X178106000Y-114300000D02*
X179223000Y-115417000D01*
X177674410Y-114300000D02*
X178106000Y-114300000D01*
G04 #@! TO.N,Net-(SW2-Pad1)*
X206057500Y-106172000D02*
X202374500Y-109855000D01*
X206057500Y-92043000D02*
X206057500Y-106172000D01*
X202120500Y-88106000D02*
X206057500Y-92043000D01*
G04 #@! TO.N,/sda0*
X200152000Y-122936000D02*
X202562500Y-125346500D01*
X203263500Y-104330500D02*
X200723500Y-106870500D01*
X202562500Y-125346500D02*
X206946500Y-125346500D01*
X203263500Y-100584000D02*
X203263500Y-104330500D01*
X200723500Y-106870500D02*
X200723500Y-121348500D01*
X200723500Y-121348500D02*
X200152000Y-121920000D01*
X200152000Y-121920000D02*
X200152000Y-122936000D01*
X201866500Y-99187000D02*
X203263500Y-100584000D01*
X206946500Y-125346500D02*
X210610000Y-129010000D01*
G04 #@! TO.N,/scl0*
X201173510Y-116337510D02*
X201676000Y-116840000D01*
X201173510Y-112325990D02*
X201173510Y-116337510D01*
X201554510Y-111944990D02*
X201173510Y-112325990D01*
X201554510Y-109749988D02*
X201554510Y-111944990D01*
X202798500Y-92540000D02*
X202798500Y-99482590D01*
X203713510Y-100397600D02*
X203713510Y-107590988D01*
X202798500Y-99482590D02*
X203713510Y-100397600D01*
X203713510Y-107590988D02*
X201554510Y-109749988D01*
G04 #@! TO.N,/rx*
X199930906Y-105799094D02*
X201760000Y-103970000D01*
X199136000Y-122206906D02*
X199930906Y-121412000D01*
X205530000Y-131550000D02*
X204254801Y-130274801D01*
X199136000Y-123284094D02*
X199136000Y-122206906D01*
X199930906Y-121412000D02*
X199930906Y-105799094D01*
X204254801Y-130274801D02*
X204254801Y-128402895D01*
X204254801Y-128402895D02*
X199136000Y-123284094D01*
G04 #@! TO.N,/tx*
X199136000Y-121570496D02*
X198120000Y-122586496D01*
X198120000Y-124808094D02*
X201714801Y-128402895D01*
X198120000Y-122586496D02*
X198120000Y-124808094D01*
X199136000Y-105534736D02*
X199136000Y-121570496D01*
X201714801Y-128402895D02*
X201714801Y-130274801D01*
X202050201Y-130610201D02*
X202990000Y-131550000D01*
X201714801Y-130274801D02*
X202050201Y-130610201D01*
X201970736Y-102700000D02*
X199136000Y-105534736D01*
X202395000Y-102700000D02*
X201970736Y-102700000D01*
G04 #@! TO.N,/mosi*
X198691500Y-102459206D02*
X198691500Y-105342825D01*
X191229799Y-128070201D02*
X190290000Y-129010000D01*
X199136000Y-102014706D02*
X198691500Y-102459206D01*
X198685989Y-105348336D02*
X198685989Y-120614011D01*
X198685989Y-120614011D02*
X191229799Y-128070201D01*
X195750000Y-91270000D02*
X199136000Y-94656000D01*
X198691500Y-105342825D02*
X198685989Y-105348336D01*
X199136000Y-94656000D02*
X199136000Y-102014706D01*
G04 #@! TO.N,/miso*
X198354012Y-101560279D02*
X198354012Y-102160283D01*
X198062011Y-118697989D02*
X188689799Y-128070201D01*
X198062011Y-102452284D02*
X198062011Y-118697989D01*
X197124500Y-98890000D02*
X197124500Y-100330767D01*
X188689799Y-128070201D02*
X187750000Y-129010000D01*
X197124500Y-100330767D02*
X198354012Y-101560279D01*
X198354012Y-102160283D02*
X198062011Y-102452284D01*
G04 #@! TO.N,/clk*
X197104000Y-117116000D02*
X185210000Y-129010000D01*
X197104000Y-101260000D02*
X197104000Y-117116000D01*
X196004000Y-100160000D02*
X197104000Y-101260000D01*
G04 #@! TO.N,/cs*
X186485199Y-130274801D02*
X186485199Y-128371211D01*
X197554011Y-102035280D02*
X197729010Y-101860281D01*
X186485199Y-128371211D02*
X197554011Y-117302400D01*
X185210000Y-131550000D02*
X186485199Y-130274801D01*
X197554011Y-110744000D02*
X197554011Y-102035280D01*
X197554011Y-117302400D02*
X197554011Y-110744000D01*
G04 #@! TO.N,Net-(J5-Pad35)*
X171980000Y-127000000D02*
X169970000Y-129010000D01*
X180975000Y-127000000D02*
X171980000Y-127000000D01*
G04 #@! TO.N,/id_sda*
X187728000Y-121412000D02*
X180130000Y-129010000D01*
X188722000Y-121412000D02*
X187728000Y-121412000D01*
G04 #@! TO.N,/id_clk*
X181069799Y-130610201D02*
X180130000Y-131550000D01*
X183277105Y-130274801D02*
X181405199Y-130274801D01*
X181405199Y-130274801D02*
X181069799Y-130610201D01*
X183934801Y-129617105D02*
X183277105Y-130274801D01*
X183934801Y-128231199D02*
X183934801Y-129617105D01*
X191658000Y-120508000D02*
X183934801Y-128231199D01*
X191658000Y-119746000D02*
X191658000Y-120508000D01*
G04 #@! TO.N,Net-(JP4-Pad2)*
X182735499Y-125493501D02*
X182435500Y-125793500D01*
X185537002Y-122691998D02*
X182735499Y-125493501D01*
X182978000Y-112395000D02*
X181356000Y-114017000D01*
X181356000Y-114017000D02*
X181356000Y-116930996D01*
X185537002Y-121111998D02*
X185537002Y-122691998D01*
X181356000Y-116930996D02*
X185537002Y-121111998D01*
G04 #@! TO.N,Net-(JP7-Pad2)*
X186162012Y-117829012D02*
X186162012Y-121526575D01*
X183903000Y-115570000D02*
X186162012Y-117829012D01*
X186162012Y-121526575D02*
X186162012Y-121950839D01*
G04 #@! TO.N,Net-(J4-Pad1)*
X186055000Y-103508588D02*
X186055000Y-105417536D01*
X179091402Y-96544990D02*
X186055000Y-103508588D01*
X164905011Y-96544989D02*
X179091402Y-96544990D01*
X186055000Y-105417536D02*
X186055000Y-105841800D01*
X164295000Y-97155000D02*
X164905011Y-96544989D01*
X163195000Y-97155000D02*
X164295000Y-97155000D01*
G04 #@! TO.N,Net-(J4-Pad2)*
X164044999Y-98845001D02*
X163195000Y-99695000D01*
X165895001Y-96994999D02*
X164044999Y-98845001D01*
X178905001Y-96994999D02*
X165895001Y-96994999D01*
X184632600Y-102722598D02*
X178905001Y-96994999D01*
X184632600Y-105029000D02*
X184632600Y-102722598D01*
G04 #@! TO.N,Net-(R14-Pad1)*
X193230500Y-111043999D02*
X193230500Y-111043999D01*
X194800499Y-111043999D02*
X195262500Y-111506000D01*
X181564001Y-111043999D02*
X194800499Y-111043999D01*
X179832000Y-112776000D02*
X181564001Y-111043999D01*
G04 #@! TO.N,Net-(R13-Pad1)*
X179832000Y-109982000D02*
X177337999Y-112476001D01*
X192722500Y-109982000D02*
X192722500Y-109982000D01*
X192722500Y-109982000D02*
X179832000Y-109982000D01*
X177337999Y-112476001D02*
X177038000Y-112776000D01*
G04 #@! TD*
D17*
G04 #@! TO.N,GND*
G36*
X218619123Y-78431815D02*
X219226198Y-78644239D01*
X219770782Y-78986425D01*
X220225575Y-79441218D01*
X220567761Y-79985802D01*
X220780185Y-80592877D01*
X220853000Y-81239128D01*
X220853000Y-130088872D01*
X220780185Y-130735123D01*
X220567761Y-131342198D01*
X220225575Y-131886782D01*
X219770782Y-132341575D01*
X219226198Y-132683761D01*
X218619123Y-132896185D01*
X217972872Y-132969000D01*
X208788766Y-132969000D01*
X208908077Y-132919580D01*
X208999363Y-132658968D01*
X208070000Y-131729605D01*
X207140637Y-132658968D01*
X207231923Y-132919580D01*
X207366146Y-132969000D01*
X198628766Y-132969000D01*
X198748077Y-132919580D01*
X198839363Y-132658968D01*
X197910000Y-131729605D01*
X196980637Y-132658968D01*
X197071923Y-132919580D01*
X197206146Y-132969000D01*
X191008766Y-132969000D01*
X191128077Y-132919580D01*
X191219363Y-132658968D01*
X190290000Y-131729605D01*
X189360637Y-132658968D01*
X189451923Y-132919580D01*
X189586146Y-132969000D01*
X178308766Y-132969000D01*
X178428077Y-132919580D01*
X178519363Y-132658968D01*
X177590000Y-131729605D01*
X176660637Y-132658968D01*
X176751923Y-132919580D01*
X176886146Y-132969000D01*
X173228766Y-132969000D01*
X173348077Y-132919580D01*
X173439363Y-132658968D01*
X172510000Y-131729605D01*
X171580637Y-132658968D01*
X171671923Y-132919580D01*
X171806146Y-132969000D01*
X159979128Y-132969000D01*
X159332877Y-132896185D01*
X158725802Y-132683761D01*
X158181218Y-132341575D01*
X157726425Y-131886782D01*
X157384239Y-131342198D01*
X157171815Y-130735123D01*
X157099000Y-130088872D01*
X157099000Y-129916587D01*
X158193000Y-129916587D01*
X158193000Y-130643413D01*
X158471144Y-131314912D01*
X158985088Y-131828856D01*
X159656587Y-132107000D01*
X160383413Y-132107000D01*
X161054912Y-131828856D01*
X161568856Y-131314912D01*
X161575853Y-131298018D01*
X163623200Y-131298018D01*
X163623200Y-131801982D01*
X163816059Y-132267585D01*
X164172415Y-132623941D01*
X164638018Y-132816800D01*
X165141982Y-132816800D01*
X165607585Y-132623941D01*
X165963941Y-132267585D01*
X166156800Y-131801982D01*
X166156800Y-131298018D01*
X166163200Y-131298018D01*
X166163200Y-131801982D01*
X166356059Y-132267585D01*
X166712415Y-132623941D01*
X167178018Y-132816800D01*
X167681982Y-132816800D01*
X168147585Y-132623941D01*
X168503941Y-132267585D01*
X168696800Y-131801982D01*
X168696800Y-131298018D01*
X168703200Y-131298018D01*
X168703200Y-131801982D01*
X168896059Y-132267585D01*
X169252415Y-132623941D01*
X169718018Y-132816800D01*
X170221982Y-132816800D01*
X170687585Y-132623941D01*
X171043941Y-132267585D01*
X171067226Y-132211370D01*
X171140420Y-132388077D01*
X171401032Y-132479363D01*
X172330395Y-131550000D01*
X172689605Y-131550000D01*
X173618968Y-132479363D01*
X173879580Y-132388077D01*
X173948469Y-132200977D01*
X173976059Y-132267585D01*
X174332415Y-132623941D01*
X174798018Y-132816800D01*
X175301982Y-132816800D01*
X175767585Y-132623941D01*
X176123941Y-132267585D01*
X176147226Y-132211370D01*
X176220420Y-132388077D01*
X176481032Y-132479363D01*
X177410395Y-131550000D01*
X176481032Y-130620637D01*
X176220420Y-130711923D01*
X176151531Y-130899023D01*
X176123941Y-130832415D01*
X175767585Y-130476059D01*
X175301982Y-130283200D01*
X174798018Y-130283200D01*
X174332415Y-130476059D01*
X173976059Y-130832415D01*
X173952774Y-130888630D01*
X173879580Y-130711923D01*
X173618968Y-130620637D01*
X172689605Y-131550000D01*
X172330395Y-131550000D01*
X171401032Y-130620637D01*
X171140420Y-130711923D01*
X171071531Y-130899023D01*
X171043941Y-130832415D01*
X170687585Y-130476059D01*
X170221982Y-130283200D01*
X169718018Y-130283200D01*
X169252415Y-130476059D01*
X168896059Y-130832415D01*
X168703200Y-131298018D01*
X168696800Y-131298018D01*
X168503941Y-130832415D01*
X168147585Y-130476059D01*
X167681982Y-130283200D01*
X167178018Y-130283200D01*
X166712415Y-130476059D01*
X166356059Y-130832415D01*
X166163200Y-131298018D01*
X166156800Y-131298018D01*
X165963941Y-130832415D01*
X165607585Y-130476059D01*
X165551370Y-130452774D01*
X165728077Y-130379580D01*
X165819363Y-130118968D01*
X164890000Y-129189605D01*
X163960637Y-130118968D01*
X164051923Y-130379580D01*
X164239023Y-130448469D01*
X164172415Y-130476059D01*
X163816059Y-130832415D01*
X163623200Y-131298018D01*
X161575853Y-131298018D01*
X161847000Y-130643413D01*
X161847000Y-129916587D01*
X161568856Y-129245088D01*
X161083601Y-128759833D01*
X163303955Y-128759833D01*
X163328951Y-129385828D01*
X163520420Y-129848077D01*
X163781032Y-129939363D01*
X164710395Y-129010000D01*
X165069605Y-129010000D01*
X165998968Y-129939363D01*
X166259580Y-129848077D01*
X166328469Y-129660977D01*
X166356059Y-129727585D01*
X166712415Y-130083941D01*
X167178018Y-130276800D01*
X167681982Y-130276800D01*
X168147585Y-130083941D01*
X168503941Y-129727585D01*
X168696800Y-129261982D01*
X168696800Y-128758018D01*
X168503941Y-128292415D01*
X168147585Y-127936059D01*
X167681982Y-127743200D01*
X167178018Y-127743200D01*
X166712415Y-127936059D01*
X166356059Y-128292415D01*
X166332774Y-128348630D01*
X166259580Y-128171923D01*
X165998968Y-128080637D01*
X165069605Y-129010000D01*
X164710395Y-129010000D01*
X163781032Y-128080637D01*
X163520420Y-128171923D01*
X163303955Y-128759833D01*
X161083601Y-128759833D01*
X161054912Y-128731144D01*
X160383413Y-128453000D01*
X159656587Y-128453000D01*
X158985088Y-128731144D01*
X158471144Y-129245088D01*
X158193000Y-129916587D01*
X157099000Y-129916587D01*
X157099000Y-127901032D01*
X163960637Y-127901032D01*
X164890000Y-128830395D01*
X165819363Y-127901032D01*
X165728077Y-127640420D01*
X165140167Y-127423955D01*
X164514172Y-127448951D01*
X164051923Y-127640420D01*
X163960637Y-127901032D01*
X157099000Y-127901032D01*
X157099000Y-123444000D01*
X161867942Y-123444000D01*
X161959291Y-123903242D01*
X162219431Y-124292569D01*
X162608758Y-124552709D01*
X162952080Y-124621000D01*
X163183920Y-124621000D01*
X163527242Y-124552709D01*
X163533382Y-124548606D01*
X163891908Y-124907132D01*
X163917127Y-124944875D01*
X164066639Y-125044776D01*
X164198483Y-125071001D01*
X164198484Y-125071001D01*
X164243000Y-125079856D01*
X164287517Y-125071001D01*
X181499160Y-125071001D01*
X181543678Y-125079856D01*
X181588196Y-125071001D01*
X181720040Y-125044776D01*
X181869552Y-124944875D01*
X181894771Y-124907132D01*
X184133481Y-122668423D01*
X184245974Y-122668423D01*
X184476423Y-122572968D01*
X184652801Y-122396590D01*
X184748256Y-122166141D01*
X184748256Y-121916705D01*
X184652801Y-121686256D01*
X184497545Y-121531000D01*
X184528718Y-121531000D01*
X184759167Y-121435545D01*
X184935545Y-121259167D01*
X184967588Y-121181809D01*
X185085002Y-121299223D01*
X185085003Y-122504773D01*
X182447368Y-125142408D01*
X182447365Y-125142410D01*
X182423275Y-125166500D01*
X182310782Y-125166500D01*
X182080333Y-125261955D01*
X181903955Y-125438333D01*
X181808500Y-125668782D01*
X181808500Y-125918218D01*
X181903955Y-126148667D01*
X182080333Y-126325045D01*
X182147789Y-126352986D01*
X181602000Y-126898776D01*
X181602000Y-126875282D01*
X181506545Y-126644833D01*
X181330167Y-126468455D01*
X181099718Y-126373000D01*
X180850282Y-126373000D01*
X180619833Y-126468455D01*
X180540288Y-126548000D01*
X172024516Y-126548000D01*
X171979999Y-126539145D01*
X171935483Y-126548000D01*
X171935482Y-126548000D01*
X171803638Y-126574225D01*
X171654126Y-126674126D01*
X171628909Y-126711866D01*
X170487567Y-127853209D01*
X170221982Y-127743200D01*
X169718018Y-127743200D01*
X169252415Y-127936059D01*
X168896059Y-128292415D01*
X168703200Y-128758018D01*
X168703200Y-129261982D01*
X168896059Y-129727585D01*
X169252415Y-130083941D01*
X169718018Y-130276800D01*
X170221982Y-130276800D01*
X170687585Y-130083941D01*
X171043941Y-129727585D01*
X171236800Y-129261982D01*
X171236800Y-128758018D01*
X171243200Y-128758018D01*
X171243200Y-129261982D01*
X171436059Y-129727585D01*
X171792415Y-130083941D01*
X171848630Y-130107226D01*
X171671923Y-130180420D01*
X171580637Y-130441032D01*
X172510000Y-131370395D01*
X173439363Y-130441032D01*
X173348077Y-130180420D01*
X173160977Y-130111531D01*
X173227585Y-130083941D01*
X173583941Y-129727585D01*
X173776800Y-129261982D01*
X173776800Y-128758018D01*
X173783200Y-128758018D01*
X173783200Y-129261982D01*
X173976059Y-129727585D01*
X174332415Y-130083941D01*
X174798018Y-130276800D01*
X175301982Y-130276800D01*
X175767585Y-130083941D01*
X176123941Y-129727585D01*
X176316800Y-129261982D01*
X176316800Y-128758018D01*
X176323200Y-128758018D01*
X176323200Y-129261982D01*
X176516059Y-129727585D01*
X176872415Y-130083941D01*
X176928630Y-130107226D01*
X176751923Y-130180420D01*
X176660637Y-130441032D01*
X177590000Y-131370395D01*
X178519363Y-130441032D01*
X178428077Y-130180420D01*
X178240977Y-130111531D01*
X178307585Y-130083941D01*
X178663941Y-129727585D01*
X178856800Y-129261982D01*
X178856800Y-128758018D01*
X178663941Y-128292415D01*
X178307585Y-127936059D01*
X177841982Y-127743200D01*
X177338018Y-127743200D01*
X176872415Y-127936059D01*
X176516059Y-128292415D01*
X176323200Y-128758018D01*
X176316800Y-128758018D01*
X176123941Y-128292415D01*
X175767585Y-127936059D01*
X175301982Y-127743200D01*
X174798018Y-127743200D01*
X174332415Y-127936059D01*
X173976059Y-128292415D01*
X173783200Y-128758018D01*
X173776800Y-128758018D01*
X173583941Y-128292415D01*
X173227585Y-127936059D01*
X172761982Y-127743200D01*
X172258018Y-127743200D01*
X171792415Y-127936059D01*
X171436059Y-128292415D01*
X171243200Y-128758018D01*
X171236800Y-128758018D01*
X171126791Y-128492433D01*
X172167225Y-127452000D01*
X180540288Y-127452000D01*
X180619833Y-127531545D01*
X180850282Y-127627000D01*
X180873776Y-127627000D01*
X180647567Y-127853209D01*
X180381982Y-127743200D01*
X179878018Y-127743200D01*
X179412415Y-127936059D01*
X179056059Y-128292415D01*
X178863200Y-128758018D01*
X178863200Y-129261982D01*
X179056059Y-129727585D01*
X179412415Y-130083941D01*
X179878018Y-130276800D01*
X180381982Y-130276800D01*
X180847585Y-130083941D01*
X181203941Y-129727585D01*
X181227226Y-129671370D01*
X181295334Y-129835799D01*
X181228837Y-129849026D01*
X181079325Y-129948927D01*
X181054107Y-129986668D01*
X180781666Y-130259110D01*
X180647567Y-130393209D01*
X180381982Y-130283200D01*
X179878018Y-130283200D01*
X179412415Y-130476059D01*
X179056059Y-130832415D01*
X179032774Y-130888630D01*
X178959580Y-130711923D01*
X178698968Y-130620637D01*
X177769605Y-131550000D01*
X178698968Y-132479363D01*
X178959580Y-132388077D01*
X179028469Y-132200977D01*
X179056059Y-132267585D01*
X179412415Y-132623941D01*
X179878018Y-132816800D01*
X180381982Y-132816800D01*
X180847585Y-132623941D01*
X181203941Y-132267585D01*
X181396800Y-131801982D01*
X181396800Y-131298018D01*
X181286791Y-131032433D01*
X181420890Y-130898334D01*
X181592424Y-130726801D01*
X181701673Y-130726801D01*
X181596059Y-130832415D01*
X181403200Y-131298018D01*
X181403200Y-131801982D01*
X181596059Y-132267585D01*
X181952415Y-132623941D01*
X182418018Y-132816800D01*
X182921982Y-132816800D01*
X183387585Y-132623941D01*
X183743941Y-132267585D01*
X183936800Y-131801982D01*
X183936800Y-131298018D01*
X183743941Y-130832415D01*
X183548562Y-130637036D01*
X183602979Y-130600675D01*
X183628198Y-130562932D01*
X184222934Y-129968197D01*
X184260675Y-129942979D01*
X184297036Y-129888562D01*
X184492415Y-130083941D01*
X184958018Y-130276800D01*
X185461982Y-130276800D01*
X185927585Y-130083941D01*
X186033199Y-129978327D01*
X186033199Y-130087576D01*
X185727567Y-130393209D01*
X185461982Y-130283200D01*
X184958018Y-130283200D01*
X184492415Y-130476059D01*
X184136059Y-130832415D01*
X183943200Y-131298018D01*
X183943200Y-131801982D01*
X184136059Y-132267585D01*
X184492415Y-132623941D01*
X184958018Y-132816800D01*
X185461982Y-132816800D01*
X185927585Y-132623941D01*
X186283941Y-132267585D01*
X186476800Y-131801982D01*
X186476800Y-131298018D01*
X186483200Y-131298018D01*
X186483200Y-131801982D01*
X186676059Y-132267585D01*
X187032415Y-132623941D01*
X187498018Y-132816800D01*
X188001982Y-132816800D01*
X188467585Y-132623941D01*
X188823941Y-132267585D01*
X188847226Y-132211370D01*
X188920420Y-132388077D01*
X189181032Y-132479363D01*
X190110395Y-131550000D01*
X190469605Y-131550000D01*
X191398968Y-132479363D01*
X191659580Y-132388077D01*
X191728469Y-132200977D01*
X191756059Y-132267585D01*
X192112415Y-132623941D01*
X192578018Y-132816800D01*
X193081982Y-132816800D01*
X193547585Y-132623941D01*
X193903941Y-132267585D01*
X194096800Y-131801982D01*
X194096800Y-131298018D01*
X194103200Y-131298018D01*
X194103200Y-131801982D01*
X194296059Y-132267585D01*
X194652415Y-132623941D01*
X195118018Y-132816800D01*
X195621982Y-132816800D01*
X196087585Y-132623941D01*
X196443941Y-132267585D01*
X196467226Y-132211370D01*
X196540420Y-132388077D01*
X196801032Y-132479363D01*
X197730395Y-131550000D01*
X198089605Y-131550000D01*
X199018968Y-132479363D01*
X199279580Y-132388077D01*
X199348469Y-132200977D01*
X199376059Y-132267585D01*
X199732415Y-132623941D01*
X200198018Y-132816800D01*
X200701982Y-132816800D01*
X201167585Y-132623941D01*
X201523941Y-132267585D01*
X201716800Y-131801982D01*
X201716800Y-131298018D01*
X201523941Y-130832415D01*
X201167585Y-130476059D01*
X200701982Y-130283200D01*
X200198018Y-130283200D01*
X199732415Y-130476059D01*
X199376059Y-130832415D01*
X199352774Y-130888630D01*
X199279580Y-130711923D01*
X199018968Y-130620637D01*
X198089605Y-131550000D01*
X197730395Y-131550000D01*
X196801032Y-130620637D01*
X196540420Y-130711923D01*
X196471531Y-130899023D01*
X196443941Y-130832415D01*
X196087585Y-130476059D01*
X195621982Y-130283200D01*
X195118018Y-130283200D01*
X194652415Y-130476059D01*
X194296059Y-130832415D01*
X194103200Y-131298018D01*
X194096800Y-131298018D01*
X193903941Y-130832415D01*
X193547585Y-130476059D01*
X193081982Y-130283200D01*
X192578018Y-130283200D01*
X192112415Y-130476059D01*
X191756059Y-130832415D01*
X191732774Y-130888630D01*
X191659580Y-130711923D01*
X191398968Y-130620637D01*
X190469605Y-131550000D01*
X190110395Y-131550000D01*
X189181032Y-130620637D01*
X188920420Y-130711923D01*
X188851531Y-130899023D01*
X188823941Y-130832415D01*
X188467585Y-130476059D01*
X188001982Y-130283200D01*
X187498018Y-130283200D01*
X187032415Y-130476059D01*
X186676059Y-130832415D01*
X186483200Y-131298018D01*
X186476800Y-131298018D01*
X186366791Y-131032433D01*
X186773333Y-130625892D01*
X186811073Y-130600675D01*
X186910974Y-130451163D01*
X186937199Y-130319319D01*
X186937199Y-130319318D01*
X186946054Y-130274801D01*
X186937199Y-130230283D01*
X186937199Y-129988725D01*
X187032415Y-130083941D01*
X187498018Y-130276800D01*
X188001982Y-130276800D01*
X188467585Y-130083941D01*
X188823941Y-129727585D01*
X189016800Y-129261982D01*
X189016800Y-128758018D01*
X188906791Y-128492433D01*
X189040889Y-128358335D01*
X198233990Y-119165235D01*
X198233990Y-120426785D01*
X190941665Y-127719111D01*
X190807567Y-127853209D01*
X190541982Y-127743200D01*
X190038018Y-127743200D01*
X189572415Y-127936059D01*
X189216059Y-128292415D01*
X189023200Y-128758018D01*
X189023200Y-129261982D01*
X189216059Y-129727585D01*
X189572415Y-130083941D01*
X189628630Y-130107226D01*
X189451923Y-130180420D01*
X189360637Y-130441032D01*
X190290000Y-131370395D01*
X191219363Y-130441032D01*
X191128077Y-130180420D01*
X190940977Y-130111531D01*
X191007585Y-130083941D01*
X191363941Y-129727585D01*
X191556800Y-129261982D01*
X191556800Y-128758018D01*
X191563200Y-128758018D01*
X191563200Y-129261982D01*
X191756059Y-129727585D01*
X192112415Y-130083941D01*
X192578018Y-130276800D01*
X193081982Y-130276800D01*
X193547585Y-130083941D01*
X193903941Y-129727585D01*
X194096800Y-129261982D01*
X194096800Y-128758018D01*
X194103200Y-128758018D01*
X194103200Y-129261982D01*
X194296059Y-129727585D01*
X194652415Y-130083941D01*
X195118018Y-130276800D01*
X195621982Y-130276800D01*
X196087585Y-130083941D01*
X196443941Y-129727585D01*
X196636800Y-129261982D01*
X196636800Y-128758018D01*
X196643200Y-128758018D01*
X196643200Y-129261982D01*
X196836059Y-129727585D01*
X197192415Y-130083941D01*
X197248630Y-130107226D01*
X197071923Y-130180420D01*
X196980637Y-130441032D01*
X197910000Y-131370395D01*
X198839363Y-130441032D01*
X198748077Y-130180420D01*
X198560977Y-130111531D01*
X198627585Y-130083941D01*
X198983941Y-129727585D01*
X199176800Y-129261982D01*
X199176800Y-128758018D01*
X198983941Y-128292415D01*
X198627585Y-127936059D01*
X198161982Y-127743200D01*
X197658018Y-127743200D01*
X197192415Y-127936059D01*
X196836059Y-128292415D01*
X196643200Y-128758018D01*
X196636800Y-128758018D01*
X196443941Y-128292415D01*
X196087585Y-127936059D01*
X195621982Y-127743200D01*
X195118018Y-127743200D01*
X194652415Y-127936059D01*
X194296059Y-128292415D01*
X194103200Y-128758018D01*
X194096800Y-128758018D01*
X193903941Y-128292415D01*
X193547585Y-127936059D01*
X193081982Y-127743200D01*
X192578018Y-127743200D01*
X192112415Y-127936059D01*
X191756059Y-128292415D01*
X191563200Y-128758018D01*
X191556800Y-128758018D01*
X191446791Y-128492433D01*
X191580889Y-128358335D01*
X198684001Y-121255224D01*
X198684001Y-121383270D01*
X197831869Y-122235403D01*
X197794126Y-122260622D01*
X197698020Y-122404455D01*
X197694225Y-122410135D01*
X197659145Y-122586496D01*
X197668000Y-122631014D01*
X197668001Y-124763572D01*
X197659145Y-124808094D01*
X197694225Y-124984455D01*
X197757970Y-125079856D01*
X197794127Y-125133968D01*
X197831867Y-125159185D01*
X200415881Y-127743200D01*
X200198018Y-127743200D01*
X199732415Y-127936059D01*
X199376059Y-128292415D01*
X199183200Y-128758018D01*
X199183200Y-129261982D01*
X199376059Y-129727585D01*
X199732415Y-130083941D01*
X200198018Y-130276800D01*
X200701982Y-130276800D01*
X201167585Y-130083941D01*
X201262802Y-129988724D01*
X201262802Y-130230279D01*
X201253946Y-130274801D01*
X201289026Y-130451162D01*
X201289027Y-130451163D01*
X201388928Y-130600675D01*
X201426668Y-130625892D01*
X201762067Y-130961292D01*
X201762070Y-130961294D01*
X201833209Y-131032433D01*
X201723200Y-131298018D01*
X201723200Y-131801982D01*
X201916059Y-132267585D01*
X202272415Y-132623941D01*
X202738018Y-132816800D01*
X203241982Y-132816800D01*
X203707585Y-132623941D01*
X204063941Y-132267585D01*
X204256800Y-131801982D01*
X204256800Y-131298018D01*
X204063941Y-130832415D01*
X203707585Y-130476059D01*
X203651370Y-130452774D01*
X203815799Y-130384666D01*
X203829026Y-130451162D01*
X203928927Y-130600675D01*
X203966670Y-130625894D01*
X204373209Y-131032433D01*
X204263200Y-131298018D01*
X204263200Y-131801982D01*
X204456059Y-132267585D01*
X204812415Y-132623941D01*
X205278018Y-132816800D01*
X205781982Y-132816800D01*
X206247585Y-132623941D01*
X206603941Y-132267585D01*
X206627226Y-132211370D01*
X206700420Y-132388077D01*
X206961032Y-132479363D01*
X207890395Y-131550000D01*
X208249605Y-131550000D01*
X209178968Y-132479363D01*
X209439580Y-132388077D01*
X209508469Y-132200977D01*
X209536059Y-132267585D01*
X209892415Y-132623941D01*
X210358018Y-132816800D01*
X210861982Y-132816800D01*
X211327585Y-132623941D01*
X211683941Y-132267585D01*
X211876800Y-131801982D01*
X211876800Y-131298018D01*
X211883200Y-131298018D01*
X211883200Y-131801982D01*
X212076059Y-132267585D01*
X212432415Y-132623941D01*
X212898018Y-132816800D01*
X213401982Y-132816800D01*
X213867585Y-132623941D01*
X214223941Y-132267585D01*
X214416800Y-131801982D01*
X214416800Y-131298018D01*
X214223941Y-130832415D01*
X213867585Y-130476059D01*
X213401982Y-130283200D01*
X212898018Y-130283200D01*
X212432415Y-130476059D01*
X212076059Y-130832415D01*
X211883200Y-131298018D01*
X211876800Y-131298018D01*
X211683941Y-130832415D01*
X211327585Y-130476059D01*
X210861982Y-130283200D01*
X210358018Y-130283200D01*
X209892415Y-130476059D01*
X209536059Y-130832415D01*
X209512774Y-130888630D01*
X209439580Y-130711923D01*
X209178968Y-130620637D01*
X208249605Y-131550000D01*
X207890395Y-131550000D01*
X206961032Y-130620637D01*
X206700420Y-130711923D01*
X206631531Y-130899023D01*
X206603941Y-130832415D01*
X206247585Y-130476059D01*
X205781982Y-130283200D01*
X205278018Y-130283200D01*
X205012433Y-130393209D01*
X204706801Y-130087577D01*
X204706801Y-129978327D01*
X204812415Y-130083941D01*
X205278018Y-130276800D01*
X205781982Y-130276800D01*
X206247585Y-130083941D01*
X206603941Y-129727585D01*
X206796800Y-129261982D01*
X206796800Y-128758018D01*
X206803200Y-128758018D01*
X206803200Y-129261982D01*
X206996059Y-129727585D01*
X207352415Y-130083941D01*
X207408630Y-130107226D01*
X207231923Y-130180420D01*
X207140637Y-130441032D01*
X208070000Y-131370395D01*
X208999363Y-130441032D01*
X208908077Y-130180420D01*
X208720977Y-130111531D01*
X208787585Y-130083941D01*
X209143941Y-129727585D01*
X209336800Y-129261982D01*
X209336800Y-128758018D01*
X209143941Y-128292415D01*
X208787585Y-127936059D01*
X208321982Y-127743200D01*
X207818018Y-127743200D01*
X207352415Y-127936059D01*
X206996059Y-128292415D01*
X206803200Y-128758018D01*
X206796800Y-128758018D01*
X206603941Y-128292415D01*
X206247585Y-127936059D01*
X205781982Y-127743200D01*
X205278018Y-127743200D01*
X204812415Y-127936059D01*
X204617036Y-128131438D01*
X204605892Y-128114761D01*
X204580675Y-128077021D01*
X204542935Y-128051804D01*
X199588000Y-123096870D01*
X199588000Y-122394130D01*
X199700000Y-122282130D01*
X199700001Y-122891478D01*
X199691145Y-122936000D01*
X199726225Y-123112361D01*
X199730078Y-123118127D01*
X199826127Y-123261874D01*
X199863867Y-123287091D01*
X202211408Y-125634633D01*
X202236626Y-125672374D01*
X202274366Y-125697591D01*
X202386138Y-125772275D01*
X202562500Y-125807355D01*
X202607018Y-125798500D01*
X206759276Y-125798500D01*
X209453209Y-128492433D01*
X209343200Y-128758018D01*
X209343200Y-129261982D01*
X209536059Y-129727585D01*
X209892415Y-130083941D01*
X210358018Y-130276800D01*
X210861982Y-130276800D01*
X211327585Y-130083941D01*
X211683941Y-129727585D01*
X211876800Y-129261982D01*
X211876800Y-128758018D01*
X211883200Y-128758018D01*
X211883200Y-129261982D01*
X212076059Y-129727585D01*
X212432415Y-130083941D01*
X212898018Y-130276800D01*
X213401982Y-130276800D01*
X213867585Y-130083941D01*
X214034939Y-129916587D01*
X216193000Y-129916587D01*
X216193000Y-130643413D01*
X216471144Y-131314912D01*
X216985088Y-131828856D01*
X217656587Y-132107000D01*
X218383413Y-132107000D01*
X219054912Y-131828856D01*
X219568856Y-131314912D01*
X219847000Y-130643413D01*
X219847000Y-129916587D01*
X219568856Y-129245088D01*
X219054912Y-128731144D01*
X218383413Y-128453000D01*
X217656587Y-128453000D01*
X216985088Y-128731144D01*
X216471144Y-129245088D01*
X216193000Y-129916587D01*
X214034939Y-129916587D01*
X214223941Y-129727585D01*
X214416800Y-129261982D01*
X214416800Y-128758018D01*
X214223941Y-128292415D01*
X213867585Y-127936059D01*
X213401982Y-127743200D01*
X212898018Y-127743200D01*
X212432415Y-127936059D01*
X212076059Y-128292415D01*
X211883200Y-128758018D01*
X211876800Y-128758018D01*
X211683941Y-128292415D01*
X211327585Y-127936059D01*
X210861982Y-127743200D01*
X210358018Y-127743200D01*
X210092433Y-127853209D01*
X207297593Y-125058369D01*
X207272374Y-125020626D01*
X207122862Y-124920725D01*
X206991018Y-124894500D01*
X206946500Y-124885645D01*
X206901982Y-124894500D01*
X202749725Y-124894500D01*
X200604000Y-122748776D01*
X200604000Y-122107224D01*
X201011633Y-121699592D01*
X201049374Y-121674374D01*
X201149275Y-121524862D01*
X201162869Y-121456518D01*
X201184355Y-121348501D01*
X201175500Y-121303983D01*
X201175500Y-117226212D01*
X201320833Y-117371545D01*
X201551282Y-117467000D01*
X201800718Y-117467000D01*
X202031167Y-117371545D01*
X202207545Y-117195167D01*
X202303000Y-116964718D01*
X202303000Y-116715282D01*
X202207545Y-116484833D01*
X202031167Y-116308455D01*
X201800718Y-116213000D01*
X201688224Y-116213000D01*
X201625510Y-116150286D01*
X201625510Y-112513214D01*
X201842641Y-112296083D01*
X201880384Y-112270864D01*
X201980285Y-112121352D01*
X202006510Y-111989508D01*
X202006510Y-111989507D01*
X202015365Y-111944991D01*
X202011588Y-111926000D01*
X210335094Y-111926000D01*
X210335094Y-113626000D01*
X210360473Y-113753589D01*
X210432746Y-113861754D01*
X210540911Y-113934027D01*
X210668500Y-113959406D01*
X212368500Y-113959406D01*
X212496089Y-113934027D01*
X212604254Y-113861754D01*
X212676527Y-113753589D01*
X212701906Y-113626000D01*
X212701906Y-113313657D01*
X212863317Y-113657358D01*
X213291576Y-114047645D01*
X213701610Y-114217476D01*
X213931500Y-114096155D01*
X213931500Y-112903000D01*
X214185500Y-112903000D01*
X214185500Y-114096155D01*
X214415390Y-114217476D01*
X214825424Y-114047645D01*
X215253683Y-113657358D01*
X215499986Y-113132892D01*
X215379319Y-112903000D01*
X214185500Y-112903000D01*
X213931500Y-112903000D01*
X213911500Y-112903000D01*
X213911500Y-112649000D01*
X213931500Y-112649000D01*
X213931500Y-111455845D01*
X214185500Y-111455845D01*
X214185500Y-112649000D01*
X215379319Y-112649000D01*
X215499986Y-112419108D01*
X215253683Y-111894642D01*
X214825424Y-111504355D01*
X214415390Y-111334524D01*
X214185500Y-111455845D01*
X213931500Y-111455845D01*
X213701610Y-111334524D01*
X213291576Y-111504355D01*
X212863317Y-111894642D01*
X212701906Y-112238343D01*
X212701906Y-111926000D01*
X212676527Y-111798411D01*
X212604254Y-111690246D01*
X212496089Y-111617973D01*
X212368500Y-111592594D01*
X210668500Y-111592594D01*
X210540911Y-111617973D01*
X210432746Y-111690246D01*
X210360473Y-111798411D01*
X210335094Y-111926000D01*
X202011588Y-111926000D01*
X202006510Y-111900474D01*
X202006510Y-110373722D01*
X202019333Y-110386545D01*
X202249782Y-110482000D01*
X202499218Y-110482000D01*
X202729667Y-110386545D01*
X202906045Y-110210167D01*
X203001500Y-109979718D01*
X203001500Y-109867224D01*
X205952137Y-106916587D01*
X216193000Y-106916587D01*
X216193000Y-107643413D01*
X216471144Y-108314912D01*
X216985088Y-108828856D01*
X217656587Y-109107000D01*
X218383413Y-109107000D01*
X219054912Y-108828856D01*
X219568856Y-108314912D01*
X219847000Y-107643413D01*
X219847000Y-106916587D01*
X219568856Y-106245088D01*
X219054912Y-105731144D01*
X218383413Y-105453000D01*
X217656587Y-105453000D01*
X216985088Y-105731144D01*
X216471144Y-106245088D01*
X216193000Y-106916587D01*
X205952137Y-106916587D01*
X206345631Y-106523093D01*
X206383374Y-106497874D01*
X206483275Y-106348362D01*
X206509500Y-106216518D01*
X206518355Y-106172000D01*
X206509500Y-106127482D01*
X206509500Y-102745282D01*
X207911000Y-102745282D01*
X207911000Y-102994718D01*
X208006455Y-103225167D01*
X208182833Y-103401545D01*
X208413282Y-103497000D01*
X208662718Y-103497000D01*
X208893167Y-103401545D01*
X208972712Y-103322000D01*
X211059778Y-103322000D01*
X210868778Y-103513000D01*
X210756284Y-103513000D01*
X210525835Y-103608455D01*
X210349457Y-103784833D01*
X210254002Y-104015282D01*
X210254002Y-104264718D01*
X210349457Y-104495167D01*
X210525835Y-104671545D01*
X210756284Y-104767000D01*
X211005720Y-104767000D01*
X211236169Y-104671545D01*
X211412547Y-104495167D01*
X211508002Y-104264718D01*
X211508002Y-104152224D01*
X212615726Y-103044500D01*
X212637955Y-103098167D01*
X212814333Y-103274545D01*
X213044782Y-103370000D01*
X213294218Y-103370000D01*
X213524667Y-103274545D01*
X213701045Y-103098167D01*
X213796500Y-102867718D01*
X213796500Y-102755225D01*
X213844143Y-102707582D01*
X213881884Y-102682364D01*
X213981785Y-102532852D01*
X214008010Y-102401008D01*
X214016865Y-102356490D01*
X214008010Y-102311972D01*
X214008010Y-101505000D01*
X214952819Y-101505000D01*
X215020884Y-101847188D01*
X215214719Y-102137281D01*
X215504812Y-102331116D01*
X215760625Y-102382000D01*
X216333375Y-102382000D01*
X216589188Y-102331116D01*
X216879281Y-102137281D01*
X217073116Y-101847188D01*
X217079518Y-101815000D01*
X217850370Y-101815000D01*
X217928137Y-102205961D01*
X218149598Y-102537402D01*
X218481039Y-102758863D01*
X218773313Y-102817000D01*
X219320687Y-102817000D01*
X219612961Y-102758863D01*
X219944402Y-102537402D01*
X220165863Y-102205961D01*
X220243630Y-101815000D01*
X220165863Y-101424039D01*
X219944402Y-101092598D01*
X219612961Y-100871137D01*
X219320687Y-100813000D01*
X218773313Y-100813000D01*
X218481039Y-100871137D01*
X218149598Y-101092598D01*
X217928137Y-101424039D01*
X217850370Y-101815000D01*
X217079518Y-101815000D01*
X217141181Y-101505000D01*
X217073116Y-101162812D01*
X216879281Y-100872719D01*
X216589188Y-100678884D01*
X216333375Y-100628000D01*
X215760625Y-100628000D01*
X215504812Y-100678884D01*
X215214719Y-100872719D01*
X215020884Y-101162812D01*
X214952819Y-101505000D01*
X214008010Y-101505000D01*
X214008010Y-100738216D01*
X214664133Y-100082094D01*
X214701874Y-100056876D01*
X214801775Y-99907364D01*
X214828000Y-99775520D01*
X214836855Y-99731002D01*
X214828000Y-99686484D01*
X214828000Y-96707224D01*
X214973327Y-96561897D01*
X214952819Y-96665000D01*
X215020884Y-97007188D01*
X215214719Y-97297281D01*
X215504812Y-97491116D01*
X215760625Y-97542000D01*
X216333375Y-97542000D01*
X216589188Y-97491116D01*
X216879281Y-97297281D01*
X217073116Y-97007188D01*
X217141181Y-96665000D01*
X217079519Y-96355000D01*
X217850370Y-96355000D01*
X217928137Y-96745961D01*
X218149598Y-97077402D01*
X218481039Y-97298863D01*
X218773313Y-97357000D01*
X219320687Y-97357000D01*
X219612961Y-97298863D01*
X219944402Y-97077402D01*
X220165863Y-96745961D01*
X220243630Y-96355000D01*
X220165863Y-95964039D01*
X219944402Y-95632598D01*
X219612961Y-95411137D01*
X219320687Y-95353000D01*
X218773313Y-95353000D01*
X218481039Y-95411137D01*
X218149598Y-95632598D01*
X217928137Y-95964039D01*
X217850370Y-96355000D01*
X217079519Y-96355000D01*
X217073116Y-96322812D01*
X216879281Y-96032719D01*
X216589188Y-95838884D01*
X216333375Y-95788000D01*
X215760625Y-95788000D01*
X215743897Y-95791327D01*
X216087224Y-95448000D01*
X216614982Y-95448000D01*
X216659500Y-95456855D01*
X216704018Y-95448000D01*
X216835862Y-95421775D01*
X216985374Y-95321874D01*
X217010593Y-95284131D01*
X217687725Y-94607000D01*
X217800218Y-94607000D01*
X218030667Y-94511545D01*
X218207045Y-94335167D01*
X218302500Y-94104718D01*
X218302500Y-93855282D01*
X218207045Y-93624833D01*
X218030667Y-93448455D01*
X217800218Y-93353000D01*
X217550782Y-93353000D01*
X217320333Y-93448455D01*
X217143955Y-93624833D01*
X217048500Y-93855282D01*
X217048500Y-93967775D01*
X216472276Y-94544000D01*
X215944516Y-94544000D01*
X215899999Y-94535145D01*
X215855483Y-94544000D01*
X215855482Y-94544000D01*
X215723638Y-94570225D01*
X215574126Y-94670126D01*
X215548907Y-94707869D01*
X214087869Y-96168907D01*
X214050126Y-96194126D01*
X213976043Y-96305000D01*
X213950225Y-96343639D01*
X213915145Y-96520000D01*
X213924000Y-96564518D01*
X213924001Y-99543776D01*
X213669587Y-99798190D01*
X213637545Y-99720833D01*
X213461167Y-99544455D01*
X213241582Y-99453500D01*
X213461167Y-99362545D01*
X213637545Y-99186167D01*
X213733000Y-98955718D01*
X213733000Y-98706282D01*
X213637545Y-98475833D01*
X213461167Y-98299455D01*
X213230718Y-98204000D01*
X212981282Y-98204000D01*
X212932999Y-98223999D01*
X212932999Y-95300225D01*
X213943724Y-94289500D01*
X214056218Y-94289500D01*
X214286667Y-94194045D01*
X214463045Y-94017667D01*
X214558500Y-93787218D01*
X214558500Y-93537782D01*
X214463045Y-93307333D01*
X214286667Y-93130955D01*
X214056218Y-93035500D01*
X213806782Y-93035500D01*
X213576333Y-93130955D01*
X213399955Y-93307333D01*
X213304500Y-93537782D01*
X213304500Y-93650276D01*
X212192866Y-94761910D01*
X212155126Y-94787127D01*
X212129909Y-94824867D01*
X212129908Y-94824868D01*
X212055224Y-94936640D01*
X212020144Y-95113001D01*
X212029000Y-95157523D01*
X212028999Y-98632366D01*
X211351858Y-99309508D01*
X211314118Y-99334725D01*
X211288901Y-99372465D01*
X211288900Y-99372466D01*
X211214216Y-99484238D01*
X211179136Y-99660599D01*
X211187992Y-99705121D01*
X211187991Y-101163500D01*
X211076282Y-101163500D01*
X210845833Y-101258955D01*
X210669455Y-101435333D01*
X210619226Y-101556597D01*
X210436718Y-101481000D01*
X210187282Y-101481000D01*
X209956833Y-101576455D01*
X209780455Y-101752833D01*
X209685000Y-101983282D01*
X209685000Y-102232718D01*
X209761746Y-102418000D01*
X208972712Y-102418000D01*
X208893167Y-102338455D01*
X208662718Y-102243000D01*
X208413282Y-102243000D01*
X208182833Y-102338455D01*
X208006455Y-102514833D01*
X207911000Y-102745282D01*
X206509500Y-102745282D01*
X206509500Y-92087518D01*
X206518355Y-92043000D01*
X206483275Y-91866638D01*
X206439781Y-91801545D01*
X206383374Y-91717126D01*
X206345634Y-91691909D01*
X202747500Y-88093776D01*
X202747500Y-87981282D01*
X202652045Y-87750833D01*
X202475667Y-87574455D01*
X202245218Y-87479000D01*
X201995782Y-87479000D01*
X201765333Y-87574455D01*
X201588955Y-87750833D01*
X201493500Y-87981282D01*
X201493500Y-88230718D01*
X201588955Y-88461167D01*
X201765333Y-88637545D01*
X201995782Y-88733000D01*
X202108276Y-88733000D01*
X205605500Y-92230225D01*
X205605501Y-105984775D01*
X204165510Y-107424766D01*
X204165510Y-100442118D01*
X204174365Y-100397600D01*
X204139285Y-100221238D01*
X204125574Y-100200718D01*
X204039384Y-100071726D01*
X204001641Y-100046507D01*
X203250500Y-99295366D01*
X203250500Y-92974712D01*
X203330045Y-92895167D01*
X203425500Y-92664718D01*
X203425500Y-92415282D01*
X203330045Y-92184833D01*
X203153667Y-92008455D01*
X202923218Y-91913000D01*
X202673782Y-91913000D01*
X202443333Y-92008455D01*
X202266955Y-92184833D01*
X202171500Y-92415282D01*
X202171500Y-92664718D01*
X202266955Y-92895167D01*
X202346500Y-92974712D01*
X202346501Y-98780289D01*
X202221667Y-98655455D01*
X201991218Y-98560000D01*
X201741782Y-98560000D01*
X201511333Y-98655455D01*
X201334955Y-98831833D01*
X201239500Y-99062282D01*
X201239500Y-99311718D01*
X201334955Y-99542167D01*
X201511333Y-99718545D01*
X201741782Y-99814000D01*
X201854276Y-99814000D01*
X202811500Y-100771224D01*
X202811500Y-102229788D01*
X202750167Y-102168455D01*
X202519718Y-102073000D01*
X202270282Y-102073000D01*
X202039833Y-102168455D01*
X201968748Y-102239540D01*
X201909351Y-102251355D01*
X201794374Y-102274225D01*
X201644862Y-102374126D01*
X201619645Y-102411866D01*
X199143500Y-104888012D01*
X199143500Y-102646430D01*
X199424133Y-102365798D01*
X199461874Y-102340580D01*
X199561775Y-102191068D01*
X199588000Y-102059224D01*
X199596855Y-102014706D01*
X199588000Y-101970188D01*
X199588000Y-94822223D01*
X200150012Y-95384235D01*
X200150011Y-99655993D01*
X200141156Y-99700511D01*
X200163730Y-99814000D01*
X200176236Y-99876872D01*
X200276137Y-100026385D01*
X200313880Y-100051604D01*
X201366500Y-101104225D01*
X201366500Y-101216718D01*
X201461955Y-101447167D01*
X201638333Y-101623545D01*
X201868782Y-101719000D01*
X202118218Y-101719000D01*
X202348667Y-101623545D01*
X202525045Y-101447167D01*
X202620500Y-101216718D01*
X202620500Y-100967282D01*
X202525045Y-100736833D01*
X202348667Y-100560455D01*
X202118218Y-100465000D01*
X202005725Y-100465000D01*
X201054011Y-99513287D01*
X201054011Y-95241525D01*
X201062866Y-95197008D01*
X201054011Y-95152491D01*
X201027786Y-95020647D01*
X200927885Y-94871135D01*
X200890145Y-94845918D01*
X196401094Y-90356868D01*
X196375875Y-90319125D01*
X196226363Y-90219224D01*
X196094519Y-90192999D01*
X196050001Y-90184144D01*
X196005483Y-90192999D01*
X185919517Y-90192999D01*
X185875000Y-90184144D01*
X185830484Y-90192999D01*
X185830483Y-90192999D01*
X185698639Y-90219224D01*
X185549127Y-90319125D01*
X185523908Y-90356868D01*
X184523000Y-91357776D01*
X184523000Y-91145282D01*
X184427545Y-90914833D01*
X184251167Y-90738455D01*
X184020718Y-90643000D01*
X183771282Y-90643000D01*
X183540833Y-90738455D01*
X183364455Y-90914833D01*
X183269000Y-91145282D01*
X183269000Y-91394718D01*
X183364455Y-91625167D01*
X183540833Y-91801545D01*
X183771282Y-91897000D01*
X183983775Y-91897000D01*
X183967775Y-91913000D01*
X183855282Y-91913000D01*
X183624833Y-92008455D01*
X183448455Y-92184833D01*
X183353000Y-92415282D01*
X183353000Y-92664718D01*
X183448455Y-92895167D01*
X183624833Y-93071545D01*
X183855282Y-93167000D01*
X184104718Y-93167000D01*
X184335167Y-93071545D01*
X184511545Y-92895167D01*
X184607000Y-92664718D01*
X184607000Y-92552225D01*
X184631090Y-92528135D01*
X184631092Y-92528132D01*
X186062225Y-91096999D01*
X195142999Y-91096999D01*
X195123000Y-91145282D01*
X195123000Y-91394718D01*
X195218455Y-91625167D01*
X195394833Y-91801545D01*
X195625282Y-91897000D01*
X195737776Y-91897000D01*
X198684000Y-94843225D01*
X198684001Y-101240563D01*
X198679886Y-101234405D01*
X198642143Y-101209186D01*
X197576500Y-100143543D01*
X197576500Y-99324712D01*
X197656045Y-99245167D01*
X197751500Y-99014718D01*
X197751500Y-98765282D01*
X197656045Y-98534833D01*
X197479667Y-98358455D01*
X197249218Y-98263000D01*
X196999782Y-98263000D01*
X196769333Y-98358455D01*
X196592955Y-98534833D01*
X196497500Y-98765282D01*
X196497500Y-99014718D01*
X196592955Y-99245167D01*
X196672500Y-99324712D01*
X196672501Y-100189277D01*
X196631000Y-100147776D01*
X196631000Y-100035282D01*
X196535545Y-99804833D01*
X196359167Y-99628455D01*
X196128718Y-99533000D01*
X195879282Y-99533000D01*
X195648833Y-99628455D01*
X195472455Y-99804833D01*
X195377000Y-100035282D01*
X195377000Y-100284718D01*
X195472455Y-100515167D01*
X195648833Y-100691545D01*
X195879282Y-100787000D01*
X195991776Y-100787000D01*
X196652000Y-101447225D01*
X196652001Y-116928774D01*
X185727567Y-127853209D01*
X185461982Y-127743200D01*
X185062024Y-127743200D01*
X191946134Y-120859091D01*
X191983874Y-120833874D01*
X192083775Y-120684362D01*
X192110000Y-120552518D01*
X192118855Y-120508000D01*
X192110000Y-120463482D01*
X192110000Y-120180712D01*
X192189545Y-120101167D01*
X192285000Y-119870718D01*
X192285000Y-119621282D01*
X192189545Y-119390833D01*
X192013167Y-119214455D01*
X191782718Y-119119000D01*
X191533282Y-119119000D01*
X191302833Y-119214455D01*
X191126455Y-119390833D01*
X191031000Y-119621282D01*
X191031000Y-119870718D01*
X191126455Y-120101167D01*
X191206001Y-120180713D01*
X191206001Y-120320774D01*
X183726996Y-127799780D01*
X183713804Y-127786588D01*
X183599362Y-127901030D01*
X183508077Y-127640420D01*
X182920167Y-127423955D01*
X182331775Y-127447450D01*
X187915225Y-121864000D01*
X188287288Y-121864000D01*
X188366833Y-121943545D01*
X188597282Y-122039000D01*
X188846718Y-122039000D01*
X189077167Y-121943545D01*
X189253545Y-121767167D01*
X189349000Y-121536718D01*
X189349000Y-121287282D01*
X189253545Y-121056833D01*
X189077167Y-120880455D01*
X188846718Y-120785000D01*
X188597282Y-120785000D01*
X188366833Y-120880455D01*
X188287288Y-120960000D01*
X187772518Y-120960000D01*
X187728000Y-120951145D01*
X187683482Y-120960000D01*
X187551638Y-120986225D01*
X187402126Y-121086126D01*
X187376909Y-121123866D01*
X186755517Y-121745258D01*
X186693557Y-121595672D01*
X186614012Y-121516127D01*
X186614012Y-117873528D01*
X186622867Y-117829011D01*
X186609644Y-117762535D01*
X186587787Y-117652650D01*
X186487886Y-117503138D01*
X186450143Y-117477919D01*
X184530000Y-115557776D01*
X184530000Y-115445282D01*
X184434545Y-115214833D01*
X184258167Y-115038455D01*
X184027718Y-114943000D01*
X183778282Y-114943000D01*
X183547833Y-115038455D01*
X183371455Y-115214833D01*
X183276000Y-115445282D01*
X183276000Y-115694718D01*
X183371455Y-115925167D01*
X183547833Y-116101545D01*
X183778282Y-116197000D01*
X183890776Y-116197000D01*
X185710012Y-118016236D01*
X185710013Y-120645784D01*
X181808000Y-116743772D01*
X181808000Y-114204224D01*
X182990224Y-113022000D01*
X183102718Y-113022000D01*
X183333167Y-112926545D01*
X183509545Y-112750167D01*
X183605000Y-112519718D01*
X183605000Y-112270282D01*
X183509545Y-112039833D01*
X183333167Y-111863455D01*
X183102718Y-111768000D01*
X182853282Y-111768000D01*
X182622833Y-111863455D01*
X182446455Y-112039833D01*
X182351000Y-112270282D01*
X182351000Y-112382776D01*
X181067869Y-113665907D01*
X181030126Y-113691126D01*
X180931223Y-113839145D01*
X180930225Y-113840639D01*
X180895145Y-114017000D01*
X180904000Y-114061518D01*
X180904001Y-116886474D01*
X180895145Y-116930996D01*
X180930225Y-117107357D01*
X180969325Y-117165874D01*
X181030127Y-117256870D01*
X181067867Y-117282087D01*
X184126191Y-120340412D01*
X184048833Y-120372455D01*
X183969288Y-120452000D01*
X183623528Y-120452000D01*
X183579011Y-120443145D01*
X183534495Y-120452000D01*
X183534494Y-120452000D01*
X183402650Y-120478225D01*
X183253138Y-120578126D01*
X183227919Y-120615869D01*
X182836597Y-121007191D01*
X182804555Y-120929833D01*
X182628177Y-120753455D01*
X182397728Y-120658000D01*
X182148292Y-120658000D01*
X181917843Y-120753455D01*
X181741465Y-120929833D01*
X181728969Y-120960000D01*
X168823406Y-120960000D01*
X168823406Y-120054000D01*
X168798027Y-119926411D01*
X168725754Y-119818246D01*
X168617589Y-119745973D01*
X168490000Y-119720594D01*
X166790000Y-119720594D01*
X166662411Y-119745973D01*
X166554246Y-119818246D01*
X166481973Y-119926411D01*
X166456594Y-120054000D01*
X166456594Y-121627001D01*
X165530225Y-121627001D01*
X164519093Y-120615869D01*
X164493874Y-120578126D01*
X164344362Y-120478225D01*
X164251406Y-120459735D01*
X164251406Y-120054000D01*
X164226027Y-119926411D01*
X164153754Y-119818246D01*
X164045589Y-119745973D01*
X163918000Y-119720594D01*
X162218000Y-119720594D01*
X162090411Y-119745973D01*
X161982246Y-119818246D01*
X161909973Y-119926411D01*
X161884594Y-120054000D01*
X161884594Y-121754000D01*
X161909973Y-121881589D01*
X161982246Y-121989754D01*
X162090411Y-122062027D01*
X162218000Y-122087406D01*
X163918000Y-122087406D01*
X164045589Y-122062027D01*
X164153754Y-121989754D01*
X164226027Y-121881589D01*
X164251406Y-121754000D01*
X164251406Y-121626630D01*
X164991908Y-122367132D01*
X165017127Y-122404875D01*
X165166639Y-122504776D01*
X165298483Y-122531001D01*
X165298484Y-122531001D01*
X165343000Y-122539856D01*
X165387517Y-122531001D01*
X166887857Y-122531001D01*
X166791431Y-122595431D01*
X166531291Y-122984758D01*
X166439942Y-123444000D01*
X166531291Y-123903242D01*
X166707529Y-124167001D01*
X164430225Y-124167001D01*
X164172606Y-123909382D01*
X164176709Y-123903242D01*
X164268058Y-123444000D01*
X164176709Y-122984758D01*
X163916569Y-122595431D01*
X163527242Y-122335291D01*
X163183920Y-122267000D01*
X162952080Y-122267000D01*
X162608758Y-122335291D01*
X162219431Y-122595431D01*
X161959291Y-122984758D01*
X161867942Y-123444000D01*
X157099000Y-123444000D01*
X157099000Y-113792000D01*
X161867942Y-113792000D01*
X161959291Y-114251242D01*
X162219431Y-114640569D01*
X162608758Y-114900709D01*
X162952080Y-114969000D01*
X163183920Y-114969000D01*
X163527242Y-114900709D01*
X163533382Y-114896606D01*
X163785370Y-115148594D01*
X162218000Y-115148594D01*
X162090411Y-115173973D01*
X161982246Y-115246246D01*
X161909973Y-115354411D01*
X161884594Y-115482000D01*
X161884594Y-117182000D01*
X161909973Y-117309589D01*
X161982246Y-117417754D01*
X162090411Y-117490027D01*
X162218000Y-117515406D01*
X163918000Y-117515406D01*
X164045589Y-117490027D01*
X164153754Y-117417754D01*
X164226027Y-117309589D01*
X164251406Y-117182000D01*
X164251406Y-115482000D01*
X164240539Y-115427366D01*
X164243000Y-115427856D01*
X164287517Y-115419001D01*
X166469125Y-115419001D01*
X166456594Y-115482000D01*
X166456594Y-117182000D01*
X166481973Y-117309589D01*
X166554246Y-117417754D01*
X166662411Y-117490027D01*
X166790000Y-117515406D01*
X168490000Y-117515406D01*
X168617589Y-117490027D01*
X168725754Y-117417754D01*
X168798027Y-117309589D01*
X168823406Y-117182000D01*
X168823406Y-116784000D01*
X169484776Y-116784000D01*
X171352908Y-118652133D01*
X171378126Y-118689874D01*
X171483327Y-118760167D01*
X171527638Y-118789775D01*
X171704000Y-118824855D01*
X171748518Y-118816000D01*
X175930775Y-118816000D01*
X176432908Y-119318134D01*
X176458126Y-119355875D01*
X176495866Y-119381092D01*
X176607638Y-119455776D01*
X176784000Y-119490856D01*
X176828518Y-119482001D01*
X180533481Y-119482001D01*
X180577999Y-119490856D01*
X180622517Y-119482001D01*
X180754361Y-119455776D01*
X180903873Y-119355875D01*
X180929092Y-119318132D01*
X181185224Y-119062000D01*
X181297718Y-119062000D01*
X181528167Y-118966545D01*
X181704545Y-118790167D01*
X181800000Y-118559718D01*
X181800000Y-118310282D01*
X181704545Y-118079833D01*
X181528167Y-117903455D01*
X181297718Y-117808000D01*
X181150000Y-117808000D01*
X181150000Y-117802282D01*
X181054545Y-117571833D01*
X180983459Y-117500747D01*
X180948775Y-117326374D01*
X180874091Y-117214602D01*
X180848874Y-117176862D01*
X180811134Y-117151645D01*
X179977346Y-116317858D01*
X179952127Y-116280115D01*
X179802615Y-116180214D01*
X179670771Y-116153989D01*
X179626253Y-116145134D01*
X179581735Y-116153989D01*
X179531213Y-116153989D01*
X179399695Y-116022471D01*
X179578167Y-115948545D01*
X179754545Y-115772167D01*
X179850000Y-115541718D01*
X179850000Y-115292282D01*
X179754545Y-115061833D01*
X179578167Y-114885455D01*
X179347718Y-114790000D01*
X179235224Y-114790000D01*
X178457093Y-114011869D01*
X178431874Y-113974126D01*
X178282362Y-113874225D01*
X178150518Y-113848000D01*
X178106000Y-113839145D01*
X178061482Y-113848000D01*
X177861634Y-113848000D01*
X177342264Y-113328630D01*
X177393167Y-113307545D01*
X177569545Y-113131167D01*
X177665000Y-112900718D01*
X177665000Y-112788225D01*
X177689090Y-112764135D01*
X177689092Y-112764132D01*
X180019225Y-110434000D01*
X192287788Y-110434000D01*
X192367333Y-110513545D01*
X192556738Y-110591999D01*
X181608517Y-110591999D01*
X181564000Y-110583144D01*
X181519484Y-110591999D01*
X181519483Y-110591999D01*
X181387639Y-110618224D01*
X181238127Y-110718125D01*
X181212910Y-110755866D01*
X179819776Y-112149000D01*
X179707282Y-112149000D01*
X179476833Y-112244455D01*
X179300455Y-112420833D01*
X179205000Y-112651282D01*
X179205000Y-112900718D01*
X179300455Y-113131167D01*
X179476833Y-113307545D01*
X179707282Y-113403000D01*
X179956718Y-113403000D01*
X180187167Y-113307545D01*
X180363545Y-113131167D01*
X180459000Y-112900718D01*
X180459000Y-112788224D01*
X181751226Y-111495999D01*
X194613275Y-111495999D01*
X194635500Y-111518224D01*
X194635500Y-111630718D01*
X194730955Y-111861167D01*
X194907333Y-112037545D01*
X195137782Y-112133000D01*
X195387218Y-112133000D01*
X195617667Y-112037545D01*
X195794045Y-111861167D01*
X195889500Y-111630718D01*
X195889500Y-111381282D01*
X195794045Y-111150833D01*
X195617667Y-110974455D01*
X195387218Y-110879000D01*
X195274724Y-110879000D01*
X195151592Y-110755868D01*
X195126373Y-110718125D01*
X194976861Y-110618224D01*
X194845017Y-110591999D01*
X194800499Y-110583144D01*
X194755981Y-110591999D01*
X192888262Y-110591999D01*
X193077667Y-110513545D01*
X193254045Y-110337167D01*
X193349500Y-110106718D01*
X193349500Y-109857282D01*
X193254045Y-109626833D01*
X193077667Y-109450455D01*
X192847218Y-109355000D01*
X192597782Y-109355000D01*
X192367333Y-109450455D01*
X192287788Y-109530000D01*
X179876517Y-109530000D01*
X179831999Y-109521145D01*
X179655638Y-109556225D01*
X179506126Y-109656126D01*
X179480909Y-109693866D01*
X177049868Y-112124908D01*
X177049865Y-112124910D01*
X177025775Y-112149000D01*
X176913282Y-112149000D01*
X176682833Y-112244455D01*
X176677200Y-112250088D01*
X176677200Y-111742688D01*
X176885167Y-111656545D01*
X177061545Y-111480167D01*
X177157000Y-111249718D01*
X177157000Y-111000282D01*
X177061545Y-110769833D01*
X176885167Y-110593455D01*
X176654718Y-110498000D01*
X176405282Y-110498000D01*
X176174833Y-110593455D01*
X175998455Y-110769833D01*
X175903000Y-111000282D01*
X175903000Y-111101471D01*
X175899326Y-111103926D01*
X175831888Y-111204855D01*
X175799425Y-111253439D01*
X175764345Y-111429800D01*
X175773200Y-111474318D01*
X175773201Y-112806268D01*
X175764345Y-112850790D01*
X175799425Y-113027151D01*
X175799426Y-113027152D01*
X175899327Y-113176664D01*
X175937067Y-113201881D01*
X176075186Y-113340000D01*
X168750150Y-113340000D01*
X168748709Y-113332758D01*
X168488569Y-112943431D01*
X168099242Y-112683291D01*
X167755920Y-112615000D01*
X167524080Y-112615000D01*
X167180758Y-112683291D01*
X166791431Y-112943431D01*
X166531291Y-113332758D01*
X166439942Y-113792000D01*
X166531291Y-114251242D01*
X166707529Y-114515001D01*
X164430225Y-114515001D01*
X164172606Y-114257382D01*
X164176709Y-114251242D01*
X164268058Y-113792000D01*
X164176709Y-113332758D01*
X163916569Y-112943431D01*
X163527242Y-112683291D01*
X163183920Y-112615000D01*
X162952080Y-112615000D01*
X162608758Y-112683291D01*
X162219431Y-112943431D01*
X161959291Y-113332758D01*
X161867942Y-113792000D01*
X157099000Y-113792000D01*
X157099000Y-109220000D01*
X164534942Y-109220000D01*
X164626291Y-109679242D01*
X164886431Y-110068569D01*
X165275758Y-110328709D01*
X165619080Y-110397000D01*
X165850920Y-110397000D01*
X166194242Y-110328709D01*
X166583569Y-110068569D01*
X166843709Y-109679242D01*
X166935058Y-109220000D01*
X166843709Y-108760758D01*
X166583569Y-108371431D01*
X166194242Y-108111291D01*
X165850920Y-108043000D01*
X165619080Y-108043000D01*
X165275758Y-108111291D01*
X164886431Y-108371431D01*
X164626291Y-108760758D01*
X164534942Y-109220000D01*
X157099000Y-109220000D01*
X157099000Y-106916587D01*
X158193000Y-106916587D01*
X158193000Y-107643413D01*
X158471144Y-108314912D01*
X158985088Y-108828856D01*
X159656587Y-109107000D01*
X160383413Y-109107000D01*
X161054912Y-108828856D01*
X161568856Y-108314912D01*
X161847000Y-107643413D01*
X161847000Y-106916587D01*
X161568856Y-106245088D01*
X161054912Y-105731144D01*
X160383413Y-105453000D01*
X159656587Y-105453000D01*
X158985088Y-105731144D01*
X158471144Y-106245088D01*
X158193000Y-106916587D01*
X157099000Y-106916587D01*
X157099000Y-99695000D01*
X161994942Y-99695000D01*
X162086291Y-100154242D01*
X162346431Y-100543569D01*
X162735758Y-100803709D01*
X163079080Y-100872000D01*
X163310920Y-100872000D01*
X163654242Y-100803709D01*
X164043569Y-100543569D01*
X164303709Y-100154242D01*
X164395058Y-99695000D01*
X164303709Y-99235758D01*
X164299607Y-99229618D01*
X164396090Y-99133135D01*
X164396092Y-99133132D01*
X166082226Y-97446999D01*
X174963776Y-97446999D01*
X169161870Y-103248906D01*
X169124127Y-103274125D01*
X169060066Y-103370000D01*
X169024226Y-103423638D01*
X168989146Y-103599999D01*
X168998001Y-103644517D01*
X168998001Y-105747529D01*
X168734242Y-105571291D01*
X168390920Y-105503000D01*
X168159080Y-105503000D01*
X167815758Y-105571291D01*
X167809618Y-105575394D01*
X167356093Y-105121869D01*
X167330874Y-105084126D01*
X167181362Y-104984225D01*
X167049518Y-104958000D01*
X167005000Y-104949145D01*
X166960482Y-104958000D01*
X166557225Y-104958000D01*
X166116968Y-104517744D01*
X166139545Y-104495167D01*
X166235000Y-104264718D01*
X166235000Y-104015282D01*
X166139545Y-103784833D01*
X165963167Y-103608455D01*
X165732718Y-103513000D01*
X165483282Y-103513000D01*
X165252833Y-103608455D01*
X165076455Y-103784833D01*
X164981000Y-104015282D01*
X164981000Y-104264718D01*
X165076455Y-104495167D01*
X165156000Y-104574712D01*
X165156000Y-104603482D01*
X165147145Y-104648000D01*
X165156000Y-104692517D01*
X165182225Y-104824361D01*
X165282126Y-104973874D01*
X165319869Y-104999093D01*
X165823775Y-105503000D01*
X165619080Y-105503000D01*
X165275758Y-105571291D01*
X164886431Y-105831431D01*
X164626291Y-106220758D01*
X164534942Y-106680000D01*
X164626291Y-107139242D01*
X164886431Y-107528569D01*
X165275758Y-107788709D01*
X165619080Y-107857000D01*
X165850920Y-107857000D01*
X166194242Y-107788709D01*
X166583569Y-107528569D01*
X166843709Y-107139242D01*
X166935058Y-106680000D01*
X166843709Y-106220758D01*
X166603995Y-105862000D01*
X166817776Y-105862000D01*
X167170394Y-106214618D01*
X167166291Y-106220758D01*
X167074942Y-106680000D01*
X167166291Y-107139242D01*
X167426431Y-107528569D01*
X167815758Y-107788709D01*
X168159080Y-107857000D01*
X168390920Y-107857000D01*
X168734242Y-107788709D01*
X168998002Y-107612470D01*
X168998002Y-108287530D01*
X168734242Y-108111291D01*
X168390920Y-108043000D01*
X168159080Y-108043000D01*
X167815758Y-108111291D01*
X167426431Y-108371431D01*
X167166291Y-108760758D01*
X167074942Y-109220000D01*
X167166291Y-109679242D01*
X167426431Y-110068569D01*
X167815758Y-110328709D01*
X168159080Y-110397000D01*
X168363776Y-110397000D01*
X168286868Y-110473908D01*
X168286865Y-110473910D01*
X168262775Y-110498000D01*
X168150282Y-110498000D01*
X167919833Y-110593455D01*
X167743455Y-110769833D01*
X167648000Y-111000282D01*
X167648000Y-111249718D01*
X167743455Y-111480167D01*
X167919833Y-111656545D01*
X168150282Y-111752000D01*
X168399718Y-111752000D01*
X168630167Y-111656545D01*
X168806545Y-111480167D01*
X168902000Y-111249718D01*
X168902000Y-111137225D01*
X168926090Y-111113135D01*
X168926092Y-111113132D01*
X169738134Y-110301091D01*
X169775875Y-110275873D01*
X169875776Y-110126361D01*
X169902001Y-109994517D01*
X169905430Y-109977275D01*
X169966431Y-110068569D01*
X170355758Y-110328709D01*
X170699080Y-110397000D01*
X170930920Y-110397000D01*
X171274242Y-110328709D01*
X171663569Y-110068569D01*
X171923709Y-109679242D01*
X172015058Y-109220000D01*
X172154942Y-109220000D01*
X172246291Y-109679242D01*
X172506431Y-110068569D01*
X172895758Y-110328709D01*
X173239080Y-110397000D01*
X173470920Y-110397000D01*
X173814242Y-110328709D01*
X174203569Y-110068569D01*
X174463709Y-109679242D01*
X174555058Y-109220000D01*
X174463709Y-108760758D01*
X174203569Y-108371431D01*
X173814242Y-108111291D01*
X173470920Y-108043000D01*
X173239080Y-108043000D01*
X172895758Y-108111291D01*
X172506431Y-108371431D01*
X172246291Y-108760758D01*
X172154942Y-109220000D01*
X172015058Y-109220000D01*
X171923709Y-108760758D01*
X171663569Y-108371431D01*
X171274242Y-108111291D01*
X170930920Y-108043000D01*
X170699080Y-108043000D01*
X170355758Y-108111291D01*
X169966431Y-108371431D01*
X169902001Y-108467857D01*
X169902001Y-107432143D01*
X169966431Y-107528569D01*
X170355758Y-107788709D01*
X170699080Y-107857000D01*
X170930920Y-107857000D01*
X171274242Y-107788709D01*
X171663569Y-107528569D01*
X171923709Y-107139242D01*
X172015058Y-106680000D01*
X171923709Y-106220758D01*
X171663569Y-105831431D01*
X171661428Y-105830000D01*
X172171594Y-105830000D01*
X172171594Y-107530000D01*
X172196973Y-107657589D01*
X172269246Y-107765754D01*
X172377411Y-107838027D01*
X172505000Y-107863406D01*
X174205000Y-107863406D01*
X174332589Y-107838027D01*
X174440754Y-107765754D01*
X174513027Y-107657589D01*
X174538406Y-107530000D01*
X174538406Y-107132000D01*
X177755482Y-107132000D01*
X177800000Y-107140855D01*
X177844518Y-107132000D01*
X177976362Y-107105775D01*
X178125874Y-107005874D01*
X178151093Y-106968131D01*
X179252224Y-105867000D01*
X179364718Y-105867000D01*
X179595167Y-105771545D01*
X179771545Y-105595167D01*
X179867000Y-105364718D01*
X179867000Y-105115282D01*
X179771545Y-104884833D01*
X179595167Y-104708455D01*
X179364718Y-104613000D01*
X179115282Y-104613000D01*
X178884833Y-104708455D01*
X178708455Y-104884833D01*
X178613000Y-105115282D01*
X178613000Y-105227776D01*
X177612776Y-106228000D01*
X174538406Y-106228000D01*
X174538406Y-105830000D01*
X174513027Y-105702411D01*
X174440754Y-105594246D01*
X174332589Y-105521973D01*
X174205000Y-105496594D01*
X172505000Y-105496594D01*
X172377411Y-105521973D01*
X172269246Y-105594246D01*
X172196973Y-105702411D01*
X172171594Y-105830000D01*
X171661428Y-105830000D01*
X171274242Y-105571291D01*
X170930920Y-105503000D01*
X170699080Y-105503000D01*
X170355758Y-105571291D01*
X169966431Y-105831431D01*
X169902001Y-105927857D01*
X169902001Y-103787223D01*
X175617225Y-98072000D01*
X178170288Y-98072000D01*
X178249833Y-98151545D01*
X178480282Y-98247000D01*
X178729718Y-98247000D01*
X178960167Y-98151545D01*
X179136545Y-97975167D01*
X179168587Y-97897810D01*
X184180601Y-102909824D01*
X184180600Y-104594288D01*
X184101055Y-104673833D01*
X184005600Y-104904282D01*
X184005600Y-105153718D01*
X184101055Y-105384167D01*
X184277433Y-105560545D01*
X184507882Y-105656000D01*
X184757318Y-105656000D01*
X184987767Y-105560545D01*
X185164145Y-105384167D01*
X185259600Y-105153718D01*
X185259600Y-104904282D01*
X185164145Y-104673833D01*
X185084600Y-104594288D01*
X185084600Y-103177413D01*
X185603000Y-103695813D01*
X185603001Y-105373014D01*
X185603000Y-105373019D01*
X185603000Y-105407088D01*
X185523455Y-105486633D01*
X185428000Y-105717082D01*
X185428000Y-105966518D01*
X185523455Y-106196967D01*
X185699833Y-106373345D01*
X185930282Y-106468800D01*
X186179718Y-106468800D01*
X186410167Y-106373345D01*
X186586545Y-106196967D01*
X186682000Y-105966518D01*
X186682000Y-105717082D01*
X186586545Y-105486633D01*
X186507000Y-105407088D01*
X186507000Y-103553106D01*
X186515855Y-103508588D01*
X186480775Y-103332226D01*
X186406091Y-103220454D01*
X186380874Y-103182714D01*
X186343134Y-103157497D01*
X179442493Y-96256857D01*
X179417276Y-96219117D01*
X179379535Y-96193899D01*
X179267763Y-96119215D01*
X179091402Y-96084135D01*
X179046879Y-96092991D01*
X164949529Y-96092989D01*
X164905011Y-96084134D01*
X164728649Y-96119214D01*
X164616877Y-96193898D01*
X164616876Y-96193899D01*
X164579138Y-96219115D01*
X164553922Y-96256853D01*
X164378406Y-96432369D01*
X164378406Y-96305000D01*
X164353027Y-96177411D01*
X164280754Y-96069246D01*
X164172589Y-95996973D01*
X164045000Y-95971594D01*
X162345000Y-95971594D01*
X162217411Y-95996973D01*
X162109246Y-96069246D01*
X162036973Y-96177411D01*
X162011594Y-96305000D01*
X162011594Y-98005000D01*
X162036973Y-98132589D01*
X162109246Y-98240754D01*
X162217411Y-98313027D01*
X162345000Y-98338406D01*
X163912370Y-98338406D01*
X163756868Y-98493908D01*
X163756865Y-98493910D01*
X163660382Y-98590393D01*
X163654242Y-98586291D01*
X163310920Y-98518000D01*
X163079080Y-98518000D01*
X162735758Y-98586291D01*
X162346431Y-98846431D01*
X162086291Y-99235758D01*
X161994942Y-99695000D01*
X157099000Y-99695000D01*
X157099000Y-90590000D01*
X162011594Y-90590000D01*
X162011594Y-92290000D01*
X162036973Y-92417589D01*
X162109246Y-92525754D01*
X162217411Y-92598027D01*
X162345000Y-92623406D01*
X164045000Y-92623406D01*
X164172589Y-92598027D01*
X164280754Y-92525754D01*
X164353027Y-92417589D01*
X164378406Y-92290000D01*
X164378406Y-90590000D01*
X164353027Y-90462411D01*
X164280754Y-90354246D01*
X164172589Y-90281973D01*
X164045000Y-90256594D01*
X162345000Y-90256594D01*
X162217411Y-90281973D01*
X162109246Y-90354246D01*
X162036973Y-90462411D01*
X162011594Y-90590000D01*
X157099000Y-90590000D01*
X157099000Y-88900000D01*
X161994942Y-88900000D01*
X162086291Y-89359242D01*
X162346431Y-89748569D01*
X162735758Y-90008709D01*
X163079080Y-90077000D01*
X163310920Y-90077000D01*
X163654242Y-90008709D01*
X164043569Y-89748569D01*
X164303709Y-89359242D01*
X164395058Y-88900000D01*
X164303709Y-88440758D01*
X164043569Y-88051431D01*
X163654242Y-87791291D01*
X163310920Y-87723000D01*
X163079080Y-87723000D01*
X162735758Y-87791291D01*
X162346431Y-88051431D01*
X162086291Y-88440758D01*
X161994942Y-88900000D01*
X157099000Y-88900000D01*
X157099000Y-81239128D01*
X157135341Y-80916587D01*
X158193000Y-80916587D01*
X158193000Y-81643413D01*
X158471144Y-82314912D01*
X158985088Y-82828856D01*
X159656587Y-83107000D01*
X160383413Y-83107000D01*
X161054912Y-82828856D01*
X161568856Y-82314912D01*
X161847000Y-81643413D01*
X161847000Y-80916587D01*
X216193000Y-80916587D01*
X216193000Y-81643413D01*
X216471144Y-82314912D01*
X216985088Y-82828856D01*
X217656587Y-83107000D01*
X218383413Y-83107000D01*
X219054912Y-82828856D01*
X219568856Y-82314912D01*
X219847000Y-81643413D01*
X219847000Y-80916587D01*
X219568856Y-80245088D01*
X219054912Y-79731144D01*
X218383413Y-79453000D01*
X217656587Y-79453000D01*
X216985088Y-79731144D01*
X216471144Y-80245088D01*
X216193000Y-80916587D01*
X161847000Y-80916587D01*
X161568856Y-80245088D01*
X161054912Y-79731144D01*
X160383413Y-79453000D01*
X159656587Y-79453000D01*
X158985088Y-79731144D01*
X158471144Y-80245088D01*
X158193000Y-80916587D01*
X157135341Y-80916587D01*
X157171815Y-80592877D01*
X157384239Y-79985802D01*
X157726425Y-79441218D01*
X158181218Y-78986425D01*
X158725802Y-78644239D01*
X159332877Y-78431815D01*
X159979128Y-78359000D01*
X217972872Y-78359000D01*
X218619123Y-78431815D01*
X218619123Y-78431815D01*
G37*
X218619123Y-78431815D02*
X219226198Y-78644239D01*
X219770782Y-78986425D01*
X220225575Y-79441218D01*
X220567761Y-79985802D01*
X220780185Y-80592877D01*
X220853000Y-81239128D01*
X220853000Y-130088872D01*
X220780185Y-130735123D01*
X220567761Y-131342198D01*
X220225575Y-131886782D01*
X219770782Y-132341575D01*
X219226198Y-132683761D01*
X218619123Y-132896185D01*
X217972872Y-132969000D01*
X208788766Y-132969000D01*
X208908077Y-132919580D01*
X208999363Y-132658968D01*
X208070000Y-131729605D01*
X207140637Y-132658968D01*
X207231923Y-132919580D01*
X207366146Y-132969000D01*
X198628766Y-132969000D01*
X198748077Y-132919580D01*
X198839363Y-132658968D01*
X197910000Y-131729605D01*
X196980637Y-132658968D01*
X197071923Y-132919580D01*
X197206146Y-132969000D01*
X191008766Y-132969000D01*
X191128077Y-132919580D01*
X191219363Y-132658968D01*
X190290000Y-131729605D01*
X189360637Y-132658968D01*
X189451923Y-132919580D01*
X189586146Y-132969000D01*
X178308766Y-132969000D01*
X178428077Y-132919580D01*
X178519363Y-132658968D01*
X177590000Y-131729605D01*
X176660637Y-132658968D01*
X176751923Y-132919580D01*
X176886146Y-132969000D01*
X173228766Y-132969000D01*
X173348077Y-132919580D01*
X173439363Y-132658968D01*
X172510000Y-131729605D01*
X171580637Y-132658968D01*
X171671923Y-132919580D01*
X171806146Y-132969000D01*
X159979128Y-132969000D01*
X159332877Y-132896185D01*
X158725802Y-132683761D01*
X158181218Y-132341575D01*
X157726425Y-131886782D01*
X157384239Y-131342198D01*
X157171815Y-130735123D01*
X157099000Y-130088872D01*
X157099000Y-129916587D01*
X158193000Y-129916587D01*
X158193000Y-130643413D01*
X158471144Y-131314912D01*
X158985088Y-131828856D01*
X159656587Y-132107000D01*
X160383413Y-132107000D01*
X161054912Y-131828856D01*
X161568856Y-131314912D01*
X161575853Y-131298018D01*
X163623200Y-131298018D01*
X163623200Y-131801982D01*
X163816059Y-132267585D01*
X164172415Y-132623941D01*
X164638018Y-132816800D01*
X165141982Y-132816800D01*
X165607585Y-132623941D01*
X165963941Y-132267585D01*
X166156800Y-131801982D01*
X166156800Y-131298018D01*
X166163200Y-131298018D01*
X166163200Y-131801982D01*
X166356059Y-132267585D01*
X166712415Y-132623941D01*
X167178018Y-132816800D01*
X167681982Y-132816800D01*
X168147585Y-132623941D01*
X168503941Y-132267585D01*
X168696800Y-131801982D01*
X168696800Y-131298018D01*
X168703200Y-131298018D01*
X168703200Y-131801982D01*
X168896059Y-132267585D01*
X169252415Y-132623941D01*
X169718018Y-132816800D01*
X170221982Y-132816800D01*
X170687585Y-132623941D01*
X171043941Y-132267585D01*
X171067226Y-132211370D01*
X171140420Y-132388077D01*
X171401032Y-132479363D01*
X172330395Y-131550000D01*
X172689605Y-131550000D01*
X173618968Y-132479363D01*
X173879580Y-132388077D01*
X173948469Y-132200977D01*
X173976059Y-132267585D01*
X174332415Y-132623941D01*
X174798018Y-132816800D01*
X175301982Y-132816800D01*
X175767585Y-132623941D01*
X176123941Y-132267585D01*
X176147226Y-132211370D01*
X176220420Y-132388077D01*
X176481032Y-132479363D01*
X177410395Y-131550000D01*
X176481032Y-130620637D01*
X176220420Y-130711923D01*
X176151531Y-130899023D01*
X176123941Y-130832415D01*
X175767585Y-130476059D01*
X175301982Y-130283200D01*
X174798018Y-130283200D01*
X174332415Y-130476059D01*
X173976059Y-130832415D01*
X173952774Y-130888630D01*
X173879580Y-130711923D01*
X173618968Y-130620637D01*
X172689605Y-131550000D01*
X172330395Y-131550000D01*
X171401032Y-130620637D01*
X171140420Y-130711923D01*
X171071531Y-130899023D01*
X171043941Y-130832415D01*
X170687585Y-130476059D01*
X170221982Y-130283200D01*
X169718018Y-130283200D01*
X169252415Y-130476059D01*
X168896059Y-130832415D01*
X168703200Y-131298018D01*
X168696800Y-131298018D01*
X168503941Y-130832415D01*
X168147585Y-130476059D01*
X167681982Y-130283200D01*
X167178018Y-130283200D01*
X166712415Y-130476059D01*
X166356059Y-130832415D01*
X166163200Y-131298018D01*
X166156800Y-131298018D01*
X165963941Y-130832415D01*
X165607585Y-130476059D01*
X165551370Y-130452774D01*
X165728077Y-130379580D01*
X165819363Y-130118968D01*
X164890000Y-129189605D01*
X163960637Y-130118968D01*
X164051923Y-130379580D01*
X164239023Y-130448469D01*
X164172415Y-130476059D01*
X163816059Y-130832415D01*
X163623200Y-131298018D01*
X161575853Y-131298018D01*
X161847000Y-130643413D01*
X161847000Y-129916587D01*
X161568856Y-129245088D01*
X161083601Y-128759833D01*
X163303955Y-128759833D01*
X163328951Y-129385828D01*
X163520420Y-129848077D01*
X163781032Y-129939363D01*
X164710395Y-129010000D01*
X165069605Y-129010000D01*
X165998968Y-129939363D01*
X166259580Y-129848077D01*
X166328469Y-129660977D01*
X166356059Y-129727585D01*
X166712415Y-130083941D01*
X167178018Y-130276800D01*
X167681982Y-130276800D01*
X168147585Y-130083941D01*
X168503941Y-129727585D01*
X168696800Y-129261982D01*
X168696800Y-128758018D01*
X168503941Y-128292415D01*
X168147585Y-127936059D01*
X167681982Y-127743200D01*
X167178018Y-127743200D01*
X166712415Y-127936059D01*
X166356059Y-128292415D01*
X166332774Y-128348630D01*
X166259580Y-128171923D01*
X165998968Y-128080637D01*
X165069605Y-129010000D01*
X164710395Y-129010000D01*
X163781032Y-128080637D01*
X163520420Y-128171923D01*
X163303955Y-128759833D01*
X161083601Y-128759833D01*
X161054912Y-128731144D01*
X160383413Y-128453000D01*
X159656587Y-128453000D01*
X158985088Y-128731144D01*
X158471144Y-129245088D01*
X158193000Y-129916587D01*
X157099000Y-129916587D01*
X157099000Y-127901032D01*
X163960637Y-127901032D01*
X164890000Y-128830395D01*
X165819363Y-127901032D01*
X165728077Y-127640420D01*
X165140167Y-127423955D01*
X164514172Y-127448951D01*
X164051923Y-127640420D01*
X163960637Y-127901032D01*
X157099000Y-127901032D01*
X157099000Y-123444000D01*
X161867942Y-123444000D01*
X161959291Y-123903242D01*
X162219431Y-124292569D01*
X162608758Y-124552709D01*
X162952080Y-124621000D01*
X163183920Y-124621000D01*
X163527242Y-124552709D01*
X163533382Y-124548606D01*
X163891908Y-124907132D01*
X163917127Y-124944875D01*
X164066639Y-125044776D01*
X164198483Y-125071001D01*
X164198484Y-125071001D01*
X164243000Y-125079856D01*
X164287517Y-125071001D01*
X181499160Y-125071001D01*
X181543678Y-125079856D01*
X181588196Y-125071001D01*
X181720040Y-125044776D01*
X181869552Y-124944875D01*
X181894771Y-124907132D01*
X184133481Y-122668423D01*
X184245974Y-122668423D01*
X184476423Y-122572968D01*
X184652801Y-122396590D01*
X184748256Y-122166141D01*
X184748256Y-121916705D01*
X184652801Y-121686256D01*
X184497545Y-121531000D01*
X184528718Y-121531000D01*
X184759167Y-121435545D01*
X184935545Y-121259167D01*
X184967588Y-121181809D01*
X185085002Y-121299223D01*
X185085003Y-122504773D01*
X182447368Y-125142408D01*
X182447365Y-125142410D01*
X182423275Y-125166500D01*
X182310782Y-125166500D01*
X182080333Y-125261955D01*
X181903955Y-125438333D01*
X181808500Y-125668782D01*
X181808500Y-125918218D01*
X181903955Y-126148667D01*
X182080333Y-126325045D01*
X182147789Y-126352986D01*
X181602000Y-126898776D01*
X181602000Y-126875282D01*
X181506545Y-126644833D01*
X181330167Y-126468455D01*
X181099718Y-126373000D01*
X180850282Y-126373000D01*
X180619833Y-126468455D01*
X180540288Y-126548000D01*
X172024516Y-126548000D01*
X171979999Y-126539145D01*
X171935483Y-126548000D01*
X171935482Y-126548000D01*
X171803638Y-126574225D01*
X171654126Y-126674126D01*
X171628909Y-126711866D01*
X170487567Y-127853209D01*
X170221982Y-127743200D01*
X169718018Y-127743200D01*
X169252415Y-127936059D01*
X168896059Y-128292415D01*
X168703200Y-128758018D01*
X168703200Y-129261982D01*
X168896059Y-129727585D01*
X169252415Y-130083941D01*
X169718018Y-130276800D01*
X170221982Y-130276800D01*
X170687585Y-130083941D01*
X171043941Y-129727585D01*
X171236800Y-129261982D01*
X171236800Y-128758018D01*
X171243200Y-128758018D01*
X171243200Y-129261982D01*
X171436059Y-129727585D01*
X171792415Y-130083941D01*
X171848630Y-130107226D01*
X171671923Y-130180420D01*
X171580637Y-130441032D01*
X172510000Y-131370395D01*
X173439363Y-130441032D01*
X173348077Y-130180420D01*
X173160977Y-130111531D01*
X173227585Y-130083941D01*
X173583941Y-129727585D01*
X173776800Y-129261982D01*
X173776800Y-128758018D01*
X173783200Y-128758018D01*
X173783200Y-129261982D01*
X173976059Y-129727585D01*
X174332415Y-130083941D01*
X174798018Y-130276800D01*
X175301982Y-130276800D01*
X175767585Y-130083941D01*
X176123941Y-129727585D01*
X176316800Y-129261982D01*
X176316800Y-128758018D01*
X176323200Y-128758018D01*
X176323200Y-129261982D01*
X176516059Y-129727585D01*
X176872415Y-130083941D01*
X176928630Y-130107226D01*
X176751923Y-130180420D01*
X176660637Y-130441032D01*
X177590000Y-131370395D01*
X178519363Y-130441032D01*
X178428077Y-130180420D01*
X178240977Y-130111531D01*
X178307585Y-130083941D01*
X178663941Y-129727585D01*
X178856800Y-129261982D01*
X178856800Y-128758018D01*
X178663941Y-128292415D01*
X178307585Y-127936059D01*
X177841982Y-127743200D01*
X177338018Y-127743200D01*
X176872415Y-127936059D01*
X176516059Y-128292415D01*
X176323200Y-128758018D01*
X176316800Y-128758018D01*
X176123941Y-128292415D01*
X175767585Y-127936059D01*
X175301982Y-127743200D01*
X174798018Y-127743200D01*
X174332415Y-127936059D01*
X173976059Y-128292415D01*
X173783200Y-128758018D01*
X173776800Y-128758018D01*
X173583941Y-128292415D01*
X173227585Y-127936059D01*
X172761982Y-127743200D01*
X172258018Y-127743200D01*
X171792415Y-127936059D01*
X171436059Y-128292415D01*
X171243200Y-128758018D01*
X171236800Y-128758018D01*
X171126791Y-128492433D01*
X172167225Y-127452000D01*
X180540288Y-127452000D01*
X180619833Y-127531545D01*
X180850282Y-127627000D01*
X180873776Y-127627000D01*
X180647567Y-127853209D01*
X180381982Y-127743200D01*
X179878018Y-127743200D01*
X179412415Y-127936059D01*
X179056059Y-128292415D01*
X178863200Y-128758018D01*
X178863200Y-129261982D01*
X179056059Y-129727585D01*
X179412415Y-130083941D01*
X179878018Y-130276800D01*
X180381982Y-130276800D01*
X180847585Y-130083941D01*
X181203941Y-129727585D01*
X181227226Y-129671370D01*
X181295334Y-129835799D01*
X181228837Y-129849026D01*
X181079325Y-129948927D01*
X181054107Y-129986668D01*
X180781666Y-130259110D01*
X180647567Y-130393209D01*
X180381982Y-130283200D01*
X179878018Y-130283200D01*
X179412415Y-130476059D01*
X179056059Y-130832415D01*
X179032774Y-130888630D01*
X178959580Y-130711923D01*
X178698968Y-130620637D01*
X177769605Y-131550000D01*
X178698968Y-132479363D01*
X178959580Y-132388077D01*
X179028469Y-132200977D01*
X179056059Y-132267585D01*
X179412415Y-132623941D01*
X179878018Y-132816800D01*
X180381982Y-132816800D01*
X180847585Y-132623941D01*
X181203941Y-132267585D01*
X181396800Y-131801982D01*
X181396800Y-131298018D01*
X181286791Y-131032433D01*
X181420890Y-130898334D01*
X181592424Y-130726801D01*
X181701673Y-130726801D01*
X181596059Y-130832415D01*
X181403200Y-131298018D01*
X181403200Y-131801982D01*
X181596059Y-132267585D01*
X181952415Y-132623941D01*
X182418018Y-132816800D01*
X182921982Y-132816800D01*
X183387585Y-132623941D01*
X183743941Y-132267585D01*
X183936800Y-131801982D01*
X183936800Y-131298018D01*
X183743941Y-130832415D01*
X183548562Y-130637036D01*
X183602979Y-130600675D01*
X183628198Y-130562932D01*
X184222934Y-129968197D01*
X184260675Y-129942979D01*
X184297036Y-129888562D01*
X184492415Y-130083941D01*
X184958018Y-130276800D01*
X185461982Y-130276800D01*
X185927585Y-130083941D01*
X186033199Y-129978327D01*
X186033199Y-130087576D01*
X185727567Y-130393209D01*
X185461982Y-130283200D01*
X184958018Y-130283200D01*
X184492415Y-130476059D01*
X184136059Y-130832415D01*
X183943200Y-131298018D01*
X183943200Y-131801982D01*
X184136059Y-132267585D01*
X184492415Y-132623941D01*
X184958018Y-132816800D01*
X185461982Y-132816800D01*
X185927585Y-132623941D01*
X186283941Y-132267585D01*
X186476800Y-131801982D01*
X186476800Y-131298018D01*
X186483200Y-131298018D01*
X186483200Y-131801982D01*
X186676059Y-132267585D01*
X187032415Y-132623941D01*
X187498018Y-132816800D01*
X188001982Y-132816800D01*
X188467585Y-132623941D01*
X188823941Y-132267585D01*
X188847226Y-132211370D01*
X188920420Y-132388077D01*
X189181032Y-132479363D01*
X190110395Y-131550000D01*
X190469605Y-131550000D01*
X191398968Y-132479363D01*
X191659580Y-132388077D01*
X191728469Y-132200977D01*
X191756059Y-132267585D01*
X192112415Y-132623941D01*
X192578018Y-132816800D01*
X193081982Y-132816800D01*
X193547585Y-132623941D01*
X193903941Y-132267585D01*
X194096800Y-131801982D01*
X194096800Y-131298018D01*
X194103200Y-131298018D01*
X194103200Y-131801982D01*
X194296059Y-132267585D01*
X194652415Y-132623941D01*
X195118018Y-132816800D01*
X195621982Y-132816800D01*
X196087585Y-132623941D01*
X196443941Y-132267585D01*
X196467226Y-132211370D01*
X196540420Y-132388077D01*
X196801032Y-132479363D01*
X197730395Y-131550000D01*
X198089605Y-131550000D01*
X199018968Y-132479363D01*
X199279580Y-132388077D01*
X199348469Y-132200977D01*
X199376059Y-132267585D01*
X199732415Y-132623941D01*
X200198018Y-132816800D01*
X200701982Y-132816800D01*
X201167585Y-132623941D01*
X201523941Y-132267585D01*
X201716800Y-131801982D01*
X201716800Y-131298018D01*
X201523941Y-130832415D01*
X201167585Y-130476059D01*
X200701982Y-130283200D01*
X200198018Y-130283200D01*
X199732415Y-130476059D01*
X199376059Y-130832415D01*
X199352774Y-130888630D01*
X199279580Y-130711923D01*
X199018968Y-130620637D01*
X198089605Y-131550000D01*
X197730395Y-131550000D01*
X196801032Y-130620637D01*
X196540420Y-130711923D01*
X196471531Y-130899023D01*
X196443941Y-130832415D01*
X196087585Y-130476059D01*
X195621982Y-130283200D01*
X195118018Y-130283200D01*
X194652415Y-130476059D01*
X194296059Y-130832415D01*
X194103200Y-131298018D01*
X194096800Y-131298018D01*
X193903941Y-130832415D01*
X193547585Y-130476059D01*
X193081982Y-130283200D01*
X192578018Y-130283200D01*
X192112415Y-130476059D01*
X191756059Y-130832415D01*
X191732774Y-130888630D01*
X191659580Y-130711923D01*
X191398968Y-130620637D01*
X190469605Y-131550000D01*
X190110395Y-131550000D01*
X189181032Y-130620637D01*
X188920420Y-130711923D01*
X188851531Y-130899023D01*
X188823941Y-130832415D01*
X188467585Y-130476059D01*
X188001982Y-130283200D01*
X187498018Y-130283200D01*
X187032415Y-130476059D01*
X186676059Y-130832415D01*
X186483200Y-131298018D01*
X186476800Y-131298018D01*
X186366791Y-131032433D01*
X186773333Y-130625892D01*
X186811073Y-130600675D01*
X186910974Y-130451163D01*
X186937199Y-130319319D01*
X186937199Y-130319318D01*
X186946054Y-130274801D01*
X186937199Y-130230283D01*
X186937199Y-129988725D01*
X187032415Y-130083941D01*
X187498018Y-130276800D01*
X188001982Y-130276800D01*
X188467585Y-130083941D01*
X188823941Y-129727585D01*
X189016800Y-129261982D01*
X189016800Y-128758018D01*
X188906791Y-128492433D01*
X189040889Y-128358335D01*
X198233990Y-119165235D01*
X198233990Y-120426785D01*
X190941665Y-127719111D01*
X190807567Y-127853209D01*
X190541982Y-127743200D01*
X190038018Y-127743200D01*
X189572415Y-127936059D01*
X189216059Y-128292415D01*
X189023200Y-128758018D01*
X189023200Y-129261982D01*
X189216059Y-129727585D01*
X189572415Y-130083941D01*
X189628630Y-130107226D01*
X189451923Y-130180420D01*
X189360637Y-130441032D01*
X190290000Y-131370395D01*
X191219363Y-130441032D01*
X191128077Y-130180420D01*
X190940977Y-130111531D01*
X191007585Y-130083941D01*
X191363941Y-129727585D01*
X191556800Y-129261982D01*
X191556800Y-128758018D01*
X191563200Y-128758018D01*
X191563200Y-129261982D01*
X191756059Y-129727585D01*
X192112415Y-130083941D01*
X192578018Y-130276800D01*
X193081982Y-130276800D01*
X193547585Y-130083941D01*
X193903941Y-129727585D01*
X194096800Y-129261982D01*
X194096800Y-128758018D01*
X194103200Y-128758018D01*
X194103200Y-129261982D01*
X194296059Y-129727585D01*
X194652415Y-130083941D01*
X195118018Y-130276800D01*
X195621982Y-130276800D01*
X196087585Y-130083941D01*
X196443941Y-129727585D01*
X196636800Y-129261982D01*
X196636800Y-128758018D01*
X196643200Y-128758018D01*
X196643200Y-129261982D01*
X196836059Y-129727585D01*
X197192415Y-130083941D01*
X197248630Y-130107226D01*
X197071923Y-130180420D01*
X196980637Y-130441032D01*
X197910000Y-131370395D01*
X198839363Y-130441032D01*
X198748077Y-130180420D01*
X198560977Y-130111531D01*
X198627585Y-130083941D01*
X198983941Y-129727585D01*
X199176800Y-129261982D01*
X199176800Y-128758018D01*
X198983941Y-128292415D01*
X198627585Y-127936059D01*
X198161982Y-127743200D01*
X197658018Y-127743200D01*
X197192415Y-127936059D01*
X196836059Y-128292415D01*
X196643200Y-128758018D01*
X196636800Y-128758018D01*
X196443941Y-128292415D01*
X196087585Y-127936059D01*
X195621982Y-127743200D01*
X195118018Y-127743200D01*
X194652415Y-127936059D01*
X194296059Y-128292415D01*
X194103200Y-128758018D01*
X194096800Y-128758018D01*
X193903941Y-128292415D01*
X193547585Y-127936059D01*
X193081982Y-127743200D01*
X192578018Y-127743200D01*
X192112415Y-127936059D01*
X191756059Y-128292415D01*
X191563200Y-128758018D01*
X191556800Y-128758018D01*
X191446791Y-128492433D01*
X191580889Y-128358335D01*
X198684001Y-121255224D01*
X198684001Y-121383270D01*
X197831869Y-122235403D01*
X197794126Y-122260622D01*
X197698020Y-122404455D01*
X197694225Y-122410135D01*
X197659145Y-122586496D01*
X197668000Y-122631014D01*
X197668001Y-124763572D01*
X197659145Y-124808094D01*
X197694225Y-124984455D01*
X197757970Y-125079856D01*
X197794127Y-125133968D01*
X197831867Y-125159185D01*
X200415881Y-127743200D01*
X200198018Y-127743200D01*
X199732415Y-127936059D01*
X199376059Y-128292415D01*
X199183200Y-128758018D01*
X199183200Y-129261982D01*
X199376059Y-129727585D01*
X199732415Y-130083941D01*
X200198018Y-130276800D01*
X200701982Y-130276800D01*
X201167585Y-130083941D01*
X201262802Y-129988724D01*
X201262802Y-130230279D01*
X201253946Y-130274801D01*
X201289026Y-130451162D01*
X201289027Y-130451163D01*
X201388928Y-130600675D01*
X201426668Y-130625892D01*
X201762067Y-130961292D01*
X201762070Y-130961294D01*
X201833209Y-131032433D01*
X201723200Y-131298018D01*
X201723200Y-131801982D01*
X201916059Y-132267585D01*
X202272415Y-132623941D01*
X202738018Y-132816800D01*
X203241982Y-132816800D01*
X203707585Y-132623941D01*
X204063941Y-132267585D01*
X204256800Y-131801982D01*
X204256800Y-131298018D01*
X204063941Y-130832415D01*
X203707585Y-130476059D01*
X203651370Y-130452774D01*
X203815799Y-130384666D01*
X203829026Y-130451162D01*
X203928927Y-130600675D01*
X203966670Y-130625894D01*
X204373209Y-131032433D01*
X204263200Y-131298018D01*
X204263200Y-131801982D01*
X204456059Y-132267585D01*
X204812415Y-132623941D01*
X205278018Y-132816800D01*
X205781982Y-132816800D01*
X206247585Y-132623941D01*
X206603941Y-132267585D01*
X206627226Y-132211370D01*
X206700420Y-132388077D01*
X206961032Y-132479363D01*
X207890395Y-131550000D01*
X208249605Y-131550000D01*
X209178968Y-132479363D01*
X209439580Y-132388077D01*
X209508469Y-132200977D01*
X209536059Y-132267585D01*
X209892415Y-132623941D01*
X210358018Y-132816800D01*
X210861982Y-132816800D01*
X211327585Y-132623941D01*
X211683941Y-132267585D01*
X211876800Y-131801982D01*
X211876800Y-131298018D01*
X211883200Y-131298018D01*
X211883200Y-131801982D01*
X212076059Y-132267585D01*
X212432415Y-132623941D01*
X212898018Y-132816800D01*
X213401982Y-132816800D01*
X213867585Y-132623941D01*
X214223941Y-132267585D01*
X214416800Y-131801982D01*
X214416800Y-131298018D01*
X214223941Y-130832415D01*
X213867585Y-130476059D01*
X213401982Y-130283200D01*
X212898018Y-130283200D01*
X212432415Y-130476059D01*
X212076059Y-130832415D01*
X211883200Y-131298018D01*
X211876800Y-131298018D01*
X211683941Y-130832415D01*
X211327585Y-130476059D01*
X210861982Y-130283200D01*
X210358018Y-130283200D01*
X209892415Y-130476059D01*
X209536059Y-130832415D01*
X209512774Y-130888630D01*
X209439580Y-130711923D01*
X209178968Y-130620637D01*
X208249605Y-131550000D01*
X207890395Y-131550000D01*
X206961032Y-130620637D01*
X206700420Y-130711923D01*
X206631531Y-130899023D01*
X206603941Y-130832415D01*
X206247585Y-130476059D01*
X205781982Y-130283200D01*
X205278018Y-130283200D01*
X205012433Y-130393209D01*
X204706801Y-130087577D01*
X204706801Y-129978327D01*
X204812415Y-130083941D01*
X205278018Y-130276800D01*
X205781982Y-130276800D01*
X206247585Y-130083941D01*
X206603941Y-129727585D01*
X206796800Y-129261982D01*
X206796800Y-128758018D01*
X206803200Y-128758018D01*
X206803200Y-129261982D01*
X206996059Y-129727585D01*
X207352415Y-130083941D01*
X207408630Y-130107226D01*
X207231923Y-130180420D01*
X207140637Y-130441032D01*
X208070000Y-131370395D01*
X208999363Y-130441032D01*
X208908077Y-130180420D01*
X208720977Y-130111531D01*
X208787585Y-130083941D01*
X209143941Y-129727585D01*
X209336800Y-129261982D01*
X209336800Y-128758018D01*
X209143941Y-128292415D01*
X208787585Y-127936059D01*
X208321982Y-127743200D01*
X207818018Y-127743200D01*
X207352415Y-127936059D01*
X206996059Y-128292415D01*
X206803200Y-128758018D01*
X206796800Y-128758018D01*
X206603941Y-128292415D01*
X206247585Y-127936059D01*
X205781982Y-127743200D01*
X205278018Y-127743200D01*
X204812415Y-127936059D01*
X204617036Y-128131438D01*
X204605892Y-128114761D01*
X204580675Y-128077021D01*
X204542935Y-128051804D01*
X199588000Y-123096870D01*
X199588000Y-122394130D01*
X199700000Y-122282130D01*
X199700001Y-122891478D01*
X199691145Y-122936000D01*
X199726225Y-123112361D01*
X199730078Y-123118127D01*
X199826127Y-123261874D01*
X199863867Y-123287091D01*
X202211408Y-125634633D01*
X202236626Y-125672374D01*
X202274366Y-125697591D01*
X202386138Y-125772275D01*
X202562500Y-125807355D01*
X202607018Y-125798500D01*
X206759276Y-125798500D01*
X209453209Y-128492433D01*
X209343200Y-128758018D01*
X209343200Y-129261982D01*
X209536059Y-129727585D01*
X209892415Y-130083941D01*
X210358018Y-130276800D01*
X210861982Y-130276800D01*
X211327585Y-130083941D01*
X211683941Y-129727585D01*
X211876800Y-129261982D01*
X211876800Y-128758018D01*
X211883200Y-128758018D01*
X211883200Y-129261982D01*
X212076059Y-129727585D01*
X212432415Y-130083941D01*
X212898018Y-130276800D01*
X213401982Y-130276800D01*
X213867585Y-130083941D01*
X214034939Y-129916587D01*
X216193000Y-129916587D01*
X216193000Y-130643413D01*
X216471144Y-131314912D01*
X216985088Y-131828856D01*
X217656587Y-132107000D01*
X218383413Y-132107000D01*
X219054912Y-131828856D01*
X219568856Y-131314912D01*
X219847000Y-130643413D01*
X219847000Y-129916587D01*
X219568856Y-129245088D01*
X219054912Y-128731144D01*
X218383413Y-128453000D01*
X217656587Y-128453000D01*
X216985088Y-128731144D01*
X216471144Y-129245088D01*
X216193000Y-129916587D01*
X214034939Y-129916587D01*
X214223941Y-129727585D01*
X214416800Y-129261982D01*
X214416800Y-128758018D01*
X214223941Y-128292415D01*
X213867585Y-127936059D01*
X213401982Y-127743200D01*
X212898018Y-127743200D01*
X212432415Y-127936059D01*
X212076059Y-128292415D01*
X211883200Y-128758018D01*
X211876800Y-128758018D01*
X211683941Y-128292415D01*
X211327585Y-127936059D01*
X210861982Y-127743200D01*
X210358018Y-127743200D01*
X210092433Y-127853209D01*
X207297593Y-125058369D01*
X207272374Y-125020626D01*
X207122862Y-124920725D01*
X206991018Y-124894500D01*
X206946500Y-124885645D01*
X206901982Y-124894500D01*
X202749725Y-124894500D01*
X200604000Y-122748776D01*
X200604000Y-122107224D01*
X201011633Y-121699592D01*
X201049374Y-121674374D01*
X201149275Y-121524862D01*
X201162869Y-121456518D01*
X201184355Y-121348501D01*
X201175500Y-121303983D01*
X201175500Y-117226212D01*
X201320833Y-117371545D01*
X201551282Y-117467000D01*
X201800718Y-117467000D01*
X202031167Y-117371545D01*
X202207545Y-117195167D01*
X202303000Y-116964718D01*
X202303000Y-116715282D01*
X202207545Y-116484833D01*
X202031167Y-116308455D01*
X201800718Y-116213000D01*
X201688224Y-116213000D01*
X201625510Y-116150286D01*
X201625510Y-112513214D01*
X201842641Y-112296083D01*
X201880384Y-112270864D01*
X201980285Y-112121352D01*
X202006510Y-111989508D01*
X202006510Y-111989507D01*
X202015365Y-111944991D01*
X202011588Y-111926000D01*
X210335094Y-111926000D01*
X210335094Y-113626000D01*
X210360473Y-113753589D01*
X210432746Y-113861754D01*
X210540911Y-113934027D01*
X210668500Y-113959406D01*
X212368500Y-113959406D01*
X212496089Y-113934027D01*
X212604254Y-113861754D01*
X212676527Y-113753589D01*
X212701906Y-113626000D01*
X212701906Y-113313657D01*
X212863317Y-113657358D01*
X213291576Y-114047645D01*
X213701610Y-114217476D01*
X213931500Y-114096155D01*
X213931500Y-112903000D01*
X214185500Y-112903000D01*
X214185500Y-114096155D01*
X214415390Y-114217476D01*
X214825424Y-114047645D01*
X215253683Y-113657358D01*
X215499986Y-113132892D01*
X215379319Y-112903000D01*
X214185500Y-112903000D01*
X213931500Y-112903000D01*
X213911500Y-112903000D01*
X213911500Y-112649000D01*
X213931500Y-112649000D01*
X213931500Y-111455845D01*
X214185500Y-111455845D01*
X214185500Y-112649000D01*
X215379319Y-112649000D01*
X215499986Y-112419108D01*
X215253683Y-111894642D01*
X214825424Y-111504355D01*
X214415390Y-111334524D01*
X214185500Y-111455845D01*
X213931500Y-111455845D01*
X213701610Y-111334524D01*
X213291576Y-111504355D01*
X212863317Y-111894642D01*
X212701906Y-112238343D01*
X212701906Y-111926000D01*
X212676527Y-111798411D01*
X212604254Y-111690246D01*
X212496089Y-111617973D01*
X212368500Y-111592594D01*
X210668500Y-111592594D01*
X210540911Y-111617973D01*
X210432746Y-111690246D01*
X210360473Y-111798411D01*
X210335094Y-111926000D01*
X202011588Y-111926000D01*
X202006510Y-111900474D01*
X202006510Y-110373722D01*
X202019333Y-110386545D01*
X202249782Y-110482000D01*
X202499218Y-110482000D01*
X202729667Y-110386545D01*
X202906045Y-110210167D01*
X203001500Y-109979718D01*
X203001500Y-109867224D01*
X205952137Y-106916587D01*
X216193000Y-106916587D01*
X216193000Y-107643413D01*
X216471144Y-108314912D01*
X216985088Y-108828856D01*
X217656587Y-109107000D01*
X218383413Y-109107000D01*
X219054912Y-108828856D01*
X219568856Y-108314912D01*
X219847000Y-107643413D01*
X219847000Y-106916587D01*
X219568856Y-106245088D01*
X219054912Y-105731144D01*
X218383413Y-105453000D01*
X217656587Y-105453000D01*
X216985088Y-105731144D01*
X216471144Y-106245088D01*
X216193000Y-106916587D01*
X205952137Y-106916587D01*
X206345631Y-106523093D01*
X206383374Y-106497874D01*
X206483275Y-106348362D01*
X206509500Y-106216518D01*
X206518355Y-106172000D01*
X206509500Y-106127482D01*
X206509500Y-102745282D01*
X207911000Y-102745282D01*
X207911000Y-102994718D01*
X208006455Y-103225167D01*
X208182833Y-103401545D01*
X208413282Y-103497000D01*
X208662718Y-103497000D01*
X208893167Y-103401545D01*
X208972712Y-103322000D01*
X211059778Y-103322000D01*
X210868778Y-103513000D01*
X210756284Y-103513000D01*
X210525835Y-103608455D01*
X210349457Y-103784833D01*
X210254002Y-104015282D01*
X210254002Y-104264718D01*
X210349457Y-104495167D01*
X210525835Y-104671545D01*
X210756284Y-104767000D01*
X211005720Y-104767000D01*
X211236169Y-104671545D01*
X211412547Y-104495167D01*
X211508002Y-104264718D01*
X211508002Y-104152224D01*
X212615726Y-103044500D01*
X212637955Y-103098167D01*
X212814333Y-103274545D01*
X213044782Y-103370000D01*
X213294218Y-103370000D01*
X213524667Y-103274545D01*
X213701045Y-103098167D01*
X213796500Y-102867718D01*
X213796500Y-102755225D01*
X213844143Y-102707582D01*
X213881884Y-102682364D01*
X213981785Y-102532852D01*
X214008010Y-102401008D01*
X214016865Y-102356490D01*
X214008010Y-102311972D01*
X214008010Y-101505000D01*
X214952819Y-101505000D01*
X215020884Y-101847188D01*
X215214719Y-102137281D01*
X215504812Y-102331116D01*
X215760625Y-102382000D01*
X216333375Y-102382000D01*
X216589188Y-102331116D01*
X216879281Y-102137281D01*
X217073116Y-101847188D01*
X217079518Y-101815000D01*
X217850370Y-101815000D01*
X217928137Y-102205961D01*
X218149598Y-102537402D01*
X218481039Y-102758863D01*
X218773313Y-102817000D01*
X219320687Y-102817000D01*
X219612961Y-102758863D01*
X219944402Y-102537402D01*
X220165863Y-102205961D01*
X220243630Y-101815000D01*
X220165863Y-101424039D01*
X219944402Y-101092598D01*
X219612961Y-100871137D01*
X219320687Y-100813000D01*
X218773313Y-100813000D01*
X218481039Y-100871137D01*
X218149598Y-101092598D01*
X217928137Y-101424039D01*
X217850370Y-101815000D01*
X217079518Y-101815000D01*
X217141181Y-101505000D01*
X217073116Y-101162812D01*
X216879281Y-100872719D01*
X216589188Y-100678884D01*
X216333375Y-100628000D01*
X215760625Y-100628000D01*
X215504812Y-100678884D01*
X215214719Y-100872719D01*
X215020884Y-101162812D01*
X214952819Y-101505000D01*
X214008010Y-101505000D01*
X214008010Y-100738216D01*
X214664133Y-100082094D01*
X214701874Y-100056876D01*
X214801775Y-99907364D01*
X214828000Y-99775520D01*
X214836855Y-99731002D01*
X214828000Y-99686484D01*
X214828000Y-96707224D01*
X214973327Y-96561897D01*
X214952819Y-96665000D01*
X215020884Y-97007188D01*
X215214719Y-97297281D01*
X215504812Y-97491116D01*
X215760625Y-97542000D01*
X216333375Y-97542000D01*
X216589188Y-97491116D01*
X216879281Y-97297281D01*
X217073116Y-97007188D01*
X217141181Y-96665000D01*
X217079519Y-96355000D01*
X217850370Y-96355000D01*
X217928137Y-96745961D01*
X218149598Y-97077402D01*
X218481039Y-97298863D01*
X218773313Y-97357000D01*
X219320687Y-97357000D01*
X219612961Y-97298863D01*
X219944402Y-97077402D01*
X220165863Y-96745961D01*
X220243630Y-96355000D01*
X220165863Y-95964039D01*
X219944402Y-95632598D01*
X219612961Y-95411137D01*
X219320687Y-95353000D01*
X218773313Y-95353000D01*
X218481039Y-95411137D01*
X218149598Y-95632598D01*
X217928137Y-95964039D01*
X217850370Y-96355000D01*
X217079519Y-96355000D01*
X217073116Y-96322812D01*
X216879281Y-96032719D01*
X216589188Y-95838884D01*
X216333375Y-95788000D01*
X215760625Y-95788000D01*
X215743897Y-95791327D01*
X216087224Y-95448000D01*
X216614982Y-95448000D01*
X216659500Y-95456855D01*
X216704018Y-95448000D01*
X216835862Y-95421775D01*
X216985374Y-95321874D01*
X217010593Y-95284131D01*
X217687725Y-94607000D01*
X217800218Y-94607000D01*
X218030667Y-94511545D01*
X218207045Y-94335167D01*
X218302500Y-94104718D01*
X218302500Y-93855282D01*
X218207045Y-93624833D01*
X218030667Y-93448455D01*
X217800218Y-93353000D01*
X217550782Y-93353000D01*
X217320333Y-93448455D01*
X217143955Y-93624833D01*
X217048500Y-93855282D01*
X217048500Y-93967775D01*
X216472276Y-94544000D01*
X215944516Y-94544000D01*
X215899999Y-94535145D01*
X215855483Y-94544000D01*
X215855482Y-94544000D01*
X215723638Y-94570225D01*
X215574126Y-94670126D01*
X215548907Y-94707869D01*
X214087869Y-96168907D01*
X214050126Y-96194126D01*
X213976043Y-96305000D01*
X213950225Y-96343639D01*
X213915145Y-96520000D01*
X213924000Y-96564518D01*
X213924001Y-99543776D01*
X213669587Y-99798190D01*
X213637545Y-99720833D01*
X213461167Y-99544455D01*
X213241582Y-99453500D01*
X213461167Y-99362545D01*
X213637545Y-99186167D01*
X213733000Y-98955718D01*
X213733000Y-98706282D01*
X213637545Y-98475833D01*
X213461167Y-98299455D01*
X213230718Y-98204000D01*
X212981282Y-98204000D01*
X212932999Y-98223999D01*
X212932999Y-95300225D01*
X213943724Y-94289500D01*
X214056218Y-94289500D01*
X214286667Y-94194045D01*
X214463045Y-94017667D01*
X214558500Y-93787218D01*
X214558500Y-93537782D01*
X214463045Y-93307333D01*
X214286667Y-93130955D01*
X214056218Y-93035500D01*
X213806782Y-93035500D01*
X213576333Y-93130955D01*
X213399955Y-93307333D01*
X213304500Y-93537782D01*
X213304500Y-93650276D01*
X212192866Y-94761910D01*
X212155126Y-94787127D01*
X212129909Y-94824867D01*
X212129908Y-94824868D01*
X212055224Y-94936640D01*
X212020144Y-95113001D01*
X212029000Y-95157523D01*
X212028999Y-98632366D01*
X211351858Y-99309508D01*
X211314118Y-99334725D01*
X211288901Y-99372465D01*
X211288900Y-99372466D01*
X211214216Y-99484238D01*
X211179136Y-99660599D01*
X211187992Y-99705121D01*
X211187991Y-101163500D01*
X211076282Y-101163500D01*
X210845833Y-101258955D01*
X210669455Y-101435333D01*
X210619226Y-101556597D01*
X210436718Y-101481000D01*
X210187282Y-101481000D01*
X209956833Y-101576455D01*
X209780455Y-101752833D01*
X209685000Y-101983282D01*
X209685000Y-102232718D01*
X209761746Y-102418000D01*
X208972712Y-102418000D01*
X208893167Y-102338455D01*
X208662718Y-102243000D01*
X208413282Y-102243000D01*
X208182833Y-102338455D01*
X208006455Y-102514833D01*
X207911000Y-102745282D01*
X206509500Y-102745282D01*
X206509500Y-92087518D01*
X206518355Y-92043000D01*
X206483275Y-91866638D01*
X206439781Y-91801545D01*
X206383374Y-91717126D01*
X206345634Y-91691909D01*
X202747500Y-88093776D01*
X202747500Y-87981282D01*
X202652045Y-87750833D01*
X202475667Y-87574455D01*
X202245218Y-87479000D01*
X201995782Y-87479000D01*
X201765333Y-87574455D01*
X201588955Y-87750833D01*
X201493500Y-87981282D01*
X201493500Y-88230718D01*
X201588955Y-88461167D01*
X201765333Y-88637545D01*
X201995782Y-88733000D01*
X202108276Y-88733000D01*
X205605500Y-92230225D01*
X205605501Y-105984775D01*
X204165510Y-107424766D01*
X204165510Y-100442118D01*
X204174365Y-100397600D01*
X204139285Y-100221238D01*
X204125574Y-100200718D01*
X204039384Y-100071726D01*
X204001641Y-100046507D01*
X203250500Y-99295366D01*
X203250500Y-92974712D01*
X203330045Y-92895167D01*
X203425500Y-92664718D01*
X203425500Y-92415282D01*
X203330045Y-92184833D01*
X203153667Y-92008455D01*
X202923218Y-91913000D01*
X202673782Y-91913000D01*
X202443333Y-92008455D01*
X202266955Y-92184833D01*
X202171500Y-92415282D01*
X202171500Y-92664718D01*
X202266955Y-92895167D01*
X202346500Y-92974712D01*
X202346501Y-98780289D01*
X202221667Y-98655455D01*
X201991218Y-98560000D01*
X201741782Y-98560000D01*
X201511333Y-98655455D01*
X201334955Y-98831833D01*
X201239500Y-99062282D01*
X201239500Y-99311718D01*
X201334955Y-99542167D01*
X201511333Y-99718545D01*
X201741782Y-99814000D01*
X201854276Y-99814000D01*
X202811500Y-100771224D01*
X202811500Y-102229788D01*
X202750167Y-102168455D01*
X202519718Y-102073000D01*
X202270282Y-102073000D01*
X202039833Y-102168455D01*
X201968748Y-102239540D01*
X201909351Y-102251355D01*
X201794374Y-102274225D01*
X201644862Y-102374126D01*
X201619645Y-102411866D01*
X199143500Y-104888012D01*
X199143500Y-102646430D01*
X199424133Y-102365798D01*
X199461874Y-102340580D01*
X199561775Y-102191068D01*
X199588000Y-102059224D01*
X199596855Y-102014706D01*
X199588000Y-101970188D01*
X199588000Y-94822223D01*
X200150012Y-95384235D01*
X200150011Y-99655993D01*
X200141156Y-99700511D01*
X200163730Y-99814000D01*
X200176236Y-99876872D01*
X200276137Y-100026385D01*
X200313880Y-100051604D01*
X201366500Y-101104225D01*
X201366500Y-101216718D01*
X201461955Y-101447167D01*
X201638333Y-101623545D01*
X201868782Y-101719000D01*
X202118218Y-101719000D01*
X202348667Y-101623545D01*
X202525045Y-101447167D01*
X202620500Y-101216718D01*
X202620500Y-100967282D01*
X202525045Y-100736833D01*
X202348667Y-100560455D01*
X202118218Y-100465000D01*
X202005725Y-100465000D01*
X201054011Y-99513287D01*
X201054011Y-95241525D01*
X201062866Y-95197008D01*
X201054011Y-95152491D01*
X201027786Y-95020647D01*
X200927885Y-94871135D01*
X200890145Y-94845918D01*
X196401094Y-90356868D01*
X196375875Y-90319125D01*
X196226363Y-90219224D01*
X196094519Y-90192999D01*
X196050001Y-90184144D01*
X196005483Y-90192999D01*
X185919517Y-90192999D01*
X185875000Y-90184144D01*
X185830484Y-90192999D01*
X185830483Y-90192999D01*
X185698639Y-90219224D01*
X185549127Y-90319125D01*
X185523908Y-90356868D01*
X184523000Y-91357776D01*
X184523000Y-91145282D01*
X184427545Y-90914833D01*
X184251167Y-90738455D01*
X184020718Y-90643000D01*
X183771282Y-90643000D01*
X183540833Y-90738455D01*
X183364455Y-90914833D01*
X183269000Y-91145282D01*
X183269000Y-91394718D01*
X183364455Y-91625167D01*
X183540833Y-91801545D01*
X183771282Y-91897000D01*
X183983775Y-91897000D01*
X183967775Y-91913000D01*
X183855282Y-91913000D01*
X183624833Y-92008455D01*
X183448455Y-92184833D01*
X183353000Y-92415282D01*
X183353000Y-92664718D01*
X183448455Y-92895167D01*
X183624833Y-93071545D01*
X183855282Y-93167000D01*
X184104718Y-93167000D01*
X184335167Y-93071545D01*
X184511545Y-92895167D01*
X184607000Y-92664718D01*
X184607000Y-92552225D01*
X184631090Y-92528135D01*
X184631092Y-92528132D01*
X186062225Y-91096999D01*
X195142999Y-91096999D01*
X195123000Y-91145282D01*
X195123000Y-91394718D01*
X195218455Y-91625167D01*
X195394833Y-91801545D01*
X195625282Y-91897000D01*
X195737776Y-91897000D01*
X198684000Y-94843225D01*
X198684001Y-101240563D01*
X198679886Y-101234405D01*
X198642143Y-101209186D01*
X197576500Y-100143543D01*
X197576500Y-99324712D01*
X197656045Y-99245167D01*
X197751500Y-99014718D01*
X197751500Y-98765282D01*
X197656045Y-98534833D01*
X197479667Y-98358455D01*
X197249218Y-98263000D01*
X196999782Y-98263000D01*
X196769333Y-98358455D01*
X196592955Y-98534833D01*
X196497500Y-98765282D01*
X196497500Y-99014718D01*
X196592955Y-99245167D01*
X196672500Y-99324712D01*
X196672501Y-100189277D01*
X196631000Y-100147776D01*
X196631000Y-100035282D01*
X196535545Y-99804833D01*
X196359167Y-99628455D01*
X196128718Y-99533000D01*
X195879282Y-99533000D01*
X195648833Y-99628455D01*
X195472455Y-99804833D01*
X195377000Y-100035282D01*
X195377000Y-100284718D01*
X195472455Y-100515167D01*
X195648833Y-100691545D01*
X195879282Y-100787000D01*
X195991776Y-100787000D01*
X196652000Y-101447225D01*
X196652001Y-116928774D01*
X185727567Y-127853209D01*
X185461982Y-127743200D01*
X185062024Y-127743200D01*
X191946134Y-120859091D01*
X191983874Y-120833874D01*
X192083775Y-120684362D01*
X192110000Y-120552518D01*
X192118855Y-120508000D01*
X192110000Y-120463482D01*
X192110000Y-120180712D01*
X192189545Y-120101167D01*
X192285000Y-119870718D01*
X192285000Y-119621282D01*
X192189545Y-119390833D01*
X192013167Y-119214455D01*
X191782718Y-119119000D01*
X191533282Y-119119000D01*
X191302833Y-119214455D01*
X191126455Y-119390833D01*
X191031000Y-119621282D01*
X191031000Y-119870718D01*
X191126455Y-120101167D01*
X191206001Y-120180713D01*
X191206001Y-120320774D01*
X183726996Y-127799780D01*
X183713804Y-127786588D01*
X183599362Y-127901030D01*
X183508077Y-127640420D01*
X182920167Y-127423955D01*
X182331775Y-127447450D01*
X187915225Y-121864000D01*
X188287288Y-121864000D01*
X188366833Y-121943545D01*
X188597282Y-122039000D01*
X188846718Y-122039000D01*
X189077167Y-121943545D01*
X189253545Y-121767167D01*
X189349000Y-121536718D01*
X189349000Y-121287282D01*
X189253545Y-121056833D01*
X189077167Y-120880455D01*
X188846718Y-120785000D01*
X188597282Y-120785000D01*
X188366833Y-120880455D01*
X188287288Y-120960000D01*
X187772518Y-120960000D01*
X187728000Y-120951145D01*
X187683482Y-120960000D01*
X187551638Y-120986225D01*
X187402126Y-121086126D01*
X187376909Y-121123866D01*
X186755517Y-121745258D01*
X186693557Y-121595672D01*
X186614012Y-121516127D01*
X186614012Y-117873528D01*
X186622867Y-117829011D01*
X186609644Y-117762535D01*
X186587787Y-117652650D01*
X186487886Y-117503138D01*
X186450143Y-117477919D01*
X184530000Y-115557776D01*
X184530000Y-115445282D01*
X184434545Y-115214833D01*
X184258167Y-115038455D01*
X184027718Y-114943000D01*
X183778282Y-114943000D01*
X183547833Y-115038455D01*
X183371455Y-115214833D01*
X183276000Y-115445282D01*
X183276000Y-115694718D01*
X183371455Y-115925167D01*
X183547833Y-116101545D01*
X183778282Y-116197000D01*
X183890776Y-116197000D01*
X185710012Y-118016236D01*
X185710013Y-120645784D01*
X181808000Y-116743772D01*
X181808000Y-114204224D01*
X182990224Y-113022000D01*
X183102718Y-113022000D01*
X183333167Y-112926545D01*
X183509545Y-112750167D01*
X183605000Y-112519718D01*
X183605000Y-112270282D01*
X183509545Y-112039833D01*
X183333167Y-111863455D01*
X183102718Y-111768000D01*
X182853282Y-111768000D01*
X182622833Y-111863455D01*
X182446455Y-112039833D01*
X182351000Y-112270282D01*
X182351000Y-112382776D01*
X181067869Y-113665907D01*
X181030126Y-113691126D01*
X180931223Y-113839145D01*
X180930225Y-113840639D01*
X180895145Y-114017000D01*
X180904000Y-114061518D01*
X180904001Y-116886474D01*
X180895145Y-116930996D01*
X180930225Y-117107357D01*
X180969325Y-117165874D01*
X181030127Y-117256870D01*
X181067867Y-117282087D01*
X184126191Y-120340412D01*
X184048833Y-120372455D01*
X183969288Y-120452000D01*
X183623528Y-120452000D01*
X183579011Y-120443145D01*
X183534495Y-120452000D01*
X183534494Y-120452000D01*
X183402650Y-120478225D01*
X183253138Y-120578126D01*
X183227919Y-120615869D01*
X182836597Y-121007191D01*
X182804555Y-120929833D01*
X182628177Y-120753455D01*
X182397728Y-120658000D01*
X182148292Y-120658000D01*
X181917843Y-120753455D01*
X181741465Y-120929833D01*
X181728969Y-120960000D01*
X168823406Y-120960000D01*
X168823406Y-120054000D01*
X168798027Y-119926411D01*
X168725754Y-119818246D01*
X168617589Y-119745973D01*
X168490000Y-119720594D01*
X166790000Y-119720594D01*
X166662411Y-119745973D01*
X166554246Y-119818246D01*
X166481973Y-119926411D01*
X166456594Y-120054000D01*
X166456594Y-121627001D01*
X165530225Y-121627001D01*
X164519093Y-120615869D01*
X164493874Y-120578126D01*
X164344362Y-120478225D01*
X164251406Y-120459735D01*
X164251406Y-120054000D01*
X164226027Y-119926411D01*
X164153754Y-119818246D01*
X164045589Y-119745973D01*
X163918000Y-119720594D01*
X162218000Y-119720594D01*
X162090411Y-119745973D01*
X161982246Y-119818246D01*
X161909973Y-119926411D01*
X161884594Y-120054000D01*
X161884594Y-121754000D01*
X161909973Y-121881589D01*
X161982246Y-121989754D01*
X162090411Y-122062027D01*
X162218000Y-122087406D01*
X163918000Y-122087406D01*
X164045589Y-122062027D01*
X164153754Y-121989754D01*
X164226027Y-121881589D01*
X164251406Y-121754000D01*
X164251406Y-121626630D01*
X164991908Y-122367132D01*
X165017127Y-122404875D01*
X165166639Y-122504776D01*
X165298483Y-122531001D01*
X165298484Y-122531001D01*
X165343000Y-122539856D01*
X165387517Y-122531001D01*
X166887857Y-122531001D01*
X166791431Y-122595431D01*
X166531291Y-122984758D01*
X166439942Y-123444000D01*
X166531291Y-123903242D01*
X166707529Y-124167001D01*
X164430225Y-124167001D01*
X164172606Y-123909382D01*
X164176709Y-123903242D01*
X164268058Y-123444000D01*
X164176709Y-122984758D01*
X163916569Y-122595431D01*
X163527242Y-122335291D01*
X163183920Y-122267000D01*
X162952080Y-122267000D01*
X162608758Y-122335291D01*
X162219431Y-122595431D01*
X161959291Y-122984758D01*
X161867942Y-123444000D01*
X157099000Y-123444000D01*
X157099000Y-113792000D01*
X161867942Y-113792000D01*
X161959291Y-114251242D01*
X162219431Y-114640569D01*
X162608758Y-114900709D01*
X162952080Y-114969000D01*
X163183920Y-114969000D01*
X163527242Y-114900709D01*
X163533382Y-114896606D01*
X163785370Y-115148594D01*
X162218000Y-115148594D01*
X162090411Y-115173973D01*
X161982246Y-115246246D01*
X161909973Y-115354411D01*
X161884594Y-115482000D01*
X161884594Y-117182000D01*
X161909973Y-117309589D01*
X161982246Y-117417754D01*
X162090411Y-117490027D01*
X162218000Y-117515406D01*
X163918000Y-117515406D01*
X164045589Y-117490027D01*
X164153754Y-117417754D01*
X164226027Y-117309589D01*
X164251406Y-117182000D01*
X164251406Y-115482000D01*
X164240539Y-115427366D01*
X164243000Y-115427856D01*
X164287517Y-115419001D01*
X166469125Y-115419001D01*
X166456594Y-115482000D01*
X166456594Y-117182000D01*
X166481973Y-117309589D01*
X166554246Y-117417754D01*
X166662411Y-117490027D01*
X166790000Y-117515406D01*
X168490000Y-117515406D01*
X168617589Y-117490027D01*
X168725754Y-117417754D01*
X168798027Y-117309589D01*
X168823406Y-117182000D01*
X168823406Y-116784000D01*
X169484776Y-116784000D01*
X171352908Y-118652133D01*
X171378126Y-118689874D01*
X171483327Y-118760167D01*
X171527638Y-118789775D01*
X171704000Y-118824855D01*
X171748518Y-118816000D01*
X175930775Y-118816000D01*
X176432908Y-119318134D01*
X176458126Y-119355875D01*
X176495866Y-119381092D01*
X176607638Y-119455776D01*
X176784000Y-119490856D01*
X176828518Y-119482001D01*
X180533481Y-119482001D01*
X180577999Y-119490856D01*
X180622517Y-119482001D01*
X180754361Y-119455776D01*
X180903873Y-119355875D01*
X180929092Y-119318132D01*
X181185224Y-119062000D01*
X181297718Y-119062000D01*
X181528167Y-118966545D01*
X181704545Y-118790167D01*
X181800000Y-118559718D01*
X181800000Y-118310282D01*
X181704545Y-118079833D01*
X181528167Y-117903455D01*
X181297718Y-117808000D01*
X181150000Y-117808000D01*
X181150000Y-117802282D01*
X181054545Y-117571833D01*
X180983459Y-117500747D01*
X180948775Y-117326374D01*
X180874091Y-117214602D01*
X180848874Y-117176862D01*
X180811134Y-117151645D01*
X179977346Y-116317858D01*
X179952127Y-116280115D01*
X179802615Y-116180214D01*
X179670771Y-116153989D01*
X179626253Y-116145134D01*
X179581735Y-116153989D01*
X179531213Y-116153989D01*
X179399695Y-116022471D01*
X179578167Y-115948545D01*
X179754545Y-115772167D01*
X179850000Y-115541718D01*
X179850000Y-115292282D01*
X179754545Y-115061833D01*
X179578167Y-114885455D01*
X179347718Y-114790000D01*
X179235224Y-114790000D01*
X178457093Y-114011869D01*
X178431874Y-113974126D01*
X178282362Y-113874225D01*
X178150518Y-113848000D01*
X178106000Y-113839145D01*
X178061482Y-113848000D01*
X177861634Y-113848000D01*
X177342264Y-113328630D01*
X177393167Y-113307545D01*
X177569545Y-113131167D01*
X177665000Y-112900718D01*
X177665000Y-112788225D01*
X177689090Y-112764135D01*
X177689092Y-112764132D01*
X180019225Y-110434000D01*
X192287788Y-110434000D01*
X192367333Y-110513545D01*
X192556738Y-110591999D01*
X181608517Y-110591999D01*
X181564000Y-110583144D01*
X181519484Y-110591999D01*
X181519483Y-110591999D01*
X181387639Y-110618224D01*
X181238127Y-110718125D01*
X181212910Y-110755866D01*
X179819776Y-112149000D01*
X179707282Y-112149000D01*
X179476833Y-112244455D01*
X179300455Y-112420833D01*
X179205000Y-112651282D01*
X179205000Y-112900718D01*
X179300455Y-113131167D01*
X179476833Y-113307545D01*
X179707282Y-113403000D01*
X179956718Y-113403000D01*
X180187167Y-113307545D01*
X180363545Y-113131167D01*
X180459000Y-112900718D01*
X180459000Y-112788224D01*
X181751226Y-111495999D01*
X194613275Y-111495999D01*
X194635500Y-111518224D01*
X194635500Y-111630718D01*
X194730955Y-111861167D01*
X194907333Y-112037545D01*
X195137782Y-112133000D01*
X195387218Y-112133000D01*
X195617667Y-112037545D01*
X195794045Y-111861167D01*
X195889500Y-111630718D01*
X195889500Y-111381282D01*
X195794045Y-111150833D01*
X195617667Y-110974455D01*
X195387218Y-110879000D01*
X195274724Y-110879000D01*
X195151592Y-110755868D01*
X195126373Y-110718125D01*
X194976861Y-110618224D01*
X194845017Y-110591999D01*
X194800499Y-110583144D01*
X194755981Y-110591999D01*
X192888262Y-110591999D01*
X193077667Y-110513545D01*
X193254045Y-110337167D01*
X193349500Y-110106718D01*
X193349500Y-109857282D01*
X193254045Y-109626833D01*
X193077667Y-109450455D01*
X192847218Y-109355000D01*
X192597782Y-109355000D01*
X192367333Y-109450455D01*
X192287788Y-109530000D01*
X179876517Y-109530000D01*
X179831999Y-109521145D01*
X179655638Y-109556225D01*
X179506126Y-109656126D01*
X179480909Y-109693866D01*
X177049868Y-112124908D01*
X177049865Y-112124910D01*
X177025775Y-112149000D01*
X176913282Y-112149000D01*
X176682833Y-112244455D01*
X176677200Y-112250088D01*
X176677200Y-111742688D01*
X176885167Y-111656545D01*
X177061545Y-111480167D01*
X177157000Y-111249718D01*
X177157000Y-111000282D01*
X177061545Y-110769833D01*
X176885167Y-110593455D01*
X176654718Y-110498000D01*
X176405282Y-110498000D01*
X176174833Y-110593455D01*
X175998455Y-110769833D01*
X175903000Y-111000282D01*
X175903000Y-111101471D01*
X175899326Y-111103926D01*
X175831888Y-111204855D01*
X175799425Y-111253439D01*
X175764345Y-111429800D01*
X175773200Y-111474318D01*
X175773201Y-112806268D01*
X175764345Y-112850790D01*
X175799425Y-113027151D01*
X175799426Y-113027152D01*
X175899327Y-113176664D01*
X175937067Y-113201881D01*
X176075186Y-113340000D01*
X168750150Y-113340000D01*
X168748709Y-113332758D01*
X168488569Y-112943431D01*
X168099242Y-112683291D01*
X167755920Y-112615000D01*
X167524080Y-112615000D01*
X167180758Y-112683291D01*
X166791431Y-112943431D01*
X166531291Y-113332758D01*
X166439942Y-113792000D01*
X166531291Y-114251242D01*
X166707529Y-114515001D01*
X164430225Y-114515001D01*
X164172606Y-114257382D01*
X164176709Y-114251242D01*
X164268058Y-113792000D01*
X164176709Y-113332758D01*
X163916569Y-112943431D01*
X163527242Y-112683291D01*
X163183920Y-112615000D01*
X162952080Y-112615000D01*
X162608758Y-112683291D01*
X162219431Y-112943431D01*
X161959291Y-113332758D01*
X161867942Y-113792000D01*
X157099000Y-113792000D01*
X157099000Y-109220000D01*
X164534942Y-109220000D01*
X164626291Y-109679242D01*
X164886431Y-110068569D01*
X165275758Y-110328709D01*
X165619080Y-110397000D01*
X165850920Y-110397000D01*
X166194242Y-110328709D01*
X166583569Y-110068569D01*
X166843709Y-109679242D01*
X166935058Y-109220000D01*
X166843709Y-108760758D01*
X166583569Y-108371431D01*
X166194242Y-108111291D01*
X165850920Y-108043000D01*
X165619080Y-108043000D01*
X165275758Y-108111291D01*
X164886431Y-108371431D01*
X164626291Y-108760758D01*
X164534942Y-109220000D01*
X157099000Y-109220000D01*
X157099000Y-106916587D01*
X158193000Y-106916587D01*
X158193000Y-107643413D01*
X158471144Y-108314912D01*
X158985088Y-108828856D01*
X159656587Y-109107000D01*
X160383413Y-109107000D01*
X161054912Y-108828856D01*
X161568856Y-108314912D01*
X161847000Y-107643413D01*
X161847000Y-106916587D01*
X161568856Y-106245088D01*
X161054912Y-105731144D01*
X160383413Y-105453000D01*
X159656587Y-105453000D01*
X158985088Y-105731144D01*
X158471144Y-106245088D01*
X158193000Y-106916587D01*
X157099000Y-106916587D01*
X157099000Y-99695000D01*
X161994942Y-99695000D01*
X162086291Y-100154242D01*
X162346431Y-100543569D01*
X162735758Y-100803709D01*
X163079080Y-100872000D01*
X163310920Y-100872000D01*
X163654242Y-100803709D01*
X164043569Y-100543569D01*
X164303709Y-100154242D01*
X164395058Y-99695000D01*
X164303709Y-99235758D01*
X164299607Y-99229618D01*
X164396090Y-99133135D01*
X164396092Y-99133132D01*
X166082226Y-97446999D01*
X174963776Y-97446999D01*
X169161870Y-103248906D01*
X169124127Y-103274125D01*
X169060066Y-103370000D01*
X169024226Y-103423638D01*
X168989146Y-103599999D01*
X168998001Y-103644517D01*
X168998001Y-105747529D01*
X168734242Y-105571291D01*
X168390920Y-105503000D01*
X168159080Y-105503000D01*
X167815758Y-105571291D01*
X167809618Y-105575394D01*
X167356093Y-105121869D01*
X167330874Y-105084126D01*
X167181362Y-104984225D01*
X167049518Y-104958000D01*
X167005000Y-104949145D01*
X166960482Y-104958000D01*
X166557225Y-104958000D01*
X166116968Y-104517744D01*
X166139545Y-104495167D01*
X166235000Y-104264718D01*
X166235000Y-104015282D01*
X166139545Y-103784833D01*
X165963167Y-103608455D01*
X165732718Y-103513000D01*
X165483282Y-103513000D01*
X165252833Y-103608455D01*
X165076455Y-103784833D01*
X164981000Y-104015282D01*
X164981000Y-104264718D01*
X165076455Y-104495167D01*
X165156000Y-104574712D01*
X165156000Y-104603482D01*
X165147145Y-104648000D01*
X165156000Y-104692517D01*
X165182225Y-104824361D01*
X165282126Y-104973874D01*
X165319869Y-104999093D01*
X165823775Y-105503000D01*
X165619080Y-105503000D01*
X165275758Y-105571291D01*
X164886431Y-105831431D01*
X164626291Y-106220758D01*
X164534942Y-106680000D01*
X164626291Y-107139242D01*
X164886431Y-107528569D01*
X165275758Y-107788709D01*
X165619080Y-107857000D01*
X165850920Y-107857000D01*
X166194242Y-107788709D01*
X166583569Y-107528569D01*
X166843709Y-107139242D01*
X166935058Y-106680000D01*
X166843709Y-106220758D01*
X166603995Y-105862000D01*
X166817776Y-105862000D01*
X167170394Y-106214618D01*
X167166291Y-106220758D01*
X167074942Y-106680000D01*
X167166291Y-107139242D01*
X167426431Y-107528569D01*
X167815758Y-107788709D01*
X168159080Y-107857000D01*
X168390920Y-107857000D01*
X168734242Y-107788709D01*
X168998002Y-107612470D01*
X168998002Y-108287530D01*
X168734242Y-108111291D01*
X168390920Y-108043000D01*
X168159080Y-108043000D01*
X167815758Y-108111291D01*
X167426431Y-108371431D01*
X167166291Y-108760758D01*
X167074942Y-109220000D01*
X167166291Y-109679242D01*
X167426431Y-110068569D01*
X167815758Y-110328709D01*
X168159080Y-110397000D01*
X168363776Y-110397000D01*
X168286868Y-110473908D01*
X168286865Y-110473910D01*
X168262775Y-110498000D01*
X168150282Y-110498000D01*
X167919833Y-110593455D01*
X167743455Y-110769833D01*
X167648000Y-111000282D01*
X167648000Y-111249718D01*
X167743455Y-111480167D01*
X167919833Y-111656545D01*
X168150282Y-111752000D01*
X168399718Y-111752000D01*
X168630167Y-111656545D01*
X168806545Y-111480167D01*
X168902000Y-111249718D01*
X168902000Y-111137225D01*
X168926090Y-111113135D01*
X168926092Y-111113132D01*
X169738134Y-110301091D01*
X169775875Y-110275873D01*
X169875776Y-110126361D01*
X169902001Y-109994517D01*
X169905430Y-109977275D01*
X169966431Y-110068569D01*
X170355758Y-110328709D01*
X170699080Y-110397000D01*
X170930920Y-110397000D01*
X171274242Y-110328709D01*
X171663569Y-110068569D01*
X171923709Y-109679242D01*
X172015058Y-109220000D01*
X172154942Y-109220000D01*
X172246291Y-109679242D01*
X172506431Y-110068569D01*
X172895758Y-110328709D01*
X173239080Y-110397000D01*
X173470920Y-110397000D01*
X173814242Y-110328709D01*
X174203569Y-110068569D01*
X174463709Y-109679242D01*
X174555058Y-109220000D01*
X174463709Y-108760758D01*
X174203569Y-108371431D01*
X173814242Y-108111291D01*
X173470920Y-108043000D01*
X173239080Y-108043000D01*
X172895758Y-108111291D01*
X172506431Y-108371431D01*
X172246291Y-108760758D01*
X172154942Y-109220000D01*
X172015058Y-109220000D01*
X171923709Y-108760758D01*
X171663569Y-108371431D01*
X171274242Y-108111291D01*
X170930920Y-108043000D01*
X170699080Y-108043000D01*
X170355758Y-108111291D01*
X169966431Y-108371431D01*
X169902001Y-108467857D01*
X169902001Y-107432143D01*
X169966431Y-107528569D01*
X170355758Y-107788709D01*
X170699080Y-107857000D01*
X170930920Y-107857000D01*
X171274242Y-107788709D01*
X171663569Y-107528569D01*
X171923709Y-107139242D01*
X172015058Y-106680000D01*
X171923709Y-106220758D01*
X171663569Y-105831431D01*
X171661428Y-105830000D01*
X172171594Y-105830000D01*
X172171594Y-107530000D01*
X172196973Y-107657589D01*
X172269246Y-107765754D01*
X172377411Y-107838027D01*
X172505000Y-107863406D01*
X174205000Y-107863406D01*
X174332589Y-107838027D01*
X174440754Y-107765754D01*
X174513027Y-107657589D01*
X174538406Y-107530000D01*
X174538406Y-107132000D01*
X177755482Y-107132000D01*
X177800000Y-107140855D01*
X177844518Y-107132000D01*
X177976362Y-107105775D01*
X178125874Y-107005874D01*
X178151093Y-106968131D01*
X179252224Y-105867000D01*
X179364718Y-105867000D01*
X179595167Y-105771545D01*
X179771545Y-105595167D01*
X179867000Y-105364718D01*
X179867000Y-105115282D01*
X179771545Y-104884833D01*
X179595167Y-104708455D01*
X179364718Y-104613000D01*
X179115282Y-104613000D01*
X178884833Y-104708455D01*
X178708455Y-104884833D01*
X178613000Y-105115282D01*
X178613000Y-105227776D01*
X177612776Y-106228000D01*
X174538406Y-106228000D01*
X174538406Y-105830000D01*
X174513027Y-105702411D01*
X174440754Y-105594246D01*
X174332589Y-105521973D01*
X174205000Y-105496594D01*
X172505000Y-105496594D01*
X172377411Y-105521973D01*
X172269246Y-105594246D01*
X172196973Y-105702411D01*
X172171594Y-105830000D01*
X171661428Y-105830000D01*
X171274242Y-105571291D01*
X170930920Y-105503000D01*
X170699080Y-105503000D01*
X170355758Y-105571291D01*
X169966431Y-105831431D01*
X169902001Y-105927857D01*
X169902001Y-103787223D01*
X175617225Y-98072000D01*
X178170288Y-98072000D01*
X178249833Y-98151545D01*
X178480282Y-98247000D01*
X178729718Y-98247000D01*
X178960167Y-98151545D01*
X179136545Y-97975167D01*
X179168587Y-97897810D01*
X184180601Y-102909824D01*
X184180600Y-104594288D01*
X184101055Y-104673833D01*
X184005600Y-104904282D01*
X184005600Y-105153718D01*
X184101055Y-105384167D01*
X184277433Y-105560545D01*
X184507882Y-105656000D01*
X184757318Y-105656000D01*
X184987767Y-105560545D01*
X185164145Y-105384167D01*
X185259600Y-105153718D01*
X185259600Y-104904282D01*
X185164145Y-104673833D01*
X185084600Y-104594288D01*
X185084600Y-103177413D01*
X185603000Y-103695813D01*
X185603001Y-105373014D01*
X185603000Y-105373019D01*
X185603000Y-105407088D01*
X185523455Y-105486633D01*
X185428000Y-105717082D01*
X185428000Y-105966518D01*
X185523455Y-106196967D01*
X185699833Y-106373345D01*
X185930282Y-106468800D01*
X186179718Y-106468800D01*
X186410167Y-106373345D01*
X186586545Y-106196967D01*
X186682000Y-105966518D01*
X186682000Y-105717082D01*
X186586545Y-105486633D01*
X186507000Y-105407088D01*
X186507000Y-103553106D01*
X186515855Y-103508588D01*
X186480775Y-103332226D01*
X186406091Y-103220454D01*
X186380874Y-103182714D01*
X186343134Y-103157497D01*
X179442493Y-96256857D01*
X179417276Y-96219117D01*
X179379535Y-96193899D01*
X179267763Y-96119215D01*
X179091402Y-96084135D01*
X179046879Y-96092991D01*
X164949529Y-96092989D01*
X164905011Y-96084134D01*
X164728649Y-96119214D01*
X164616877Y-96193898D01*
X164616876Y-96193899D01*
X164579138Y-96219115D01*
X164553922Y-96256853D01*
X164378406Y-96432369D01*
X164378406Y-96305000D01*
X164353027Y-96177411D01*
X164280754Y-96069246D01*
X164172589Y-95996973D01*
X164045000Y-95971594D01*
X162345000Y-95971594D01*
X162217411Y-95996973D01*
X162109246Y-96069246D01*
X162036973Y-96177411D01*
X162011594Y-96305000D01*
X162011594Y-98005000D01*
X162036973Y-98132589D01*
X162109246Y-98240754D01*
X162217411Y-98313027D01*
X162345000Y-98338406D01*
X163912370Y-98338406D01*
X163756868Y-98493908D01*
X163756865Y-98493910D01*
X163660382Y-98590393D01*
X163654242Y-98586291D01*
X163310920Y-98518000D01*
X163079080Y-98518000D01*
X162735758Y-98586291D01*
X162346431Y-98846431D01*
X162086291Y-99235758D01*
X161994942Y-99695000D01*
X157099000Y-99695000D01*
X157099000Y-90590000D01*
X162011594Y-90590000D01*
X162011594Y-92290000D01*
X162036973Y-92417589D01*
X162109246Y-92525754D01*
X162217411Y-92598027D01*
X162345000Y-92623406D01*
X164045000Y-92623406D01*
X164172589Y-92598027D01*
X164280754Y-92525754D01*
X164353027Y-92417589D01*
X164378406Y-92290000D01*
X164378406Y-90590000D01*
X164353027Y-90462411D01*
X164280754Y-90354246D01*
X164172589Y-90281973D01*
X164045000Y-90256594D01*
X162345000Y-90256594D01*
X162217411Y-90281973D01*
X162109246Y-90354246D01*
X162036973Y-90462411D01*
X162011594Y-90590000D01*
X157099000Y-90590000D01*
X157099000Y-88900000D01*
X161994942Y-88900000D01*
X162086291Y-89359242D01*
X162346431Y-89748569D01*
X162735758Y-90008709D01*
X163079080Y-90077000D01*
X163310920Y-90077000D01*
X163654242Y-90008709D01*
X164043569Y-89748569D01*
X164303709Y-89359242D01*
X164395058Y-88900000D01*
X164303709Y-88440758D01*
X164043569Y-88051431D01*
X163654242Y-87791291D01*
X163310920Y-87723000D01*
X163079080Y-87723000D01*
X162735758Y-87791291D01*
X162346431Y-88051431D01*
X162086291Y-88440758D01*
X161994942Y-88900000D01*
X157099000Y-88900000D01*
X157099000Y-81239128D01*
X157135341Y-80916587D01*
X158193000Y-80916587D01*
X158193000Y-81643413D01*
X158471144Y-82314912D01*
X158985088Y-82828856D01*
X159656587Y-83107000D01*
X160383413Y-83107000D01*
X161054912Y-82828856D01*
X161568856Y-82314912D01*
X161847000Y-81643413D01*
X161847000Y-80916587D01*
X216193000Y-80916587D01*
X216193000Y-81643413D01*
X216471144Y-82314912D01*
X216985088Y-82828856D01*
X217656587Y-83107000D01*
X218383413Y-83107000D01*
X219054912Y-82828856D01*
X219568856Y-82314912D01*
X219847000Y-81643413D01*
X219847000Y-80916587D01*
X219568856Y-80245088D01*
X219054912Y-79731144D01*
X218383413Y-79453000D01*
X217656587Y-79453000D01*
X216985088Y-79731144D01*
X216471144Y-80245088D01*
X216193000Y-80916587D01*
X161847000Y-80916587D01*
X161568856Y-80245088D01*
X161054912Y-79731144D01*
X160383413Y-79453000D01*
X159656587Y-79453000D01*
X158985088Y-79731144D01*
X158471144Y-80245088D01*
X158193000Y-80916587D01*
X157135341Y-80916587D01*
X157171815Y-80592877D01*
X157384239Y-79985802D01*
X157726425Y-79441218D01*
X158181218Y-78986425D01*
X158725802Y-78644239D01*
X159332877Y-78431815D01*
X159979128Y-78359000D01*
X217972872Y-78359000D01*
X218619123Y-78431815D01*
G36*
X182863748Y-128995858D02*
X182849605Y-129010000D01*
X182863748Y-129024143D01*
X182684143Y-129203748D01*
X182670000Y-129189605D01*
X182655858Y-129203748D01*
X182476253Y-129024143D01*
X182490395Y-129010000D01*
X182476253Y-128995858D01*
X182655858Y-128816253D01*
X182670000Y-128830395D01*
X182684143Y-128816253D01*
X182863748Y-128995858D01*
X182863748Y-128995858D01*
G37*
X182863748Y-128995858D02*
X182849605Y-129010000D01*
X182863748Y-129024143D01*
X182684143Y-129203748D01*
X182670000Y-129189605D01*
X182655858Y-129203748D01*
X182476253Y-129024143D01*
X182490395Y-129010000D01*
X182476253Y-128995858D01*
X182655858Y-128816253D01*
X182670000Y-128830395D01*
X182684143Y-128816253D01*
X182863748Y-128995858D01*
G36*
X198684000Y-123239576D02*
X198675145Y-123284094D01*
X198684000Y-123328611D01*
X198710225Y-123460455D01*
X198810126Y-123609968D01*
X198847869Y-123635187D01*
X202659810Y-127447129D01*
X202614172Y-127448951D01*
X202151923Y-127640420D01*
X202060637Y-127901032D01*
X202990000Y-128830395D01*
X203004143Y-128816253D01*
X203183748Y-128995858D01*
X203169605Y-129010000D01*
X203183748Y-129024143D01*
X203004143Y-129203748D01*
X202990000Y-129189605D01*
X202975858Y-129203748D01*
X202796253Y-129024143D01*
X202810395Y-129010000D01*
X202168794Y-128368399D01*
X202166793Y-128358335D01*
X202140576Y-128226533D01*
X202040675Y-128077021D01*
X202002935Y-128051804D01*
X198572000Y-124620870D01*
X198572000Y-122773720D01*
X198684001Y-122661720D01*
X198684000Y-123239576D01*
X198684000Y-123239576D01*
G37*
X198684000Y-123239576D02*
X198675145Y-123284094D01*
X198684000Y-123328611D01*
X198710225Y-123460455D01*
X198810126Y-123609968D01*
X198847869Y-123635187D01*
X202659810Y-127447129D01*
X202614172Y-127448951D01*
X202151923Y-127640420D01*
X202060637Y-127901032D01*
X202990000Y-128830395D01*
X203004143Y-128816253D01*
X203183748Y-128995858D01*
X203169605Y-129010000D01*
X203183748Y-129024143D01*
X203004143Y-129203748D01*
X202990000Y-129189605D01*
X202975858Y-129203748D01*
X202796253Y-129024143D01*
X202810395Y-129010000D01*
X202168794Y-128368399D01*
X202166793Y-128358335D01*
X202140576Y-128226533D01*
X202040675Y-128077021D01*
X202002935Y-128051804D01*
X198572000Y-124620870D01*
X198572000Y-122773720D01*
X198684001Y-122661720D01*
X198684000Y-123239576D01*
G04 #@! TD*
M02*
