G04 #@! TF.GenerationSoftware,KiCad,Pcbnew,5.0.1+dfsg1-3~bpo9+1*
G04 #@! TF.CreationDate,2018-12-29T18:45:15+00:00*
G04 #@! TF.ProjectId,esp32_io_board,65737033325F696F5F626F6172642E6B,rev?*
G04 #@! TF.SameCoordinates,Original*
G04 #@! TF.FileFunction,Legend,Bot*
G04 #@! TF.FilePolarity,Positive*
%FSLAX46Y46*%
G04 Gerber Fmt 4.6, Leading zero omitted, Abs format (unit mm)*
G04 Created by KiCad (PCBNEW 5.0.1+dfsg1-3~bpo9+1) date Sat 29 Dec 2018 06:45:15 PM UTC*
%MOMM*%
%LPD*%
G01*
G04 APERTURE LIST*
%ADD10C,0.203200*%
%ADD11C,0.025400*%
G04 APERTURE END LIST*
D10*
G04 #@! TO.C,J5*
X213785000Y-127506320D02*
X212515000Y-127506320D01*
X218169040Y-134778340D02*
X159870960Y-134778340D01*
X159870960Y-125781660D02*
X218169040Y-125781660D01*
X218169040Y-125781660D02*
X218169040Y-134679280D01*
X159870960Y-134778340D02*
X159870960Y-125781660D01*
X191219640Y-125781660D02*
X191219640Y-127280260D01*
X186820360Y-127280260D02*
X186820360Y-125781660D01*
X191219640Y-127280260D02*
X186820360Y-127280260D01*
D11*
X159028647Y-128510466D02*
X159318933Y-128510466D01*
X159376990Y-128529819D01*
X159415695Y-128568523D01*
X159435047Y-128626580D01*
X159435047Y-128665285D01*
X159028647Y-128123419D02*
X159028647Y-128316942D01*
X159222171Y-128336295D01*
X159202819Y-128316942D01*
X159183466Y-128278238D01*
X159183466Y-128181476D01*
X159202819Y-128142771D01*
X159222171Y-128123419D01*
X159260876Y-128104066D01*
X159357638Y-128104066D01*
X159396342Y-128123419D01*
X159415695Y-128142771D01*
X159435047Y-128181476D01*
X159435047Y-128278238D01*
X159415695Y-128316942D01*
X159396342Y-128336295D01*
X218871047Y-132661552D02*
X218677523Y-132797019D01*
X218871047Y-132893780D02*
X218464647Y-132893780D01*
X218464647Y-132738961D01*
X218484000Y-132700257D01*
X218503352Y-132680904D01*
X218542057Y-132661552D01*
X218600114Y-132661552D01*
X218638819Y-132680904D01*
X218658171Y-132700257D01*
X218677523Y-132738961D01*
X218677523Y-132893780D01*
X218754933Y-132506733D02*
X218754933Y-132313209D01*
X218871047Y-132545438D02*
X218464647Y-132409971D01*
X218871047Y-132274504D01*
X218851695Y-132158390D02*
X218871047Y-132100333D01*
X218871047Y-132003571D01*
X218851695Y-131964866D01*
X218832342Y-131945514D01*
X218793638Y-131926161D01*
X218754933Y-131926161D01*
X218716228Y-131945514D01*
X218696876Y-131964866D01*
X218677523Y-132003571D01*
X218658171Y-132080980D01*
X218638819Y-132119685D01*
X218619466Y-132139038D01*
X218580761Y-132158390D01*
X218542057Y-132158390D01*
X218503352Y-132139038D01*
X218484000Y-132119685D01*
X218464647Y-132080980D01*
X218464647Y-131984219D01*
X218484000Y-131926161D01*
X218871047Y-131751990D02*
X218464647Y-131751990D01*
X218464647Y-131597171D01*
X218484000Y-131558466D01*
X218503352Y-131539114D01*
X218542057Y-131519761D01*
X218600114Y-131519761D01*
X218638819Y-131539114D01*
X218658171Y-131558466D01*
X218677523Y-131597171D01*
X218677523Y-131751990D01*
X218658171Y-131210123D02*
X218677523Y-131152066D01*
X218696876Y-131132714D01*
X218735580Y-131113361D01*
X218793638Y-131113361D01*
X218832342Y-131132714D01*
X218851695Y-131152066D01*
X218871047Y-131190771D01*
X218871047Y-131345590D01*
X218464647Y-131345590D01*
X218464647Y-131210123D01*
X218484000Y-131171419D01*
X218503352Y-131152066D01*
X218542057Y-131132714D01*
X218580761Y-131132714D01*
X218619466Y-131152066D01*
X218638819Y-131171419D01*
X218658171Y-131210123D01*
X218658171Y-131345590D01*
X218658171Y-130939190D02*
X218658171Y-130803723D01*
X218871047Y-130745666D02*
X218871047Y-130939190D01*
X218464647Y-130939190D01*
X218464647Y-130745666D01*
X218871047Y-130339266D02*
X218677523Y-130474733D01*
X218871047Y-130571495D02*
X218464647Y-130571495D01*
X218464647Y-130416676D01*
X218484000Y-130377971D01*
X218503352Y-130358619D01*
X218542057Y-130339266D01*
X218600114Y-130339266D01*
X218638819Y-130358619D01*
X218658171Y-130377971D01*
X218677523Y-130416676D01*
X218677523Y-130571495D01*
X218871047Y-129932866D02*
X218677523Y-130068333D01*
X218871047Y-130165095D02*
X218464647Y-130165095D01*
X218464647Y-130010276D01*
X218484000Y-129971571D01*
X218503352Y-129952219D01*
X218542057Y-129932866D01*
X218600114Y-129932866D01*
X218638819Y-129952219D01*
X218658171Y-129971571D01*
X218677523Y-130010276D01*
X218677523Y-130165095D01*
X218677523Y-129681285D02*
X218871047Y-129681285D01*
X218464647Y-129816752D02*
X218677523Y-129681285D01*
X218464647Y-129545819D01*
X218871047Y-129410352D02*
X218464647Y-129410352D01*
X218464647Y-129255533D01*
X218484000Y-129216828D01*
X218503352Y-129197476D01*
X218542057Y-129178123D01*
X218600114Y-129178123D01*
X218638819Y-129197476D01*
X218658171Y-129216828D01*
X218677523Y-129255533D01*
X218677523Y-129410352D01*
X218871047Y-129003952D02*
X218464647Y-129003952D01*
X218716228Y-128810428D02*
X218716228Y-128500790D01*
X218600114Y-128133095D02*
X218871047Y-128133095D01*
X218445295Y-128229857D02*
X218735580Y-128326619D01*
X218735580Y-128075038D01*
X218464647Y-127842809D02*
X218464647Y-127804104D01*
X218484000Y-127765400D01*
X218503352Y-127746047D01*
X218542057Y-127726695D01*
X218619466Y-127707342D01*
X218716228Y-127707342D01*
X218793638Y-127726695D01*
X218832342Y-127746047D01*
X218851695Y-127765400D01*
X218871047Y-127804104D01*
X218871047Y-127842809D01*
X218851695Y-127881514D01*
X218832342Y-127900866D01*
X218793638Y-127920219D01*
X218716228Y-127939571D01*
X218619466Y-127939571D01*
X218542057Y-127920219D01*
X218503352Y-127900866D01*
X218484000Y-127881514D01*
X218464647Y-127842809D01*
X218716228Y-127533171D02*
X218716228Y-127223533D01*
X218871047Y-127030009D02*
X218464647Y-127030009D01*
X218464647Y-126875190D01*
X218484000Y-126836485D01*
X218503352Y-126817133D01*
X218542057Y-126797780D01*
X218600114Y-126797780D01*
X218638819Y-126817133D01*
X218658171Y-126836485D01*
X218677523Y-126875190D01*
X218677523Y-127030009D01*
X218871047Y-126623609D02*
X218464647Y-126623609D01*
X218871047Y-126430085D02*
X218464647Y-126430085D01*
X218871047Y-126197857D01*
X218464647Y-126197857D01*
X218716228Y-126004333D02*
X218716228Y-125694695D01*
X218484000Y-125288295D02*
X218464647Y-125327000D01*
X218464647Y-125385057D01*
X218484000Y-125443114D01*
X218522704Y-125481819D01*
X218561409Y-125501171D01*
X218638819Y-125520523D01*
X218696876Y-125520523D01*
X218774285Y-125501171D01*
X218812990Y-125481819D01*
X218851695Y-125443114D01*
X218871047Y-125385057D01*
X218871047Y-125346352D01*
X218851695Y-125288295D01*
X218832342Y-125268942D01*
X218696876Y-125268942D01*
X218696876Y-125346352D01*
X218871047Y-125094771D02*
X218464647Y-125094771D01*
X218464647Y-124939952D01*
X218484000Y-124901247D01*
X218503352Y-124881895D01*
X218542057Y-124862542D01*
X218600114Y-124862542D01*
X218638819Y-124881895D01*
X218658171Y-124901247D01*
X218677523Y-124939952D01*
X218677523Y-125094771D01*
X218871047Y-124688371D02*
X218464647Y-124688371D01*
X218464647Y-124417438D02*
X218464647Y-124340028D01*
X218484000Y-124301323D01*
X218522704Y-124262619D01*
X218600114Y-124243266D01*
X218735580Y-124243266D01*
X218812990Y-124262619D01*
X218851695Y-124301323D01*
X218871047Y-124340028D01*
X218871047Y-124417438D01*
X218851695Y-124456142D01*
X218812990Y-124494847D01*
X218735580Y-124514200D01*
X218600114Y-124514200D01*
X218522704Y-124494847D01*
X218484000Y-124456142D01*
X218464647Y-124417438D01*
G04 #@! TD*
M02*
