G04 #@! TF.GenerationSoftware,KiCad,Pcbnew,5.0.1+dfsg1-3~bpo9+1*
G04 #@! TF.CreationDate,2019-01-06T07:11:04+00:00*
G04 #@! TF.ProjectId,portia,706F727469612E6B696361645F706362,rev?*
G04 #@! TF.SameCoordinates,Original*
G04 #@! TF.FileFunction,Legend,Bot*
G04 #@! TF.FilePolarity,Positive*
%FSLAX46Y46*%
G04 Gerber Fmt 4.6, Leading zero omitted, Abs format (unit mm)*
G04 Created by KiCad (PCBNEW 5.0.1+dfsg1-3~bpo9+1) date Sun 06 Jan 2019 07:11:04 AM UTC*
%MOMM*%
%LPD*%
G01*
G04 APERTURE LIST*
%ADD10C,0.035560*%
%ADD11C,0.203200*%
%ADD12C,0.025400*%
G04 APERTURE END LIST*
D10*
G04 #@! TO.C,M1*
X159496929Y-120139640D02*
G75*
G03X159496929Y-120139640I-50289J0D01*
G01*
D11*
G04 #@! TO.C,U2*
X198643240Y-129954880D02*
X198643240Y-130351120D01*
X198409560Y-129553560D02*
X198409560Y-130752440D01*
X196814440Y-129553560D02*
X196814440Y-130752440D01*
G04 #@! TO.C,M1*
D12*
X160012697Y-119975265D02*
X160012697Y-119670465D01*
X160114297Y-119888180D01*
X160215897Y-119670465D01*
X160215897Y-119975265D01*
X160520697Y-119975265D02*
X160346525Y-119975265D01*
X160433611Y-119975265D02*
X160433611Y-119670465D01*
X160404582Y-119714008D01*
X160375554Y-119743037D01*
X160346525Y-119757551D01*
X159415071Y-122271425D02*
X159415071Y-121966625D01*
X159545700Y-122256911D02*
X159589242Y-122271425D01*
X159661814Y-122271425D01*
X159690842Y-122256911D01*
X159705357Y-122242397D01*
X159719871Y-122213368D01*
X159719871Y-122184340D01*
X159705357Y-122155311D01*
X159690842Y-122140797D01*
X159661814Y-122126282D01*
X159603757Y-122111768D01*
X159574728Y-122097254D01*
X159560214Y-122082740D01*
X159545700Y-122053711D01*
X159545700Y-122024682D01*
X159560214Y-121995654D01*
X159574728Y-121981140D01*
X159603757Y-121966625D01*
X159676328Y-121966625D01*
X159719871Y-121981140D01*
X159995642Y-122271425D02*
X159850500Y-122271425D01*
X159850500Y-121966625D01*
X160082728Y-121995654D02*
X160097242Y-121981140D01*
X160126271Y-121966625D01*
X160198842Y-121966625D01*
X160227871Y-121981140D01*
X160242385Y-121995654D01*
X160256900Y-122024682D01*
X160256900Y-122053711D01*
X160242385Y-122097254D01*
X160068214Y-122271425D01*
X160256900Y-122271425D01*
X160402042Y-122271425D02*
X160460100Y-122271425D01*
X160489128Y-122256911D01*
X160503642Y-122242397D01*
X160532671Y-122198854D01*
X160547185Y-122140797D01*
X160547185Y-122024682D01*
X160532671Y-121995654D01*
X160518157Y-121981140D01*
X160489128Y-121966625D01*
X160431071Y-121966625D01*
X160402042Y-121981140D01*
X160387528Y-121995654D01*
X160373014Y-122024682D01*
X160373014Y-122097254D01*
X160387528Y-122126282D01*
X160402042Y-122140797D01*
X160431071Y-122155311D01*
X160489128Y-122155311D01*
X160518157Y-122140797D01*
X160532671Y-122126282D01*
X160547185Y-122097254D01*
X160837471Y-122271425D02*
X160663300Y-122271425D01*
X160750385Y-122271425D02*
X160750385Y-121966625D01*
X160721357Y-122010168D01*
X160692328Y-122039197D01*
X160663300Y-122053711D01*
X160953585Y-121995654D02*
X160968100Y-121981140D01*
X160997128Y-121966625D01*
X161069700Y-121966625D01*
X161098728Y-121981140D01*
X161113242Y-121995654D01*
X161127757Y-122024682D01*
X161127757Y-122053711D01*
X161113242Y-122097254D01*
X160939071Y-122271425D01*
X161127757Y-122271425D01*
X161403528Y-121966625D02*
X161258385Y-121966625D01*
X161243871Y-122111768D01*
X161258385Y-122097254D01*
X161287414Y-122082740D01*
X161359985Y-122082740D01*
X161389014Y-122097254D01*
X161403528Y-122111768D01*
X161418042Y-122140797D01*
X161418042Y-122213368D01*
X161403528Y-122242397D01*
X161389014Y-122256911D01*
X161359985Y-122271425D01*
X161287414Y-122271425D01*
X161258385Y-122256911D01*
X161243871Y-122242397D01*
G04 #@! TD*
M02*
