M48
;DRILL file {KiCad 5.0.1+dfsg1-3~bpo9+1} date Sun 06 Jan 2019 07:11:07 AM UTC
;FORMAT={3:3/ absolute / metric / suppress leading zeros}
FMAT,2
METRIC,TZ
T1C0.400
T2C0.650
T3C0.700
T4C1.000
%
G90
G05
M71
T1
X159576Y-122720
X162696Y-120490
X165121Y-123367
X167153Y-123401
X169418Y-83598
X169418Y-89916
X171679Y-111027
X172720Y-119126
X172720Y-120882
X179091Y-85428
X179091Y-90000
X179091Y-101430
X179091Y-102700
X180979Y-115383
X180979Y-115383
X181500Y-108036
X182757Y-116399
X183773Y-115383
X183773Y-116399
X183900Y-92540
X184912Y-112246
X184912Y-118342
X184912Y-120929
X185628Y-104050
X186055Y-110046
X187660Y-104050
X188168Y-103034
X188676Y-104050
X189438Y-103542
X189438Y-104558
X190200Y-103034
X190200Y-104050
X190200Y-105066
X190500Y-112246
X190962Y-103542
X190962Y-104558
X191724Y-104050
X192232Y-105066
X192740Y-104050
X193949Y-113876
X193949Y-113876
X193949Y-116416
X194772Y-104050
X197362Y-128016
X198110Y-127180
X198694Y-132144
X201742Y-97092
X201762Y-106002
X201762Y-111844
X201824Y-90000
X201824Y-92540
X201824Y-98890
X201824Y-100160
X201824Y-101430
X203966Y-102870
X204115Y-93498
X205298Y-120334
X205338Y-124692
X207264Y-102108
X207451Y-109604
X207962Y-104072
X208538Y-102870
X210312Y-102108
X210312Y-104140
X211162Y-115040
X211640Y-101070
X211734Y-94488
X212919Y-109604
X213360Y-95479
X213360Y-97993
X213360Y-98831
X213360Y-99771
X214453Y-100385
X215286Y-90000
X215286Y-93810
T4
X204470Y-87227
X207010Y-87227
X209550Y-87227
X212090Y-87227
X177292Y-130280
X179832Y-130280
X167132Y-107293
X169672Y-107293
X172212Y-107293
X174752Y-107293
X160020Y-87735
X160020Y-90275
X204470Y-113008
X207010Y-113008
X184150Y-130280
X186690Y-130280
X204470Y-106404
X204470Y-108944
X174752Y-94339
X174752Y-96879
X174752Y-99419
X174752Y-101959
X215480Y-124692
X218020Y-124692
X170434Y-130280
X172974Y-130280
X204470Y-82782
X207010Y-82782
X191008Y-130280
X193548Y-130280
T2
X216247Y-96665G85X215847Y-96665
G05
X216247Y-101505G85X215847Y-101505
G05
T3
X219297Y-96355G85X218797Y-96355
G05
X219297Y-101815G85X218797Y-101815
G05
T0
M30
