G04 #@! TF.GenerationSoftware,KiCad,Pcbnew,5.0.1-33cea8e~68~ubuntu16.04.1*
G04 #@! TF.CreationDate,2019-03-25T17:46:31-04:00*
G04 #@! TF.ProjectId,portia,706F727469612E6B696361645F706362,rev?*
G04 #@! TF.SameCoordinates,Original*
G04 #@! TF.FileFunction,Paste,Top*
G04 #@! TF.FilePolarity,Positive*
%FSLAX46Y46*%
G04 Gerber Fmt 4.6, Leading zero omitted, Abs format (unit mm)*
G04 Created by KiCad (PCBNEW 5.0.1-33cea8e~68~ubuntu16.04.1) date Mon 25 Mar 2019 17:46:31 EDT*
%MOMM*%
%LPD*%
G01*
G04 APERTURE LIST*
%ADD10C,0.100000*%
%ADD11C,0.950000*%
%ADD12C,0.875000*%
%ADD13R,0.900000X1.700000*%
%ADD14O,1.000000X2.500000*%
%ADD15O,0.900000X2.500000*%
%ADD16O,2.500000X0.900000*%
%ADD17R,6.000000X6.000000*%
G04 APERTURE END LIST*
D10*
G04 #@! TO.C,D1*
G36*
X164290779Y-128520144D02*
X164313834Y-128523563D01*
X164336443Y-128529227D01*
X164358387Y-128537079D01*
X164379457Y-128547044D01*
X164399448Y-128559026D01*
X164418168Y-128572910D01*
X164435438Y-128588562D01*
X164451090Y-128605832D01*
X164464974Y-128624552D01*
X164476956Y-128644543D01*
X164486921Y-128665613D01*
X164494773Y-128687557D01*
X164500437Y-128710166D01*
X164503856Y-128733221D01*
X164505000Y-128756500D01*
X164505000Y-129331500D01*
X164503856Y-129354779D01*
X164500437Y-129377834D01*
X164494773Y-129400443D01*
X164486921Y-129422387D01*
X164476956Y-129443457D01*
X164464974Y-129463448D01*
X164451090Y-129482168D01*
X164435438Y-129499438D01*
X164418168Y-129515090D01*
X164399448Y-129528974D01*
X164379457Y-129540956D01*
X164358387Y-129550921D01*
X164336443Y-129558773D01*
X164313834Y-129564437D01*
X164290779Y-129567856D01*
X164267500Y-129569000D01*
X163792500Y-129569000D01*
X163769221Y-129567856D01*
X163746166Y-129564437D01*
X163723557Y-129558773D01*
X163701613Y-129550921D01*
X163680543Y-129540956D01*
X163660552Y-129528974D01*
X163641832Y-129515090D01*
X163624562Y-129499438D01*
X163608910Y-129482168D01*
X163595026Y-129463448D01*
X163583044Y-129443457D01*
X163573079Y-129422387D01*
X163565227Y-129400443D01*
X163559563Y-129377834D01*
X163556144Y-129354779D01*
X163555000Y-129331500D01*
X163555000Y-128756500D01*
X163556144Y-128733221D01*
X163559563Y-128710166D01*
X163565227Y-128687557D01*
X163573079Y-128665613D01*
X163583044Y-128644543D01*
X163595026Y-128624552D01*
X163608910Y-128605832D01*
X163624562Y-128588562D01*
X163641832Y-128572910D01*
X163660552Y-128559026D01*
X163680543Y-128547044D01*
X163701613Y-128537079D01*
X163723557Y-128529227D01*
X163746166Y-128523563D01*
X163769221Y-128520144D01*
X163792500Y-128519000D01*
X164267500Y-128519000D01*
X164290779Y-128520144D01*
X164290779Y-128520144D01*
G37*
D11*
X164030000Y-129044000D03*
D10*
G36*
X164290779Y-130270144D02*
X164313834Y-130273563D01*
X164336443Y-130279227D01*
X164358387Y-130287079D01*
X164379457Y-130297044D01*
X164399448Y-130309026D01*
X164418168Y-130322910D01*
X164435438Y-130338562D01*
X164451090Y-130355832D01*
X164464974Y-130374552D01*
X164476956Y-130394543D01*
X164486921Y-130415613D01*
X164494773Y-130437557D01*
X164500437Y-130460166D01*
X164503856Y-130483221D01*
X164505000Y-130506500D01*
X164505000Y-131081500D01*
X164503856Y-131104779D01*
X164500437Y-131127834D01*
X164494773Y-131150443D01*
X164486921Y-131172387D01*
X164476956Y-131193457D01*
X164464974Y-131213448D01*
X164451090Y-131232168D01*
X164435438Y-131249438D01*
X164418168Y-131265090D01*
X164399448Y-131278974D01*
X164379457Y-131290956D01*
X164358387Y-131300921D01*
X164336443Y-131308773D01*
X164313834Y-131314437D01*
X164290779Y-131317856D01*
X164267500Y-131319000D01*
X163792500Y-131319000D01*
X163769221Y-131317856D01*
X163746166Y-131314437D01*
X163723557Y-131308773D01*
X163701613Y-131300921D01*
X163680543Y-131290956D01*
X163660552Y-131278974D01*
X163641832Y-131265090D01*
X163624562Y-131249438D01*
X163608910Y-131232168D01*
X163595026Y-131213448D01*
X163583044Y-131193457D01*
X163573079Y-131172387D01*
X163565227Y-131150443D01*
X163559563Y-131127834D01*
X163556144Y-131104779D01*
X163555000Y-131081500D01*
X163555000Y-130506500D01*
X163556144Y-130483221D01*
X163559563Y-130460166D01*
X163565227Y-130437557D01*
X163573079Y-130415613D01*
X163583044Y-130394543D01*
X163595026Y-130374552D01*
X163608910Y-130355832D01*
X163624562Y-130338562D01*
X163641832Y-130322910D01*
X163660552Y-130309026D01*
X163680543Y-130297044D01*
X163701613Y-130287079D01*
X163723557Y-130279227D01*
X163746166Y-130273563D01*
X163769221Y-130270144D01*
X163792500Y-130269000D01*
X164267500Y-130269000D01*
X164290779Y-130270144D01*
X164290779Y-130270144D01*
G37*
D11*
X164030000Y-130794000D03*
G04 #@! TD*
D10*
G04 #@! TO.C,R1*
G36*
X164232691Y-132695053D02*
X164253926Y-132698203D01*
X164274750Y-132703419D01*
X164294962Y-132710651D01*
X164314368Y-132719830D01*
X164332781Y-132730866D01*
X164350024Y-132743654D01*
X164365930Y-132758070D01*
X164380346Y-132773976D01*
X164393134Y-132791219D01*
X164404170Y-132809632D01*
X164413349Y-132829038D01*
X164420581Y-132849250D01*
X164425797Y-132870074D01*
X164428947Y-132891309D01*
X164430000Y-132912750D01*
X164430000Y-133425250D01*
X164428947Y-133446691D01*
X164425797Y-133467926D01*
X164420581Y-133488750D01*
X164413349Y-133508962D01*
X164404170Y-133528368D01*
X164393134Y-133546781D01*
X164380346Y-133564024D01*
X164365930Y-133579930D01*
X164350024Y-133594346D01*
X164332781Y-133607134D01*
X164314368Y-133618170D01*
X164294962Y-133627349D01*
X164274750Y-133634581D01*
X164253926Y-133639797D01*
X164232691Y-133642947D01*
X164211250Y-133644000D01*
X163773750Y-133644000D01*
X163752309Y-133642947D01*
X163731074Y-133639797D01*
X163710250Y-133634581D01*
X163690038Y-133627349D01*
X163670632Y-133618170D01*
X163652219Y-133607134D01*
X163634976Y-133594346D01*
X163619070Y-133579930D01*
X163604654Y-133564024D01*
X163591866Y-133546781D01*
X163580830Y-133528368D01*
X163571651Y-133508962D01*
X163564419Y-133488750D01*
X163559203Y-133467926D01*
X163556053Y-133446691D01*
X163555000Y-133425250D01*
X163555000Y-132912750D01*
X163556053Y-132891309D01*
X163559203Y-132870074D01*
X163564419Y-132849250D01*
X163571651Y-132829038D01*
X163580830Y-132809632D01*
X163591866Y-132791219D01*
X163604654Y-132773976D01*
X163619070Y-132758070D01*
X163634976Y-132743654D01*
X163652219Y-132730866D01*
X163670632Y-132719830D01*
X163690038Y-132710651D01*
X163710250Y-132703419D01*
X163731074Y-132698203D01*
X163752309Y-132695053D01*
X163773750Y-132694000D01*
X164211250Y-132694000D01*
X164232691Y-132695053D01*
X164232691Y-132695053D01*
G37*
D12*
X163992500Y-133169000D03*
D10*
G36*
X165807691Y-132695053D02*
X165828926Y-132698203D01*
X165849750Y-132703419D01*
X165869962Y-132710651D01*
X165889368Y-132719830D01*
X165907781Y-132730866D01*
X165925024Y-132743654D01*
X165940930Y-132758070D01*
X165955346Y-132773976D01*
X165968134Y-132791219D01*
X165979170Y-132809632D01*
X165988349Y-132829038D01*
X165995581Y-132849250D01*
X166000797Y-132870074D01*
X166003947Y-132891309D01*
X166005000Y-132912750D01*
X166005000Y-133425250D01*
X166003947Y-133446691D01*
X166000797Y-133467926D01*
X165995581Y-133488750D01*
X165988349Y-133508962D01*
X165979170Y-133528368D01*
X165968134Y-133546781D01*
X165955346Y-133564024D01*
X165940930Y-133579930D01*
X165925024Y-133594346D01*
X165907781Y-133607134D01*
X165889368Y-133618170D01*
X165869962Y-133627349D01*
X165849750Y-133634581D01*
X165828926Y-133639797D01*
X165807691Y-133642947D01*
X165786250Y-133644000D01*
X165348750Y-133644000D01*
X165327309Y-133642947D01*
X165306074Y-133639797D01*
X165285250Y-133634581D01*
X165265038Y-133627349D01*
X165245632Y-133618170D01*
X165227219Y-133607134D01*
X165209976Y-133594346D01*
X165194070Y-133579930D01*
X165179654Y-133564024D01*
X165166866Y-133546781D01*
X165155830Y-133528368D01*
X165146651Y-133508962D01*
X165139419Y-133488750D01*
X165134203Y-133467926D01*
X165131053Y-133446691D01*
X165130000Y-133425250D01*
X165130000Y-132912750D01*
X165131053Y-132891309D01*
X165134203Y-132870074D01*
X165139419Y-132849250D01*
X165146651Y-132829038D01*
X165155830Y-132809632D01*
X165166866Y-132791219D01*
X165179654Y-132773976D01*
X165194070Y-132758070D01*
X165209976Y-132743654D01*
X165227219Y-132730866D01*
X165245632Y-132719830D01*
X165265038Y-132710651D01*
X165285250Y-132703419D01*
X165306074Y-132698203D01*
X165327309Y-132695053D01*
X165348750Y-132694000D01*
X165786250Y-132694000D01*
X165807691Y-132695053D01*
X165807691Y-132695053D01*
G37*
D12*
X165567500Y-133169000D03*
G04 #@! TD*
D10*
G04 #@! TO.C,R6*
G36*
X175017691Y-104285053D02*
X175038926Y-104288203D01*
X175059750Y-104293419D01*
X175079962Y-104300651D01*
X175099368Y-104309830D01*
X175117781Y-104320866D01*
X175135024Y-104333654D01*
X175150930Y-104348070D01*
X175165346Y-104363976D01*
X175178134Y-104381219D01*
X175189170Y-104399632D01*
X175198349Y-104419038D01*
X175205581Y-104439250D01*
X175210797Y-104460074D01*
X175213947Y-104481309D01*
X175215000Y-104502750D01*
X175215000Y-104940250D01*
X175213947Y-104961691D01*
X175210797Y-104982926D01*
X175205581Y-105003750D01*
X175198349Y-105023962D01*
X175189170Y-105043368D01*
X175178134Y-105061781D01*
X175165346Y-105079024D01*
X175150930Y-105094930D01*
X175135024Y-105109346D01*
X175117781Y-105122134D01*
X175099368Y-105133170D01*
X175079962Y-105142349D01*
X175059750Y-105149581D01*
X175038926Y-105154797D01*
X175017691Y-105157947D01*
X174996250Y-105159000D01*
X174483750Y-105159000D01*
X174462309Y-105157947D01*
X174441074Y-105154797D01*
X174420250Y-105149581D01*
X174400038Y-105142349D01*
X174380632Y-105133170D01*
X174362219Y-105122134D01*
X174344976Y-105109346D01*
X174329070Y-105094930D01*
X174314654Y-105079024D01*
X174301866Y-105061781D01*
X174290830Y-105043368D01*
X174281651Y-105023962D01*
X174274419Y-105003750D01*
X174269203Y-104982926D01*
X174266053Y-104961691D01*
X174265000Y-104940250D01*
X174265000Y-104502750D01*
X174266053Y-104481309D01*
X174269203Y-104460074D01*
X174274419Y-104439250D01*
X174281651Y-104419038D01*
X174290830Y-104399632D01*
X174301866Y-104381219D01*
X174314654Y-104363976D01*
X174329070Y-104348070D01*
X174344976Y-104333654D01*
X174362219Y-104320866D01*
X174380632Y-104309830D01*
X174400038Y-104300651D01*
X174420250Y-104293419D01*
X174441074Y-104288203D01*
X174462309Y-104285053D01*
X174483750Y-104284000D01*
X174996250Y-104284000D01*
X175017691Y-104285053D01*
X175017691Y-104285053D01*
G37*
D12*
X174740000Y-104721500D03*
D10*
G36*
X175017691Y-105860053D02*
X175038926Y-105863203D01*
X175059750Y-105868419D01*
X175079962Y-105875651D01*
X175099368Y-105884830D01*
X175117781Y-105895866D01*
X175135024Y-105908654D01*
X175150930Y-105923070D01*
X175165346Y-105938976D01*
X175178134Y-105956219D01*
X175189170Y-105974632D01*
X175198349Y-105994038D01*
X175205581Y-106014250D01*
X175210797Y-106035074D01*
X175213947Y-106056309D01*
X175215000Y-106077750D01*
X175215000Y-106515250D01*
X175213947Y-106536691D01*
X175210797Y-106557926D01*
X175205581Y-106578750D01*
X175198349Y-106598962D01*
X175189170Y-106618368D01*
X175178134Y-106636781D01*
X175165346Y-106654024D01*
X175150930Y-106669930D01*
X175135024Y-106684346D01*
X175117781Y-106697134D01*
X175099368Y-106708170D01*
X175079962Y-106717349D01*
X175059750Y-106724581D01*
X175038926Y-106729797D01*
X175017691Y-106732947D01*
X174996250Y-106734000D01*
X174483750Y-106734000D01*
X174462309Y-106732947D01*
X174441074Y-106729797D01*
X174420250Y-106724581D01*
X174400038Y-106717349D01*
X174380632Y-106708170D01*
X174362219Y-106697134D01*
X174344976Y-106684346D01*
X174329070Y-106669930D01*
X174314654Y-106654024D01*
X174301866Y-106636781D01*
X174290830Y-106618368D01*
X174281651Y-106598962D01*
X174274419Y-106578750D01*
X174269203Y-106557926D01*
X174266053Y-106536691D01*
X174265000Y-106515250D01*
X174265000Y-106077750D01*
X174266053Y-106056309D01*
X174269203Y-106035074D01*
X174274419Y-106014250D01*
X174281651Y-105994038D01*
X174290830Y-105974632D01*
X174301866Y-105956219D01*
X174314654Y-105938976D01*
X174329070Y-105923070D01*
X174344976Y-105908654D01*
X174362219Y-105895866D01*
X174380632Y-105884830D01*
X174400038Y-105875651D01*
X174420250Y-105868419D01*
X174441074Y-105863203D01*
X174462309Y-105860053D01*
X174483750Y-105859000D01*
X174996250Y-105859000D01*
X175017691Y-105860053D01*
X175017691Y-105860053D01*
G37*
D12*
X174740000Y-106296500D03*
G04 #@! TD*
D13*
G04 #@! TO.C,Reset1*
X163460000Y-105724000D03*
X166860000Y-105724000D03*
G04 #@! TD*
G04 #@! TO.C,Boot1*
X171860000Y-132224000D03*
X168460000Y-132224000D03*
G04 #@! TD*
D14*
G04 #@! TO.C,J4*
X165870000Y-111259000D03*
X167140000Y-111259000D03*
X168410000Y-111259000D03*
X169680000Y-111259000D03*
X170950000Y-111259000D03*
X172220000Y-111259000D03*
X165870000Y-125974000D03*
X167140000Y-125974000D03*
X168410000Y-125974000D03*
X169680000Y-125974000D03*
X170950000Y-125974000D03*
X172220000Y-125974000D03*
X173490000Y-111259000D03*
X174760000Y-111259000D03*
X173490000Y-125974000D03*
X174760000Y-125974000D03*
G04 #@! TD*
D15*
G04 #@! TO.C,U4*
X197030000Y-127724000D03*
X195760000Y-127724000D03*
X194490000Y-127724000D03*
X193220000Y-127724000D03*
X191950000Y-127724000D03*
X190680000Y-127724000D03*
X189410000Y-127724000D03*
X188140000Y-127724000D03*
X186870000Y-127724000D03*
X185600000Y-127724000D03*
X184330000Y-127724000D03*
X183060000Y-127724000D03*
X181790000Y-127724000D03*
X180520000Y-127724000D03*
D16*
X179030000Y-124439000D03*
X179030000Y-123169000D03*
X179030000Y-121899000D03*
X179030000Y-120629000D03*
X179030000Y-119359000D03*
X179030000Y-118089000D03*
X179030000Y-116819000D03*
X179030000Y-115549000D03*
X179030000Y-114279000D03*
X179030000Y-113009000D03*
D15*
X180520000Y-109724000D03*
X181790000Y-109724000D03*
X183060000Y-109724000D03*
X184330000Y-109724000D03*
X185600000Y-109724000D03*
X186870000Y-109724000D03*
X188140000Y-109724000D03*
X189410000Y-109724000D03*
X190680000Y-109724000D03*
X191950000Y-109724000D03*
X193220000Y-109724000D03*
X194490000Y-109724000D03*
X195760000Y-109724000D03*
X197030000Y-109724000D03*
D17*
X189330000Y-118424000D03*
G04 #@! TD*
D10*
G04 #@! TO.C,R4*
G36*
X175037691Y-130537553D02*
X175058926Y-130540703D01*
X175079750Y-130545919D01*
X175099962Y-130553151D01*
X175119368Y-130562330D01*
X175137781Y-130573366D01*
X175155024Y-130586154D01*
X175170930Y-130600570D01*
X175185346Y-130616476D01*
X175198134Y-130633719D01*
X175209170Y-130652132D01*
X175218349Y-130671538D01*
X175225581Y-130691750D01*
X175230797Y-130712574D01*
X175233947Y-130733809D01*
X175235000Y-130755250D01*
X175235000Y-131192750D01*
X175233947Y-131214191D01*
X175230797Y-131235426D01*
X175225581Y-131256250D01*
X175218349Y-131276462D01*
X175209170Y-131295868D01*
X175198134Y-131314281D01*
X175185346Y-131331524D01*
X175170930Y-131347430D01*
X175155024Y-131361846D01*
X175137781Y-131374634D01*
X175119368Y-131385670D01*
X175099962Y-131394849D01*
X175079750Y-131402081D01*
X175058926Y-131407297D01*
X175037691Y-131410447D01*
X175016250Y-131411500D01*
X174503750Y-131411500D01*
X174482309Y-131410447D01*
X174461074Y-131407297D01*
X174440250Y-131402081D01*
X174420038Y-131394849D01*
X174400632Y-131385670D01*
X174382219Y-131374634D01*
X174364976Y-131361846D01*
X174349070Y-131347430D01*
X174334654Y-131331524D01*
X174321866Y-131314281D01*
X174310830Y-131295868D01*
X174301651Y-131276462D01*
X174294419Y-131256250D01*
X174289203Y-131235426D01*
X174286053Y-131214191D01*
X174285000Y-131192750D01*
X174285000Y-130755250D01*
X174286053Y-130733809D01*
X174289203Y-130712574D01*
X174294419Y-130691750D01*
X174301651Y-130671538D01*
X174310830Y-130652132D01*
X174321866Y-130633719D01*
X174334654Y-130616476D01*
X174349070Y-130600570D01*
X174364976Y-130586154D01*
X174382219Y-130573366D01*
X174400632Y-130562330D01*
X174420038Y-130553151D01*
X174440250Y-130545919D01*
X174461074Y-130540703D01*
X174482309Y-130537553D01*
X174503750Y-130536500D01*
X175016250Y-130536500D01*
X175037691Y-130537553D01*
X175037691Y-130537553D01*
G37*
D12*
X174760000Y-130974000D03*
D10*
G36*
X175037691Y-132112553D02*
X175058926Y-132115703D01*
X175079750Y-132120919D01*
X175099962Y-132128151D01*
X175119368Y-132137330D01*
X175137781Y-132148366D01*
X175155024Y-132161154D01*
X175170930Y-132175570D01*
X175185346Y-132191476D01*
X175198134Y-132208719D01*
X175209170Y-132227132D01*
X175218349Y-132246538D01*
X175225581Y-132266750D01*
X175230797Y-132287574D01*
X175233947Y-132308809D01*
X175235000Y-132330250D01*
X175235000Y-132767750D01*
X175233947Y-132789191D01*
X175230797Y-132810426D01*
X175225581Y-132831250D01*
X175218349Y-132851462D01*
X175209170Y-132870868D01*
X175198134Y-132889281D01*
X175185346Y-132906524D01*
X175170930Y-132922430D01*
X175155024Y-132936846D01*
X175137781Y-132949634D01*
X175119368Y-132960670D01*
X175099962Y-132969849D01*
X175079750Y-132977081D01*
X175058926Y-132982297D01*
X175037691Y-132985447D01*
X175016250Y-132986500D01*
X174503750Y-132986500D01*
X174482309Y-132985447D01*
X174461074Y-132982297D01*
X174440250Y-132977081D01*
X174420038Y-132969849D01*
X174400632Y-132960670D01*
X174382219Y-132949634D01*
X174364976Y-132936846D01*
X174349070Y-132922430D01*
X174334654Y-132906524D01*
X174321866Y-132889281D01*
X174310830Y-132870868D01*
X174301651Y-132851462D01*
X174294419Y-132831250D01*
X174289203Y-132810426D01*
X174286053Y-132789191D01*
X174285000Y-132767750D01*
X174285000Y-132330250D01*
X174286053Y-132308809D01*
X174289203Y-132287574D01*
X174294419Y-132266750D01*
X174301651Y-132246538D01*
X174310830Y-132227132D01*
X174321866Y-132208719D01*
X174334654Y-132191476D01*
X174349070Y-132175570D01*
X174364976Y-132161154D01*
X174382219Y-132148366D01*
X174400632Y-132137330D01*
X174420038Y-132128151D01*
X174440250Y-132120919D01*
X174461074Y-132115703D01*
X174482309Y-132112553D01*
X174503750Y-132111500D01*
X175016250Y-132111500D01*
X175037691Y-132112553D01*
X175037691Y-132112553D01*
G37*
D12*
X174760000Y-132549000D03*
G04 #@! TD*
M02*
