M48
;DRILL file {KiCad 5.0.1-33cea8e~68~ubuntu16.04.1} date Mon 25 Mar 2019 17:46:42 EDT
;FORMAT={3:3/ absolute / metric / suppress leading zeros}
FMAT,2
METRIC,TZ
T1C0.400
T2C1.000
%
G90
G05
M71
T1
X165568Y-131919
X167140Y-108859
X167140Y-129199
X168410Y-129474
X169680Y-128704
X172220Y-109259
X173490Y-109259
X173490Y-127894
X176170Y-132549
X176195Y-130974
X176465Y-104722
X176490Y-106297
X176780Y-114279
X176780Y-123169
X178510Y-128474
X194490Y-107724
X195760Y-107724
T2
X159040Y-113344
X159040Y-115884
X159040Y-118424
X159040Y-120964
X159040Y-123504
X159040Y-126044
X161580Y-113344
X161580Y-115884
X161580Y-118424
X161580Y-120964
X161580Y-123504
X161580Y-126044
X178770Y-105280
X181310Y-105280
X183850Y-105280
X186390Y-105280
X188930Y-105280
X191470Y-105280
X194010Y-105280
X196550Y-105280
X178740Y-132280
X181280Y-132280
X183820Y-132280
X186360Y-132280
X188900Y-132280
X191440Y-132280
X193980Y-132280
X196520Y-132280
T0
M30
