G04 #@! TF.GenerationSoftware,KiCad,Pcbnew,5.0.1-33cea8e~68~ubuntu16.04.1*
G04 #@! TF.CreationDate,2019-03-25T17:46:31-04:00*
G04 #@! TF.ProjectId,portia,706F727469612E6B696361645F706362,rev?*
G04 #@! TF.SameCoordinates,Original*
G04 #@! TF.FileFunction,Legend,Top*
G04 #@! TF.FilePolarity,Positive*
%FSLAX46Y46*%
G04 Gerber Fmt 4.6, Leading zero omitted, Abs format (unit mm)*
G04 Created by KiCad (PCBNEW 5.0.1-33cea8e~68~ubuntu16.04.1) date Mon 25 Mar 2019 17:46:31 EDT*
%MOMM*%
%LPD*%
G01*
G04 APERTURE LIST*
%ADD10C,0.125000*%
%ADD11C,0.200000*%
%ADD12C,0.120000*%
%ADD13C,0.150000*%
%ADD14C,0.500000*%
G04 APERTURE END LIST*
D10*
X178939047Y-130006190D02*
X178700952Y-130006190D01*
X178677142Y-130244285D01*
X178700952Y-130220476D01*
X178748571Y-130196666D01*
X178867619Y-130196666D01*
X178915238Y-130220476D01*
X178939047Y-130244285D01*
X178962857Y-130291904D01*
X178962857Y-130410952D01*
X178939047Y-130458571D01*
X178915238Y-130482380D01*
X178867619Y-130506190D01*
X178748571Y-130506190D01*
X178700952Y-130482380D01*
X178677142Y-130458571D01*
X181324761Y-130506190D02*
X181039047Y-130506190D01*
X181181904Y-130506190D02*
X181181904Y-130006190D01*
X181134285Y-130077619D01*
X181086666Y-130125238D01*
X181039047Y-130149047D01*
X181610476Y-130220476D02*
X181562857Y-130196666D01*
X181539047Y-130172857D01*
X181515238Y-130125238D01*
X181515238Y-130101428D01*
X181539047Y-130053809D01*
X181562857Y-130030000D01*
X181610476Y-130006190D01*
X181705714Y-130006190D01*
X181753333Y-130030000D01*
X181777142Y-130053809D01*
X181800952Y-130101428D01*
X181800952Y-130125238D01*
X181777142Y-130172857D01*
X181753333Y-130196666D01*
X181705714Y-130220476D01*
X181610476Y-130220476D01*
X181562857Y-130244285D01*
X181539047Y-130268095D01*
X181515238Y-130315714D01*
X181515238Y-130410952D01*
X181539047Y-130458571D01*
X181562857Y-130482380D01*
X181610476Y-130506190D01*
X181705714Y-130506190D01*
X181753333Y-130482380D01*
X181777142Y-130458571D01*
X181800952Y-130410952D01*
X181800952Y-130315714D01*
X181777142Y-130268095D01*
X181753333Y-130244285D01*
X181705714Y-130220476D01*
X183724761Y-130506190D02*
X183439047Y-130506190D01*
X183581904Y-130506190D02*
X183581904Y-130006190D01*
X183534285Y-130077619D01*
X183486666Y-130125238D01*
X183439047Y-130149047D01*
X183962857Y-130506190D02*
X184058095Y-130506190D01*
X184105714Y-130482380D01*
X184129523Y-130458571D01*
X184177142Y-130387142D01*
X184200952Y-130291904D01*
X184200952Y-130101428D01*
X184177142Y-130053809D01*
X184153333Y-130030000D01*
X184105714Y-130006190D01*
X184010476Y-130006190D01*
X183962857Y-130030000D01*
X183939047Y-130053809D01*
X183915238Y-130101428D01*
X183915238Y-130220476D01*
X183939047Y-130268095D01*
X183962857Y-130291904D01*
X184010476Y-130315714D01*
X184105714Y-130315714D01*
X184153333Y-130291904D01*
X184177142Y-130268095D01*
X184200952Y-130220476D01*
X186039047Y-130053809D02*
X186062857Y-130030000D01*
X186110476Y-130006190D01*
X186229523Y-130006190D01*
X186277142Y-130030000D01*
X186300952Y-130053809D01*
X186324761Y-130101428D01*
X186324761Y-130149047D01*
X186300952Y-130220476D01*
X186015238Y-130506190D01*
X186324761Y-130506190D01*
X186800952Y-130506190D02*
X186515238Y-130506190D01*
X186658095Y-130506190D02*
X186658095Y-130006190D01*
X186610476Y-130077619D01*
X186562857Y-130125238D01*
X186515238Y-130149047D01*
X188781904Y-130506190D02*
X188781904Y-130172857D01*
X188781904Y-130268095D02*
X188805714Y-130220476D01*
X188829523Y-130196666D01*
X188877142Y-130172857D01*
X188924761Y-130172857D01*
X189043809Y-130506190D02*
X189305714Y-130172857D01*
X189043809Y-130172857D02*
X189305714Y-130506190D01*
X191122380Y-130172857D02*
X191312857Y-130172857D01*
X191193809Y-130006190D02*
X191193809Y-130434761D01*
X191217619Y-130482380D01*
X191265238Y-130506190D01*
X191312857Y-130506190D01*
X191431904Y-130506190D02*
X191693809Y-130172857D01*
X191431904Y-130172857D02*
X191693809Y-130506190D01*
X193639047Y-130053809D02*
X193662857Y-130030000D01*
X193710476Y-130006190D01*
X193829523Y-130006190D01*
X193877142Y-130030000D01*
X193900952Y-130053809D01*
X193924761Y-130101428D01*
X193924761Y-130149047D01*
X193900952Y-130220476D01*
X193615238Y-130506190D01*
X193924761Y-130506190D01*
X194115238Y-130053809D02*
X194139047Y-130030000D01*
X194186666Y-130006190D01*
X194305714Y-130006190D01*
X194353333Y-130030000D01*
X194377142Y-130053809D01*
X194400952Y-130101428D01*
X194400952Y-130149047D01*
X194377142Y-130220476D01*
X194091428Y-130506190D01*
X194400952Y-130506190D01*
X196039047Y-130053809D02*
X196062857Y-130030000D01*
X196110476Y-130006190D01*
X196229523Y-130006190D01*
X196277142Y-130030000D01*
X196300952Y-130053809D01*
X196324761Y-130101428D01*
X196324761Y-130149047D01*
X196300952Y-130220476D01*
X196015238Y-130506190D01*
X196324761Y-130506190D01*
X196491428Y-130006190D02*
X196800952Y-130006190D01*
X196634285Y-130196666D01*
X196705714Y-130196666D01*
X196753333Y-130220476D01*
X196777142Y-130244285D01*
X196800952Y-130291904D01*
X196800952Y-130410952D01*
X196777142Y-130458571D01*
X196753333Y-130482380D01*
X196705714Y-130506190D01*
X196562857Y-130506190D01*
X196515238Y-130482380D01*
X196491428Y-130458571D01*
X178439047Y-106978809D02*
X178462857Y-106955000D01*
X178510476Y-106931190D01*
X178629523Y-106931190D01*
X178677142Y-106955000D01*
X178700952Y-106978809D01*
X178724761Y-107026428D01*
X178724761Y-107074047D01*
X178700952Y-107145476D01*
X178415238Y-107431190D01*
X178724761Y-107431190D01*
X179153333Y-106931190D02*
X179058095Y-106931190D01*
X179010476Y-106955000D01*
X178986666Y-106978809D01*
X178939047Y-107050238D01*
X178915238Y-107145476D01*
X178915238Y-107335952D01*
X178939047Y-107383571D01*
X178962857Y-107407380D01*
X179010476Y-107431190D01*
X179105714Y-107431190D01*
X179153333Y-107407380D01*
X179177142Y-107383571D01*
X179200952Y-107335952D01*
X179200952Y-107216904D01*
X179177142Y-107169285D01*
X179153333Y-107145476D01*
X179105714Y-107121666D01*
X179010476Y-107121666D01*
X178962857Y-107145476D01*
X178939047Y-107169285D01*
X178915238Y-107216904D01*
X181039047Y-106978809D02*
X181062857Y-106955000D01*
X181110476Y-106931190D01*
X181229523Y-106931190D01*
X181277142Y-106955000D01*
X181300952Y-106978809D01*
X181324761Y-107026428D01*
X181324761Y-107074047D01*
X181300952Y-107145476D01*
X181015238Y-107431190D01*
X181324761Y-107431190D01*
X181777142Y-106931190D02*
X181539047Y-106931190D01*
X181515238Y-107169285D01*
X181539047Y-107145476D01*
X181586666Y-107121666D01*
X181705714Y-107121666D01*
X181753333Y-107145476D01*
X181777142Y-107169285D01*
X181800952Y-107216904D01*
X181800952Y-107335952D01*
X181777142Y-107383571D01*
X181753333Y-107407380D01*
X181705714Y-107431190D01*
X181586666Y-107431190D01*
X181539047Y-107407380D01*
X181515238Y-107383571D01*
X183415238Y-106968690D02*
X183724761Y-106968690D01*
X183558095Y-107159166D01*
X183629523Y-107159166D01*
X183677142Y-107182976D01*
X183700952Y-107206785D01*
X183724761Y-107254404D01*
X183724761Y-107373452D01*
X183700952Y-107421071D01*
X183677142Y-107444880D01*
X183629523Y-107468690D01*
X183486666Y-107468690D01*
X183439047Y-107444880D01*
X183415238Y-107421071D01*
X183891428Y-106968690D02*
X184200952Y-106968690D01*
X184034285Y-107159166D01*
X184105714Y-107159166D01*
X184153333Y-107182976D01*
X184177142Y-107206785D01*
X184200952Y-107254404D01*
X184200952Y-107373452D01*
X184177142Y-107421071D01*
X184153333Y-107444880D01*
X184105714Y-107468690D01*
X183962857Y-107468690D01*
X183915238Y-107444880D01*
X183891428Y-107421071D01*
X186015238Y-106968690D02*
X186324761Y-106968690D01*
X186158095Y-107159166D01*
X186229523Y-107159166D01*
X186277142Y-107182976D01*
X186300952Y-107206785D01*
X186324761Y-107254404D01*
X186324761Y-107373452D01*
X186300952Y-107421071D01*
X186277142Y-107444880D01*
X186229523Y-107468690D01*
X186086666Y-107468690D01*
X186039047Y-107444880D01*
X186015238Y-107421071D01*
X186515238Y-107016309D02*
X186539047Y-106992500D01*
X186586666Y-106968690D01*
X186705714Y-106968690D01*
X186753333Y-106992500D01*
X186777142Y-107016309D01*
X186800952Y-107063928D01*
X186800952Y-107111547D01*
X186777142Y-107182976D01*
X186491428Y-107468690D01*
X186800952Y-107468690D01*
X188615238Y-107006190D02*
X188924761Y-107006190D01*
X188758095Y-107196666D01*
X188829523Y-107196666D01*
X188877142Y-107220476D01*
X188900952Y-107244285D01*
X188924761Y-107291904D01*
X188924761Y-107410952D01*
X188900952Y-107458571D01*
X188877142Y-107482380D01*
X188829523Y-107506190D01*
X188686666Y-107506190D01*
X188639047Y-107482380D01*
X188615238Y-107458571D01*
X189377142Y-107006190D02*
X189139047Y-107006190D01*
X189115238Y-107244285D01*
X189139047Y-107220476D01*
X189186666Y-107196666D01*
X189305714Y-107196666D01*
X189353333Y-107220476D01*
X189377142Y-107244285D01*
X189400952Y-107291904D01*
X189400952Y-107410952D01*
X189377142Y-107458571D01*
X189353333Y-107482380D01*
X189305714Y-107506190D01*
X189186666Y-107506190D01*
X189139047Y-107482380D01*
X189115238Y-107458571D01*
X191215238Y-107006190D02*
X191524761Y-107006190D01*
X191358095Y-107196666D01*
X191429523Y-107196666D01*
X191477142Y-107220476D01*
X191500952Y-107244285D01*
X191524761Y-107291904D01*
X191524761Y-107410952D01*
X191500952Y-107458571D01*
X191477142Y-107482380D01*
X191429523Y-107506190D01*
X191286666Y-107506190D01*
X191239047Y-107482380D01*
X191215238Y-107458571D01*
X191953333Y-107172857D02*
X191953333Y-107506190D01*
X191834285Y-106982380D02*
X191715238Y-107339523D01*
X192024761Y-107339523D01*
X193674761Y-106972857D02*
X193793809Y-107306190D01*
X193912857Y-106972857D01*
X194103333Y-106972857D02*
X194103333Y-107306190D01*
X194103333Y-107020476D02*
X194127142Y-106996666D01*
X194174761Y-106972857D01*
X194246190Y-106972857D01*
X194293809Y-106996666D01*
X194317619Y-107044285D01*
X194317619Y-107306190D01*
X196274761Y-106972857D02*
X196393809Y-107306190D01*
X196512857Y-106972857D01*
X196703333Y-106972857D02*
X196703333Y-107472857D01*
X196703333Y-106996666D02*
X196750952Y-106972857D01*
X196846190Y-106972857D01*
X196893809Y-106996666D01*
X196917619Y-107020476D01*
X196941428Y-107068095D01*
X196941428Y-107210952D01*
X196917619Y-107258571D01*
X196893809Y-107282380D01*
X196846190Y-107306190D01*
X196750952Y-107306190D01*
X196703333Y-107282380D01*
X163312857Y-123825238D02*
X163717619Y-123825238D01*
X163765238Y-123849047D01*
X163789047Y-123872857D01*
X163812857Y-123920476D01*
X163812857Y-123991904D01*
X163789047Y-124039523D01*
X163622380Y-123825238D02*
X163646190Y-123872857D01*
X163646190Y-123968095D01*
X163622380Y-124015714D01*
X163598571Y-124039523D01*
X163550952Y-124063333D01*
X163408095Y-124063333D01*
X163360476Y-124039523D01*
X163336666Y-124015714D01*
X163312857Y-123968095D01*
X163312857Y-123872857D01*
X163336666Y-123825238D01*
X163312857Y-123587142D02*
X163646190Y-123587142D01*
X163360476Y-123587142D02*
X163336666Y-123563333D01*
X163312857Y-123515714D01*
X163312857Y-123444285D01*
X163336666Y-123396666D01*
X163384285Y-123372857D01*
X163646190Y-123372857D01*
X163646190Y-122920476D02*
X163146190Y-122920476D01*
X163622380Y-122920476D02*
X163646190Y-122968095D01*
X163646190Y-123063333D01*
X163622380Y-123110952D01*
X163598571Y-123134761D01*
X163550952Y-123158571D01*
X163408095Y-123158571D01*
X163360476Y-123134761D01*
X163336666Y-123110952D01*
X163312857Y-123063333D01*
X163312857Y-122968095D01*
X163336666Y-122920476D01*
X163146190Y-121403809D02*
X163146190Y-121094285D01*
X163336666Y-121260952D01*
X163336666Y-121189523D01*
X163360476Y-121141904D01*
X163384285Y-121118095D01*
X163431904Y-121094285D01*
X163550952Y-121094285D01*
X163598571Y-121118095D01*
X163622380Y-121141904D01*
X163646190Y-121189523D01*
X163646190Y-121332380D01*
X163622380Y-121380000D01*
X163598571Y-121403809D01*
X163598571Y-120880000D02*
X163622380Y-120856190D01*
X163646190Y-120880000D01*
X163622380Y-120903809D01*
X163598571Y-120880000D01*
X163646190Y-120880000D01*
X163146190Y-120689523D02*
X163146190Y-120380000D01*
X163336666Y-120546666D01*
X163336666Y-120475238D01*
X163360476Y-120427619D01*
X163384285Y-120403809D01*
X163431904Y-120380000D01*
X163550952Y-120380000D01*
X163598571Y-120403809D01*
X163622380Y-120427619D01*
X163646190Y-120475238D01*
X163646190Y-120618095D01*
X163622380Y-120665714D01*
X163598571Y-120689523D01*
X163312857Y-118625238D02*
X163717619Y-118625238D01*
X163765238Y-118649047D01*
X163789047Y-118672857D01*
X163812857Y-118720476D01*
X163812857Y-118791904D01*
X163789047Y-118839523D01*
X163622380Y-118625238D02*
X163646190Y-118672857D01*
X163646190Y-118768095D01*
X163622380Y-118815714D01*
X163598571Y-118839523D01*
X163550952Y-118863333D01*
X163408095Y-118863333D01*
X163360476Y-118839523D01*
X163336666Y-118815714D01*
X163312857Y-118768095D01*
X163312857Y-118672857D01*
X163336666Y-118625238D01*
X163312857Y-118387142D02*
X163646190Y-118387142D01*
X163360476Y-118387142D02*
X163336666Y-118363333D01*
X163312857Y-118315714D01*
X163312857Y-118244285D01*
X163336666Y-118196666D01*
X163384285Y-118172857D01*
X163646190Y-118172857D01*
X163646190Y-117720476D02*
X163146190Y-117720476D01*
X163622380Y-117720476D02*
X163646190Y-117768095D01*
X163646190Y-117863333D01*
X163622380Y-117910952D01*
X163598571Y-117934761D01*
X163550952Y-117958571D01*
X163408095Y-117958571D01*
X163360476Y-117934761D01*
X163336666Y-117910952D01*
X163312857Y-117863333D01*
X163312857Y-117768095D01*
X163336666Y-117720476D01*
X163312857Y-116225238D02*
X163717619Y-116225238D01*
X163765238Y-116249047D01*
X163789047Y-116272857D01*
X163812857Y-116320476D01*
X163812857Y-116391904D01*
X163789047Y-116439523D01*
X163622380Y-116225238D02*
X163646190Y-116272857D01*
X163646190Y-116368095D01*
X163622380Y-116415714D01*
X163598571Y-116439523D01*
X163550952Y-116463333D01*
X163408095Y-116463333D01*
X163360476Y-116439523D01*
X163336666Y-116415714D01*
X163312857Y-116368095D01*
X163312857Y-116272857D01*
X163336666Y-116225238D01*
X163312857Y-115987142D02*
X163646190Y-115987142D01*
X163360476Y-115987142D02*
X163336666Y-115963333D01*
X163312857Y-115915714D01*
X163312857Y-115844285D01*
X163336666Y-115796666D01*
X163384285Y-115772857D01*
X163646190Y-115772857D01*
X163646190Y-115320476D02*
X163146190Y-115320476D01*
X163622380Y-115320476D02*
X163646190Y-115368095D01*
X163646190Y-115463333D01*
X163622380Y-115510952D01*
X163598571Y-115534761D01*
X163550952Y-115558571D01*
X163408095Y-115558571D01*
X163360476Y-115534761D01*
X163336666Y-115510952D01*
X163312857Y-115463333D01*
X163312857Y-115368095D01*
X163336666Y-115320476D01*
X163146190Y-114003809D02*
X163146190Y-113694285D01*
X163336666Y-113860952D01*
X163336666Y-113789523D01*
X163360476Y-113741904D01*
X163384285Y-113718095D01*
X163431904Y-113694285D01*
X163550952Y-113694285D01*
X163598571Y-113718095D01*
X163622380Y-113741904D01*
X163646190Y-113789523D01*
X163646190Y-113932380D01*
X163622380Y-113980000D01*
X163598571Y-114003809D01*
X163598571Y-113480000D02*
X163622380Y-113456190D01*
X163646190Y-113480000D01*
X163622380Y-113503809D01*
X163598571Y-113480000D01*
X163646190Y-113480000D01*
X163146190Y-113289523D02*
X163146190Y-112980000D01*
X163336666Y-113146666D01*
X163336666Y-113075238D01*
X163360476Y-113027619D01*
X163384285Y-113003809D01*
X163431904Y-112980000D01*
X163550952Y-112980000D01*
X163598571Y-113003809D01*
X163622380Y-113027619D01*
X163646190Y-113075238D01*
X163646190Y-113218095D01*
X163622380Y-113265714D01*
X163598571Y-113289523D01*
X156912857Y-123825238D02*
X157317619Y-123825238D01*
X157365238Y-123849047D01*
X157389047Y-123872857D01*
X157412857Y-123920476D01*
X157412857Y-123991904D01*
X157389047Y-124039523D01*
X157222380Y-123825238D02*
X157246190Y-123872857D01*
X157246190Y-123968095D01*
X157222380Y-124015714D01*
X157198571Y-124039523D01*
X157150952Y-124063333D01*
X157008095Y-124063333D01*
X156960476Y-124039523D01*
X156936666Y-124015714D01*
X156912857Y-123968095D01*
X156912857Y-123872857D01*
X156936666Y-123825238D01*
X156912857Y-123587142D02*
X157246190Y-123587142D01*
X156960476Y-123587142D02*
X156936666Y-123563333D01*
X156912857Y-123515714D01*
X156912857Y-123444285D01*
X156936666Y-123396666D01*
X156984285Y-123372857D01*
X157246190Y-123372857D01*
X157246190Y-122920476D02*
X156746190Y-122920476D01*
X157222380Y-122920476D02*
X157246190Y-122968095D01*
X157246190Y-123063333D01*
X157222380Y-123110952D01*
X157198571Y-123134761D01*
X157150952Y-123158571D01*
X157008095Y-123158571D01*
X156960476Y-123134761D01*
X156936666Y-123110952D01*
X156912857Y-123063333D01*
X156912857Y-122968095D01*
X156936666Y-122920476D01*
X156912857Y-121225238D02*
X157317619Y-121225238D01*
X157365238Y-121249047D01*
X157389047Y-121272857D01*
X157412857Y-121320476D01*
X157412857Y-121391904D01*
X157389047Y-121439523D01*
X157222380Y-121225238D02*
X157246190Y-121272857D01*
X157246190Y-121368095D01*
X157222380Y-121415714D01*
X157198571Y-121439523D01*
X157150952Y-121463333D01*
X157008095Y-121463333D01*
X156960476Y-121439523D01*
X156936666Y-121415714D01*
X156912857Y-121368095D01*
X156912857Y-121272857D01*
X156936666Y-121225238D01*
X156912857Y-120987142D02*
X157246190Y-120987142D01*
X156960476Y-120987142D02*
X156936666Y-120963333D01*
X156912857Y-120915714D01*
X156912857Y-120844285D01*
X156936666Y-120796666D01*
X156984285Y-120772857D01*
X157246190Y-120772857D01*
X157246190Y-120320476D02*
X156746190Y-120320476D01*
X157222380Y-120320476D02*
X157246190Y-120368095D01*
X157246190Y-120463333D01*
X157222380Y-120510952D01*
X157198571Y-120534761D01*
X157150952Y-120558571D01*
X157008095Y-120558571D01*
X156960476Y-120534761D01*
X156936666Y-120510952D01*
X156912857Y-120463333D01*
X156912857Y-120368095D01*
X156936666Y-120320476D01*
X156912857Y-118825238D02*
X157317619Y-118825238D01*
X157365238Y-118849047D01*
X157389047Y-118872857D01*
X157412857Y-118920476D01*
X157412857Y-118991904D01*
X157389047Y-119039523D01*
X157222380Y-118825238D02*
X157246190Y-118872857D01*
X157246190Y-118968095D01*
X157222380Y-119015714D01*
X157198571Y-119039523D01*
X157150952Y-119063333D01*
X157008095Y-119063333D01*
X156960476Y-119039523D01*
X156936666Y-119015714D01*
X156912857Y-118968095D01*
X156912857Y-118872857D01*
X156936666Y-118825238D01*
X156912857Y-118587142D02*
X157246190Y-118587142D01*
X156960476Y-118587142D02*
X156936666Y-118563333D01*
X156912857Y-118515714D01*
X156912857Y-118444285D01*
X156936666Y-118396666D01*
X156984285Y-118372857D01*
X157246190Y-118372857D01*
X157246190Y-117920476D02*
X156746190Y-117920476D01*
X157222380Y-117920476D02*
X157246190Y-117968095D01*
X157246190Y-118063333D01*
X157222380Y-118110952D01*
X157198571Y-118134761D01*
X157150952Y-118158571D01*
X157008095Y-118158571D01*
X156960476Y-118134761D01*
X156936666Y-118110952D01*
X156912857Y-118063333D01*
X156912857Y-117968095D01*
X156936666Y-117920476D01*
X156912857Y-116225238D02*
X157317619Y-116225238D01*
X157365238Y-116249047D01*
X157389047Y-116272857D01*
X157412857Y-116320476D01*
X157412857Y-116391904D01*
X157389047Y-116439523D01*
X157222380Y-116225238D02*
X157246190Y-116272857D01*
X157246190Y-116368095D01*
X157222380Y-116415714D01*
X157198571Y-116439523D01*
X157150952Y-116463333D01*
X157008095Y-116463333D01*
X156960476Y-116439523D01*
X156936666Y-116415714D01*
X156912857Y-116368095D01*
X156912857Y-116272857D01*
X156936666Y-116225238D01*
X156912857Y-115987142D02*
X157246190Y-115987142D01*
X156960476Y-115987142D02*
X156936666Y-115963333D01*
X156912857Y-115915714D01*
X156912857Y-115844285D01*
X156936666Y-115796666D01*
X156984285Y-115772857D01*
X157246190Y-115772857D01*
X157246190Y-115320476D02*
X156746190Y-115320476D01*
X157222380Y-115320476D02*
X157246190Y-115368095D01*
X157246190Y-115463333D01*
X157222380Y-115510952D01*
X157198571Y-115534761D01*
X157150952Y-115558571D01*
X157008095Y-115558571D01*
X156960476Y-115534761D01*
X156936666Y-115510952D01*
X156912857Y-115463333D01*
X156912857Y-115368095D01*
X156936666Y-115320476D01*
X156912857Y-113625238D02*
X157317619Y-113625238D01*
X157365238Y-113649047D01*
X157389047Y-113672857D01*
X157412857Y-113720476D01*
X157412857Y-113791904D01*
X157389047Y-113839523D01*
X157222380Y-113625238D02*
X157246190Y-113672857D01*
X157246190Y-113768095D01*
X157222380Y-113815714D01*
X157198571Y-113839523D01*
X157150952Y-113863333D01*
X157008095Y-113863333D01*
X156960476Y-113839523D01*
X156936666Y-113815714D01*
X156912857Y-113768095D01*
X156912857Y-113672857D01*
X156936666Y-113625238D01*
X156912857Y-113387142D02*
X157246190Y-113387142D01*
X156960476Y-113387142D02*
X156936666Y-113363333D01*
X156912857Y-113315714D01*
X156912857Y-113244285D01*
X156936666Y-113196666D01*
X156984285Y-113172857D01*
X157246190Y-113172857D01*
X157246190Y-112720476D02*
X156746190Y-112720476D01*
X157222380Y-112720476D02*
X157246190Y-112768095D01*
X157246190Y-112863333D01*
X157222380Y-112910952D01*
X157198571Y-112934761D01*
X157150952Y-112958571D01*
X157008095Y-112958571D01*
X156960476Y-112934761D01*
X156936666Y-112910952D01*
X156912857Y-112863333D01*
X156912857Y-112768095D01*
X156936666Y-112720476D01*
D11*
X199746948Y-118437644D02*
G75*
G03X199746948Y-118437644I-254000J0D01*
G01*
X199746948Y-122501644D02*
G75*
G03X199746948Y-122501644I-254000J0D01*
G01*
X200000948Y-121231644D02*
G75*
G03X200000948Y-121231644I-567961J0D01*
G01*
X200000948Y-119707644D02*
G75*
G03X200000948Y-119707644I-567961J0D01*
G01*
D10*
X198901309Y-112822690D02*
X199401309Y-112822690D01*
X199401309Y-113013166D01*
X199377500Y-113060785D01*
X199353690Y-113084595D01*
X199306071Y-113108404D01*
X199234642Y-113108404D01*
X199187023Y-113084595D01*
X199163214Y-113060785D01*
X199139404Y-113013166D01*
X199139404Y-112822690D01*
X198901309Y-113394119D02*
X198925119Y-113346500D01*
X198948928Y-113322690D01*
X198996547Y-113298880D01*
X199139404Y-113298880D01*
X199187023Y-113322690D01*
X199210833Y-113346500D01*
X199234642Y-113394119D01*
X199234642Y-113465547D01*
X199210833Y-113513166D01*
X199187023Y-113536976D01*
X199139404Y-113560785D01*
X198996547Y-113560785D01*
X198948928Y-113536976D01*
X198925119Y-113513166D01*
X198901309Y-113465547D01*
X198901309Y-113394119D01*
X198901309Y-113775071D02*
X199234642Y-113775071D01*
X199139404Y-113775071D02*
X199187023Y-113798880D01*
X199210833Y-113822690D01*
X199234642Y-113870309D01*
X199234642Y-113917928D01*
X199234642Y-114013166D02*
X199234642Y-114203642D01*
X199401309Y-114084595D02*
X198972738Y-114084595D01*
X198925119Y-114108404D01*
X198901309Y-114156023D01*
X198901309Y-114203642D01*
X198901309Y-114370309D02*
X199234642Y-114370309D01*
X199401309Y-114370309D02*
X199377500Y-114346500D01*
X199353690Y-114370309D01*
X199377500Y-114394119D01*
X199401309Y-114370309D01*
X199353690Y-114370309D01*
X198901309Y-114822690D02*
X199163214Y-114822690D01*
X199210833Y-114798880D01*
X199234642Y-114751261D01*
X199234642Y-114656023D01*
X199210833Y-114608404D01*
X198925119Y-114822690D02*
X198901309Y-114775071D01*
X198901309Y-114656023D01*
X198925119Y-114608404D01*
X198972738Y-114584595D01*
X199020357Y-114584595D01*
X199067976Y-114608404D01*
X199091785Y-114656023D01*
X199091785Y-114775071D01*
X199115595Y-114822690D01*
X199163214Y-115608404D02*
X199139404Y-115679833D01*
X199115595Y-115703642D01*
X199067976Y-115727452D01*
X198996547Y-115727452D01*
X198948928Y-115703642D01*
X198925119Y-115679833D01*
X198901309Y-115632214D01*
X198901309Y-115441738D01*
X199401309Y-115441738D01*
X199401309Y-115608404D01*
X199377500Y-115656023D01*
X199353690Y-115679833D01*
X199306071Y-115703642D01*
X199258452Y-115703642D01*
X199210833Y-115679833D01*
X199187023Y-115656023D01*
X199163214Y-115608404D01*
X199163214Y-115441738D01*
X198901309Y-116013166D02*
X198925119Y-115965547D01*
X198948928Y-115941738D01*
X198996547Y-115917928D01*
X199139404Y-115917928D01*
X199187023Y-115941738D01*
X199210833Y-115965547D01*
X199234642Y-116013166D01*
X199234642Y-116084595D01*
X199210833Y-116132214D01*
X199187023Y-116156023D01*
X199139404Y-116179833D01*
X198996547Y-116179833D01*
X198948928Y-116156023D01*
X198925119Y-116132214D01*
X198901309Y-116084595D01*
X198901309Y-116013166D01*
X198901309Y-116608404D02*
X199163214Y-116608404D01*
X199210833Y-116584595D01*
X199234642Y-116536976D01*
X199234642Y-116441738D01*
X199210833Y-116394119D01*
X198925119Y-116608404D02*
X198901309Y-116560785D01*
X198901309Y-116441738D01*
X198925119Y-116394119D01*
X198972738Y-116370309D01*
X199020357Y-116370309D01*
X199067976Y-116394119D01*
X199091785Y-116441738D01*
X199091785Y-116560785D01*
X199115595Y-116608404D01*
X198901309Y-116846500D02*
X199234642Y-116846500D01*
X199139404Y-116846500D02*
X199187023Y-116870309D01*
X199210833Y-116894119D01*
X199234642Y-116941738D01*
X199234642Y-116989357D01*
X198901309Y-117370309D02*
X199401309Y-117370309D01*
X198925119Y-117370309D02*
X198901309Y-117322690D01*
X198901309Y-117227452D01*
X198925119Y-117179833D01*
X198948928Y-117156023D01*
X198996547Y-117132214D01*
X199139404Y-117132214D01*
X199187023Y-117156023D01*
X199210833Y-117179833D01*
X199234642Y-117227452D01*
X199234642Y-117322690D01*
X199210833Y-117370309D01*
X205016190Y-119529833D02*
X205016190Y-119434595D01*
X205040000Y-119386976D01*
X205087619Y-119339357D01*
X205182857Y-119315547D01*
X205349523Y-119315547D01*
X205444761Y-119339357D01*
X205492380Y-119386976D01*
X205516190Y-119434595D01*
X205516190Y-119529833D01*
X205492380Y-119577452D01*
X205444761Y-119625071D01*
X205349523Y-119648880D01*
X205182857Y-119648880D01*
X205087619Y-119625071D01*
X205040000Y-119577452D01*
X205016190Y-119529833D01*
X205492380Y-119125071D02*
X205516190Y-119053642D01*
X205516190Y-118934595D01*
X205492380Y-118886976D01*
X205468571Y-118863166D01*
X205420952Y-118839357D01*
X205373333Y-118839357D01*
X205325714Y-118863166D01*
X205301904Y-118886976D01*
X205278095Y-118934595D01*
X205254285Y-119029833D01*
X205230476Y-119077452D01*
X205206666Y-119101261D01*
X205159047Y-119125071D01*
X205111428Y-119125071D01*
X205063809Y-119101261D01*
X205040000Y-119077452D01*
X205016190Y-119029833D01*
X205016190Y-118910785D01*
X205040000Y-118839357D01*
X205516190Y-118625071D02*
X205016190Y-118625071D01*
X205254285Y-118625071D02*
X205254285Y-118339357D01*
X205516190Y-118339357D02*
X205016190Y-118339357D01*
X205016190Y-118148880D02*
X205516190Y-118029833D01*
X205159047Y-117934595D01*
X205516190Y-117839357D01*
X205016190Y-117720309D01*
X199687619Y-113158404D02*
X199663809Y-113229833D01*
X199663809Y-113348880D01*
X199687619Y-113396500D01*
X199711428Y-113420309D01*
X199759047Y-113444119D01*
X199806666Y-113444119D01*
X199854285Y-113420309D01*
X199878095Y-113396500D01*
X199901904Y-113348880D01*
X199925714Y-113253642D01*
X199949523Y-113206023D01*
X199973333Y-113182214D01*
X200020952Y-113158404D01*
X200068571Y-113158404D01*
X200116190Y-113182214D01*
X200140000Y-113206023D01*
X200163809Y-113253642D01*
X200163809Y-113372690D01*
X200140000Y-113444119D01*
X199997142Y-113658404D02*
X199497142Y-113658404D01*
X199973333Y-113658404D02*
X199997142Y-113706023D01*
X199997142Y-113801261D01*
X199973333Y-113848880D01*
X199949523Y-113872690D01*
X199901904Y-113896500D01*
X199759047Y-113896500D01*
X199711428Y-113872690D01*
X199687619Y-113848880D01*
X199663809Y-113801261D01*
X199663809Y-113706023D01*
X199687619Y-113658404D01*
X199663809Y-114110785D02*
X199997142Y-114110785D01*
X200163809Y-114110785D02*
X200140000Y-114086976D01*
X200116190Y-114110785D01*
X200140000Y-114134595D01*
X200163809Y-114110785D01*
X200116190Y-114110785D01*
X199663809Y-114563166D02*
X200163809Y-114563166D01*
X199687619Y-114563166D02*
X199663809Y-114515547D01*
X199663809Y-114420309D01*
X199687619Y-114372690D01*
X199711428Y-114348880D01*
X199759047Y-114325071D01*
X199901904Y-114325071D01*
X199949523Y-114348880D01*
X199973333Y-114372690D01*
X199997142Y-114420309D01*
X199997142Y-114515547D01*
X199973333Y-114563166D01*
X199687619Y-114991738D02*
X199663809Y-114944119D01*
X199663809Y-114848880D01*
X199687619Y-114801261D01*
X199735238Y-114777452D01*
X199925714Y-114777452D01*
X199973333Y-114801261D01*
X199997142Y-114848880D01*
X199997142Y-114944119D01*
X199973333Y-114991738D01*
X199925714Y-115015547D01*
X199878095Y-115015547D01*
X199830476Y-114777452D01*
X199663809Y-115229833D02*
X199997142Y-115229833D01*
X199901904Y-115229833D02*
X199949523Y-115253642D01*
X199973333Y-115277452D01*
X199997142Y-115325071D01*
X199997142Y-115372690D01*
X199663809Y-115539357D02*
X200163809Y-115539357D01*
X199973333Y-115539357D02*
X199997142Y-115586976D01*
X199997142Y-115682214D01*
X199973333Y-115729833D01*
X199949523Y-115753642D01*
X199901904Y-115777452D01*
X199759047Y-115777452D01*
X199711428Y-115753642D01*
X199687619Y-115729833D01*
X199663809Y-115682214D01*
X199663809Y-115586976D01*
X199687619Y-115539357D01*
X199663809Y-116063166D02*
X199687619Y-116015547D01*
X199711428Y-115991738D01*
X199759047Y-115967928D01*
X199901904Y-115967928D01*
X199949523Y-115991738D01*
X199973333Y-116015547D01*
X199997142Y-116063166D01*
X199997142Y-116134595D01*
X199973333Y-116182214D01*
X199949523Y-116206023D01*
X199901904Y-116229833D01*
X199759047Y-116229833D01*
X199711428Y-116206023D01*
X199687619Y-116182214D01*
X199663809Y-116134595D01*
X199663809Y-116063166D01*
X199663809Y-116396500D02*
X199997142Y-116658404D01*
X199997142Y-116396500D02*
X199663809Y-116658404D01*
D12*
G04 #@! TO.C,D1*
X164765000Y-130719000D02*
X164765000Y-128259000D01*
X164765000Y-128259000D02*
X163295000Y-128259000D01*
X163295000Y-128259000D02*
X163295000Y-130719000D01*
G04 #@! TO.C,R1*
X164617221Y-132659000D02*
X164942779Y-132659000D01*
X164617221Y-133679000D02*
X164942779Y-133679000D01*
G04 #@! TO.C,R6*
X175250000Y-105671779D02*
X175250000Y-105346221D01*
X174230000Y-105671779D02*
X174230000Y-105346221D01*
G04 #@! TO.C,Reset1*
X163510000Y-107124000D02*
X163510000Y-106824000D01*
X166810000Y-107124000D02*
X163510000Y-107124000D01*
X166810000Y-106824000D02*
X166810000Y-107124000D01*
X163510000Y-104324000D02*
X163510000Y-104624000D01*
X166810000Y-104324000D02*
X163510000Y-104324000D01*
X166810000Y-104624000D02*
X166810000Y-104324000D01*
G04 #@! TO.C,Boot1*
X171810000Y-131124000D02*
X171810000Y-130824000D01*
X171810000Y-130824000D02*
X168510000Y-130824000D01*
X168510000Y-130824000D02*
X168510000Y-131124000D01*
X171810000Y-133324000D02*
X171810000Y-133624000D01*
X171810000Y-133624000D02*
X168510000Y-133624000D01*
X168510000Y-133624000D02*
X168510000Y-133324000D01*
G04 #@! TO.C,J6*
X157710000Y-127374000D02*
X162910000Y-127374000D01*
X157710000Y-114614000D02*
X157710000Y-127374000D01*
X162910000Y-112014000D02*
X162910000Y-127374000D01*
X157710000Y-114614000D02*
X160310000Y-114614000D01*
X160310000Y-114614000D02*
X160310000Y-112014000D01*
X160310000Y-112014000D02*
X162910000Y-112014000D01*
X157710000Y-113344000D02*
X157710000Y-112014000D01*
X157710000Y-112014000D02*
X159040000Y-112014000D01*
G04 #@! TO.C,J5*
X197850000Y-130950000D02*
X197850000Y-132280000D01*
X196520000Y-130950000D02*
X197850000Y-130950000D01*
X195250000Y-130950000D02*
X195250000Y-133610000D01*
X195250000Y-133610000D02*
X177410000Y-133610000D01*
X195250000Y-130950000D02*
X177410000Y-130950000D01*
X177410000Y-130950000D02*
X177410000Y-133610000D01*
G04 #@! TO.C,J2*
X197880000Y-106610000D02*
X197880000Y-103950000D01*
X180040000Y-106610000D02*
X197880000Y-106610000D01*
X180040000Y-103950000D02*
X197880000Y-103950000D01*
X180040000Y-106610000D02*
X180040000Y-103950000D01*
X178770000Y-106610000D02*
X177440000Y-106610000D01*
X177440000Y-106610000D02*
X177440000Y-105280000D01*
D13*
G04 #@! TO.C,J4*
X176030000Y-127879000D02*
X176030000Y-109354000D01*
X164600000Y-109354000D02*
X176030000Y-109354000D01*
X176030000Y-127879000D02*
X164600000Y-127879000D01*
X164600000Y-127879000D02*
X164600000Y-109354000D01*
D14*
G04 #@! TO.C,U4*
X198667981Y-108818000D02*
G75*
G03X198667981Y-108818000I-283981J0D01*
G01*
D13*
X198530000Y-127724000D02*
X198530000Y-109724000D01*
X204530000Y-109724000D02*
X179030000Y-109724000D01*
X204530000Y-127724000D02*
X179030000Y-127724000D01*
X179030000Y-127724000D02*
X179030000Y-109724000D01*
X204530000Y-127724000D02*
X204530000Y-109724000D01*
D12*
G04 #@! TO.C,R4*
X175270000Y-131598721D02*
X175270000Y-131924279D01*
X174250000Y-131598721D02*
X174250000Y-131924279D01*
G04 #@! TO.C,D1*
D13*
X165912380Y-130657095D02*
X164912380Y-130657095D01*
X164912380Y-130419000D01*
X164960000Y-130276142D01*
X165055238Y-130180904D01*
X165150476Y-130133285D01*
X165340952Y-130085666D01*
X165483809Y-130085666D01*
X165674285Y-130133285D01*
X165769523Y-130180904D01*
X165864761Y-130276142D01*
X165912380Y-130419000D01*
X165912380Y-130657095D01*
X165912380Y-129133285D02*
X165912380Y-129704714D01*
X165912380Y-129419000D02*
X164912380Y-129419000D01*
X165055238Y-129514238D01*
X165150476Y-129609476D01*
X165198095Y-129704714D01*
G04 #@! TO.C,R1*
X164613333Y-132191380D02*
X164280000Y-131715190D01*
X164041904Y-132191380D02*
X164041904Y-131191380D01*
X164422857Y-131191380D01*
X164518095Y-131239000D01*
X164565714Y-131286619D01*
X164613333Y-131381857D01*
X164613333Y-131524714D01*
X164565714Y-131619952D01*
X164518095Y-131667571D01*
X164422857Y-131715190D01*
X164041904Y-131715190D01*
X165565714Y-132191380D02*
X164994285Y-132191380D01*
X165280000Y-132191380D02*
X165280000Y-131191380D01*
X165184761Y-131334238D01*
X165089523Y-131429476D01*
X164994285Y-131477095D01*
G04 #@! TO.C,R6*
X175212380Y-108215666D02*
X174736190Y-108549000D01*
X175212380Y-108787095D02*
X174212380Y-108787095D01*
X174212380Y-108406142D01*
X174260000Y-108310904D01*
X174307619Y-108263285D01*
X174402857Y-108215666D01*
X174545714Y-108215666D01*
X174640952Y-108263285D01*
X174688571Y-108310904D01*
X174736190Y-108406142D01*
X174736190Y-108787095D01*
X174212380Y-107358523D02*
X174212380Y-107549000D01*
X174260000Y-107644238D01*
X174307619Y-107691857D01*
X174450476Y-107787095D01*
X174640952Y-107834714D01*
X175021904Y-107834714D01*
X175117142Y-107787095D01*
X175164761Y-107739476D01*
X175212380Y-107644238D01*
X175212380Y-107453761D01*
X175164761Y-107358523D01*
X175117142Y-107310904D01*
X175021904Y-107263285D01*
X174783809Y-107263285D01*
X174688571Y-107310904D01*
X174640952Y-107358523D01*
X174593333Y-107453761D01*
X174593333Y-107644238D01*
X174640952Y-107739476D01*
X174688571Y-107787095D01*
X174783809Y-107834714D01*
G04 #@! TO.C,Reset1*
X163445714Y-108676380D02*
X163112380Y-108200190D01*
X162874285Y-108676380D02*
X162874285Y-107676380D01*
X163255238Y-107676380D01*
X163350476Y-107724000D01*
X163398095Y-107771619D01*
X163445714Y-107866857D01*
X163445714Y-108009714D01*
X163398095Y-108104952D01*
X163350476Y-108152571D01*
X163255238Y-108200190D01*
X162874285Y-108200190D01*
X164255238Y-108628761D02*
X164160000Y-108676380D01*
X163969523Y-108676380D01*
X163874285Y-108628761D01*
X163826666Y-108533523D01*
X163826666Y-108152571D01*
X163874285Y-108057333D01*
X163969523Y-108009714D01*
X164160000Y-108009714D01*
X164255238Y-108057333D01*
X164302857Y-108152571D01*
X164302857Y-108247809D01*
X163826666Y-108343047D01*
X164683809Y-108628761D02*
X164779047Y-108676380D01*
X164969523Y-108676380D01*
X165064761Y-108628761D01*
X165112380Y-108533523D01*
X165112380Y-108485904D01*
X165064761Y-108390666D01*
X164969523Y-108343047D01*
X164826666Y-108343047D01*
X164731428Y-108295428D01*
X164683809Y-108200190D01*
X164683809Y-108152571D01*
X164731428Y-108057333D01*
X164826666Y-108009714D01*
X164969523Y-108009714D01*
X165064761Y-108057333D01*
X165921904Y-108628761D02*
X165826666Y-108676380D01*
X165636190Y-108676380D01*
X165540952Y-108628761D01*
X165493333Y-108533523D01*
X165493333Y-108152571D01*
X165540952Y-108057333D01*
X165636190Y-108009714D01*
X165826666Y-108009714D01*
X165921904Y-108057333D01*
X165969523Y-108152571D01*
X165969523Y-108247809D01*
X165493333Y-108343047D01*
X166255238Y-108009714D02*
X166636190Y-108009714D01*
X166398095Y-107676380D02*
X166398095Y-108533523D01*
X166445714Y-108628761D01*
X166540952Y-108676380D01*
X166636190Y-108676380D01*
X167493333Y-108676380D02*
X166921904Y-108676380D01*
X167207619Y-108676380D02*
X167207619Y-107676380D01*
X167112380Y-107819238D01*
X167017142Y-107914476D01*
X166921904Y-107962095D01*
G04 #@! TO.C,Boot1*
X168564761Y-134652571D02*
X168707619Y-134700190D01*
X168755238Y-134747809D01*
X168802857Y-134843047D01*
X168802857Y-134985904D01*
X168755238Y-135081142D01*
X168707619Y-135128761D01*
X168612380Y-135176380D01*
X168231428Y-135176380D01*
X168231428Y-134176380D01*
X168564761Y-134176380D01*
X168660000Y-134224000D01*
X168707619Y-134271619D01*
X168755238Y-134366857D01*
X168755238Y-134462095D01*
X168707619Y-134557333D01*
X168660000Y-134604952D01*
X168564761Y-134652571D01*
X168231428Y-134652571D01*
X169374285Y-135176380D02*
X169279047Y-135128761D01*
X169231428Y-135081142D01*
X169183809Y-134985904D01*
X169183809Y-134700190D01*
X169231428Y-134604952D01*
X169279047Y-134557333D01*
X169374285Y-134509714D01*
X169517142Y-134509714D01*
X169612380Y-134557333D01*
X169660000Y-134604952D01*
X169707619Y-134700190D01*
X169707619Y-134985904D01*
X169660000Y-135081142D01*
X169612380Y-135128761D01*
X169517142Y-135176380D01*
X169374285Y-135176380D01*
X170279047Y-135176380D02*
X170183809Y-135128761D01*
X170136190Y-135081142D01*
X170088571Y-134985904D01*
X170088571Y-134700190D01*
X170136190Y-134604952D01*
X170183809Y-134557333D01*
X170279047Y-134509714D01*
X170421904Y-134509714D01*
X170517142Y-134557333D01*
X170564761Y-134604952D01*
X170612380Y-134700190D01*
X170612380Y-134985904D01*
X170564761Y-135081142D01*
X170517142Y-135128761D01*
X170421904Y-135176380D01*
X170279047Y-135176380D01*
X170898095Y-134509714D02*
X171279047Y-134509714D01*
X171040952Y-134176380D02*
X171040952Y-135033523D01*
X171088571Y-135128761D01*
X171183809Y-135176380D01*
X171279047Y-135176380D01*
X172136190Y-135176380D02*
X171564761Y-135176380D01*
X171850476Y-135176380D02*
X171850476Y-134176380D01*
X171755238Y-134319238D01*
X171660000Y-134414476D01*
X171564761Y-134462095D01*
G04 #@! TO.C,J6*
X159976666Y-110466380D02*
X159976666Y-111180666D01*
X159929047Y-111323523D01*
X159833809Y-111418761D01*
X159690952Y-111466380D01*
X159595714Y-111466380D01*
X160881428Y-110466380D02*
X160690952Y-110466380D01*
X160595714Y-110514000D01*
X160548095Y-110561619D01*
X160452857Y-110704476D01*
X160405238Y-110894952D01*
X160405238Y-111275904D01*
X160452857Y-111371142D01*
X160500476Y-111418761D01*
X160595714Y-111466380D01*
X160786190Y-111466380D01*
X160881428Y-111418761D01*
X160929047Y-111371142D01*
X160976666Y-111275904D01*
X160976666Y-111037809D01*
X160929047Y-110942571D01*
X160881428Y-110894952D01*
X160786190Y-110847333D01*
X160595714Y-110847333D01*
X160500476Y-110894952D01*
X160452857Y-110942571D01*
X160405238Y-111037809D01*
G04 #@! TO.C,H3*
D10*
X201639047Y-133306190D02*
X201639047Y-132806190D01*
X201639047Y-133044285D02*
X201924761Y-133044285D01*
X201924761Y-133306190D02*
X201924761Y-132806190D01*
X202115238Y-132806190D02*
X202424761Y-132806190D01*
X202258095Y-132996666D01*
X202329523Y-132996666D01*
X202377142Y-133020476D01*
X202400952Y-133044285D01*
X202424761Y-133091904D01*
X202424761Y-133210952D01*
X202400952Y-133258571D01*
X202377142Y-133282380D01*
X202329523Y-133306190D01*
X202186666Y-133306190D01*
X202139047Y-133282380D01*
X202115238Y-133258571D01*
G04 #@! TO.C,H2*
X201639047Y-104906190D02*
X201639047Y-104406190D01*
X201639047Y-104644285D02*
X201924761Y-104644285D01*
X201924761Y-104906190D02*
X201924761Y-104406190D01*
X202139047Y-104453809D02*
X202162857Y-104430000D01*
X202210476Y-104406190D01*
X202329523Y-104406190D01*
X202377142Y-104430000D01*
X202400952Y-104453809D01*
X202424761Y-104501428D01*
X202424761Y-104549047D01*
X202400952Y-104620476D01*
X202115238Y-104906190D01*
X202424761Y-104906190D01*
G04 #@! TO.C,H5*
X159639047Y-133306190D02*
X159639047Y-132806190D01*
X159639047Y-133044285D02*
X159924761Y-133044285D01*
X159924761Y-133306190D02*
X159924761Y-132806190D01*
X160400952Y-132806190D02*
X160162857Y-132806190D01*
X160139047Y-133044285D01*
X160162857Y-133020476D01*
X160210476Y-132996666D01*
X160329523Y-132996666D01*
X160377142Y-133020476D01*
X160400952Y-133044285D01*
X160424761Y-133091904D01*
X160424761Y-133210952D01*
X160400952Y-133258571D01*
X160377142Y-133282380D01*
X160329523Y-133306190D01*
X160210476Y-133306190D01*
X160162857Y-133282380D01*
X160139047Y-133258571D01*
G04 #@! TO.C,H1*
X159639047Y-104906190D02*
X159639047Y-104406190D01*
X159639047Y-104644285D02*
X159924761Y-104644285D01*
X159924761Y-104906190D02*
X159924761Y-104406190D01*
X160424761Y-104906190D02*
X160139047Y-104906190D01*
X160281904Y-104906190D02*
X160281904Y-104406190D01*
X160234285Y-104477619D01*
X160186666Y-104525238D01*
X160139047Y-104549047D01*
G04 #@! TO.C,J5*
D13*
X198302380Y-132613333D02*
X199016666Y-132613333D01*
X199159523Y-132660952D01*
X199254761Y-132756190D01*
X199302380Y-132899047D01*
X199302380Y-132994285D01*
X198302380Y-131660952D02*
X198302380Y-132137142D01*
X198778571Y-132184761D01*
X198730952Y-132137142D01*
X198683333Y-132041904D01*
X198683333Y-131803809D01*
X198730952Y-131708571D01*
X198778571Y-131660952D01*
X198873809Y-131613333D01*
X199111904Y-131613333D01*
X199207142Y-131660952D01*
X199254761Y-131708571D01*
X199302380Y-131803809D01*
X199302380Y-132041904D01*
X199254761Y-132137142D01*
X199207142Y-132184761D01*
G04 #@! TO.C,J2*
X176472380Y-108413333D02*
X177186666Y-108413333D01*
X177329523Y-108460952D01*
X177424761Y-108556190D01*
X177472380Y-108699047D01*
X177472380Y-108794285D01*
X176567619Y-107984761D02*
X176520000Y-107937142D01*
X176472380Y-107841904D01*
X176472380Y-107603809D01*
X176520000Y-107508571D01*
X176567619Y-107460952D01*
X176662857Y-107413333D01*
X176758095Y-107413333D01*
X176900952Y-107460952D01*
X177472380Y-108032380D01*
X177472380Y-107413333D01*
G04 #@! TO.C,J4*
X165956666Y-122948880D02*
X165956666Y-123663166D01*
X165909047Y-123806023D01*
X165813809Y-123901261D01*
X165670952Y-123948880D01*
X165575714Y-123948880D01*
X166861428Y-123282214D02*
X166861428Y-123948880D01*
X166623333Y-122901261D02*
X166385238Y-123615547D01*
X167004285Y-123615547D01*
G04 #@! TO.C,U4*
D10*
X193052190Y-116144952D02*
X193456952Y-116144952D01*
X193504571Y-116121142D01*
X193528380Y-116097333D01*
X193552190Y-116049714D01*
X193552190Y-115954476D01*
X193528380Y-115906857D01*
X193504571Y-115883047D01*
X193456952Y-115859238D01*
X193052190Y-115859238D01*
X193218857Y-115406857D02*
X193552190Y-115406857D01*
X193028380Y-115525904D02*
X193385523Y-115644952D01*
X193385523Y-115335428D01*
D13*
X182718571Y-124625071D02*
X183051904Y-124625071D01*
X183194761Y-125148880D02*
X182718571Y-125148880D01*
X182718571Y-124148880D01*
X183194761Y-124148880D01*
X183575714Y-125101261D02*
X183670952Y-125148880D01*
X183861428Y-125148880D01*
X183956666Y-125101261D01*
X184004285Y-125006023D01*
X184004285Y-124958404D01*
X183956666Y-124863166D01*
X183861428Y-124815547D01*
X183718571Y-124815547D01*
X183623333Y-124767928D01*
X183575714Y-124672690D01*
X183575714Y-124625071D01*
X183623333Y-124529833D01*
X183718571Y-124482214D01*
X183861428Y-124482214D01*
X183956666Y-124529833D01*
X184432857Y-124482214D02*
X184432857Y-125482214D01*
X184432857Y-124529833D02*
X184528095Y-124482214D01*
X184718571Y-124482214D01*
X184813809Y-124529833D01*
X184861428Y-124577452D01*
X184909047Y-124672690D01*
X184909047Y-124958404D01*
X184861428Y-125053642D01*
X184813809Y-125101261D01*
X184718571Y-125148880D01*
X184528095Y-125148880D01*
X184432857Y-125101261D01*
X185337619Y-125148880D02*
X185337619Y-124482214D01*
X185337619Y-124672690D02*
X185385238Y-124577452D01*
X185432857Y-124529833D01*
X185528095Y-124482214D01*
X185623333Y-124482214D01*
X186337619Y-125101261D02*
X186242380Y-125148880D01*
X186051904Y-125148880D01*
X185956666Y-125101261D01*
X185909047Y-125006023D01*
X185909047Y-124625071D01*
X185956666Y-124529833D01*
X186051904Y-124482214D01*
X186242380Y-124482214D01*
X186337619Y-124529833D01*
X186385238Y-124625071D01*
X186385238Y-124720309D01*
X185909047Y-124815547D01*
X186766190Y-125101261D02*
X186861428Y-125148880D01*
X187051904Y-125148880D01*
X187147142Y-125101261D01*
X187194761Y-125006023D01*
X187194761Y-124958404D01*
X187147142Y-124863166D01*
X187051904Y-124815547D01*
X186909047Y-124815547D01*
X186813809Y-124767928D01*
X186766190Y-124672690D01*
X186766190Y-124625071D01*
X186813809Y-124529833D01*
X186909047Y-124482214D01*
X187051904Y-124482214D01*
X187147142Y-124529833D01*
X187575714Y-125101261D02*
X187670952Y-125148880D01*
X187861428Y-125148880D01*
X187956666Y-125101261D01*
X188004285Y-125006023D01*
X188004285Y-124958404D01*
X187956666Y-124863166D01*
X187861428Y-124815547D01*
X187718571Y-124815547D01*
X187623333Y-124767928D01*
X187575714Y-124672690D01*
X187575714Y-124625071D01*
X187623333Y-124529833D01*
X187718571Y-124482214D01*
X187861428Y-124482214D01*
X187956666Y-124529833D01*
X188432857Y-125148880D02*
X188432857Y-124482214D01*
X188432857Y-124148880D02*
X188385238Y-124196500D01*
X188432857Y-124244119D01*
X188480476Y-124196500D01*
X188432857Y-124148880D01*
X188432857Y-124244119D01*
X188766190Y-124482214D02*
X189147142Y-124482214D01*
X188909047Y-125148880D02*
X188909047Y-124291738D01*
X188956666Y-124196500D01*
X189051904Y-124148880D01*
X189147142Y-124148880D01*
X190194761Y-125101261D02*
X190337619Y-125148880D01*
X190575714Y-125148880D01*
X190670952Y-125101261D01*
X190718571Y-125053642D01*
X190766190Y-124958404D01*
X190766190Y-124863166D01*
X190718571Y-124767928D01*
X190670952Y-124720309D01*
X190575714Y-124672690D01*
X190385238Y-124625071D01*
X190290000Y-124577452D01*
X190242380Y-124529833D01*
X190194761Y-124434595D01*
X190194761Y-124339357D01*
X190242380Y-124244119D01*
X190290000Y-124196500D01*
X190385238Y-124148880D01*
X190623333Y-124148880D01*
X190766190Y-124196500D01*
X191099523Y-124482214D02*
X191337619Y-125148880D01*
X191575714Y-124482214D02*
X191337619Y-125148880D01*
X191242380Y-125386976D01*
X191194761Y-125434595D01*
X191099523Y-125482214D01*
X191909047Y-125101261D02*
X192004285Y-125148880D01*
X192194761Y-125148880D01*
X192290000Y-125101261D01*
X192337619Y-125006023D01*
X192337619Y-124958404D01*
X192290000Y-124863166D01*
X192194761Y-124815547D01*
X192051904Y-124815547D01*
X191956666Y-124767928D01*
X191909047Y-124672690D01*
X191909047Y-124625071D01*
X191956666Y-124529833D01*
X192051904Y-124482214D01*
X192194761Y-124482214D01*
X192290000Y-124529833D01*
X192623333Y-124482214D02*
X193004285Y-124482214D01*
X192766190Y-124148880D02*
X192766190Y-125006023D01*
X192813809Y-125101261D01*
X192909047Y-125148880D01*
X193004285Y-125148880D01*
X193718571Y-125101261D02*
X193623333Y-125148880D01*
X193432857Y-125148880D01*
X193337619Y-125101261D01*
X193290000Y-125006023D01*
X193290000Y-124625071D01*
X193337619Y-124529833D01*
X193432857Y-124482214D01*
X193623333Y-124482214D01*
X193718571Y-124529833D01*
X193766190Y-124625071D01*
X193766190Y-124720309D01*
X193290000Y-124815547D01*
X194194761Y-125148880D02*
X194194761Y-124482214D01*
X194194761Y-124577452D02*
X194242380Y-124529833D01*
X194337619Y-124482214D01*
X194480476Y-124482214D01*
X194575714Y-124529833D01*
X194623333Y-124625071D01*
X194623333Y-125148880D01*
X194623333Y-124625071D02*
X194670952Y-124529833D01*
X194766190Y-124482214D01*
X194909047Y-124482214D01*
X195004285Y-124529833D01*
X195051904Y-124625071D01*
X195051904Y-125148880D01*
X195480476Y-125101261D02*
X195575714Y-125148880D01*
X195766190Y-125148880D01*
X195861428Y-125101261D01*
X195909047Y-125006023D01*
X195909047Y-124958404D01*
X195861428Y-124863166D01*
X195766190Y-124815547D01*
X195623333Y-124815547D01*
X195528095Y-124767928D01*
X195480476Y-124672690D01*
X195480476Y-124625071D01*
X195528095Y-124529833D01*
X195623333Y-124482214D01*
X195766190Y-124482214D01*
X195861428Y-124529833D01*
X183437619Y-123025071D02*
X183770952Y-123025071D01*
X183913809Y-123548880D02*
X183437619Y-123548880D01*
X183437619Y-122548880D01*
X183913809Y-122548880D01*
X184294761Y-123501261D02*
X184437619Y-123548880D01*
X184675714Y-123548880D01*
X184770952Y-123501261D01*
X184818571Y-123453642D01*
X184866190Y-123358404D01*
X184866190Y-123263166D01*
X184818571Y-123167928D01*
X184770952Y-123120309D01*
X184675714Y-123072690D01*
X184485238Y-123025071D01*
X184390000Y-122977452D01*
X184342380Y-122929833D01*
X184294761Y-122834595D01*
X184294761Y-122739357D01*
X184342380Y-122644119D01*
X184390000Y-122596500D01*
X184485238Y-122548880D01*
X184723333Y-122548880D01*
X184866190Y-122596500D01*
X185294761Y-123548880D02*
X185294761Y-122548880D01*
X185675714Y-122548880D01*
X185770952Y-122596500D01*
X185818571Y-122644119D01*
X185866190Y-122739357D01*
X185866190Y-122882214D01*
X185818571Y-122977452D01*
X185770952Y-123025071D01*
X185675714Y-123072690D01*
X185294761Y-123072690D01*
X186199523Y-122548880D02*
X186818571Y-122548880D01*
X186485238Y-122929833D01*
X186628095Y-122929833D01*
X186723333Y-122977452D01*
X186770952Y-123025071D01*
X186818571Y-123120309D01*
X186818571Y-123358404D01*
X186770952Y-123453642D01*
X186723333Y-123501261D01*
X186628095Y-123548880D01*
X186342380Y-123548880D01*
X186247142Y-123501261D01*
X186199523Y-123453642D01*
X187199523Y-122644119D02*
X187247142Y-122596500D01*
X187342380Y-122548880D01*
X187580476Y-122548880D01*
X187675714Y-122596500D01*
X187723333Y-122644119D01*
X187770952Y-122739357D01*
X187770952Y-122834595D01*
X187723333Y-122977452D01*
X187151904Y-123548880D01*
X187770952Y-123548880D01*
X188199523Y-123167928D02*
X188961428Y-123167928D01*
X189342380Y-122548880D02*
X189580476Y-123548880D01*
X189770952Y-122834595D01*
X189961428Y-123548880D01*
X190199523Y-122548880D01*
X191151904Y-123548880D02*
X190818571Y-123072690D01*
X190580476Y-123548880D02*
X190580476Y-122548880D01*
X190961428Y-122548880D01*
X191056666Y-122596500D01*
X191104285Y-122644119D01*
X191151904Y-122739357D01*
X191151904Y-122882214D01*
X191104285Y-122977452D01*
X191056666Y-123025071D01*
X190961428Y-123072690D01*
X190580476Y-123072690D01*
X191770952Y-122548880D02*
X191961428Y-122548880D01*
X192056666Y-122596500D01*
X192151904Y-122691738D01*
X192199523Y-122882214D01*
X192199523Y-123215547D01*
X192151904Y-123406023D01*
X192056666Y-123501261D01*
X191961428Y-123548880D01*
X191770952Y-123548880D01*
X191675714Y-123501261D01*
X191580476Y-123406023D01*
X191532857Y-123215547D01*
X191532857Y-122882214D01*
X191580476Y-122691738D01*
X191675714Y-122596500D01*
X191770952Y-122548880D01*
X192818571Y-122548880D02*
X193009047Y-122548880D01*
X193104285Y-122596500D01*
X193199523Y-122691738D01*
X193247142Y-122882214D01*
X193247142Y-123215547D01*
X193199523Y-123406023D01*
X193104285Y-123501261D01*
X193009047Y-123548880D01*
X192818571Y-123548880D01*
X192723333Y-123501261D01*
X192628095Y-123406023D01*
X192580476Y-123215547D01*
X192580476Y-122882214D01*
X192628095Y-122691738D01*
X192723333Y-122596500D01*
X192818571Y-122548880D01*
X193675714Y-123548880D02*
X193675714Y-122548880D01*
X194009047Y-123263166D01*
X194342380Y-122548880D01*
X194342380Y-123548880D01*
G04 #@! TO.C,R4*
X174523333Y-129948880D02*
X174190000Y-129472690D01*
X173951904Y-129948880D02*
X173951904Y-128948880D01*
X174332857Y-128948880D01*
X174428095Y-128996500D01*
X174475714Y-129044119D01*
X174523333Y-129139357D01*
X174523333Y-129282214D01*
X174475714Y-129377452D01*
X174428095Y-129425071D01*
X174332857Y-129472690D01*
X173951904Y-129472690D01*
X175380476Y-129282214D02*
X175380476Y-129948880D01*
X175142380Y-128901261D02*
X174904285Y-129615547D01*
X175523333Y-129615547D01*
G04 #@! TD*
M02*
