G04 #@! TF.GenerationSoftware,KiCad,Pcbnew,5.0.1+dfsg1-3~bpo9+1*
G04 #@! TF.CreationDate,2019-01-06T06:25:52+00:00*
G04 #@! TF.ProjectId,portia,706F727469612E6B696361645F706362,rev?*
G04 #@! TF.SameCoordinates,Original*
G04 #@! TF.FileFunction,Copper,L2,Bot,Signal*
G04 #@! TF.FilePolarity,Positive*
%FSLAX46Y46*%
G04 Gerber Fmt 4.6, Leading zero omitted, Abs format (unit mm)*
G04 Created by KiCad (PCBNEW 5.0.1+dfsg1-3~bpo9+1) date Sun 06 Jan 2019 06:25:52 AM UTC*
%MOMM*%
%LPD*%
G01*
G04 APERTURE LIST*
G04 #@! TA.AperFunction,ComponentPad*
%ADD10O,1.700000X1.700000*%
G04 #@! TD*
G04 #@! TA.AperFunction,ComponentPad*
%ADD11R,1.700000X1.700000*%
G04 #@! TD*
G04 #@! TA.AperFunction,ComponentPad*
%ADD12O,1.700000X1.350000*%
G04 #@! TD*
G04 #@! TA.AperFunction,ComponentPad*
%ADD13O,1.500000X1.100000*%
G04 #@! TD*
G04 #@! TA.AperFunction,ViaPad*
%ADD14C,0.600000*%
G04 #@! TD*
G04 #@! TA.AperFunction,Conductor*
%ADD15C,0.250000*%
G04 #@! TD*
G04 #@! TA.AperFunction,Conductor*
%ADD16C,0.254000*%
G04 #@! TD*
G04 APERTURE END LIST*
D10*
G04 #@! TO.P,J9,2*
G04 #@! TO.N,Net-(J9-Pad2)*
X207010000Y-82782000D03*
D11*
G04 #@! TO.P,J9,1*
G04 #@! TO.N,Net-(J9-Pad1)*
X204470000Y-82782000D03*
G04 #@! TD*
G04 #@! TO.P,J10,1*
G04 #@! TO.N,Net-(J10-Pad1)*
X204470000Y-106404000D03*
D10*
G04 #@! TO.P,J10,2*
G04 #@! TO.N,Net-(J10-Pad2)*
X204470000Y-108944000D03*
G04 #@! TD*
G04 #@! TO.P,J15,2*
G04 #@! TO.N,GND*
X207010000Y-113008000D03*
D11*
G04 #@! TO.P,J15,1*
G04 #@! TO.N,Net-(J15-Pad1)*
X204470000Y-113008000D03*
G04 #@! TD*
G04 #@! TO.P,J4,1*
G04 #@! TO.N,Net-(J4-Pad1)*
X174752000Y-101959000D03*
D10*
G04 #@! TO.P,J4,2*
G04 #@! TO.N,Net-(J4-Pad2)*
X174752000Y-99419000D03*
G04 #@! TO.P,J4,3*
G04 #@! TO.N,Net-(J4-Pad3)*
X174752000Y-96879000D03*
G04 #@! TO.P,J4,4*
G04 #@! TO.N,Net-(J4-Pad4)*
X174752000Y-94339000D03*
G04 #@! TD*
G04 #@! TO.P,J8,4*
G04 #@! TO.N,Net-(J8-Pad4)*
X167132000Y-107293000D03*
G04 #@! TO.P,J8,3*
G04 #@! TO.N,Net-(J8-Pad3)*
X169672000Y-107293000D03*
G04 #@! TO.P,J8,2*
G04 #@! TO.N,Net-(J8-Pad2)*
X172212000Y-107293000D03*
D11*
G04 #@! TO.P,J8,1*
G04 #@! TO.N,Net-(J8-Pad1)*
X174752000Y-107293000D03*
G04 #@! TD*
G04 #@! TO.P,J16,1*
G04 #@! TO.N,Net-(J16-Pad1)*
X204470000Y-87227000D03*
D10*
G04 #@! TO.P,J16,2*
G04 #@! TO.N,Net-(J16-Pad2)*
X207010000Y-87227000D03*
G04 #@! TO.P,J16,3*
G04 #@! TO.N,Net-(J16-Pad3)*
X209550000Y-87227000D03*
G04 #@! TO.P,J16,4*
G04 #@! TO.N,Net-(J16-Pad4)*
X212090000Y-87227000D03*
G04 #@! TD*
G04 #@! TO.P,J13,2*
G04 #@! TO.N,Net-(J13-Pad2)*
X184150000Y-130280000D03*
D11*
G04 #@! TO.P,J13,1*
G04 #@! TO.N,Net-(J13-Pad1)*
X186690000Y-130280000D03*
G04 #@! TD*
D12*
G04 #@! TO.P,J1,6*
G04 #@! TO.N,Net-(J1-Pad6)*
X219047000Y-96355000D03*
X219047000Y-101815000D03*
D13*
X216047000Y-96665000D03*
X216047000Y-101505000D03*
G04 #@! TD*
D10*
G04 #@! TO.P,J3,2*
G04 #@! TO.N,Net-(J3-Pad2)*
X160020000Y-87735000D03*
D11*
G04 #@! TO.P,J3,1*
G04 #@! TO.N,Net-(J3-Pad1)*
X160020000Y-90275000D03*
G04 #@! TD*
G04 #@! TO.P,J7,1*
G04 #@! TO.N,VCC*
X215480000Y-124692000D03*
D10*
G04 #@! TO.P,J7,2*
G04 #@! TO.N,GND*
X218020000Y-124692000D03*
G04 #@! TD*
D11*
G04 #@! TO.P,J11,1*
G04 #@! TO.N,Net-(J11-Pad1)*
X172974000Y-130280000D03*
D10*
G04 #@! TO.P,J11,2*
G04 #@! TO.N,Net-(J11-Pad2)*
X170434000Y-130280000D03*
G04 #@! TD*
G04 #@! TO.P,J12,2*
G04 #@! TO.N,Net-(J12-Pad2)*
X177292000Y-130280000D03*
D11*
G04 #@! TO.P,J12,1*
G04 #@! TO.N,Net-(J12-Pad1)*
X179832000Y-130280000D03*
G04 #@! TD*
G04 #@! TO.P,J14,1*
G04 #@! TO.N,Net-(J14-Pad1)*
X193548000Y-130280000D03*
D10*
G04 #@! TO.P,J14,2*
G04 #@! TO.N,Net-(J14-Pad2)*
X191008000Y-130280000D03*
G04 #@! TD*
D14*
G04 #@! TO.N,+3V3*
X210312000Y-102108000D03*
X190200000Y-104050000D03*
X190200000Y-103034000D03*
X189438000Y-103542000D03*
X190962000Y-103542000D03*
X191724000Y-104050000D03*
X190962000Y-104558000D03*
X188676000Y-104050000D03*
X189438000Y-104558000D03*
X190200000Y-105066000D03*
X192740000Y-104050000D03*
X187660000Y-104050000D03*
X194772000Y-104050000D03*
X185628000Y-104050000D03*
X188168000Y-103034000D03*
X192232000Y-105066000D03*
G04 #@! TO.N,GND*
X204114500Y-93497500D03*
X201823500Y-90000000D03*
X169418000Y-89916000D03*
X169418000Y-83598000D03*
X212918500Y-109604000D03*
X207451500Y-109604000D03*
X213360000Y-97993000D03*
X211734500Y-94488000D03*
X207264000Y-102108000D03*
X213360000Y-95478500D03*
X211162000Y-115040000D03*
X172720000Y-120882000D03*
X184912000Y-118342000D03*
X179091000Y-90000000D03*
X179091000Y-85428000D03*
X172720000Y-119126000D03*
X184912000Y-120929500D03*
G04 #@! TO.N,+5V*
X214453000Y-100385000D03*
X215285500Y-93810000D03*
G04 #@! TO.N,/RESET*
X203966000Y-102870000D03*
X183900000Y-92540000D03*
G04 #@! TO.N,Net-(D1-Pad1)*
X213360000Y-99771000D03*
X210312000Y-104140000D03*
G04 #@! TO.N,Net-(D2-Pad1)*
X208538000Y-102870000D03*
X213360000Y-98831000D03*
G04 #@! TO.N,Net-(F1-Pad1)*
X211639991Y-101070000D03*
X215285500Y-90000000D03*
G04 #@! TO.N,Net-(R14-Pad1)*
X184912000Y-112246000D03*
X190500000Y-112246000D03*
G04 #@! TO.N,Net-(R17-Pad1)*
X183773000Y-115383000D03*
X198109840Y-127179840D03*
G04 #@! TO.N,Net-(R15-Pad1)*
X198109840Y-131908000D03*
X183773000Y-116399000D03*
G04 #@! TO.N,Net-(M1-Pad4)*
X182757000Y-116399000D03*
X167153000Y-123401000D03*
G04 #@! TO.N,Net-(M1-Pad6)*
X165121000Y-123367000D03*
X180979000Y-115383000D03*
X180979000Y-115383000D03*
X162696340Y-120490160D03*
G04 #@! TO.N,Net-(J9-Pad1)*
X201823500Y-92540000D03*
G04 #@! TO.N,Net-(J9-Pad2)*
X201823500Y-96350000D03*
G04 #@! TO.N,Net-(J16-Pad2)*
X201823500Y-98890000D03*
G04 #@! TO.N,Net-(J16-Pad3)*
X201823500Y-100160000D03*
G04 #@! TO.N,Net-(J16-Pad4)*
X201823500Y-101430000D03*
G04 #@! TO.N,Net-(J8-Pad3)*
X179091000Y-102700000D03*
G04 #@! TO.N,Net-(J8-Pad4)*
X179091000Y-101430000D03*
G04 #@! TO.N,Net-(R18-Pad1)*
X193949500Y-113876000D03*
X193949500Y-113876000D03*
X186055000Y-110045500D03*
G04 #@! TO.N,Net-(R19-Pad1)*
X201762000Y-106002000D03*
X201762000Y-111844000D03*
G04 #@! TO.N,Net-(R11-Pad1)*
X193949500Y-116416000D03*
X181500000Y-108036500D03*
G04 #@! TD*
D15*
G04 #@! TO.N,+5V*
X213985001Y-99917001D02*
X213985001Y-96910999D01*
X214453000Y-100385000D02*
X213985001Y-99917001D01*
X213985001Y-96910999D02*
X213985001Y-95110499D01*
X213985001Y-95110499D02*
X215285500Y-93810000D01*
X215285500Y-93810000D02*
X215285500Y-93810000D01*
G04 #@! TO.N,/RESET*
X183900000Y-106934000D02*
X183900000Y-92540000D01*
X184916000Y-107950000D02*
X183900000Y-106934000D01*
X198886000Y-107950000D02*
X184916000Y-107950000D01*
X203966000Y-102870000D02*
X198886000Y-107950000D01*
G04 #@! TO.N,Net-(D1-Pad1)*
X213360000Y-101661002D02*
X213360000Y-99771000D01*
X210881002Y-104140000D02*
X213360000Y-101661002D01*
X210881002Y-104140000D02*
X210312000Y-104140000D01*
X210312000Y-104140000D02*
X210312000Y-104140000D01*
G04 #@! TO.N,Net-(D2-Pad1)*
X211328000Y-102870000D02*
X212344000Y-101854000D01*
X208538000Y-102870000D02*
X211328000Y-102870000D01*
X212344000Y-99847000D02*
X213360000Y-98831000D01*
X212344000Y-101854000D02*
X212344000Y-100025000D01*
X212344000Y-100025000D02*
X212344000Y-99847000D01*
G04 #@! TO.N,Net-(F1-Pad1)*
X211639991Y-101070000D02*
X211639991Y-99660599D01*
X212480999Y-95113001D02*
X213931500Y-93662500D01*
X211639991Y-99660599D02*
X212480999Y-98819591D01*
X212480999Y-98819591D02*
X212480999Y-95113001D01*
X213931500Y-93662500D02*
X213931500Y-91354000D01*
X213931500Y-91354000D02*
X215285500Y-90000000D01*
X215285500Y-90000000D02*
X215285500Y-90000000D01*
G04 #@! TO.N,Net-(R14-Pad1)*
X185928000Y-113262000D02*
X189484000Y-113262000D01*
X189484000Y-113262000D02*
X190500000Y-112246000D01*
X184912000Y-112246000D02*
X185928000Y-113262000D01*
G04 #@! TO.N,Net-(R17-Pad1)*
X198109840Y-126755576D02*
X198109840Y-127179840D01*
X198109840Y-124427840D02*
X198109840Y-126755576D01*
X189065000Y-115383000D02*
X198109840Y-124427840D01*
X183773000Y-115383000D02*
X189065000Y-115383000D01*
G04 #@! TO.N,Net-(R15-Pad1)*
X196107000Y-123187000D02*
X196107000Y-131019000D01*
X190858000Y-117938000D02*
X196107000Y-123187000D01*
X183773000Y-116399000D02*
X184281000Y-116907000D01*
X196996000Y-131908000D02*
X198109840Y-131908000D01*
X187541000Y-116907000D02*
X188572000Y-117938000D01*
X196107000Y-131019000D02*
X196996000Y-131908000D01*
X188572000Y-117938000D02*
X190858000Y-117938000D01*
X184281000Y-116907000D02*
X187541000Y-116907000D01*
G04 #@! TO.N,Net-(M1-Pad4)*
X174121000Y-116399000D02*
X182757000Y-116399000D01*
X167153000Y-123401000D02*
X168389000Y-123401000D01*
X168931000Y-121589000D02*
X174121000Y-116399000D01*
X168931000Y-122859000D02*
X168931000Y-121589000D01*
X168389000Y-123401000D02*
X168931000Y-122859000D01*
G04 #@! TO.N,Net-(M1-Pad6)*
X166137000Y-123367000D02*
X165121000Y-123367000D01*
X174121000Y-115383000D02*
X166137000Y-123367000D01*
X180979000Y-115383000D02*
X174121000Y-115383000D01*
X162696340Y-122268160D02*
X163795180Y-123367000D01*
X163795180Y-123367000D02*
X165121000Y-123367000D01*
X162696340Y-120490160D02*
X162696340Y-122268160D01*
G04 #@! TO.N,Net-(J9-Pad1)*
X204470000Y-83882000D02*
X204470000Y-82782000D01*
X202585500Y-85766500D02*
X204470000Y-83882000D01*
X202585500Y-91778000D02*
X202585500Y-85766500D01*
X201823500Y-92540000D02*
X202585500Y-91778000D01*
G04 #@! TO.N,Net-(J9-Pad2)*
X206903500Y-83650000D02*
X205759002Y-84794498D01*
X207010000Y-82782000D02*
X206903500Y-82888500D01*
X203035509Y-91964401D02*
X202448501Y-92551409D01*
X204235002Y-84794498D02*
X203035509Y-85993991D01*
X203035509Y-85993991D02*
X203035509Y-91964401D01*
X206903500Y-82888500D02*
X206903500Y-83650000D01*
X205759002Y-84794498D02*
X204235002Y-84794498D01*
X202448501Y-95724999D02*
X201823500Y-96350000D01*
X202448501Y-95588000D02*
X202448501Y-95724999D01*
X202448501Y-92551409D02*
X202448501Y-95588000D01*
G04 #@! TO.N,Net-(J16-Pad2)*
X207010000Y-93703500D02*
X207010000Y-87227000D01*
X201823500Y-98890000D02*
X207010000Y-93703500D01*
G04 #@! TO.N,Net-(J16-Pad3)*
X209550000Y-92433500D02*
X209550000Y-87227000D01*
X201823500Y-100160000D02*
X209550000Y-92433500D01*
G04 #@! TO.N,Net-(J16-Pad4)*
X212090000Y-91163500D02*
X212090000Y-87227000D01*
X201823500Y-101430000D02*
X212090000Y-91163500D01*
G04 #@! TO.N,Net-(J8-Pad3)*
X171217000Y-105748000D02*
X170521999Y-106443001D01*
X170521999Y-106443001D02*
X169672000Y-107293000D01*
X176043000Y-105748000D02*
X171217000Y-105748000D01*
X179091000Y-102700000D02*
X176043000Y-105748000D01*
G04 #@! TO.N,Net-(J8-Pad4)*
X167981999Y-106443001D02*
X167132000Y-107293000D01*
X169566000Y-104859000D02*
X167981999Y-106443001D01*
X175662000Y-104859000D02*
X169566000Y-104859000D01*
X179091000Y-101430000D02*
X175662000Y-104859000D01*
G04 #@! TO.N,Net-(R18-Pad1)*
X190119000Y-110045500D02*
X186055000Y-110045500D01*
X193949500Y-113876000D02*
X190119000Y-110045500D01*
G04 #@! TO.N,Net-(R19-Pad1)*
X201762000Y-106002000D02*
X201762000Y-111844000D01*
G04 #@! TO.N,Net-(R11-Pad1)*
X189849503Y-110670501D02*
X184134001Y-110670501D01*
X184134001Y-110670501D02*
X181799999Y-108336499D01*
X193949500Y-114770498D02*
X189849503Y-110670501D01*
X181799999Y-108336499D02*
X181500000Y-108036500D01*
X193949500Y-116416000D02*
X193949500Y-114770498D01*
G04 #@! TD*
D16*
G04 #@! TO.N,GND*
G36*
X218619123Y-78431815D02*
X219226198Y-78644239D01*
X219770782Y-78986425D01*
X220225575Y-79441218D01*
X220567761Y-79985802D01*
X220780185Y-80592877D01*
X220853000Y-81239128D01*
X220853000Y-130088872D01*
X220780185Y-130735123D01*
X220567761Y-131342198D01*
X220225575Y-131886782D01*
X219770782Y-132341575D01*
X219226198Y-132683761D01*
X218619123Y-132896185D01*
X217972872Y-132969000D01*
X159979128Y-132969000D01*
X159332877Y-132896185D01*
X158725802Y-132683761D01*
X158181218Y-132341575D01*
X157726425Y-131886782D01*
X157384239Y-131342198D01*
X157171815Y-130735123D01*
X157099000Y-130088872D01*
X157099000Y-129916587D01*
X158193000Y-129916587D01*
X158193000Y-130643413D01*
X158471144Y-131314912D01*
X158985088Y-131828856D01*
X159656587Y-132107000D01*
X160383413Y-132107000D01*
X161054912Y-131828856D01*
X161568856Y-131314912D01*
X161847000Y-130643413D01*
X161847000Y-130280000D01*
X169233942Y-130280000D01*
X169325291Y-130739242D01*
X169585431Y-131128569D01*
X169974758Y-131388709D01*
X170318080Y-131457000D01*
X170549920Y-131457000D01*
X170893242Y-131388709D01*
X171282569Y-131128569D01*
X171542709Y-130739242D01*
X171634058Y-130280000D01*
X171542709Y-129820758D01*
X171282569Y-129431431D01*
X171280428Y-129430000D01*
X171790594Y-129430000D01*
X171790594Y-131130000D01*
X171815973Y-131257589D01*
X171888246Y-131365754D01*
X171996411Y-131438027D01*
X172124000Y-131463406D01*
X173824000Y-131463406D01*
X173951589Y-131438027D01*
X174059754Y-131365754D01*
X174132027Y-131257589D01*
X174157406Y-131130000D01*
X174157406Y-130280000D01*
X176091942Y-130280000D01*
X176183291Y-130739242D01*
X176443431Y-131128569D01*
X176832758Y-131388709D01*
X177176080Y-131457000D01*
X177407920Y-131457000D01*
X177751242Y-131388709D01*
X178140569Y-131128569D01*
X178400709Y-130739242D01*
X178492058Y-130280000D01*
X178400709Y-129820758D01*
X178140569Y-129431431D01*
X178138428Y-129430000D01*
X178648594Y-129430000D01*
X178648594Y-131130000D01*
X178673973Y-131257589D01*
X178746246Y-131365754D01*
X178854411Y-131438027D01*
X178982000Y-131463406D01*
X180682000Y-131463406D01*
X180809589Y-131438027D01*
X180917754Y-131365754D01*
X180990027Y-131257589D01*
X181015406Y-131130000D01*
X181015406Y-130280000D01*
X182949942Y-130280000D01*
X183041291Y-130739242D01*
X183301431Y-131128569D01*
X183690758Y-131388709D01*
X184034080Y-131457000D01*
X184265920Y-131457000D01*
X184609242Y-131388709D01*
X184998569Y-131128569D01*
X185258709Y-130739242D01*
X185350058Y-130280000D01*
X185258709Y-129820758D01*
X184998569Y-129431431D01*
X184996428Y-129430000D01*
X185506594Y-129430000D01*
X185506594Y-131130000D01*
X185531973Y-131257589D01*
X185604246Y-131365754D01*
X185712411Y-131438027D01*
X185840000Y-131463406D01*
X187540000Y-131463406D01*
X187667589Y-131438027D01*
X187775754Y-131365754D01*
X187848027Y-131257589D01*
X187873406Y-131130000D01*
X187873406Y-130280000D01*
X189807942Y-130280000D01*
X189899291Y-130739242D01*
X190159431Y-131128569D01*
X190548758Y-131388709D01*
X190892080Y-131457000D01*
X191123920Y-131457000D01*
X191467242Y-131388709D01*
X191856569Y-131128569D01*
X192116709Y-130739242D01*
X192208058Y-130280000D01*
X192116709Y-129820758D01*
X191856569Y-129431431D01*
X191854428Y-129430000D01*
X192364594Y-129430000D01*
X192364594Y-131130000D01*
X192389973Y-131257589D01*
X192462246Y-131365754D01*
X192570411Y-131438027D01*
X192698000Y-131463406D01*
X194398000Y-131463406D01*
X194525589Y-131438027D01*
X194633754Y-131365754D01*
X194706027Y-131257589D01*
X194731406Y-131130000D01*
X194731406Y-129430000D01*
X194706027Y-129302411D01*
X194633754Y-129194246D01*
X194525589Y-129121973D01*
X194398000Y-129096594D01*
X192698000Y-129096594D01*
X192570411Y-129121973D01*
X192462246Y-129194246D01*
X192389973Y-129302411D01*
X192364594Y-129430000D01*
X191854428Y-129430000D01*
X191467242Y-129171291D01*
X191123920Y-129103000D01*
X190892080Y-129103000D01*
X190548758Y-129171291D01*
X190159431Y-129431431D01*
X189899291Y-129820758D01*
X189807942Y-130280000D01*
X187873406Y-130280000D01*
X187873406Y-129430000D01*
X187848027Y-129302411D01*
X187775754Y-129194246D01*
X187667589Y-129121973D01*
X187540000Y-129096594D01*
X185840000Y-129096594D01*
X185712411Y-129121973D01*
X185604246Y-129194246D01*
X185531973Y-129302411D01*
X185506594Y-129430000D01*
X184996428Y-129430000D01*
X184609242Y-129171291D01*
X184265920Y-129103000D01*
X184034080Y-129103000D01*
X183690758Y-129171291D01*
X183301431Y-129431431D01*
X183041291Y-129820758D01*
X182949942Y-130280000D01*
X181015406Y-130280000D01*
X181015406Y-129430000D01*
X180990027Y-129302411D01*
X180917754Y-129194246D01*
X180809589Y-129121973D01*
X180682000Y-129096594D01*
X178982000Y-129096594D01*
X178854411Y-129121973D01*
X178746246Y-129194246D01*
X178673973Y-129302411D01*
X178648594Y-129430000D01*
X178138428Y-129430000D01*
X177751242Y-129171291D01*
X177407920Y-129103000D01*
X177176080Y-129103000D01*
X176832758Y-129171291D01*
X176443431Y-129431431D01*
X176183291Y-129820758D01*
X176091942Y-130280000D01*
X174157406Y-130280000D01*
X174157406Y-129430000D01*
X174132027Y-129302411D01*
X174059754Y-129194246D01*
X173951589Y-129121973D01*
X173824000Y-129096594D01*
X172124000Y-129096594D01*
X171996411Y-129121973D01*
X171888246Y-129194246D01*
X171815973Y-129302411D01*
X171790594Y-129430000D01*
X171280428Y-129430000D01*
X170893242Y-129171291D01*
X170549920Y-129103000D01*
X170318080Y-129103000D01*
X169974758Y-129171291D01*
X169585431Y-129431431D01*
X169325291Y-129820758D01*
X169233942Y-130280000D01*
X161847000Y-130280000D01*
X161847000Y-129916587D01*
X161568856Y-129245088D01*
X161054912Y-128731144D01*
X160383413Y-128453000D01*
X159656587Y-128453000D01*
X158985088Y-128731144D01*
X158471144Y-129245088D01*
X158193000Y-129916587D01*
X157099000Y-129916587D01*
X157099000Y-120365442D01*
X162069340Y-120365442D01*
X162069340Y-120614878D01*
X162164795Y-120845327D01*
X162244340Y-120924872D01*
X162244341Y-122223638D01*
X162235485Y-122268160D01*
X162270565Y-122444521D01*
X162270566Y-122444522D01*
X162370467Y-122594034D01*
X162408207Y-122619251D01*
X163444087Y-123655131D01*
X163469306Y-123692874D01*
X163618818Y-123792775D01*
X163750662Y-123819000D01*
X163750663Y-123819000D01*
X163795179Y-123827855D01*
X163839696Y-123819000D01*
X164686288Y-123819000D01*
X164765833Y-123898545D01*
X164996282Y-123994000D01*
X165245718Y-123994000D01*
X165476167Y-123898545D01*
X165555712Y-123819000D01*
X166092482Y-123819000D01*
X166137000Y-123827855D01*
X166181518Y-123819000D01*
X166313362Y-123792775D01*
X166462874Y-123692874D01*
X166488093Y-123655131D01*
X166552801Y-123590423D01*
X166621455Y-123756167D01*
X166797833Y-123932545D01*
X167028282Y-124028000D01*
X167277718Y-124028000D01*
X167508167Y-123932545D01*
X167587712Y-123853000D01*
X168344482Y-123853000D01*
X168389000Y-123861855D01*
X168433518Y-123853000D01*
X168565362Y-123826775D01*
X168714874Y-123726874D01*
X168740093Y-123689131D01*
X169219134Y-123210091D01*
X169256874Y-123184874D01*
X169341256Y-123058587D01*
X187149000Y-123058587D01*
X187149000Y-123785413D01*
X187427144Y-124456912D01*
X187941088Y-124970856D01*
X188612587Y-125249000D01*
X189339413Y-125249000D01*
X190010912Y-124970856D01*
X190524856Y-124456912D01*
X190803000Y-123785413D01*
X190803000Y-123058587D01*
X190524856Y-122387088D01*
X190010912Y-121873144D01*
X189339413Y-121595000D01*
X188612587Y-121595000D01*
X187941088Y-121873144D01*
X187427144Y-122387088D01*
X187149000Y-123058587D01*
X169341256Y-123058587D01*
X169356775Y-123035362D01*
X169383000Y-122903518D01*
X169383000Y-122903517D01*
X169391855Y-122859000D01*
X169383000Y-122814482D01*
X169383000Y-121776224D01*
X174308224Y-116851000D01*
X182322288Y-116851000D01*
X182401833Y-116930545D01*
X182632282Y-117026000D01*
X182881718Y-117026000D01*
X183112167Y-116930545D01*
X183265000Y-116777712D01*
X183417833Y-116930545D01*
X183648282Y-117026000D01*
X183760776Y-117026000D01*
X183929907Y-117195131D01*
X183955126Y-117232874D01*
X184104638Y-117332775D01*
X184236482Y-117359000D01*
X184236483Y-117359000D01*
X184280999Y-117367855D01*
X184325516Y-117359000D01*
X187353776Y-117359000D01*
X188220908Y-118226133D01*
X188246126Y-118263874D01*
X188283866Y-118289091D01*
X188395638Y-118363775D01*
X188571999Y-118398855D01*
X188616517Y-118390000D01*
X190670776Y-118390000D01*
X195655000Y-123374225D01*
X195655001Y-130974477D01*
X195646145Y-131019000D01*
X195681225Y-131195361D01*
X195743341Y-131288324D01*
X195781127Y-131344874D01*
X195818867Y-131370091D01*
X196644908Y-132196133D01*
X196670126Y-132233874D01*
X196713966Y-132263167D01*
X196819638Y-132333775D01*
X196996000Y-132368855D01*
X197040518Y-132360000D01*
X197675128Y-132360000D01*
X197754673Y-132439545D01*
X197985122Y-132535000D01*
X198234558Y-132535000D01*
X198465007Y-132439545D01*
X198641385Y-132263167D01*
X198736840Y-132032718D01*
X198736840Y-131783282D01*
X198641385Y-131552833D01*
X198465007Y-131376455D01*
X198234558Y-131281000D01*
X197985122Y-131281000D01*
X197754673Y-131376455D01*
X197675128Y-131456000D01*
X197183225Y-131456000D01*
X196559000Y-130831776D01*
X196559000Y-129916587D01*
X216193000Y-129916587D01*
X216193000Y-130643413D01*
X216471144Y-131314912D01*
X216985088Y-131828856D01*
X217656587Y-132107000D01*
X218383413Y-132107000D01*
X219054912Y-131828856D01*
X219568856Y-131314912D01*
X219847000Y-130643413D01*
X219847000Y-129916587D01*
X219568856Y-129245088D01*
X219054912Y-128731144D01*
X218383413Y-128453000D01*
X217656587Y-128453000D01*
X216985088Y-128731144D01*
X216471144Y-129245088D01*
X216193000Y-129916587D01*
X196559000Y-129916587D01*
X196559000Y-123516224D01*
X197657840Y-124615064D01*
X197657841Y-126711054D01*
X197657840Y-126711059D01*
X197657840Y-126745128D01*
X197578295Y-126824673D01*
X197482840Y-127055122D01*
X197482840Y-127304558D01*
X197578295Y-127535007D01*
X197754673Y-127711385D01*
X197985122Y-127806840D01*
X198234558Y-127806840D01*
X198465007Y-127711385D01*
X198641385Y-127535007D01*
X198736840Y-127304558D01*
X198736840Y-127055122D01*
X198641385Y-126824673D01*
X198561840Y-126745128D01*
X198561840Y-124472356D01*
X198570695Y-124427839D01*
X198561840Y-124383322D01*
X198535615Y-124251478D01*
X198435714Y-124101966D01*
X198397971Y-124076747D01*
X198163224Y-123842000D01*
X214296594Y-123842000D01*
X214296594Y-125542000D01*
X214321973Y-125669589D01*
X214394246Y-125777754D01*
X214502411Y-125850027D01*
X214630000Y-125875406D01*
X216330000Y-125875406D01*
X216457589Y-125850027D01*
X216565754Y-125777754D01*
X216638027Y-125669589D01*
X216663406Y-125542000D01*
X216663406Y-125229657D01*
X216824817Y-125573358D01*
X217253076Y-125963645D01*
X217663110Y-126133476D01*
X217893000Y-126012155D01*
X217893000Y-124819000D01*
X218147000Y-124819000D01*
X218147000Y-126012155D01*
X218376890Y-126133476D01*
X218786924Y-125963645D01*
X219215183Y-125573358D01*
X219461486Y-125048892D01*
X219340819Y-124819000D01*
X218147000Y-124819000D01*
X217893000Y-124819000D01*
X217873000Y-124819000D01*
X217873000Y-124565000D01*
X217893000Y-124565000D01*
X217893000Y-123371845D01*
X218147000Y-123371845D01*
X218147000Y-124565000D01*
X219340819Y-124565000D01*
X219461486Y-124335108D01*
X219215183Y-123810642D01*
X218786924Y-123420355D01*
X218376890Y-123250524D01*
X218147000Y-123371845D01*
X217893000Y-123371845D01*
X217663110Y-123250524D01*
X217253076Y-123420355D01*
X216824817Y-123810642D01*
X216663406Y-124154343D01*
X216663406Y-123842000D01*
X216638027Y-123714411D01*
X216565754Y-123606246D01*
X216457589Y-123533973D01*
X216330000Y-123508594D01*
X214630000Y-123508594D01*
X214502411Y-123533973D01*
X214394246Y-123606246D01*
X214321973Y-123714411D01*
X214296594Y-123842000D01*
X198163224Y-123842000D01*
X189416093Y-115094869D01*
X189390874Y-115057126D01*
X189241362Y-114957225D01*
X189109518Y-114931000D01*
X189065000Y-114922145D01*
X189020482Y-114931000D01*
X184207712Y-114931000D01*
X184128167Y-114851455D01*
X183897718Y-114756000D01*
X183648282Y-114756000D01*
X183417833Y-114851455D01*
X183241455Y-115027833D01*
X183146000Y-115258282D01*
X183146000Y-115507718D01*
X183241455Y-115738167D01*
X183394288Y-115891000D01*
X183265000Y-116020288D01*
X183112167Y-115867455D01*
X182881718Y-115772000D01*
X182632282Y-115772000D01*
X182401833Y-115867455D01*
X182322288Y-115947000D01*
X181255814Y-115947000D01*
X181334167Y-115914545D01*
X181510545Y-115738167D01*
X181606000Y-115507718D01*
X181606000Y-115258282D01*
X181510545Y-115027833D01*
X181334167Y-114851455D01*
X181103718Y-114756000D01*
X180854282Y-114756000D01*
X180623833Y-114851455D01*
X180544288Y-114931000D01*
X174165517Y-114931000D01*
X174120999Y-114922145D01*
X173996752Y-114946859D01*
X173944638Y-114957225D01*
X173795126Y-115057126D01*
X173769909Y-115094866D01*
X165949776Y-122915000D01*
X165555712Y-122915000D01*
X165476167Y-122835455D01*
X165245718Y-122740000D01*
X164996282Y-122740000D01*
X164765833Y-122835455D01*
X164686288Y-122915000D01*
X163982404Y-122915000D01*
X163148340Y-122080936D01*
X163148340Y-120924872D01*
X163227885Y-120845327D01*
X163323340Y-120614878D01*
X163323340Y-120365442D01*
X163227885Y-120134993D01*
X163051507Y-119958615D01*
X162821058Y-119863160D01*
X162571622Y-119863160D01*
X162341173Y-119958615D01*
X162164795Y-120134993D01*
X162069340Y-120365442D01*
X157099000Y-120365442D01*
X157099000Y-106916587D01*
X158193000Y-106916587D01*
X158193000Y-107643413D01*
X158471144Y-108314912D01*
X158985088Y-108828856D01*
X159656587Y-109107000D01*
X160383413Y-109107000D01*
X161054912Y-108828856D01*
X161568856Y-108314912D01*
X161847000Y-107643413D01*
X161847000Y-107293000D01*
X165931942Y-107293000D01*
X166023291Y-107752242D01*
X166283431Y-108141569D01*
X166672758Y-108401709D01*
X167016080Y-108470000D01*
X167247920Y-108470000D01*
X167591242Y-108401709D01*
X167980569Y-108141569D01*
X168240709Y-107752242D01*
X168332058Y-107293000D01*
X168240709Y-106833758D01*
X168236607Y-106827618D01*
X168333090Y-106731135D01*
X168333092Y-106731132D01*
X169753225Y-105311000D01*
X171097071Y-105311000D01*
X171040638Y-105322225D01*
X170891126Y-105422126D01*
X170865908Y-105459867D01*
X170233868Y-106091908D01*
X170233865Y-106091910D01*
X170137382Y-106188393D01*
X170131242Y-106184291D01*
X169787920Y-106116000D01*
X169556080Y-106116000D01*
X169212758Y-106184291D01*
X168823431Y-106444431D01*
X168563291Y-106833758D01*
X168471942Y-107293000D01*
X168563291Y-107752242D01*
X168823431Y-108141569D01*
X169212758Y-108401709D01*
X169556080Y-108470000D01*
X169787920Y-108470000D01*
X170131242Y-108401709D01*
X170520569Y-108141569D01*
X170780709Y-107752242D01*
X170872058Y-107293000D01*
X170780709Y-106833758D01*
X170776607Y-106827618D01*
X170873090Y-106731135D01*
X170873092Y-106731132D01*
X171404225Y-106200000D01*
X171729248Y-106200000D01*
X171363431Y-106444431D01*
X171103291Y-106833758D01*
X171011942Y-107293000D01*
X171103291Y-107752242D01*
X171363431Y-108141569D01*
X171752758Y-108401709D01*
X172096080Y-108470000D01*
X172327920Y-108470000D01*
X172671242Y-108401709D01*
X173060569Y-108141569D01*
X173320709Y-107752242D01*
X173412058Y-107293000D01*
X173320709Y-106833758D01*
X173060569Y-106444431D01*
X172694752Y-106200000D01*
X173677090Y-106200000D01*
X173666246Y-106207246D01*
X173593973Y-106315411D01*
X173568594Y-106443000D01*
X173568594Y-108143000D01*
X173593973Y-108270589D01*
X173666246Y-108378754D01*
X173774411Y-108451027D01*
X173902000Y-108476406D01*
X175602000Y-108476406D01*
X175729589Y-108451027D01*
X175837754Y-108378754D01*
X175910027Y-108270589D01*
X175935406Y-108143000D01*
X175935406Y-107911782D01*
X180873000Y-107911782D01*
X180873000Y-108161218D01*
X180968455Y-108391667D01*
X181144833Y-108568045D01*
X181375282Y-108663500D01*
X181487775Y-108663500D01*
X181511865Y-108687590D01*
X181511868Y-108687592D01*
X183782909Y-110958634D01*
X183808127Y-110996375D01*
X183957639Y-111096276D01*
X184089483Y-111122501D01*
X184089484Y-111122501D01*
X184134000Y-111131356D01*
X184178517Y-111122501D01*
X189662279Y-111122501D01*
X190222191Y-111682413D01*
X190144833Y-111714455D01*
X189968455Y-111890833D01*
X189873000Y-112121282D01*
X189873000Y-112233775D01*
X189296776Y-112810000D01*
X186115225Y-112810000D01*
X185539000Y-112233776D01*
X185539000Y-112121282D01*
X185443545Y-111890833D01*
X185267167Y-111714455D01*
X185036718Y-111619000D01*
X184787282Y-111619000D01*
X184556833Y-111714455D01*
X184380455Y-111890833D01*
X184285000Y-112121282D01*
X184285000Y-112370718D01*
X184380455Y-112601167D01*
X184556833Y-112777545D01*
X184787282Y-112873000D01*
X184899776Y-112873000D01*
X185576908Y-113550133D01*
X185602126Y-113587874D01*
X185639866Y-113613091D01*
X185751638Y-113687775D01*
X185928000Y-113722855D01*
X185972518Y-113714000D01*
X189439482Y-113714000D01*
X189484000Y-113722855D01*
X189528518Y-113714000D01*
X189660362Y-113687775D01*
X189809874Y-113587874D01*
X189835093Y-113550131D01*
X190512225Y-112873000D01*
X190624718Y-112873000D01*
X190855167Y-112777545D01*
X191031545Y-112601167D01*
X191063587Y-112523809D01*
X193497501Y-114957723D01*
X193497500Y-115981288D01*
X193417955Y-116060833D01*
X193322500Y-116291282D01*
X193322500Y-116540718D01*
X193417955Y-116771167D01*
X193594333Y-116947545D01*
X193824782Y-117043000D01*
X194074218Y-117043000D01*
X194304667Y-116947545D01*
X194481045Y-116771167D01*
X194576500Y-116540718D01*
X194576500Y-116291282D01*
X194481045Y-116060833D01*
X194401500Y-115981288D01*
X194401500Y-114815014D01*
X194410355Y-114770497D01*
X194401500Y-114725980D01*
X194375275Y-114594136D01*
X194275374Y-114444624D01*
X194252327Y-114429225D01*
X194304667Y-114407545D01*
X194481045Y-114231167D01*
X194576500Y-114000718D01*
X194576500Y-113751282D01*
X194481045Y-113520833D01*
X194304667Y-113344455D01*
X194074218Y-113249000D01*
X193961725Y-113249000D01*
X190470093Y-109757369D01*
X190444874Y-109719626D01*
X190295362Y-109619725D01*
X190163518Y-109593500D01*
X190119000Y-109584645D01*
X190074482Y-109593500D01*
X186489712Y-109593500D01*
X186410167Y-109513955D01*
X186179718Y-109418500D01*
X185930282Y-109418500D01*
X185699833Y-109513955D01*
X185523455Y-109690333D01*
X185428000Y-109920782D01*
X185428000Y-110170218D01*
X185447999Y-110218501D01*
X184321226Y-110218501D01*
X182151092Y-108048368D01*
X182151090Y-108048365D01*
X182127000Y-108024275D01*
X182127000Y-107911782D01*
X182031545Y-107681333D01*
X181855167Y-107504955D01*
X181624718Y-107409500D01*
X181375282Y-107409500D01*
X181144833Y-107504955D01*
X180968455Y-107681333D01*
X180873000Y-107911782D01*
X175935406Y-107911782D01*
X175935406Y-106443000D01*
X175910027Y-106315411D01*
X175837754Y-106207246D01*
X175826910Y-106200000D01*
X175998482Y-106200000D01*
X176043000Y-106208855D01*
X176087518Y-106200000D01*
X176219362Y-106173775D01*
X176368874Y-106073874D01*
X176394093Y-106036131D01*
X179103225Y-103327000D01*
X179215718Y-103327000D01*
X179446167Y-103231545D01*
X179622545Y-103055167D01*
X179718000Y-102824718D01*
X179718000Y-102575282D01*
X179622545Y-102344833D01*
X179446167Y-102168455D01*
X179215718Y-102073000D01*
X179087225Y-102073000D01*
X179103225Y-102057000D01*
X179215718Y-102057000D01*
X179446167Y-101961545D01*
X179622545Y-101785167D01*
X179718000Y-101554718D01*
X179718000Y-101305282D01*
X179622545Y-101074833D01*
X179446167Y-100898455D01*
X179215718Y-100803000D01*
X178966282Y-100803000D01*
X178735833Y-100898455D01*
X178559455Y-101074833D01*
X178464000Y-101305282D01*
X178464000Y-101417775D01*
X175474776Y-104407000D01*
X169610518Y-104407000D01*
X169566000Y-104398145D01*
X169521482Y-104407000D01*
X169389638Y-104433225D01*
X169240126Y-104533126D01*
X169214909Y-104570867D01*
X167693868Y-106091908D01*
X167693865Y-106091910D01*
X167597382Y-106188393D01*
X167591242Y-106184291D01*
X167247920Y-106116000D01*
X167016080Y-106116000D01*
X166672758Y-106184291D01*
X166283431Y-106444431D01*
X166023291Y-106833758D01*
X165931942Y-107293000D01*
X161847000Y-107293000D01*
X161847000Y-106916587D01*
X161568856Y-106245088D01*
X161054912Y-105731144D01*
X160383413Y-105453000D01*
X159656587Y-105453000D01*
X158985088Y-105731144D01*
X158471144Y-106245088D01*
X158193000Y-106916587D01*
X157099000Y-106916587D01*
X157099000Y-101109000D01*
X173568594Y-101109000D01*
X173568594Y-102809000D01*
X173593973Y-102936589D01*
X173666246Y-103044754D01*
X173774411Y-103117027D01*
X173902000Y-103142406D01*
X175602000Y-103142406D01*
X175729589Y-103117027D01*
X175837754Y-103044754D01*
X175910027Y-102936589D01*
X175935406Y-102809000D01*
X175935406Y-101109000D01*
X175910027Y-100981411D01*
X175837754Y-100873246D01*
X175729589Y-100800973D01*
X175602000Y-100775594D01*
X173902000Y-100775594D01*
X173774411Y-100800973D01*
X173666246Y-100873246D01*
X173593973Y-100981411D01*
X173568594Y-101109000D01*
X157099000Y-101109000D01*
X157099000Y-99419000D01*
X173551942Y-99419000D01*
X173643291Y-99878242D01*
X173903431Y-100267569D01*
X174292758Y-100527709D01*
X174636080Y-100596000D01*
X174867920Y-100596000D01*
X175211242Y-100527709D01*
X175600569Y-100267569D01*
X175860709Y-99878242D01*
X175952058Y-99419000D01*
X175860709Y-98959758D01*
X175600569Y-98570431D01*
X175211242Y-98310291D01*
X174867920Y-98242000D01*
X174636080Y-98242000D01*
X174292758Y-98310291D01*
X173903431Y-98570431D01*
X173643291Y-98959758D01*
X173551942Y-99419000D01*
X157099000Y-99419000D01*
X157099000Y-96879000D01*
X173551942Y-96879000D01*
X173643291Y-97338242D01*
X173903431Y-97727569D01*
X174292758Y-97987709D01*
X174636080Y-98056000D01*
X174867920Y-98056000D01*
X175211242Y-97987709D01*
X175600569Y-97727569D01*
X175860709Y-97338242D01*
X175952058Y-96879000D01*
X175860709Y-96419758D01*
X175600569Y-96030431D01*
X175211242Y-95770291D01*
X174867920Y-95702000D01*
X174636080Y-95702000D01*
X174292758Y-95770291D01*
X173903431Y-96030431D01*
X173643291Y-96419758D01*
X173551942Y-96879000D01*
X157099000Y-96879000D01*
X157099000Y-94339000D01*
X173551942Y-94339000D01*
X173643291Y-94798242D01*
X173903431Y-95187569D01*
X174292758Y-95447709D01*
X174636080Y-95516000D01*
X174867920Y-95516000D01*
X175211242Y-95447709D01*
X175600569Y-95187569D01*
X175860709Y-94798242D01*
X175952058Y-94339000D01*
X175860709Y-93879758D01*
X175600569Y-93490431D01*
X175211242Y-93230291D01*
X174867920Y-93162000D01*
X174636080Y-93162000D01*
X174292758Y-93230291D01*
X173903431Y-93490431D01*
X173643291Y-93879758D01*
X173551942Y-94339000D01*
X157099000Y-94339000D01*
X157099000Y-92415282D01*
X183273000Y-92415282D01*
X183273000Y-92664718D01*
X183368455Y-92895167D01*
X183448001Y-92974713D01*
X183448000Y-106889482D01*
X183439145Y-106934000D01*
X183448000Y-106978517D01*
X183474225Y-107110361D01*
X183574126Y-107259874D01*
X183611869Y-107285093D01*
X184564908Y-108238133D01*
X184590126Y-108275874D01*
X184739638Y-108375775D01*
X184916000Y-108410855D01*
X184960518Y-108402000D01*
X198841482Y-108402000D01*
X198886000Y-108410855D01*
X198930518Y-108402000D01*
X199062362Y-108375775D01*
X199211874Y-108275874D01*
X199237093Y-108238131D01*
X201197535Y-106277690D01*
X201230455Y-106357167D01*
X201310000Y-106436712D01*
X201310001Y-111409287D01*
X201230455Y-111488833D01*
X201135000Y-111719282D01*
X201135000Y-111968718D01*
X201230455Y-112199167D01*
X201406833Y-112375545D01*
X201637282Y-112471000D01*
X201886718Y-112471000D01*
X202117167Y-112375545D01*
X202293545Y-112199167D01*
X202310596Y-112158000D01*
X203286594Y-112158000D01*
X203286594Y-113858000D01*
X203311973Y-113985589D01*
X203384246Y-114093754D01*
X203492411Y-114166027D01*
X203620000Y-114191406D01*
X205320000Y-114191406D01*
X205447589Y-114166027D01*
X205555754Y-114093754D01*
X205628027Y-113985589D01*
X205653406Y-113858000D01*
X205653406Y-113545657D01*
X205814817Y-113889358D01*
X206243076Y-114279645D01*
X206653110Y-114449476D01*
X206883000Y-114328155D01*
X206883000Y-113135000D01*
X207137000Y-113135000D01*
X207137000Y-114328155D01*
X207366890Y-114449476D01*
X207776924Y-114279645D01*
X208205183Y-113889358D01*
X208451486Y-113364892D01*
X208330819Y-113135000D01*
X207137000Y-113135000D01*
X206883000Y-113135000D01*
X206863000Y-113135000D01*
X206863000Y-112881000D01*
X206883000Y-112881000D01*
X206883000Y-111687845D01*
X207137000Y-111687845D01*
X207137000Y-112881000D01*
X208330819Y-112881000D01*
X208451486Y-112651108D01*
X208205183Y-112126642D01*
X207776924Y-111736355D01*
X207366890Y-111566524D01*
X207137000Y-111687845D01*
X206883000Y-111687845D01*
X206653110Y-111566524D01*
X206243076Y-111736355D01*
X205814817Y-112126642D01*
X205653406Y-112470343D01*
X205653406Y-112158000D01*
X205628027Y-112030411D01*
X205555754Y-111922246D01*
X205447589Y-111849973D01*
X205320000Y-111824594D01*
X203620000Y-111824594D01*
X203492411Y-111849973D01*
X203384246Y-111922246D01*
X203311973Y-112030411D01*
X203286594Y-112158000D01*
X202310596Y-112158000D01*
X202389000Y-111968718D01*
X202389000Y-111719282D01*
X202293545Y-111488833D01*
X202214000Y-111409288D01*
X202214000Y-108944000D01*
X203269942Y-108944000D01*
X203361291Y-109403242D01*
X203621431Y-109792569D01*
X204010758Y-110052709D01*
X204354080Y-110121000D01*
X204585920Y-110121000D01*
X204929242Y-110052709D01*
X205318569Y-109792569D01*
X205578709Y-109403242D01*
X205670058Y-108944000D01*
X205578709Y-108484758D01*
X205318569Y-108095431D01*
X204929242Y-107835291D01*
X204585920Y-107767000D01*
X204354080Y-107767000D01*
X204010758Y-107835291D01*
X203621431Y-108095431D01*
X203361291Y-108484758D01*
X203269942Y-108944000D01*
X202214000Y-108944000D01*
X202214000Y-106436712D01*
X202293545Y-106357167D01*
X202389000Y-106126718D01*
X202389000Y-105877282D01*
X202293545Y-105646833D01*
X202200712Y-105554000D01*
X203286594Y-105554000D01*
X203286594Y-107254000D01*
X203311973Y-107381589D01*
X203384246Y-107489754D01*
X203492411Y-107562027D01*
X203620000Y-107587406D01*
X205320000Y-107587406D01*
X205447589Y-107562027D01*
X205555754Y-107489754D01*
X205628027Y-107381589D01*
X205653406Y-107254000D01*
X205653406Y-106916587D01*
X216193000Y-106916587D01*
X216193000Y-107643413D01*
X216471144Y-108314912D01*
X216985088Y-108828856D01*
X217656587Y-109107000D01*
X218383413Y-109107000D01*
X219054912Y-108828856D01*
X219568856Y-108314912D01*
X219847000Y-107643413D01*
X219847000Y-106916587D01*
X219568856Y-106245088D01*
X219054912Y-105731144D01*
X218383413Y-105453000D01*
X217656587Y-105453000D01*
X216985088Y-105731144D01*
X216471144Y-106245088D01*
X216193000Y-106916587D01*
X205653406Y-106916587D01*
X205653406Y-105554000D01*
X205628027Y-105426411D01*
X205555754Y-105318246D01*
X205447589Y-105245973D01*
X205320000Y-105220594D01*
X203620000Y-105220594D01*
X203492411Y-105245973D01*
X203384246Y-105318246D01*
X203311973Y-105426411D01*
X203286594Y-105554000D01*
X202200712Y-105554000D01*
X202117167Y-105470455D01*
X202037690Y-105437535D01*
X203978225Y-103497000D01*
X204090718Y-103497000D01*
X204321167Y-103401545D01*
X204497545Y-103225167D01*
X204593000Y-102994718D01*
X204593000Y-102745282D01*
X207911000Y-102745282D01*
X207911000Y-102994718D01*
X208006455Y-103225167D01*
X208182833Y-103401545D01*
X208413282Y-103497000D01*
X208662718Y-103497000D01*
X208893167Y-103401545D01*
X208972712Y-103322000D01*
X211059778Y-103322000D01*
X210720245Y-103661533D01*
X210667167Y-103608455D01*
X210436718Y-103513000D01*
X210187282Y-103513000D01*
X209956833Y-103608455D01*
X209780455Y-103784833D01*
X209685000Y-104015282D01*
X209685000Y-104264718D01*
X209780455Y-104495167D01*
X209956833Y-104671545D01*
X210187282Y-104767000D01*
X210436718Y-104767000D01*
X210667167Y-104671545D01*
X210746712Y-104592000D01*
X210836484Y-104592000D01*
X210881002Y-104600855D01*
X210925520Y-104592000D01*
X211057364Y-104565775D01*
X211206876Y-104465874D01*
X211232095Y-104428131D01*
X213648131Y-102012095D01*
X213685874Y-101986876D01*
X213785775Y-101837364D01*
X213812000Y-101705520D01*
X213812000Y-101705519D01*
X213820855Y-101661002D01*
X213812000Y-101616484D01*
X213812000Y-101505000D01*
X214952819Y-101505000D01*
X215020884Y-101847188D01*
X215214719Y-102137281D01*
X215504812Y-102331116D01*
X215760625Y-102382000D01*
X216333375Y-102382000D01*
X216589188Y-102331116D01*
X216879281Y-102137281D01*
X217073116Y-101847188D01*
X217079518Y-101815000D01*
X217850370Y-101815000D01*
X217928137Y-102205961D01*
X218149598Y-102537402D01*
X218481039Y-102758863D01*
X218773313Y-102817000D01*
X219320687Y-102817000D01*
X219612961Y-102758863D01*
X219944402Y-102537402D01*
X220165863Y-102205961D01*
X220243630Y-101815000D01*
X220165863Y-101424039D01*
X219944402Y-101092598D01*
X219612961Y-100871137D01*
X219320687Y-100813000D01*
X218773313Y-100813000D01*
X218481039Y-100871137D01*
X218149598Y-101092598D01*
X217928137Y-101424039D01*
X217850370Y-101815000D01*
X217079518Y-101815000D01*
X217141181Y-101505000D01*
X217073116Y-101162812D01*
X216879281Y-100872719D01*
X216589188Y-100678884D01*
X216333375Y-100628000D01*
X215760625Y-100628000D01*
X215504812Y-100678884D01*
X215214719Y-100872719D01*
X215020884Y-101162812D01*
X214952819Y-101505000D01*
X213812000Y-101505000D01*
X213812000Y-100383224D01*
X213826000Y-100397224D01*
X213826000Y-100509718D01*
X213921455Y-100740167D01*
X214097833Y-100916545D01*
X214328282Y-101012000D01*
X214577718Y-101012000D01*
X214808167Y-100916545D01*
X214984545Y-100740167D01*
X215080000Y-100509718D01*
X215080000Y-100260282D01*
X214984545Y-100029833D01*
X214808167Y-99853455D01*
X214577718Y-99758000D01*
X214465224Y-99758000D01*
X214437001Y-99729777D01*
X214437001Y-96665000D01*
X214952819Y-96665000D01*
X215020884Y-97007188D01*
X215214719Y-97297281D01*
X215504812Y-97491116D01*
X215760625Y-97542000D01*
X216333375Y-97542000D01*
X216589188Y-97491116D01*
X216879281Y-97297281D01*
X217073116Y-97007188D01*
X217141181Y-96665000D01*
X217079519Y-96355000D01*
X217850370Y-96355000D01*
X217928137Y-96745961D01*
X218149598Y-97077402D01*
X218481039Y-97298863D01*
X218773313Y-97357000D01*
X219320687Y-97357000D01*
X219612961Y-97298863D01*
X219944402Y-97077402D01*
X220165863Y-96745961D01*
X220243630Y-96355000D01*
X220165863Y-95964039D01*
X219944402Y-95632598D01*
X219612961Y-95411137D01*
X219320687Y-95353000D01*
X218773313Y-95353000D01*
X218481039Y-95411137D01*
X218149598Y-95632598D01*
X217928137Y-95964039D01*
X217850370Y-96355000D01*
X217079519Y-96355000D01*
X217073116Y-96322812D01*
X216879281Y-96032719D01*
X216589188Y-95838884D01*
X216333375Y-95788000D01*
X215760625Y-95788000D01*
X215504812Y-95838884D01*
X215214719Y-96032719D01*
X215020884Y-96322812D01*
X214952819Y-96665000D01*
X214437001Y-96665000D01*
X214437001Y-95297723D01*
X215297725Y-94437000D01*
X215410218Y-94437000D01*
X215640667Y-94341545D01*
X215817045Y-94165167D01*
X215912500Y-93934718D01*
X215912500Y-93685282D01*
X215817045Y-93454833D01*
X215640667Y-93278455D01*
X215410218Y-93183000D01*
X215160782Y-93183000D01*
X214930333Y-93278455D01*
X214753955Y-93454833D01*
X214658500Y-93685282D01*
X214658500Y-93797775D01*
X213696868Y-94759408D01*
X213659128Y-94784625D01*
X213633911Y-94822365D01*
X213633910Y-94822366D01*
X213559226Y-94934138D01*
X213524146Y-95110499D01*
X213533002Y-95155021D01*
X213533001Y-96955516D01*
X213533002Y-96955521D01*
X213533002Y-98224000D01*
X213484718Y-98204000D01*
X213235282Y-98204000D01*
X213004833Y-98299455D01*
X212932999Y-98371289D01*
X212932999Y-95300225D01*
X214219634Y-94013591D01*
X214257374Y-93988374D01*
X214357275Y-93838862D01*
X214383500Y-93707018D01*
X214383500Y-93707017D01*
X214392355Y-93662501D01*
X214383500Y-93617983D01*
X214383500Y-91541224D01*
X215297725Y-90627000D01*
X215410218Y-90627000D01*
X215640667Y-90531545D01*
X215817045Y-90355167D01*
X215912500Y-90124718D01*
X215912500Y-89875282D01*
X215817045Y-89644833D01*
X215640667Y-89468455D01*
X215410218Y-89373000D01*
X215160782Y-89373000D01*
X214930333Y-89468455D01*
X214753955Y-89644833D01*
X214658500Y-89875282D01*
X214658500Y-89987775D01*
X213643367Y-91002909D01*
X213605627Y-91028126D01*
X213580410Y-91065866D01*
X213580409Y-91065867D01*
X213505725Y-91177639D01*
X213470645Y-91354000D01*
X213479501Y-91398522D01*
X213479500Y-93475275D01*
X212192866Y-94761910D01*
X212155126Y-94787127D01*
X212129909Y-94824867D01*
X212129908Y-94824868D01*
X212055224Y-94936640D01*
X212020144Y-95113001D01*
X212029000Y-95157523D01*
X212028999Y-98632366D01*
X211351858Y-99309508D01*
X211314118Y-99334725D01*
X211288901Y-99372465D01*
X211288900Y-99372466D01*
X211214216Y-99484238D01*
X211179136Y-99660599D01*
X211187992Y-99705121D01*
X211187991Y-100635288D01*
X211108446Y-100714833D01*
X211012991Y-100945282D01*
X211012991Y-101194718D01*
X211108446Y-101425167D01*
X211284824Y-101601545D01*
X211515273Y-101697000D01*
X211764709Y-101697000D01*
X211892000Y-101644274D01*
X211892000Y-101666775D01*
X211140776Y-102418000D01*
X210862254Y-102418000D01*
X210939000Y-102232718D01*
X210939000Y-101983282D01*
X210843545Y-101752833D01*
X210667167Y-101576455D01*
X210436718Y-101481000D01*
X210187282Y-101481000D01*
X209956833Y-101576455D01*
X209780455Y-101752833D01*
X209685000Y-101983282D01*
X209685000Y-102232718D01*
X209761746Y-102418000D01*
X208972712Y-102418000D01*
X208893167Y-102338455D01*
X208662718Y-102243000D01*
X208413282Y-102243000D01*
X208182833Y-102338455D01*
X208006455Y-102514833D01*
X207911000Y-102745282D01*
X204593000Y-102745282D01*
X204497545Y-102514833D01*
X204321167Y-102338455D01*
X204090718Y-102243000D01*
X203841282Y-102243000D01*
X203610833Y-102338455D01*
X203434455Y-102514833D01*
X203339000Y-102745282D01*
X203339000Y-102857775D01*
X198698776Y-107498000D01*
X185103225Y-107498000D01*
X184352000Y-106746776D01*
X184352000Y-103925282D01*
X185001000Y-103925282D01*
X185001000Y-104174718D01*
X185096455Y-104405167D01*
X185272833Y-104581545D01*
X185503282Y-104677000D01*
X185752718Y-104677000D01*
X185983167Y-104581545D01*
X186159545Y-104405167D01*
X186255000Y-104174718D01*
X186255000Y-103925282D01*
X187033000Y-103925282D01*
X187033000Y-104174718D01*
X187128455Y-104405167D01*
X187304833Y-104581545D01*
X187535282Y-104677000D01*
X187784718Y-104677000D01*
X188015167Y-104581545D01*
X188168000Y-104428712D01*
X188320833Y-104581545D01*
X188551282Y-104677000D01*
X188800718Y-104677000D01*
X188811000Y-104672741D01*
X188811000Y-104682718D01*
X188906455Y-104913167D01*
X189082833Y-105089545D01*
X189313282Y-105185000D01*
X189562718Y-105185000D01*
X189573000Y-105180741D01*
X189573000Y-105190718D01*
X189668455Y-105421167D01*
X189844833Y-105597545D01*
X190075282Y-105693000D01*
X190324718Y-105693000D01*
X190555167Y-105597545D01*
X190731545Y-105421167D01*
X190827000Y-105190718D01*
X190827000Y-105180741D01*
X190837282Y-105185000D01*
X191086718Y-105185000D01*
X191317167Y-105089545D01*
X191493545Y-104913167D01*
X191589000Y-104682718D01*
X191589000Y-104672741D01*
X191599282Y-104677000D01*
X191734288Y-104677000D01*
X191700455Y-104710833D01*
X191605000Y-104941282D01*
X191605000Y-105190718D01*
X191700455Y-105421167D01*
X191876833Y-105597545D01*
X192107282Y-105693000D01*
X192356718Y-105693000D01*
X192587167Y-105597545D01*
X192763545Y-105421167D01*
X192859000Y-105190718D01*
X192859000Y-104941282D01*
X192763545Y-104710833D01*
X192729712Y-104677000D01*
X192864718Y-104677000D01*
X193095167Y-104581545D01*
X193271545Y-104405167D01*
X193367000Y-104174718D01*
X193367000Y-103925282D01*
X194145000Y-103925282D01*
X194145000Y-104174718D01*
X194240455Y-104405167D01*
X194416833Y-104581545D01*
X194647282Y-104677000D01*
X194896718Y-104677000D01*
X195127167Y-104581545D01*
X195303545Y-104405167D01*
X195399000Y-104174718D01*
X195399000Y-103925282D01*
X195303545Y-103694833D01*
X195127167Y-103518455D01*
X194896718Y-103423000D01*
X194647282Y-103423000D01*
X194416833Y-103518455D01*
X194240455Y-103694833D01*
X194145000Y-103925282D01*
X193367000Y-103925282D01*
X193271545Y-103694833D01*
X193095167Y-103518455D01*
X192864718Y-103423000D01*
X192615282Y-103423000D01*
X192384833Y-103518455D01*
X192232000Y-103671288D01*
X192079167Y-103518455D01*
X191848718Y-103423000D01*
X191599282Y-103423000D01*
X191589000Y-103427259D01*
X191589000Y-103417282D01*
X191493545Y-103186833D01*
X191317167Y-103010455D01*
X191086718Y-102915000D01*
X190837282Y-102915000D01*
X190827000Y-102919259D01*
X190827000Y-102909282D01*
X190731545Y-102678833D01*
X190555167Y-102502455D01*
X190324718Y-102407000D01*
X190075282Y-102407000D01*
X189844833Y-102502455D01*
X189668455Y-102678833D01*
X189573000Y-102909282D01*
X189573000Y-102919259D01*
X189562718Y-102915000D01*
X189313282Y-102915000D01*
X189082833Y-103010455D01*
X188906455Y-103186833D01*
X188811000Y-103417282D01*
X188811000Y-103427259D01*
X188800718Y-103423000D01*
X188665712Y-103423000D01*
X188699545Y-103389167D01*
X188795000Y-103158718D01*
X188795000Y-102909282D01*
X188699545Y-102678833D01*
X188523167Y-102502455D01*
X188292718Y-102407000D01*
X188043282Y-102407000D01*
X187812833Y-102502455D01*
X187636455Y-102678833D01*
X187541000Y-102909282D01*
X187541000Y-103158718D01*
X187636455Y-103389167D01*
X187670288Y-103423000D01*
X187535282Y-103423000D01*
X187304833Y-103518455D01*
X187128455Y-103694833D01*
X187033000Y-103925282D01*
X186255000Y-103925282D01*
X186159545Y-103694833D01*
X185983167Y-103518455D01*
X185752718Y-103423000D01*
X185503282Y-103423000D01*
X185272833Y-103518455D01*
X185096455Y-103694833D01*
X185001000Y-103925282D01*
X184352000Y-103925282D01*
X184352000Y-98765282D01*
X201196500Y-98765282D01*
X201196500Y-99014718D01*
X201291955Y-99245167D01*
X201468333Y-99421545D01*
X201698782Y-99517000D01*
X201827276Y-99517000D01*
X201811276Y-99533000D01*
X201698782Y-99533000D01*
X201468333Y-99628455D01*
X201291955Y-99804833D01*
X201196500Y-100035282D01*
X201196500Y-100284718D01*
X201291955Y-100515167D01*
X201468333Y-100691545D01*
X201698782Y-100787000D01*
X201827276Y-100787000D01*
X201811276Y-100803000D01*
X201698782Y-100803000D01*
X201468333Y-100898455D01*
X201291955Y-101074833D01*
X201196500Y-101305282D01*
X201196500Y-101554718D01*
X201291955Y-101785167D01*
X201468333Y-101961545D01*
X201698782Y-102057000D01*
X201948218Y-102057000D01*
X202178667Y-101961545D01*
X202355045Y-101785167D01*
X202450500Y-101554718D01*
X202450500Y-101442224D01*
X212378131Y-91514593D01*
X212415874Y-91489374D01*
X212515775Y-91339862D01*
X212542000Y-91208018D01*
X212542000Y-91208017D01*
X212550855Y-91163500D01*
X212542000Y-91118982D01*
X212542000Y-88337150D01*
X212549242Y-88335709D01*
X212938569Y-88075569D01*
X213198709Y-87686242D01*
X213290058Y-87227000D01*
X213198709Y-86767758D01*
X212938569Y-86378431D01*
X212549242Y-86118291D01*
X212205920Y-86050000D01*
X211974080Y-86050000D01*
X211630758Y-86118291D01*
X211241431Y-86378431D01*
X210981291Y-86767758D01*
X210889942Y-87227000D01*
X210981291Y-87686242D01*
X211241431Y-88075569D01*
X211630758Y-88335709D01*
X211638001Y-88337150D01*
X211638000Y-90976276D01*
X209918105Y-92696171D01*
X209975775Y-92609862D01*
X210002000Y-92478018D01*
X210002000Y-92478017D01*
X210010855Y-92433501D01*
X210002000Y-92388983D01*
X210002000Y-88337150D01*
X210009242Y-88335709D01*
X210398569Y-88075569D01*
X210658709Y-87686242D01*
X210750058Y-87227000D01*
X210658709Y-86767758D01*
X210398569Y-86378431D01*
X210009242Y-86118291D01*
X209665920Y-86050000D01*
X209434080Y-86050000D01*
X209090758Y-86118291D01*
X208701431Y-86378431D01*
X208441291Y-86767758D01*
X208349942Y-87227000D01*
X208441291Y-87686242D01*
X208701431Y-88075569D01*
X209090758Y-88335709D01*
X209098001Y-88337150D01*
X209098000Y-92246275D01*
X207378107Y-93966169D01*
X207435775Y-93879862D01*
X207462000Y-93748018D01*
X207462000Y-93748017D01*
X207470855Y-93703500D01*
X207462000Y-93658982D01*
X207462000Y-88337150D01*
X207469242Y-88335709D01*
X207858569Y-88075569D01*
X208118709Y-87686242D01*
X208210058Y-87227000D01*
X208118709Y-86767758D01*
X207858569Y-86378431D01*
X207469242Y-86118291D01*
X207125920Y-86050000D01*
X206894080Y-86050000D01*
X206550758Y-86118291D01*
X206161431Y-86378431D01*
X205901291Y-86767758D01*
X205809942Y-87227000D01*
X205901291Y-87686242D01*
X206161431Y-88075569D01*
X206550758Y-88335709D01*
X206558001Y-88337150D01*
X206558000Y-93516275D01*
X201811276Y-98263000D01*
X201698782Y-98263000D01*
X201468333Y-98358455D01*
X201291955Y-98534833D01*
X201196500Y-98765282D01*
X184352000Y-98765282D01*
X184352000Y-92974712D01*
X184431545Y-92895167D01*
X184527000Y-92664718D01*
X184527000Y-92415282D01*
X201196500Y-92415282D01*
X201196500Y-92664718D01*
X201291955Y-92895167D01*
X201468333Y-93071545D01*
X201698782Y-93167000D01*
X201948218Y-93167000D01*
X201996501Y-93147000D01*
X201996502Y-95537773D01*
X201811276Y-95723000D01*
X201698782Y-95723000D01*
X201468333Y-95818455D01*
X201291955Y-95994833D01*
X201196500Y-96225282D01*
X201196500Y-96474718D01*
X201291955Y-96705167D01*
X201468333Y-96881545D01*
X201698782Y-96977000D01*
X201948218Y-96977000D01*
X202178667Y-96881545D01*
X202355045Y-96705167D01*
X202450500Y-96474718D01*
X202450500Y-96362224D01*
X202736634Y-96076091D01*
X202774375Y-96050873D01*
X202874276Y-95901361D01*
X202890767Y-95818455D01*
X202909356Y-95724999D01*
X202900501Y-95680481D01*
X202900501Y-92738633D01*
X203323642Y-92315493D01*
X203361383Y-92290275D01*
X203461284Y-92140763D01*
X203487509Y-92008919D01*
X203496364Y-91964401D01*
X203487509Y-91919883D01*
X203487509Y-88381752D01*
X203492411Y-88385027D01*
X203620000Y-88410406D01*
X205320000Y-88410406D01*
X205447589Y-88385027D01*
X205555754Y-88312754D01*
X205628027Y-88204589D01*
X205653406Y-88077000D01*
X205653406Y-86377000D01*
X205628027Y-86249411D01*
X205555754Y-86141246D01*
X205447589Y-86068973D01*
X205320000Y-86043594D01*
X203625130Y-86043594D01*
X204422227Y-85246498D01*
X205714484Y-85246498D01*
X205759002Y-85255353D01*
X205803520Y-85246498D01*
X205935364Y-85220273D01*
X206084876Y-85120372D01*
X206110095Y-85082629D01*
X207191631Y-84001093D01*
X207229374Y-83975874D01*
X207258235Y-83932681D01*
X207469242Y-83890709D01*
X207858569Y-83630569D01*
X208118709Y-83241242D01*
X208210058Y-82782000D01*
X208118709Y-82322758D01*
X207858569Y-81933431D01*
X207469242Y-81673291D01*
X207125920Y-81605000D01*
X206894080Y-81605000D01*
X206550758Y-81673291D01*
X206161431Y-81933431D01*
X205901291Y-82322758D01*
X205809942Y-82782000D01*
X205901291Y-83241242D01*
X206161431Y-83630569D01*
X206234730Y-83679546D01*
X205571778Y-84342498D01*
X204648726Y-84342498D01*
X204758131Y-84233093D01*
X204795874Y-84207874D01*
X204895775Y-84058362D01*
X204914265Y-83965406D01*
X205320000Y-83965406D01*
X205447589Y-83940027D01*
X205555754Y-83867754D01*
X205628027Y-83759589D01*
X205653406Y-83632000D01*
X205653406Y-81932000D01*
X205628027Y-81804411D01*
X205555754Y-81696246D01*
X205447589Y-81623973D01*
X205320000Y-81598594D01*
X203620000Y-81598594D01*
X203492411Y-81623973D01*
X203384246Y-81696246D01*
X203311973Y-81804411D01*
X203286594Y-81932000D01*
X203286594Y-83632000D01*
X203311973Y-83759589D01*
X203384246Y-83867754D01*
X203492411Y-83940027D01*
X203620000Y-83965406D01*
X203747370Y-83965406D01*
X202297367Y-85415409D01*
X202259627Y-85440626D01*
X202234410Y-85478366D01*
X202234409Y-85478367D01*
X202159725Y-85590139D01*
X202124645Y-85766500D01*
X202133501Y-85811023D01*
X202133500Y-91590775D01*
X201811276Y-91913000D01*
X201698782Y-91913000D01*
X201468333Y-92008455D01*
X201291955Y-92184833D01*
X201196500Y-92415282D01*
X184527000Y-92415282D01*
X184431545Y-92184833D01*
X184255167Y-92008455D01*
X184024718Y-91913000D01*
X183775282Y-91913000D01*
X183544833Y-92008455D01*
X183368455Y-92184833D01*
X183273000Y-92415282D01*
X157099000Y-92415282D01*
X157099000Y-89425000D01*
X158836594Y-89425000D01*
X158836594Y-91125000D01*
X158861973Y-91252589D01*
X158934246Y-91360754D01*
X159042411Y-91433027D01*
X159170000Y-91458406D01*
X160870000Y-91458406D01*
X160997589Y-91433027D01*
X161105754Y-91360754D01*
X161178027Y-91252589D01*
X161203406Y-91125000D01*
X161203406Y-89425000D01*
X161178027Y-89297411D01*
X161105754Y-89189246D01*
X160997589Y-89116973D01*
X160870000Y-89091594D01*
X159170000Y-89091594D01*
X159042411Y-89116973D01*
X158934246Y-89189246D01*
X158861973Y-89297411D01*
X158836594Y-89425000D01*
X157099000Y-89425000D01*
X157099000Y-87735000D01*
X158819942Y-87735000D01*
X158911291Y-88194242D01*
X159171431Y-88583569D01*
X159560758Y-88843709D01*
X159904080Y-88912000D01*
X160135920Y-88912000D01*
X160479242Y-88843709D01*
X160868569Y-88583569D01*
X161128709Y-88194242D01*
X161220058Y-87735000D01*
X161128709Y-87275758D01*
X160868569Y-86886431D01*
X160479242Y-86626291D01*
X160135920Y-86558000D01*
X159904080Y-86558000D01*
X159560758Y-86626291D01*
X159171431Y-86886431D01*
X158911291Y-87275758D01*
X158819942Y-87735000D01*
X157099000Y-87735000D01*
X157099000Y-81239128D01*
X157135341Y-80916587D01*
X158193000Y-80916587D01*
X158193000Y-81643413D01*
X158471144Y-82314912D01*
X158985088Y-82828856D01*
X159656587Y-83107000D01*
X160383413Y-83107000D01*
X161054912Y-82828856D01*
X161568856Y-82314912D01*
X161847000Y-81643413D01*
X161847000Y-80916587D01*
X216193000Y-80916587D01*
X216193000Y-81643413D01*
X216471144Y-82314912D01*
X216985088Y-82828856D01*
X217656587Y-83107000D01*
X218383413Y-83107000D01*
X219054912Y-82828856D01*
X219568856Y-82314912D01*
X219847000Y-81643413D01*
X219847000Y-80916587D01*
X219568856Y-80245088D01*
X219054912Y-79731144D01*
X218383413Y-79453000D01*
X217656587Y-79453000D01*
X216985088Y-79731144D01*
X216471144Y-80245088D01*
X216193000Y-80916587D01*
X161847000Y-80916587D01*
X161568856Y-80245088D01*
X161054912Y-79731144D01*
X160383413Y-79453000D01*
X159656587Y-79453000D01*
X158985088Y-79731144D01*
X158471144Y-80245088D01*
X158193000Y-80916587D01*
X157135341Y-80916587D01*
X157171815Y-80592877D01*
X157384239Y-79985802D01*
X157726425Y-79441218D01*
X158181218Y-78986425D01*
X158725802Y-78644239D01*
X159332877Y-78431815D01*
X159979128Y-78359000D01*
X217972872Y-78359000D01*
X218619123Y-78431815D01*
X218619123Y-78431815D01*
G37*
X218619123Y-78431815D02*
X219226198Y-78644239D01*
X219770782Y-78986425D01*
X220225575Y-79441218D01*
X220567761Y-79985802D01*
X220780185Y-80592877D01*
X220853000Y-81239128D01*
X220853000Y-130088872D01*
X220780185Y-130735123D01*
X220567761Y-131342198D01*
X220225575Y-131886782D01*
X219770782Y-132341575D01*
X219226198Y-132683761D01*
X218619123Y-132896185D01*
X217972872Y-132969000D01*
X159979128Y-132969000D01*
X159332877Y-132896185D01*
X158725802Y-132683761D01*
X158181218Y-132341575D01*
X157726425Y-131886782D01*
X157384239Y-131342198D01*
X157171815Y-130735123D01*
X157099000Y-130088872D01*
X157099000Y-129916587D01*
X158193000Y-129916587D01*
X158193000Y-130643413D01*
X158471144Y-131314912D01*
X158985088Y-131828856D01*
X159656587Y-132107000D01*
X160383413Y-132107000D01*
X161054912Y-131828856D01*
X161568856Y-131314912D01*
X161847000Y-130643413D01*
X161847000Y-130280000D01*
X169233942Y-130280000D01*
X169325291Y-130739242D01*
X169585431Y-131128569D01*
X169974758Y-131388709D01*
X170318080Y-131457000D01*
X170549920Y-131457000D01*
X170893242Y-131388709D01*
X171282569Y-131128569D01*
X171542709Y-130739242D01*
X171634058Y-130280000D01*
X171542709Y-129820758D01*
X171282569Y-129431431D01*
X171280428Y-129430000D01*
X171790594Y-129430000D01*
X171790594Y-131130000D01*
X171815973Y-131257589D01*
X171888246Y-131365754D01*
X171996411Y-131438027D01*
X172124000Y-131463406D01*
X173824000Y-131463406D01*
X173951589Y-131438027D01*
X174059754Y-131365754D01*
X174132027Y-131257589D01*
X174157406Y-131130000D01*
X174157406Y-130280000D01*
X176091942Y-130280000D01*
X176183291Y-130739242D01*
X176443431Y-131128569D01*
X176832758Y-131388709D01*
X177176080Y-131457000D01*
X177407920Y-131457000D01*
X177751242Y-131388709D01*
X178140569Y-131128569D01*
X178400709Y-130739242D01*
X178492058Y-130280000D01*
X178400709Y-129820758D01*
X178140569Y-129431431D01*
X178138428Y-129430000D01*
X178648594Y-129430000D01*
X178648594Y-131130000D01*
X178673973Y-131257589D01*
X178746246Y-131365754D01*
X178854411Y-131438027D01*
X178982000Y-131463406D01*
X180682000Y-131463406D01*
X180809589Y-131438027D01*
X180917754Y-131365754D01*
X180990027Y-131257589D01*
X181015406Y-131130000D01*
X181015406Y-130280000D01*
X182949942Y-130280000D01*
X183041291Y-130739242D01*
X183301431Y-131128569D01*
X183690758Y-131388709D01*
X184034080Y-131457000D01*
X184265920Y-131457000D01*
X184609242Y-131388709D01*
X184998569Y-131128569D01*
X185258709Y-130739242D01*
X185350058Y-130280000D01*
X185258709Y-129820758D01*
X184998569Y-129431431D01*
X184996428Y-129430000D01*
X185506594Y-129430000D01*
X185506594Y-131130000D01*
X185531973Y-131257589D01*
X185604246Y-131365754D01*
X185712411Y-131438027D01*
X185840000Y-131463406D01*
X187540000Y-131463406D01*
X187667589Y-131438027D01*
X187775754Y-131365754D01*
X187848027Y-131257589D01*
X187873406Y-131130000D01*
X187873406Y-130280000D01*
X189807942Y-130280000D01*
X189899291Y-130739242D01*
X190159431Y-131128569D01*
X190548758Y-131388709D01*
X190892080Y-131457000D01*
X191123920Y-131457000D01*
X191467242Y-131388709D01*
X191856569Y-131128569D01*
X192116709Y-130739242D01*
X192208058Y-130280000D01*
X192116709Y-129820758D01*
X191856569Y-129431431D01*
X191854428Y-129430000D01*
X192364594Y-129430000D01*
X192364594Y-131130000D01*
X192389973Y-131257589D01*
X192462246Y-131365754D01*
X192570411Y-131438027D01*
X192698000Y-131463406D01*
X194398000Y-131463406D01*
X194525589Y-131438027D01*
X194633754Y-131365754D01*
X194706027Y-131257589D01*
X194731406Y-131130000D01*
X194731406Y-129430000D01*
X194706027Y-129302411D01*
X194633754Y-129194246D01*
X194525589Y-129121973D01*
X194398000Y-129096594D01*
X192698000Y-129096594D01*
X192570411Y-129121973D01*
X192462246Y-129194246D01*
X192389973Y-129302411D01*
X192364594Y-129430000D01*
X191854428Y-129430000D01*
X191467242Y-129171291D01*
X191123920Y-129103000D01*
X190892080Y-129103000D01*
X190548758Y-129171291D01*
X190159431Y-129431431D01*
X189899291Y-129820758D01*
X189807942Y-130280000D01*
X187873406Y-130280000D01*
X187873406Y-129430000D01*
X187848027Y-129302411D01*
X187775754Y-129194246D01*
X187667589Y-129121973D01*
X187540000Y-129096594D01*
X185840000Y-129096594D01*
X185712411Y-129121973D01*
X185604246Y-129194246D01*
X185531973Y-129302411D01*
X185506594Y-129430000D01*
X184996428Y-129430000D01*
X184609242Y-129171291D01*
X184265920Y-129103000D01*
X184034080Y-129103000D01*
X183690758Y-129171291D01*
X183301431Y-129431431D01*
X183041291Y-129820758D01*
X182949942Y-130280000D01*
X181015406Y-130280000D01*
X181015406Y-129430000D01*
X180990027Y-129302411D01*
X180917754Y-129194246D01*
X180809589Y-129121973D01*
X180682000Y-129096594D01*
X178982000Y-129096594D01*
X178854411Y-129121973D01*
X178746246Y-129194246D01*
X178673973Y-129302411D01*
X178648594Y-129430000D01*
X178138428Y-129430000D01*
X177751242Y-129171291D01*
X177407920Y-129103000D01*
X177176080Y-129103000D01*
X176832758Y-129171291D01*
X176443431Y-129431431D01*
X176183291Y-129820758D01*
X176091942Y-130280000D01*
X174157406Y-130280000D01*
X174157406Y-129430000D01*
X174132027Y-129302411D01*
X174059754Y-129194246D01*
X173951589Y-129121973D01*
X173824000Y-129096594D01*
X172124000Y-129096594D01*
X171996411Y-129121973D01*
X171888246Y-129194246D01*
X171815973Y-129302411D01*
X171790594Y-129430000D01*
X171280428Y-129430000D01*
X170893242Y-129171291D01*
X170549920Y-129103000D01*
X170318080Y-129103000D01*
X169974758Y-129171291D01*
X169585431Y-129431431D01*
X169325291Y-129820758D01*
X169233942Y-130280000D01*
X161847000Y-130280000D01*
X161847000Y-129916587D01*
X161568856Y-129245088D01*
X161054912Y-128731144D01*
X160383413Y-128453000D01*
X159656587Y-128453000D01*
X158985088Y-128731144D01*
X158471144Y-129245088D01*
X158193000Y-129916587D01*
X157099000Y-129916587D01*
X157099000Y-120365442D01*
X162069340Y-120365442D01*
X162069340Y-120614878D01*
X162164795Y-120845327D01*
X162244340Y-120924872D01*
X162244341Y-122223638D01*
X162235485Y-122268160D01*
X162270565Y-122444521D01*
X162270566Y-122444522D01*
X162370467Y-122594034D01*
X162408207Y-122619251D01*
X163444087Y-123655131D01*
X163469306Y-123692874D01*
X163618818Y-123792775D01*
X163750662Y-123819000D01*
X163750663Y-123819000D01*
X163795179Y-123827855D01*
X163839696Y-123819000D01*
X164686288Y-123819000D01*
X164765833Y-123898545D01*
X164996282Y-123994000D01*
X165245718Y-123994000D01*
X165476167Y-123898545D01*
X165555712Y-123819000D01*
X166092482Y-123819000D01*
X166137000Y-123827855D01*
X166181518Y-123819000D01*
X166313362Y-123792775D01*
X166462874Y-123692874D01*
X166488093Y-123655131D01*
X166552801Y-123590423D01*
X166621455Y-123756167D01*
X166797833Y-123932545D01*
X167028282Y-124028000D01*
X167277718Y-124028000D01*
X167508167Y-123932545D01*
X167587712Y-123853000D01*
X168344482Y-123853000D01*
X168389000Y-123861855D01*
X168433518Y-123853000D01*
X168565362Y-123826775D01*
X168714874Y-123726874D01*
X168740093Y-123689131D01*
X169219134Y-123210091D01*
X169256874Y-123184874D01*
X169341256Y-123058587D01*
X187149000Y-123058587D01*
X187149000Y-123785413D01*
X187427144Y-124456912D01*
X187941088Y-124970856D01*
X188612587Y-125249000D01*
X189339413Y-125249000D01*
X190010912Y-124970856D01*
X190524856Y-124456912D01*
X190803000Y-123785413D01*
X190803000Y-123058587D01*
X190524856Y-122387088D01*
X190010912Y-121873144D01*
X189339413Y-121595000D01*
X188612587Y-121595000D01*
X187941088Y-121873144D01*
X187427144Y-122387088D01*
X187149000Y-123058587D01*
X169341256Y-123058587D01*
X169356775Y-123035362D01*
X169383000Y-122903518D01*
X169383000Y-122903517D01*
X169391855Y-122859000D01*
X169383000Y-122814482D01*
X169383000Y-121776224D01*
X174308224Y-116851000D01*
X182322288Y-116851000D01*
X182401833Y-116930545D01*
X182632282Y-117026000D01*
X182881718Y-117026000D01*
X183112167Y-116930545D01*
X183265000Y-116777712D01*
X183417833Y-116930545D01*
X183648282Y-117026000D01*
X183760776Y-117026000D01*
X183929907Y-117195131D01*
X183955126Y-117232874D01*
X184104638Y-117332775D01*
X184236482Y-117359000D01*
X184236483Y-117359000D01*
X184280999Y-117367855D01*
X184325516Y-117359000D01*
X187353776Y-117359000D01*
X188220908Y-118226133D01*
X188246126Y-118263874D01*
X188283866Y-118289091D01*
X188395638Y-118363775D01*
X188571999Y-118398855D01*
X188616517Y-118390000D01*
X190670776Y-118390000D01*
X195655000Y-123374225D01*
X195655001Y-130974477D01*
X195646145Y-131019000D01*
X195681225Y-131195361D01*
X195743341Y-131288324D01*
X195781127Y-131344874D01*
X195818867Y-131370091D01*
X196644908Y-132196133D01*
X196670126Y-132233874D01*
X196713966Y-132263167D01*
X196819638Y-132333775D01*
X196996000Y-132368855D01*
X197040518Y-132360000D01*
X197675128Y-132360000D01*
X197754673Y-132439545D01*
X197985122Y-132535000D01*
X198234558Y-132535000D01*
X198465007Y-132439545D01*
X198641385Y-132263167D01*
X198736840Y-132032718D01*
X198736840Y-131783282D01*
X198641385Y-131552833D01*
X198465007Y-131376455D01*
X198234558Y-131281000D01*
X197985122Y-131281000D01*
X197754673Y-131376455D01*
X197675128Y-131456000D01*
X197183225Y-131456000D01*
X196559000Y-130831776D01*
X196559000Y-129916587D01*
X216193000Y-129916587D01*
X216193000Y-130643413D01*
X216471144Y-131314912D01*
X216985088Y-131828856D01*
X217656587Y-132107000D01*
X218383413Y-132107000D01*
X219054912Y-131828856D01*
X219568856Y-131314912D01*
X219847000Y-130643413D01*
X219847000Y-129916587D01*
X219568856Y-129245088D01*
X219054912Y-128731144D01*
X218383413Y-128453000D01*
X217656587Y-128453000D01*
X216985088Y-128731144D01*
X216471144Y-129245088D01*
X216193000Y-129916587D01*
X196559000Y-129916587D01*
X196559000Y-123516224D01*
X197657840Y-124615064D01*
X197657841Y-126711054D01*
X197657840Y-126711059D01*
X197657840Y-126745128D01*
X197578295Y-126824673D01*
X197482840Y-127055122D01*
X197482840Y-127304558D01*
X197578295Y-127535007D01*
X197754673Y-127711385D01*
X197985122Y-127806840D01*
X198234558Y-127806840D01*
X198465007Y-127711385D01*
X198641385Y-127535007D01*
X198736840Y-127304558D01*
X198736840Y-127055122D01*
X198641385Y-126824673D01*
X198561840Y-126745128D01*
X198561840Y-124472356D01*
X198570695Y-124427839D01*
X198561840Y-124383322D01*
X198535615Y-124251478D01*
X198435714Y-124101966D01*
X198397971Y-124076747D01*
X198163224Y-123842000D01*
X214296594Y-123842000D01*
X214296594Y-125542000D01*
X214321973Y-125669589D01*
X214394246Y-125777754D01*
X214502411Y-125850027D01*
X214630000Y-125875406D01*
X216330000Y-125875406D01*
X216457589Y-125850027D01*
X216565754Y-125777754D01*
X216638027Y-125669589D01*
X216663406Y-125542000D01*
X216663406Y-125229657D01*
X216824817Y-125573358D01*
X217253076Y-125963645D01*
X217663110Y-126133476D01*
X217893000Y-126012155D01*
X217893000Y-124819000D01*
X218147000Y-124819000D01*
X218147000Y-126012155D01*
X218376890Y-126133476D01*
X218786924Y-125963645D01*
X219215183Y-125573358D01*
X219461486Y-125048892D01*
X219340819Y-124819000D01*
X218147000Y-124819000D01*
X217893000Y-124819000D01*
X217873000Y-124819000D01*
X217873000Y-124565000D01*
X217893000Y-124565000D01*
X217893000Y-123371845D01*
X218147000Y-123371845D01*
X218147000Y-124565000D01*
X219340819Y-124565000D01*
X219461486Y-124335108D01*
X219215183Y-123810642D01*
X218786924Y-123420355D01*
X218376890Y-123250524D01*
X218147000Y-123371845D01*
X217893000Y-123371845D01*
X217663110Y-123250524D01*
X217253076Y-123420355D01*
X216824817Y-123810642D01*
X216663406Y-124154343D01*
X216663406Y-123842000D01*
X216638027Y-123714411D01*
X216565754Y-123606246D01*
X216457589Y-123533973D01*
X216330000Y-123508594D01*
X214630000Y-123508594D01*
X214502411Y-123533973D01*
X214394246Y-123606246D01*
X214321973Y-123714411D01*
X214296594Y-123842000D01*
X198163224Y-123842000D01*
X189416093Y-115094869D01*
X189390874Y-115057126D01*
X189241362Y-114957225D01*
X189109518Y-114931000D01*
X189065000Y-114922145D01*
X189020482Y-114931000D01*
X184207712Y-114931000D01*
X184128167Y-114851455D01*
X183897718Y-114756000D01*
X183648282Y-114756000D01*
X183417833Y-114851455D01*
X183241455Y-115027833D01*
X183146000Y-115258282D01*
X183146000Y-115507718D01*
X183241455Y-115738167D01*
X183394288Y-115891000D01*
X183265000Y-116020288D01*
X183112167Y-115867455D01*
X182881718Y-115772000D01*
X182632282Y-115772000D01*
X182401833Y-115867455D01*
X182322288Y-115947000D01*
X181255814Y-115947000D01*
X181334167Y-115914545D01*
X181510545Y-115738167D01*
X181606000Y-115507718D01*
X181606000Y-115258282D01*
X181510545Y-115027833D01*
X181334167Y-114851455D01*
X181103718Y-114756000D01*
X180854282Y-114756000D01*
X180623833Y-114851455D01*
X180544288Y-114931000D01*
X174165517Y-114931000D01*
X174120999Y-114922145D01*
X173996752Y-114946859D01*
X173944638Y-114957225D01*
X173795126Y-115057126D01*
X173769909Y-115094866D01*
X165949776Y-122915000D01*
X165555712Y-122915000D01*
X165476167Y-122835455D01*
X165245718Y-122740000D01*
X164996282Y-122740000D01*
X164765833Y-122835455D01*
X164686288Y-122915000D01*
X163982404Y-122915000D01*
X163148340Y-122080936D01*
X163148340Y-120924872D01*
X163227885Y-120845327D01*
X163323340Y-120614878D01*
X163323340Y-120365442D01*
X163227885Y-120134993D01*
X163051507Y-119958615D01*
X162821058Y-119863160D01*
X162571622Y-119863160D01*
X162341173Y-119958615D01*
X162164795Y-120134993D01*
X162069340Y-120365442D01*
X157099000Y-120365442D01*
X157099000Y-106916587D01*
X158193000Y-106916587D01*
X158193000Y-107643413D01*
X158471144Y-108314912D01*
X158985088Y-108828856D01*
X159656587Y-109107000D01*
X160383413Y-109107000D01*
X161054912Y-108828856D01*
X161568856Y-108314912D01*
X161847000Y-107643413D01*
X161847000Y-107293000D01*
X165931942Y-107293000D01*
X166023291Y-107752242D01*
X166283431Y-108141569D01*
X166672758Y-108401709D01*
X167016080Y-108470000D01*
X167247920Y-108470000D01*
X167591242Y-108401709D01*
X167980569Y-108141569D01*
X168240709Y-107752242D01*
X168332058Y-107293000D01*
X168240709Y-106833758D01*
X168236607Y-106827618D01*
X168333090Y-106731135D01*
X168333092Y-106731132D01*
X169753225Y-105311000D01*
X171097071Y-105311000D01*
X171040638Y-105322225D01*
X170891126Y-105422126D01*
X170865908Y-105459867D01*
X170233868Y-106091908D01*
X170233865Y-106091910D01*
X170137382Y-106188393D01*
X170131242Y-106184291D01*
X169787920Y-106116000D01*
X169556080Y-106116000D01*
X169212758Y-106184291D01*
X168823431Y-106444431D01*
X168563291Y-106833758D01*
X168471942Y-107293000D01*
X168563291Y-107752242D01*
X168823431Y-108141569D01*
X169212758Y-108401709D01*
X169556080Y-108470000D01*
X169787920Y-108470000D01*
X170131242Y-108401709D01*
X170520569Y-108141569D01*
X170780709Y-107752242D01*
X170872058Y-107293000D01*
X170780709Y-106833758D01*
X170776607Y-106827618D01*
X170873090Y-106731135D01*
X170873092Y-106731132D01*
X171404225Y-106200000D01*
X171729248Y-106200000D01*
X171363431Y-106444431D01*
X171103291Y-106833758D01*
X171011942Y-107293000D01*
X171103291Y-107752242D01*
X171363431Y-108141569D01*
X171752758Y-108401709D01*
X172096080Y-108470000D01*
X172327920Y-108470000D01*
X172671242Y-108401709D01*
X173060569Y-108141569D01*
X173320709Y-107752242D01*
X173412058Y-107293000D01*
X173320709Y-106833758D01*
X173060569Y-106444431D01*
X172694752Y-106200000D01*
X173677090Y-106200000D01*
X173666246Y-106207246D01*
X173593973Y-106315411D01*
X173568594Y-106443000D01*
X173568594Y-108143000D01*
X173593973Y-108270589D01*
X173666246Y-108378754D01*
X173774411Y-108451027D01*
X173902000Y-108476406D01*
X175602000Y-108476406D01*
X175729589Y-108451027D01*
X175837754Y-108378754D01*
X175910027Y-108270589D01*
X175935406Y-108143000D01*
X175935406Y-107911782D01*
X180873000Y-107911782D01*
X180873000Y-108161218D01*
X180968455Y-108391667D01*
X181144833Y-108568045D01*
X181375282Y-108663500D01*
X181487775Y-108663500D01*
X181511865Y-108687590D01*
X181511868Y-108687592D01*
X183782909Y-110958634D01*
X183808127Y-110996375D01*
X183957639Y-111096276D01*
X184089483Y-111122501D01*
X184089484Y-111122501D01*
X184134000Y-111131356D01*
X184178517Y-111122501D01*
X189662279Y-111122501D01*
X190222191Y-111682413D01*
X190144833Y-111714455D01*
X189968455Y-111890833D01*
X189873000Y-112121282D01*
X189873000Y-112233775D01*
X189296776Y-112810000D01*
X186115225Y-112810000D01*
X185539000Y-112233776D01*
X185539000Y-112121282D01*
X185443545Y-111890833D01*
X185267167Y-111714455D01*
X185036718Y-111619000D01*
X184787282Y-111619000D01*
X184556833Y-111714455D01*
X184380455Y-111890833D01*
X184285000Y-112121282D01*
X184285000Y-112370718D01*
X184380455Y-112601167D01*
X184556833Y-112777545D01*
X184787282Y-112873000D01*
X184899776Y-112873000D01*
X185576908Y-113550133D01*
X185602126Y-113587874D01*
X185639866Y-113613091D01*
X185751638Y-113687775D01*
X185928000Y-113722855D01*
X185972518Y-113714000D01*
X189439482Y-113714000D01*
X189484000Y-113722855D01*
X189528518Y-113714000D01*
X189660362Y-113687775D01*
X189809874Y-113587874D01*
X189835093Y-113550131D01*
X190512225Y-112873000D01*
X190624718Y-112873000D01*
X190855167Y-112777545D01*
X191031545Y-112601167D01*
X191063587Y-112523809D01*
X193497501Y-114957723D01*
X193497500Y-115981288D01*
X193417955Y-116060833D01*
X193322500Y-116291282D01*
X193322500Y-116540718D01*
X193417955Y-116771167D01*
X193594333Y-116947545D01*
X193824782Y-117043000D01*
X194074218Y-117043000D01*
X194304667Y-116947545D01*
X194481045Y-116771167D01*
X194576500Y-116540718D01*
X194576500Y-116291282D01*
X194481045Y-116060833D01*
X194401500Y-115981288D01*
X194401500Y-114815014D01*
X194410355Y-114770497D01*
X194401500Y-114725980D01*
X194375275Y-114594136D01*
X194275374Y-114444624D01*
X194252327Y-114429225D01*
X194304667Y-114407545D01*
X194481045Y-114231167D01*
X194576500Y-114000718D01*
X194576500Y-113751282D01*
X194481045Y-113520833D01*
X194304667Y-113344455D01*
X194074218Y-113249000D01*
X193961725Y-113249000D01*
X190470093Y-109757369D01*
X190444874Y-109719626D01*
X190295362Y-109619725D01*
X190163518Y-109593500D01*
X190119000Y-109584645D01*
X190074482Y-109593500D01*
X186489712Y-109593500D01*
X186410167Y-109513955D01*
X186179718Y-109418500D01*
X185930282Y-109418500D01*
X185699833Y-109513955D01*
X185523455Y-109690333D01*
X185428000Y-109920782D01*
X185428000Y-110170218D01*
X185447999Y-110218501D01*
X184321226Y-110218501D01*
X182151092Y-108048368D01*
X182151090Y-108048365D01*
X182127000Y-108024275D01*
X182127000Y-107911782D01*
X182031545Y-107681333D01*
X181855167Y-107504955D01*
X181624718Y-107409500D01*
X181375282Y-107409500D01*
X181144833Y-107504955D01*
X180968455Y-107681333D01*
X180873000Y-107911782D01*
X175935406Y-107911782D01*
X175935406Y-106443000D01*
X175910027Y-106315411D01*
X175837754Y-106207246D01*
X175826910Y-106200000D01*
X175998482Y-106200000D01*
X176043000Y-106208855D01*
X176087518Y-106200000D01*
X176219362Y-106173775D01*
X176368874Y-106073874D01*
X176394093Y-106036131D01*
X179103225Y-103327000D01*
X179215718Y-103327000D01*
X179446167Y-103231545D01*
X179622545Y-103055167D01*
X179718000Y-102824718D01*
X179718000Y-102575282D01*
X179622545Y-102344833D01*
X179446167Y-102168455D01*
X179215718Y-102073000D01*
X179087225Y-102073000D01*
X179103225Y-102057000D01*
X179215718Y-102057000D01*
X179446167Y-101961545D01*
X179622545Y-101785167D01*
X179718000Y-101554718D01*
X179718000Y-101305282D01*
X179622545Y-101074833D01*
X179446167Y-100898455D01*
X179215718Y-100803000D01*
X178966282Y-100803000D01*
X178735833Y-100898455D01*
X178559455Y-101074833D01*
X178464000Y-101305282D01*
X178464000Y-101417775D01*
X175474776Y-104407000D01*
X169610518Y-104407000D01*
X169566000Y-104398145D01*
X169521482Y-104407000D01*
X169389638Y-104433225D01*
X169240126Y-104533126D01*
X169214909Y-104570867D01*
X167693868Y-106091908D01*
X167693865Y-106091910D01*
X167597382Y-106188393D01*
X167591242Y-106184291D01*
X167247920Y-106116000D01*
X167016080Y-106116000D01*
X166672758Y-106184291D01*
X166283431Y-106444431D01*
X166023291Y-106833758D01*
X165931942Y-107293000D01*
X161847000Y-107293000D01*
X161847000Y-106916587D01*
X161568856Y-106245088D01*
X161054912Y-105731144D01*
X160383413Y-105453000D01*
X159656587Y-105453000D01*
X158985088Y-105731144D01*
X158471144Y-106245088D01*
X158193000Y-106916587D01*
X157099000Y-106916587D01*
X157099000Y-101109000D01*
X173568594Y-101109000D01*
X173568594Y-102809000D01*
X173593973Y-102936589D01*
X173666246Y-103044754D01*
X173774411Y-103117027D01*
X173902000Y-103142406D01*
X175602000Y-103142406D01*
X175729589Y-103117027D01*
X175837754Y-103044754D01*
X175910027Y-102936589D01*
X175935406Y-102809000D01*
X175935406Y-101109000D01*
X175910027Y-100981411D01*
X175837754Y-100873246D01*
X175729589Y-100800973D01*
X175602000Y-100775594D01*
X173902000Y-100775594D01*
X173774411Y-100800973D01*
X173666246Y-100873246D01*
X173593973Y-100981411D01*
X173568594Y-101109000D01*
X157099000Y-101109000D01*
X157099000Y-99419000D01*
X173551942Y-99419000D01*
X173643291Y-99878242D01*
X173903431Y-100267569D01*
X174292758Y-100527709D01*
X174636080Y-100596000D01*
X174867920Y-100596000D01*
X175211242Y-100527709D01*
X175600569Y-100267569D01*
X175860709Y-99878242D01*
X175952058Y-99419000D01*
X175860709Y-98959758D01*
X175600569Y-98570431D01*
X175211242Y-98310291D01*
X174867920Y-98242000D01*
X174636080Y-98242000D01*
X174292758Y-98310291D01*
X173903431Y-98570431D01*
X173643291Y-98959758D01*
X173551942Y-99419000D01*
X157099000Y-99419000D01*
X157099000Y-96879000D01*
X173551942Y-96879000D01*
X173643291Y-97338242D01*
X173903431Y-97727569D01*
X174292758Y-97987709D01*
X174636080Y-98056000D01*
X174867920Y-98056000D01*
X175211242Y-97987709D01*
X175600569Y-97727569D01*
X175860709Y-97338242D01*
X175952058Y-96879000D01*
X175860709Y-96419758D01*
X175600569Y-96030431D01*
X175211242Y-95770291D01*
X174867920Y-95702000D01*
X174636080Y-95702000D01*
X174292758Y-95770291D01*
X173903431Y-96030431D01*
X173643291Y-96419758D01*
X173551942Y-96879000D01*
X157099000Y-96879000D01*
X157099000Y-94339000D01*
X173551942Y-94339000D01*
X173643291Y-94798242D01*
X173903431Y-95187569D01*
X174292758Y-95447709D01*
X174636080Y-95516000D01*
X174867920Y-95516000D01*
X175211242Y-95447709D01*
X175600569Y-95187569D01*
X175860709Y-94798242D01*
X175952058Y-94339000D01*
X175860709Y-93879758D01*
X175600569Y-93490431D01*
X175211242Y-93230291D01*
X174867920Y-93162000D01*
X174636080Y-93162000D01*
X174292758Y-93230291D01*
X173903431Y-93490431D01*
X173643291Y-93879758D01*
X173551942Y-94339000D01*
X157099000Y-94339000D01*
X157099000Y-92415282D01*
X183273000Y-92415282D01*
X183273000Y-92664718D01*
X183368455Y-92895167D01*
X183448001Y-92974713D01*
X183448000Y-106889482D01*
X183439145Y-106934000D01*
X183448000Y-106978517D01*
X183474225Y-107110361D01*
X183574126Y-107259874D01*
X183611869Y-107285093D01*
X184564908Y-108238133D01*
X184590126Y-108275874D01*
X184739638Y-108375775D01*
X184916000Y-108410855D01*
X184960518Y-108402000D01*
X198841482Y-108402000D01*
X198886000Y-108410855D01*
X198930518Y-108402000D01*
X199062362Y-108375775D01*
X199211874Y-108275874D01*
X199237093Y-108238131D01*
X201197535Y-106277690D01*
X201230455Y-106357167D01*
X201310000Y-106436712D01*
X201310001Y-111409287D01*
X201230455Y-111488833D01*
X201135000Y-111719282D01*
X201135000Y-111968718D01*
X201230455Y-112199167D01*
X201406833Y-112375545D01*
X201637282Y-112471000D01*
X201886718Y-112471000D01*
X202117167Y-112375545D01*
X202293545Y-112199167D01*
X202310596Y-112158000D01*
X203286594Y-112158000D01*
X203286594Y-113858000D01*
X203311973Y-113985589D01*
X203384246Y-114093754D01*
X203492411Y-114166027D01*
X203620000Y-114191406D01*
X205320000Y-114191406D01*
X205447589Y-114166027D01*
X205555754Y-114093754D01*
X205628027Y-113985589D01*
X205653406Y-113858000D01*
X205653406Y-113545657D01*
X205814817Y-113889358D01*
X206243076Y-114279645D01*
X206653110Y-114449476D01*
X206883000Y-114328155D01*
X206883000Y-113135000D01*
X207137000Y-113135000D01*
X207137000Y-114328155D01*
X207366890Y-114449476D01*
X207776924Y-114279645D01*
X208205183Y-113889358D01*
X208451486Y-113364892D01*
X208330819Y-113135000D01*
X207137000Y-113135000D01*
X206883000Y-113135000D01*
X206863000Y-113135000D01*
X206863000Y-112881000D01*
X206883000Y-112881000D01*
X206883000Y-111687845D01*
X207137000Y-111687845D01*
X207137000Y-112881000D01*
X208330819Y-112881000D01*
X208451486Y-112651108D01*
X208205183Y-112126642D01*
X207776924Y-111736355D01*
X207366890Y-111566524D01*
X207137000Y-111687845D01*
X206883000Y-111687845D01*
X206653110Y-111566524D01*
X206243076Y-111736355D01*
X205814817Y-112126642D01*
X205653406Y-112470343D01*
X205653406Y-112158000D01*
X205628027Y-112030411D01*
X205555754Y-111922246D01*
X205447589Y-111849973D01*
X205320000Y-111824594D01*
X203620000Y-111824594D01*
X203492411Y-111849973D01*
X203384246Y-111922246D01*
X203311973Y-112030411D01*
X203286594Y-112158000D01*
X202310596Y-112158000D01*
X202389000Y-111968718D01*
X202389000Y-111719282D01*
X202293545Y-111488833D01*
X202214000Y-111409288D01*
X202214000Y-108944000D01*
X203269942Y-108944000D01*
X203361291Y-109403242D01*
X203621431Y-109792569D01*
X204010758Y-110052709D01*
X204354080Y-110121000D01*
X204585920Y-110121000D01*
X204929242Y-110052709D01*
X205318569Y-109792569D01*
X205578709Y-109403242D01*
X205670058Y-108944000D01*
X205578709Y-108484758D01*
X205318569Y-108095431D01*
X204929242Y-107835291D01*
X204585920Y-107767000D01*
X204354080Y-107767000D01*
X204010758Y-107835291D01*
X203621431Y-108095431D01*
X203361291Y-108484758D01*
X203269942Y-108944000D01*
X202214000Y-108944000D01*
X202214000Y-106436712D01*
X202293545Y-106357167D01*
X202389000Y-106126718D01*
X202389000Y-105877282D01*
X202293545Y-105646833D01*
X202200712Y-105554000D01*
X203286594Y-105554000D01*
X203286594Y-107254000D01*
X203311973Y-107381589D01*
X203384246Y-107489754D01*
X203492411Y-107562027D01*
X203620000Y-107587406D01*
X205320000Y-107587406D01*
X205447589Y-107562027D01*
X205555754Y-107489754D01*
X205628027Y-107381589D01*
X205653406Y-107254000D01*
X205653406Y-106916587D01*
X216193000Y-106916587D01*
X216193000Y-107643413D01*
X216471144Y-108314912D01*
X216985088Y-108828856D01*
X217656587Y-109107000D01*
X218383413Y-109107000D01*
X219054912Y-108828856D01*
X219568856Y-108314912D01*
X219847000Y-107643413D01*
X219847000Y-106916587D01*
X219568856Y-106245088D01*
X219054912Y-105731144D01*
X218383413Y-105453000D01*
X217656587Y-105453000D01*
X216985088Y-105731144D01*
X216471144Y-106245088D01*
X216193000Y-106916587D01*
X205653406Y-106916587D01*
X205653406Y-105554000D01*
X205628027Y-105426411D01*
X205555754Y-105318246D01*
X205447589Y-105245973D01*
X205320000Y-105220594D01*
X203620000Y-105220594D01*
X203492411Y-105245973D01*
X203384246Y-105318246D01*
X203311973Y-105426411D01*
X203286594Y-105554000D01*
X202200712Y-105554000D01*
X202117167Y-105470455D01*
X202037690Y-105437535D01*
X203978225Y-103497000D01*
X204090718Y-103497000D01*
X204321167Y-103401545D01*
X204497545Y-103225167D01*
X204593000Y-102994718D01*
X204593000Y-102745282D01*
X207911000Y-102745282D01*
X207911000Y-102994718D01*
X208006455Y-103225167D01*
X208182833Y-103401545D01*
X208413282Y-103497000D01*
X208662718Y-103497000D01*
X208893167Y-103401545D01*
X208972712Y-103322000D01*
X211059778Y-103322000D01*
X210720245Y-103661533D01*
X210667167Y-103608455D01*
X210436718Y-103513000D01*
X210187282Y-103513000D01*
X209956833Y-103608455D01*
X209780455Y-103784833D01*
X209685000Y-104015282D01*
X209685000Y-104264718D01*
X209780455Y-104495167D01*
X209956833Y-104671545D01*
X210187282Y-104767000D01*
X210436718Y-104767000D01*
X210667167Y-104671545D01*
X210746712Y-104592000D01*
X210836484Y-104592000D01*
X210881002Y-104600855D01*
X210925520Y-104592000D01*
X211057364Y-104565775D01*
X211206876Y-104465874D01*
X211232095Y-104428131D01*
X213648131Y-102012095D01*
X213685874Y-101986876D01*
X213785775Y-101837364D01*
X213812000Y-101705520D01*
X213812000Y-101705519D01*
X213820855Y-101661002D01*
X213812000Y-101616484D01*
X213812000Y-101505000D01*
X214952819Y-101505000D01*
X215020884Y-101847188D01*
X215214719Y-102137281D01*
X215504812Y-102331116D01*
X215760625Y-102382000D01*
X216333375Y-102382000D01*
X216589188Y-102331116D01*
X216879281Y-102137281D01*
X217073116Y-101847188D01*
X217079518Y-101815000D01*
X217850370Y-101815000D01*
X217928137Y-102205961D01*
X218149598Y-102537402D01*
X218481039Y-102758863D01*
X218773313Y-102817000D01*
X219320687Y-102817000D01*
X219612961Y-102758863D01*
X219944402Y-102537402D01*
X220165863Y-102205961D01*
X220243630Y-101815000D01*
X220165863Y-101424039D01*
X219944402Y-101092598D01*
X219612961Y-100871137D01*
X219320687Y-100813000D01*
X218773313Y-100813000D01*
X218481039Y-100871137D01*
X218149598Y-101092598D01*
X217928137Y-101424039D01*
X217850370Y-101815000D01*
X217079518Y-101815000D01*
X217141181Y-101505000D01*
X217073116Y-101162812D01*
X216879281Y-100872719D01*
X216589188Y-100678884D01*
X216333375Y-100628000D01*
X215760625Y-100628000D01*
X215504812Y-100678884D01*
X215214719Y-100872719D01*
X215020884Y-101162812D01*
X214952819Y-101505000D01*
X213812000Y-101505000D01*
X213812000Y-100383224D01*
X213826000Y-100397224D01*
X213826000Y-100509718D01*
X213921455Y-100740167D01*
X214097833Y-100916545D01*
X214328282Y-101012000D01*
X214577718Y-101012000D01*
X214808167Y-100916545D01*
X214984545Y-100740167D01*
X215080000Y-100509718D01*
X215080000Y-100260282D01*
X214984545Y-100029833D01*
X214808167Y-99853455D01*
X214577718Y-99758000D01*
X214465224Y-99758000D01*
X214437001Y-99729777D01*
X214437001Y-96665000D01*
X214952819Y-96665000D01*
X215020884Y-97007188D01*
X215214719Y-97297281D01*
X215504812Y-97491116D01*
X215760625Y-97542000D01*
X216333375Y-97542000D01*
X216589188Y-97491116D01*
X216879281Y-97297281D01*
X217073116Y-97007188D01*
X217141181Y-96665000D01*
X217079519Y-96355000D01*
X217850370Y-96355000D01*
X217928137Y-96745961D01*
X218149598Y-97077402D01*
X218481039Y-97298863D01*
X218773313Y-97357000D01*
X219320687Y-97357000D01*
X219612961Y-97298863D01*
X219944402Y-97077402D01*
X220165863Y-96745961D01*
X220243630Y-96355000D01*
X220165863Y-95964039D01*
X219944402Y-95632598D01*
X219612961Y-95411137D01*
X219320687Y-95353000D01*
X218773313Y-95353000D01*
X218481039Y-95411137D01*
X218149598Y-95632598D01*
X217928137Y-95964039D01*
X217850370Y-96355000D01*
X217079519Y-96355000D01*
X217073116Y-96322812D01*
X216879281Y-96032719D01*
X216589188Y-95838884D01*
X216333375Y-95788000D01*
X215760625Y-95788000D01*
X215504812Y-95838884D01*
X215214719Y-96032719D01*
X215020884Y-96322812D01*
X214952819Y-96665000D01*
X214437001Y-96665000D01*
X214437001Y-95297723D01*
X215297725Y-94437000D01*
X215410218Y-94437000D01*
X215640667Y-94341545D01*
X215817045Y-94165167D01*
X215912500Y-93934718D01*
X215912500Y-93685282D01*
X215817045Y-93454833D01*
X215640667Y-93278455D01*
X215410218Y-93183000D01*
X215160782Y-93183000D01*
X214930333Y-93278455D01*
X214753955Y-93454833D01*
X214658500Y-93685282D01*
X214658500Y-93797775D01*
X213696868Y-94759408D01*
X213659128Y-94784625D01*
X213633911Y-94822365D01*
X213633910Y-94822366D01*
X213559226Y-94934138D01*
X213524146Y-95110499D01*
X213533002Y-95155021D01*
X213533001Y-96955516D01*
X213533002Y-96955521D01*
X213533002Y-98224000D01*
X213484718Y-98204000D01*
X213235282Y-98204000D01*
X213004833Y-98299455D01*
X212932999Y-98371289D01*
X212932999Y-95300225D01*
X214219634Y-94013591D01*
X214257374Y-93988374D01*
X214357275Y-93838862D01*
X214383500Y-93707018D01*
X214383500Y-93707017D01*
X214392355Y-93662501D01*
X214383500Y-93617983D01*
X214383500Y-91541224D01*
X215297725Y-90627000D01*
X215410218Y-90627000D01*
X215640667Y-90531545D01*
X215817045Y-90355167D01*
X215912500Y-90124718D01*
X215912500Y-89875282D01*
X215817045Y-89644833D01*
X215640667Y-89468455D01*
X215410218Y-89373000D01*
X215160782Y-89373000D01*
X214930333Y-89468455D01*
X214753955Y-89644833D01*
X214658500Y-89875282D01*
X214658500Y-89987775D01*
X213643367Y-91002909D01*
X213605627Y-91028126D01*
X213580410Y-91065866D01*
X213580409Y-91065867D01*
X213505725Y-91177639D01*
X213470645Y-91354000D01*
X213479501Y-91398522D01*
X213479500Y-93475275D01*
X212192866Y-94761910D01*
X212155126Y-94787127D01*
X212129909Y-94824867D01*
X212129908Y-94824868D01*
X212055224Y-94936640D01*
X212020144Y-95113001D01*
X212029000Y-95157523D01*
X212028999Y-98632366D01*
X211351858Y-99309508D01*
X211314118Y-99334725D01*
X211288901Y-99372465D01*
X211288900Y-99372466D01*
X211214216Y-99484238D01*
X211179136Y-99660599D01*
X211187992Y-99705121D01*
X211187991Y-100635288D01*
X211108446Y-100714833D01*
X211012991Y-100945282D01*
X211012991Y-101194718D01*
X211108446Y-101425167D01*
X211284824Y-101601545D01*
X211515273Y-101697000D01*
X211764709Y-101697000D01*
X211892000Y-101644274D01*
X211892000Y-101666775D01*
X211140776Y-102418000D01*
X210862254Y-102418000D01*
X210939000Y-102232718D01*
X210939000Y-101983282D01*
X210843545Y-101752833D01*
X210667167Y-101576455D01*
X210436718Y-101481000D01*
X210187282Y-101481000D01*
X209956833Y-101576455D01*
X209780455Y-101752833D01*
X209685000Y-101983282D01*
X209685000Y-102232718D01*
X209761746Y-102418000D01*
X208972712Y-102418000D01*
X208893167Y-102338455D01*
X208662718Y-102243000D01*
X208413282Y-102243000D01*
X208182833Y-102338455D01*
X208006455Y-102514833D01*
X207911000Y-102745282D01*
X204593000Y-102745282D01*
X204497545Y-102514833D01*
X204321167Y-102338455D01*
X204090718Y-102243000D01*
X203841282Y-102243000D01*
X203610833Y-102338455D01*
X203434455Y-102514833D01*
X203339000Y-102745282D01*
X203339000Y-102857775D01*
X198698776Y-107498000D01*
X185103225Y-107498000D01*
X184352000Y-106746776D01*
X184352000Y-103925282D01*
X185001000Y-103925282D01*
X185001000Y-104174718D01*
X185096455Y-104405167D01*
X185272833Y-104581545D01*
X185503282Y-104677000D01*
X185752718Y-104677000D01*
X185983167Y-104581545D01*
X186159545Y-104405167D01*
X186255000Y-104174718D01*
X186255000Y-103925282D01*
X187033000Y-103925282D01*
X187033000Y-104174718D01*
X187128455Y-104405167D01*
X187304833Y-104581545D01*
X187535282Y-104677000D01*
X187784718Y-104677000D01*
X188015167Y-104581545D01*
X188168000Y-104428712D01*
X188320833Y-104581545D01*
X188551282Y-104677000D01*
X188800718Y-104677000D01*
X188811000Y-104672741D01*
X188811000Y-104682718D01*
X188906455Y-104913167D01*
X189082833Y-105089545D01*
X189313282Y-105185000D01*
X189562718Y-105185000D01*
X189573000Y-105180741D01*
X189573000Y-105190718D01*
X189668455Y-105421167D01*
X189844833Y-105597545D01*
X190075282Y-105693000D01*
X190324718Y-105693000D01*
X190555167Y-105597545D01*
X190731545Y-105421167D01*
X190827000Y-105190718D01*
X190827000Y-105180741D01*
X190837282Y-105185000D01*
X191086718Y-105185000D01*
X191317167Y-105089545D01*
X191493545Y-104913167D01*
X191589000Y-104682718D01*
X191589000Y-104672741D01*
X191599282Y-104677000D01*
X191734288Y-104677000D01*
X191700455Y-104710833D01*
X191605000Y-104941282D01*
X191605000Y-105190718D01*
X191700455Y-105421167D01*
X191876833Y-105597545D01*
X192107282Y-105693000D01*
X192356718Y-105693000D01*
X192587167Y-105597545D01*
X192763545Y-105421167D01*
X192859000Y-105190718D01*
X192859000Y-104941282D01*
X192763545Y-104710833D01*
X192729712Y-104677000D01*
X192864718Y-104677000D01*
X193095167Y-104581545D01*
X193271545Y-104405167D01*
X193367000Y-104174718D01*
X193367000Y-103925282D01*
X194145000Y-103925282D01*
X194145000Y-104174718D01*
X194240455Y-104405167D01*
X194416833Y-104581545D01*
X194647282Y-104677000D01*
X194896718Y-104677000D01*
X195127167Y-104581545D01*
X195303545Y-104405167D01*
X195399000Y-104174718D01*
X195399000Y-103925282D01*
X195303545Y-103694833D01*
X195127167Y-103518455D01*
X194896718Y-103423000D01*
X194647282Y-103423000D01*
X194416833Y-103518455D01*
X194240455Y-103694833D01*
X194145000Y-103925282D01*
X193367000Y-103925282D01*
X193271545Y-103694833D01*
X193095167Y-103518455D01*
X192864718Y-103423000D01*
X192615282Y-103423000D01*
X192384833Y-103518455D01*
X192232000Y-103671288D01*
X192079167Y-103518455D01*
X191848718Y-103423000D01*
X191599282Y-103423000D01*
X191589000Y-103427259D01*
X191589000Y-103417282D01*
X191493545Y-103186833D01*
X191317167Y-103010455D01*
X191086718Y-102915000D01*
X190837282Y-102915000D01*
X190827000Y-102919259D01*
X190827000Y-102909282D01*
X190731545Y-102678833D01*
X190555167Y-102502455D01*
X190324718Y-102407000D01*
X190075282Y-102407000D01*
X189844833Y-102502455D01*
X189668455Y-102678833D01*
X189573000Y-102909282D01*
X189573000Y-102919259D01*
X189562718Y-102915000D01*
X189313282Y-102915000D01*
X189082833Y-103010455D01*
X188906455Y-103186833D01*
X188811000Y-103417282D01*
X188811000Y-103427259D01*
X188800718Y-103423000D01*
X188665712Y-103423000D01*
X188699545Y-103389167D01*
X188795000Y-103158718D01*
X188795000Y-102909282D01*
X188699545Y-102678833D01*
X188523167Y-102502455D01*
X188292718Y-102407000D01*
X188043282Y-102407000D01*
X187812833Y-102502455D01*
X187636455Y-102678833D01*
X187541000Y-102909282D01*
X187541000Y-103158718D01*
X187636455Y-103389167D01*
X187670288Y-103423000D01*
X187535282Y-103423000D01*
X187304833Y-103518455D01*
X187128455Y-103694833D01*
X187033000Y-103925282D01*
X186255000Y-103925282D01*
X186159545Y-103694833D01*
X185983167Y-103518455D01*
X185752718Y-103423000D01*
X185503282Y-103423000D01*
X185272833Y-103518455D01*
X185096455Y-103694833D01*
X185001000Y-103925282D01*
X184352000Y-103925282D01*
X184352000Y-98765282D01*
X201196500Y-98765282D01*
X201196500Y-99014718D01*
X201291955Y-99245167D01*
X201468333Y-99421545D01*
X201698782Y-99517000D01*
X201827276Y-99517000D01*
X201811276Y-99533000D01*
X201698782Y-99533000D01*
X201468333Y-99628455D01*
X201291955Y-99804833D01*
X201196500Y-100035282D01*
X201196500Y-100284718D01*
X201291955Y-100515167D01*
X201468333Y-100691545D01*
X201698782Y-100787000D01*
X201827276Y-100787000D01*
X201811276Y-100803000D01*
X201698782Y-100803000D01*
X201468333Y-100898455D01*
X201291955Y-101074833D01*
X201196500Y-101305282D01*
X201196500Y-101554718D01*
X201291955Y-101785167D01*
X201468333Y-101961545D01*
X201698782Y-102057000D01*
X201948218Y-102057000D01*
X202178667Y-101961545D01*
X202355045Y-101785167D01*
X202450500Y-101554718D01*
X202450500Y-101442224D01*
X212378131Y-91514593D01*
X212415874Y-91489374D01*
X212515775Y-91339862D01*
X212542000Y-91208018D01*
X212542000Y-91208017D01*
X212550855Y-91163500D01*
X212542000Y-91118982D01*
X212542000Y-88337150D01*
X212549242Y-88335709D01*
X212938569Y-88075569D01*
X213198709Y-87686242D01*
X213290058Y-87227000D01*
X213198709Y-86767758D01*
X212938569Y-86378431D01*
X212549242Y-86118291D01*
X212205920Y-86050000D01*
X211974080Y-86050000D01*
X211630758Y-86118291D01*
X211241431Y-86378431D01*
X210981291Y-86767758D01*
X210889942Y-87227000D01*
X210981291Y-87686242D01*
X211241431Y-88075569D01*
X211630758Y-88335709D01*
X211638001Y-88337150D01*
X211638000Y-90976276D01*
X209918105Y-92696171D01*
X209975775Y-92609862D01*
X210002000Y-92478018D01*
X210002000Y-92478017D01*
X210010855Y-92433501D01*
X210002000Y-92388983D01*
X210002000Y-88337150D01*
X210009242Y-88335709D01*
X210398569Y-88075569D01*
X210658709Y-87686242D01*
X210750058Y-87227000D01*
X210658709Y-86767758D01*
X210398569Y-86378431D01*
X210009242Y-86118291D01*
X209665920Y-86050000D01*
X209434080Y-86050000D01*
X209090758Y-86118291D01*
X208701431Y-86378431D01*
X208441291Y-86767758D01*
X208349942Y-87227000D01*
X208441291Y-87686242D01*
X208701431Y-88075569D01*
X209090758Y-88335709D01*
X209098001Y-88337150D01*
X209098000Y-92246275D01*
X207378107Y-93966169D01*
X207435775Y-93879862D01*
X207462000Y-93748018D01*
X207462000Y-93748017D01*
X207470855Y-93703500D01*
X207462000Y-93658982D01*
X207462000Y-88337150D01*
X207469242Y-88335709D01*
X207858569Y-88075569D01*
X208118709Y-87686242D01*
X208210058Y-87227000D01*
X208118709Y-86767758D01*
X207858569Y-86378431D01*
X207469242Y-86118291D01*
X207125920Y-86050000D01*
X206894080Y-86050000D01*
X206550758Y-86118291D01*
X206161431Y-86378431D01*
X205901291Y-86767758D01*
X205809942Y-87227000D01*
X205901291Y-87686242D01*
X206161431Y-88075569D01*
X206550758Y-88335709D01*
X206558001Y-88337150D01*
X206558000Y-93516275D01*
X201811276Y-98263000D01*
X201698782Y-98263000D01*
X201468333Y-98358455D01*
X201291955Y-98534833D01*
X201196500Y-98765282D01*
X184352000Y-98765282D01*
X184352000Y-92974712D01*
X184431545Y-92895167D01*
X184527000Y-92664718D01*
X184527000Y-92415282D01*
X201196500Y-92415282D01*
X201196500Y-92664718D01*
X201291955Y-92895167D01*
X201468333Y-93071545D01*
X201698782Y-93167000D01*
X201948218Y-93167000D01*
X201996501Y-93147000D01*
X201996502Y-95537773D01*
X201811276Y-95723000D01*
X201698782Y-95723000D01*
X201468333Y-95818455D01*
X201291955Y-95994833D01*
X201196500Y-96225282D01*
X201196500Y-96474718D01*
X201291955Y-96705167D01*
X201468333Y-96881545D01*
X201698782Y-96977000D01*
X201948218Y-96977000D01*
X202178667Y-96881545D01*
X202355045Y-96705167D01*
X202450500Y-96474718D01*
X202450500Y-96362224D01*
X202736634Y-96076091D01*
X202774375Y-96050873D01*
X202874276Y-95901361D01*
X202890767Y-95818455D01*
X202909356Y-95724999D01*
X202900501Y-95680481D01*
X202900501Y-92738633D01*
X203323642Y-92315493D01*
X203361383Y-92290275D01*
X203461284Y-92140763D01*
X203487509Y-92008919D01*
X203496364Y-91964401D01*
X203487509Y-91919883D01*
X203487509Y-88381752D01*
X203492411Y-88385027D01*
X203620000Y-88410406D01*
X205320000Y-88410406D01*
X205447589Y-88385027D01*
X205555754Y-88312754D01*
X205628027Y-88204589D01*
X205653406Y-88077000D01*
X205653406Y-86377000D01*
X205628027Y-86249411D01*
X205555754Y-86141246D01*
X205447589Y-86068973D01*
X205320000Y-86043594D01*
X203625130Y-86043594D01*
X204422227Y-85246498D01*
X205714484Y-85246498D01*
X205759002Y-85255353D01*
X205803520Y-85246498D01*
X205935364Y-85220273D01*
X206084876Y-85120372D01*
X206110095Y-85082629D01*
X207191631Y-84001093D01*
X207229374Y-83975874D01*
X207258235Y-83932681D01*
X207469242Y-83890709D01*
X207858569Y-83630569D01*
X208118709Y-83241242D01*
X208210058Y-82782000D01*
X208118709Y-82322758D01*
X207858569Y-81933431D01*
X207469242Y-81673291D01*
X207125920Y-81605000D01*
X206894080Y-81605000D01*
X206550758Y-81673291D01*
X206161431Y-81933431D01*
X205901291Y-82322758D01*
X205809942Y-82782000D01*
X205901291Y-83241242D01*
X206161431Y-83630569D01*
X206234730Y-83679546D01*
X205571778Y-84342498D01*
X204648726Y-84342498D01*
X204758131Y-84233093D01*
X204795874Y-84207874D01*
X204895775Y-84058362D01*
X204914265Y-83965406D01*
X205320000Y-83965406D01*
X205447589Y-83940027D01*
X205555754Y-83867754D01*
X205628027Y-83759589D01*
X205653406Y-83632000D01*
X205653406Y-81932000D01*
X205628027Y-81804411D01*
X205555754Y-81696246D01*
X205447589Y-81623973D01*
X205320000Y-81598594D01*
X203620000Y-81598594D01*
X203492411Y-81623973D01*
X203384246Y-81696246D01*
X203311973Y-81804411D01*
X203286594Y-81932000D01*
X203286594Y-83632000D01*
X203311973Y-83759589D01*
X203384246Y-83867754D01*
X203492411Y-83940027D01*
X203620000Y-83965406D01*
X203747370Y-83965406D01*
X202297367Y-85415409D01*
X202259627Y-85440626D01*
X202234410Y-85478366D01*
X202234409Y-85478367D01*
X202159725Y-85590139D01*
X202124645Y-85766500D01*
X202133501Y-85811023D01*
X202133500Y-91590775D01*
X201811276Y-91913000D01*
X201698782Y-91913000D01*
X201468333Y-92008455D01*
X201291955Y-92184833D01*
X201196500Y-92415282D01*
X184527000Y-92415282D01*
X184431545Y-92184833D01*
X184255167Y-92008455D01*
X184024718Y-91913000D01*
X183775282Y-91913000D01*
X183544833Y-92008455D01*
X183368455Y-92184833D01*
X183273000Y-92415282D01*
X157099000Y-92415282D01*
X157099000Y-89425000D01*
X158836594Y-89425000D01*
X158836594Y-91125000D01*
X158861973Y-91252589D01*
X158934246Y-91360754D01*
X159042411Y-91433027D01*
X159170000Y-91458406D01*
X160870000Y-91458406D01*
X160997589Y-91433027D01*
X161105754Y-91360754D01*
X161178027Y-91252589D01*
X161203406Y-91125000D01*
X161203406Y-89425000D01*
X161178027Y-89297411D01*
X161105754Y-89189246D01*
X160997589Y-89116973D01*
X160870000Y-89091594D01*
X159170000Y-89091594D01*
X159042411Y-89116973D01*
X158934246Y-89189246D01*
X158861973Y-89297411D01*
X158836594Y-89425000D01*
X157099000Y-89425000D01*
X157099000Y-87735000D01*
X158819942Y-87735000D01*
X158911291Y-88194242D01*
X159171431Y-88583569D01*
X159560758Y-88843709D01*
X159904080Y-88912000D01*
X160135920Y-88912000D01*
X160479242Y-88843709D01*
X160868569Y-88583569D01*
X161128709Y-88194242D01*
X161220058Y-87735000D01*
X161128709Y-87275758D01*
X160868569Y-86886431D01*
X160479242Y-86626291D01*
X160135920Y-86558000D01*
X159904080Y-86558000D01*
X159560758Y-86626291D01*
X159171431Y-86886431D01*
X158911291Y-87275758D01*
X158819942Y-87735000D01*
X157099000Y-87735000D01*
X157099000Y-81239128D01*
X157135341Y-80916587D01*
X158193000Y-80916587D01*
X158193000Y-81643413D01*
X158471144Y-82314912D01*
X158985088Y-82828856D01*
X159656587Y-83107000D01*
X160383413Y-83107000D01*
X161054912Y-82828856D01*
X161568856Y-82314912D01*
X161847000Y-81643413D01*
X161847000Y-80916587D01*
X216193000Y-80916587D01*
X216193000Y-81643413D01*
X216471144Y-82314912D01*
X216985088Y-82828856D01*
X217656587Y-83107000D01*
X218383413Y-83107000D01*
X219054912Y-82828856D01*
X219568856Y-82314912D01*
X219847000Y-81643413D01*
X219847000Y-80916587D01*
X219568856Y-80245088D01*
X219054912Y-79731144D01*
X218383413Y-79453000D01*
X217656587Y-79453000D01*
X216985088Y-79731144D01*
X216471144Y-80245088D01*
X216193000Y-80916587D01*
X161847000Y-80916587D01*
X161568856Y-80245088D01*
X161054912Y-79731144D01*
X160383413Y-79453000D01*
X159656587Y-79453000D01*
X158985088Y-79731144D01*
X158471144Y-80245088D01*
X158193000Y-80916587D01*
X157135341Y-80916587D01*
X157171815Y-80592877D01*
X157384239Y-79985802D01*
X157726425Y-79441218D01*
X158181218Y-78986425D01*
X158725802Y-78644239D01*
X159332877Y-78431815D01*
X159979128Y-78359000D01*
X217972872Y-78359000D01*
X218619123Y-78431815D01*
G04 #@! TD*
M02*
