G04 #@! TF.GenerationSoftware,KiCad,Pcbnew,5.0.1+dfsg1-3~bpo9+1*
G04 #@! TF.CreationDate,2019-01-06T07:11:04+00:00*
G04 #@! TF.ProjectId,portia,706F727469612E6B696361645F706362,rev?*
G04 #@! TF.SameCoordinates,Original*
G04 #@! TF.FileFunction,Legend,Top*
G04 #@! TF.FilePolarity,Positive*
%FSLAX46Y46*%
G04 Gerber Fmt 4.6, Leading zero omitted, Abs format (unit mm)*
G04 Created by KiCad (PCBNEW 5.0.1+dfsg1-3~bpo9+1) date Sun 06 Jan 2019 07:11:04 AM UTC*
%MOMM*%
%LPD*%
G01*
G04 APERTURE LIST*
%ADD10C,0.200000*%
%ADD11C,0.150000*%
%ADD12C,0.120000*%
%ADD13C,0.500000*%
%ADD14C,0.127000*%
G04 APERTURE END LIST*
D10*
X179091000Y-101430000D02*
X179091000Y-90000000D01*
X184912000Y-112246000D02*
X184912000Y-118342000D01*
X172720000Y-119104000D02*
X172720000Y-120882000D01*
X172186500Y-120142000D02*
X172186500Y-119888000D01*
X172186500Y-119126000D02*
X172186500Y-120142000D01*
D11*
G04 #@! TO.C,D3*
X200813500Y-117170000D02*
X200813500Y-118170000D01*
X195313500Y-118170000D02*
X200813500Y-118170000D01*
X195313500Y-115170000D02*
X200713500Y-115170000D01*
D12*
G04 #@! TO.C,R19*
X200208279Y-113366000D02*
X199882721Y-113366000D01*
X200208279Y-114386000D02*
X199882721Y-114386000D01*
G04 #@! TO.C,R18*
X196072721Y-114386000D02*
X196398279Y-114386000D01*
X196072721Y-113366000D02*
X196398279Y-113366000D01*
D11*
G04 #@! TO.C,U4*
X199500000Y-82500000D02*
X181500000Y-82500000D01*
X199500000Y-108000000D02*
X181500000Y-108000000D01*
X199500000Y-82500000D02*
X199500000Y-108000000D01*
X181500000Y-82500000D02*
X181500000Y-108000000D01*
X199500000Y-88500000D02*
X181500000Y-88500000D01*
D13*
X180877981Y-88646000D02*
G75*
G03X180877981Y-88646000I-283981J0D01*
G01*
D12*
G04 #@! TO.C,J9*
X203140000Y-84112000D02*
X203140000Y-82782000D01*
X204470000Y-84112000D02*
X203140000Y-84112000D01*
X205740000Y-84112000D02*
X205740000Y-81452000D01*
X205740000Y-81452000D02*
X208340000Y-81452000D01*
X205740000Y-84112000D02*
X208340000Y-84112000D01*
X208340000Y-84112000D02*
X208340000Y-81452000D01*
G04 #@! TO.C,J10*
X203140000Y-105074000D02*
X204470000Y-105074000D01*
X203140000Y-106404000D02*
X203140000Y-105074000D01*
X203140000Y-107674000D02*
X205800000Y-107674000D01*
X205800000Y-107674000D02*
X205800000Y-110274000D01*
X203140000Y-107674000D02*
X203140000Y-110274000D01*
X203140000Y-110274000D02*
X205800000Y-110274000D01*
G04 #@! TO.C,J15*
X203140000Y-114338000D02*
X203140000Y-113008000D01*
X204470000Y-114338000D02*
X203140000Y-114338000D01*
X205740000Y-114338000D02*
X205740000Y-111678000D01*
X205740000Y-111678000D02*
X208340000Y-111678000D01*
X205740000Y-114338000D02*
X208340000Y-114338000D01*
X208340000Y-114338000D02*
X208340000Y-111678000D01*
G04 #@! TO.C,J4*
X176082000Y-103289000D02*
X174752000Y-103289000D01*
X176082000Y-101959000D02*
X176082000Y-103289000D01*
X176082000Y-100689000D02*
X173422000Y-100689000D01*
X173422000Y-100689000D02*
X173422000Y-93009000D01*
X176082000Y-100689000D02*
X176082000Y-93009000D01*
X176082000Y-93009000D02*
X173422000Y-93009000D01*
G04 #@! TO.C,J8*
X176082000Y-105963000D02*
X176082000Y-107293000D01*
X174752000Y-105963000D02*
X176082000Y-105963000D01*
X173482000Y-105963000D02*
X173482000Y-108623000D01*
X173482000Y-108623000D02*
X165802000Y-108623000D01*
X173482000Y-105963000D02*
X165802000Y-105963000D01*
X165802000Y-105963000D02*
X165802000Y-108623000D01*
G04 #@! TO.C,J16*
X203140000Y-88557000D02*
X203140000Y-87227000D01*
X204470000Y-88557000D02*
X203140000Y-88557000D01*
X205740000Y-88557000D02*
X205740000Y-85897000D01*
X205740000Y-85897000D02*
X213420000Y-85897000D01*
X205740000Y-88557000D02*
X213420000Y-88557000D01*
X213420000Y-88557000D02*
X213420000Y-85897000D01*
G04 #@! TO.C,R16*
X167663000Y-125722779D02*
X167663000Y-125397221D01*
X166643000Y-125722779D02*
X166643000Y-125397221D01*
G04 #@! TO.C,R12*
X165631000Y-125722779D02*
X165631000Y-125397221D01*
X164611000Y-125722779D02*
X164611000Y-125397221D01*
G04 #@! TO.C,R10*
X174914779Y-122213500D02*
X174589221Y-122213500D01*
X174914779Y-123233500D02*
X174589221Y-123233500D01*
G04 #@! TO.C,R15*
X200751221Y-131425000D02*
X201076779Y-131425000D01*
X200751221Y-130405000D02*
X201076779Y-130405000D01*
G04 #@! TO.C,R17*
X200751221Y-129647000D02*
X201076779Y-129647000D01*
X200751221Y-128627000D02*
X201076779Y-128627000D01*
D14*
G04 #@! TO.C,M1*
X161117960Y-120165040D02*
X159472040Y-120165040D01*
X159472040Y-120165040D02*
X159472040Y-121810960D01*
X161117960Y-121810960D02*
X159472040Y-121810960D01*
X161117960Y-120165040D02*
X161117960Y-121810960D01*
D12*
G04 #@! TO.C,C9*
X211880000Y-126502000D02*
X211880000Y-126002000D01*
X212130000Y-126252000D02*
X211630000Y-126252000D01*
X211390000Y-123496437D02*
X210325563Y-122432000D01*
X211390000Y-125887563D02*
X210325563Y-126952000D01*
X211390000Y-125887563D02*
X211390000Y-125752000D01*
X211390000Y-123496437D02*
X211390000Y-123632000D01*
X210325563Y-122432000D02*
X206870000Y-122432000D01*
X210325563Y-126952000D02*
X206870000Y-126952000D01*
X206870000Y-126952000D02*
X206870000Y-125752000D01*
X206870000Y-122432000D02*
X206870000Y-123632000D01*
G04 #@! TO.C,F1*
X216602000Y-89567936D02*
X216602000Y-90772064D01*
X218422000Y-89567936D02*
X218422000Y-90772064D01*
G04 #@! TO.C,R13*
X186046000Y-113311721D02*
X186046000Y-113637279D01*
X187066000Y-113311721D02*
X187066000Y-113637279D01*
G04 #@! TO.C,R14*
X188078000Y-113311721D02*
X188078000Y-113637279D01*
X189098000Y-113311721D02*
X189098000Y-113637279D01*
G04 #@! TO.C,J13*
X188020000Y-128950000D02*
X188020000Y-130280000D01*
X186690000Y-128950000D02*
X188020000Y-128950000D01*
X185420000Y-128950000D02*
X185420000Y-131610000D01*
X185420000Y-131610000D02*
X182820000Y-131610000D01*
X185420000Y-128950000D02*
X182820000Y-128950000D01*
X182820000Y-128950000D02*
X182820000Y-131610000D01*
G04 #@! TO.C,D1*
X212582000Y-106004000D02*
X212582000Y-109854000D01*
X210582000Y-106004000D02*
X210582000Y-109854000D01*
X212582000Y-106004000D02*
X210582000Y-106004000D01*
G04 #@! TO.C,D2*
X209788000Y-106004000D02*
X209788000Y-109854000D01*
X207788000Y-106004000D02*
X207788000Y-109854000D01*
X209788000Y-106004000D02*
X207788000Y-106004000D01*
G04 #@! TO.C,C1*
X212854000Y-96428779D02*
X212854000Y-96103221D01*
X211834000Y-96428779D02*
X211834000Y-96103221D01*
G04 #@! TO.C,C2*
X205831221Y-104120000D02*
X206156779Y-104120000D01*
X205831221Y-103100000D02*
X206156779Y-103100000D01*
G04 #@! TO.C,C7*
X203799221Y-101602000D02*
X204124779Y-101602000D01*
X203799221Y-100582000D02*
X204124779Y-100582000D01*
G04 #@! TO.C,C8*
X171541221Y-90426000D02*
X171866779Y-90426000D01*
X171541221Y-89406000D02*
X171866779Y-89406000D01*
G04 #@! TO.C,C10*
X209848000Y-120660000D02*
X209848000Y-120160000D01*
X210098000Y-120410000D02*
X209598000Y-120410000D01*
X209358000Y-117654437D02*
X208293563Y-116590000D01*
X209358000Y-120045563D02*
X208293563Y-121110000D01*
X209358000Y-120045563D02*
X209358000Y-119910000D01*
X209358000Y-117654437D02*
X209358000Y-117790000D01*
X208293563Y-116590000D02*
X204838000Y-116590000D01*
X208293563Y-121110000D02*
X204838000Y-121110000D01*
X204838000Y-121110000D02*
X204838000Y-119910000D01*
X204838000Y-116590000D02*
X204838000Y-117790000D01*
G04 #@! TO.C,C11*
X185672000Y-118687221D02*
X185672000Y-119012779D01*
X186692000Y-118687221D02*
X186692000Y-119012779D01*
G04 #@! TO.C,D4*
X213460000Y-94195000D02*
X213460000Y-91910000D01*
X211990000Y-94195000D02*
X213460000Y-94195000D01*
X211990000Y-91910000D02*
X211990000Y-94195000D01*
G04 #@! TO.C,D5*
X206475000Y-94195000D02*
X206475000Y-91910000D01*
X205005000Y-94195000D02*
X206475000Y-94195000D01*
X205005000Y-91910000D02*
X205005000Y-94195000D01*
G04 #@! TO.C,J1*
X215067000Y-100385000D02*
X214617000Y-100785000D01*
X214617000Y-100785000D02*
X214617000Y-99985000D01*
X214617000Y-99985000D02*
X215067000Y-100385000D01*
X220667000Y-95235000D02*
X217867000Y-95235000D01*
X217867000Y-95235000D02*
X217867000Y-94935000D01*
X217867000Y-94935000D02*
X216317000Y-94935000D01*
X220667000Y-102935000D02*
X217867000Y-102935000D01*
X217867000Y-103235000D02*
X217867000Y-102935000D01*
X217867000Y-103235000D02*
X216317000Y-103235000D01*
G04 #@! TO.C,J3*
X161350000Y-91605000D02*
X160020000Y-91605000D01*
X161350000Y-90275000D02*
X161350000Y-91605000D01*
X161350000Y-89005000D02*
X158690000Y-89005000D01*
X158690000Y-89005000D02*
X158690000Y-86405000D01*
X161350000Y-89005000D02*
X161350000Y-86405000D01*
X161350000Y-86405000D02*
X158690000Y-86405000D01*
G04 #@! TO.C,J7*
X214150000Y-126022000D02*
X214150000Y-124692000D01*
X215480000Y-126022000D02*
X214150000Y-126022000D01*
X216750000Y-126022000D02*
X216750000Y-123362000D01*
X216750000Y-123362000D02*
X219350000Y-123362000D01*
X216750000Y-126022000D02*
X219350000Y-126022000D01*
X219350000Y-126022000D02*
X219350000Y-123362000D01*
G04 #@! TO.C,J11*
X174304000Y-128950000D02*
X174304000Y-130280000D01*
X172974000Y-128950000D02*
X174304000Y-128950000D01*
X171704000Y-128950000D02*
X171704000Y-131610000D01*
X171704000Y-131610000D02*
X169104000Y-131610000D01*
X171704000Y-128950000D02*
X169104000Y-128950000D01*
X169104000Y-128950000D02*
X169104000Y-131610000D01*
G04 #@! TO.C,J12*
X181162000Y-128950000D02*
X181162000Y-130280000D01*
X179832000Y-128950000D02*
X181162000Y-128950000D01*
X178562000Y-128950000D02*
X178562000Y-131610000D01*
X178562000Y-131610000D02*
X175962000Y-131610000D01*
X178562000Y-128950000D02*
X175962000Y-128950000D01*
X175962000Y-128950000D02*
X175962000Y-131610000D01*
G04 #@! TO.C,J14*
X194878000Y-128950000D02*
X194878000Y-130280000D01*
X193548000Y-128950000D02*
X194878000Y-128950000D01*
X192278000Y-128950000D02*
X192278000Y-131610000D01*
X192278000Y-131610000D02*
X189678000Y-131610000D01*
X192278000Y-128950000D02*
X189678000Y-128950000D01*
X189678000Y-128950000D02*
X189678000Y-131610000D01*
G04 #@! TO.C,JP1*
X168964500Y-120380000D02*
X167564500Y-120380000D01*
X166864500Y-119680000D02*
X166864500Y-119080000D01*
X167564500Y-118380000D02*
X168964500Y-118380000D01*
X169664500Y-119080000D02*
X169664500Y-119680000D01*
X169664500Y-119680000D02*
G75*
G02X168964500Y-120380000I-700000J0D01*
G01*
X168964500Y-118380000D02*
G75*
G02X169664500Y-119080000I0J-700000D01*
G01*
X166864500Y-119080000D02*
G75*
G02X167564500Y-118380000I700000J0D01*
G01*
X167564500Y-120380000D02*
G75*
G02X166864500Y-119680000I0J700000D01*
G01*
G04 #@! TO.C,JP2*
X168949500Y-117586000D02*
X167549500Y-117586000D01*
X166849500Y-116886000D02*
X166849500Y-116286000D01*
X167549500Y-115586000D02*
X168949500Y-115586000D01*
X169649500Y-116286000D02*
X169649500Y-116886000D01*
X169649500Y-116886000D02*
G75*
G02X168949500Y-117586000I-700000J0D01*
G01*
X168949500Y-115586000D02*
G75*
G02X169649500Y-116286000I0J-700000D01*
G01*
X166849500Y-116286000D02*
G75*
G02X167549500Y-115586000I700000J0D01*
G01*
X167549500Y-117586000D02*
G75*
G02X166849500Y-116886000I0J700000D01*
G01*
G04 #@! TO.C,JP3*
X168949500Y-114792000D02*
X167549500Y-114792000D01*
X166849500Y-114092000D02*
X166849500Y-113492000D01*
X167549500Y-112792000D02*
X168949500Y-112792000D01*
X169649500Y-113492000D02*
X169649500Y-114092000D01*
X169649500Y-114092000D02*
G75*
G02X168949500Y-114792000I-700000J0D01*
G01*
X168949500Y-112792000D02*
G75*
G02X169649500Y-113492000I0J-700000D01*
G01*
X166849500Y-113492000D02*
G75*
G02X167549500Y-112792000I700000J0D01*
G01*
X167549500Y-114792000D02*
G75*
G02X166849500Y-114092000I0J700000D01*
G01*
G04 #@! TO.C,R1*
X213268779Y-103376000D02*
X212943221Y-103376000D01*
X213268779Y-104396000D02*
X212943221Y-104396000D01*
G04 #@! TO.C,R2*
X210310000Y-92547221D02*
X210310000Y-92872779D01*
X211330000Y-92547221D02*
X211330000Y-92872779D01*
G04 #@! TO.C,R3*
X207135000Y-92547221D02*
X207135000Y-92872779D01*
X208155000Y-92547221D02*
X208155000Y-92872779D01*
G04 #@! TO.C,R4*
X203799221Y-96014000D02*
X204124779Y-96014000D01*
X203799221Y-94994000D02*
X204124779Y-94994000D01*
G04 #@! TO.C,R5*
X203799221Y-97792000D02*
X204124779Y-97792000D01*
X203799221Y-96772000D02*
X204124779Y-96772000D01*
G04 #@! TO.C,R6*
X175422779Y-89406000D02*
X175097221Y-89406000D01*
X175422779Y-90426000D02*
X175097221Y-90426000D01*
G04 #@! TO.C,R7*
X172188500Y-113192779D02*
X172188500Y-112867221D01*
X171168500Y-113192779D02*
X171168500Y-112867221D01*
G04 #@! TO.C,R8*
X174914779Y-120394000D02*
X174589221Y-120394000D01*
X174914779Y-121414000D02*
X174589221Y-121414000D01*
G04 #@! TO.C,R9*
X174914779Y-118616000D02*
X174589221Y-118616000D01*
X174914779Y-119636000D02*
X174589221Y-119636000D01*
G04 #@! TO.C,R11*
X196072721Y-119974000D02*
X196398279Y-119974000D01*
X196072721Y-118954000D02*
X196398279Y-118954000D01*
G04 #@! TO.C,SW1*
X177902000Y-88248000D02*
X177902000Y-88698000D01*
X171602000Y-88698000D02*
X171602000Y-88248000D01*
X177902000Y-88698000D02*
X171602000Y-88698000D01*
X171602000Y-86948000D02*
X171602000Y-84248000D01*
X177902000Y-84248000D02*
X177902000Y-86948000D01*
X171602000Y-82498000D02*
X171602000Y-82898000D01*
X177902000Y-82498000D02*
X171602000Y-82498000D01*
X177902000Y-82948000D02*
X177902000Y-82498000D01*
G04 #@! TO.C,U1*
X206678000Y-100695000D02*
X206678000Y-101170000D01*
X210898000Y-96950000D02*
X210423000Y-96950000D01*
X210898000Y-97425000D02*
X210898000Y-96950000D01*
X210898000Y-101170000D02*
X210423000Y-101170000D01*
X210898000Y-100695000D02*
X210898000Y-101170000D01*
X206678000Y-96950000D02*
X207153000Y-96950000D01*
X206678000Y-97425000D02*
X206678000Y-96950000D01*
G04 #@! TO.C,U5*
X211380000Y-115440000D02*
X217390000Y-115440000D01*
X213630000Y-122260000D02*
X217390000Y-122260000D01*
X217390000Y-115440000D02*
X217390000Y-116700000D01*
X217390000Y-122260000D02*
X217390000Y-121000000D01*
D11*
G04 #@! TO.C,U6*
X184873000Y-119165000D02*
X184873000Y-114515000D01*
X176773000Y-120240000D02*
X176773000Y-114515000D01*
X184873000Y-119165000D02*
X184848000Y-119165000D01*
X184873000Y-114515000D02*
X184848000Y-114515000D01*
X176823000Y-114515000D02*
X176848000Y-114515000D01*
G04 #@! TO.C,D3*
X197275404Y-119422380D02*
X197275404Y-118422380D01*
X197513500Y-118422380D01*
X197656357Y-118470000D01*
X197751595Y-118565238D01*
X197799214Y-118660476D01*
X197846833Y-118850952D01*
X197846833Y-118993809D01*
X197799214Y-119184285D01*
X197751595Y-119279523D01*
X197656357Y-119374761D01*
X197513500Y-119422380D01*
X197275404Y-119422380D01*
X198180166Y-118422380D02*
X198799214Y-118422380D01*
X198465880Y-118803333D01*
X198608738Y-118803333D01*
X198703976Y-118850952D01*
X198751595Y-118898571D01*
X198799214Y-118993809D01*
X198799214Y-119231904D01*
X198751595Y-119327142D01*
X198703976Y-119374761D01*
X198608738Y-119422380D01*
X198323023Y-119422380D01*
X198227785Y-119374761D01*
X198180166Y-119327142D01*
G04 #@! TO.C,R19*
X199402642Y-115758380D02*
X199069309Y-115282190D01*
X198831214Y-115758380D02*
X198831214Y-114758380D01*
X199212166Y-114758380D01*
X199307404Y-114806000D01*
X199355023Y-114853619D01*
X199402642Y-114948857D01*
X199402642Y-115091714D01*
X199355023Y-115186952D01*
X199307404Y-115234571D01*
X199212166Y-115282190D01*
X198831214Y-115282190D01*
X200355023Y-115758380D02*
X199783595Y-115758380D01*
X200069309Y-115758380D02*
X200069309Y-114758380D01*
X199974071Y-114901238D01*
X199878833Y-114996476D01*
X199783595Y-115044095D01*
X200831214Y-115758380D02*
X201021690Y-115758380D01*
X201116928Y-115710761D01*
X201164547Y-115663142D01*
X201259785Y-115520285D01*
X201307404Y-115329809D01*
X201307404Y-114948857D01*
X201259785Y-114853619D01*
X201212166Y-114806000D01*
X201116928Y-114758380D01*
X200926452Y-114758380D01*
X200831214Y-114806000D01*
X200783595Y-114853619D01*
X200735976Y-114948857D01*
X200735976Y-115186952D01*
X200783595Y-115282190D01*
X200831214Y-115329809D01*
X200926452Y-115377428D01*
X201116928Y-115377428D01*
X201212166Y-115329809D01*
X201259785Y-115282190D01*
X201307404Y-115186952D01*
G04 #@! TO.C,R18*
X195592642Y-112898380D02*
X195259309Y-112422190D01*
X195021214Y-112898380D02*
X195021214Y-111898380D01*
X195402166Y-111898380D01*
X195497404Y-111946000D01*
X195545023Y-111993619D01*
X195592642Y-112088857D01*
X195592642Y-112231714D01*
X195545023Y-112326952D01*
X195497404Y-112374571D01*
X195402166Y-112422190D01*
X195021214Y-112422190D01*
X196545023Y-112898380D02*
X195973595Y-112898380D01*
X196259309Y-112898380D02*
X196259309Y-111898380D01*
X196164071Y-112041238D01*
X196068833Y-112136476D01*
X195973595Y-112184095D01*
X197116452Y-112326952D02*
X197021214Y-112279333D01*
X196973595Y-112231714D01*
X196925976Y-112136476D01*
X196925976Y-112088857D01*
X196973595Y-111993619D01*
X197021214Y-111946000D01*
X197116452Y-111898380D01*
X197306928Y-111898380D01*
X197402166Y-111946000D01*
X197449785Y-111993619D01*
X197497404Y-112088857D01*
X197497404Y-112136476D01*
X197449785Y-112231714D01*
X197402166Y-112279333D01*
X197306928Y-112326952D01*
X197116452Y-112326952D01*
X197021214Y-112374571D01*
X196973595Y-112422190D01*
X196925976Y-112517428D01*
X196925976Y-112707904D01*
X196973595Y-112803142D01*
X197021214Y-112850761D01*
X197116452Y-112898380D01*
X197306928Y-112898380D01*
X197402166Y-112850761D01*
X197449785Y-112803142D01*
X197497404Y-112707904D01*
X197497404Y-112517428D01*
X197449785Y-112422190D01*
X197402166Y-112374571D01*
X197306928Y-112326952D01*
G04 #@! TO.C,H7*
X188214095Y-119874380D02*
X188214095Y-118874380D01*
X188214095Y-119350571D02*
X188785523Y-119350571D01*
X188785523Y-119874380D02*
X188785523Y-118874380D01*
X189166476Y-118874380D02*
X189833142Y-118874380D01*
X189404571Y-119874380D01*
G04 #@! TO.C,U4*
X201295095Y-85685380D02*
X201295095Y-86494904D01*
X201342714Y-86590142D01*
X201390333Y-86637761D01*
X201485571Y-86685380D01*
X201676047Y-86685380D01*
X201771285Y-86637761D01*
X201818904Y-86590142D01*
X201866523Y-86494904D01*
X201866523Y-85685380D01*
X202771285Y-86018714D02*
X202771285Y-86685380D01*
X202533190Y-85637761D02*
X202295095Y-86352047D01*
X202914142Y-86352047D01*
X195635571Y-100448380D02*
X195635571Y-100115047D01*
X196159380Y-99972190D02*
X196159380Y-100448380D01*
X195159380Y-100448380D01*
X195159380Y-99972190D01*
X196111761Y-99591238D02*
X196159380Y-99448380D01*
X196159380Y-99210285D01*
X196111761Y-99115047D01*
X196064142Y-99067428D01*
X195968904Y-99019809D01*
X195873666Y-99019809D01*
X195778428Y-99067428D01*
X195730809Y-99115047D01*
X195683190Y-99210285D01*
X195635571Y-99400761D01*
X195587952Y-99496000D01*
X195540333Y-99543619D01*
X195445095Y-99591238D01*
X195349857Y-99591238D01*
X195254619Y-99543619D01*
X195207000Y-99496000D01*
X195159380Y-99400761D01*
X195159380Y-99162666D01*
X195207000Y-99019809D01*
X196159380Y-98591238D02*
X195159380Y-98591238D01*
X195159380Y-98210285D01*
X195207000Y-98115047D01*
X195254619Y-98067428D01*
X195349857Y-98019809D01*
X195492714Y-98019809D01*
X195587952Y-98067428D01*
X195635571Y-98115047D01*
X195683190Y-98210285D01*
X195683190Y-98591238D01*
X195159380Y-97686476D02*
X195159380Y-97067428D01*
X195540333Y-97400761D01*
X195540333Y-97257904D01*
X195587952Y-97162666D01*
X195635571Y-97115047D01*
X195730809Y-97067428D01*
X195968904Y-97067428D01*
X196064142Y-97115047D01*
X196111761Y-97162666D01*
X196159380Y-97257904D01*
X196159380Y-97543619D01*
X196111761Y-97638857D01*
X196064142Y-97686476D01*
X195254619Y-96686476D02*
X195207000Y-96638857D01*
X195159380Y-96543619D01*
X195159380Y-96305523D01*
X195207000Y-96210285D01*
X195254619Y-96162666D01*
X195349857Y-96115047D01*
X195445095Y-96115047D01*
X195587952Y-96162666D01*
X196159380Y-96734095D01*
X196159380Y-96115047D01*
X195778428Y-95686476D02*
X195778428Y-94924571D01*
X195159380Y-94543619D02*
X196159380Y-94305523D01*
X195445095Y-94115047D01*
X196159380Y-93924571D01*
X195159380Y-93686476D01*
X196159380Y-92734095D02*
X195683190Y-93067428D01*
X196159380Y-93305523D02*
X195159380Y-93305523D01*
X195159380Y-92924571D01*
X195207000Y-92829333D01*
X195254619Y-92781714D01*
X195349857Y-92734095D01*
X195492714Y-92734095D01*
X195587952Y-92781714D01*
X195635571Y-92829333D01*
X195683190Y-92924571D01*
X195683190Y-93305523D01*
X195159380Y-92115047D02*
X195159380Y-91924571D01*
X195207000Y-91829333D01*
X195302238Y-91734095D01*
X195492714Y-91686476D01*
X195826047Y-91686476D01*
X196016523Y-91734095D01*
X196111761Y-91829333D01*
X196159380Y-91924571D01*
X196159380Y-92115047D01*
X196111761Y-92210285D01*
X196016523Y-92305523D01*
X195826047Y-92353142D01*
X195492714Y-92353142D01*
X195302238Y-92305523D01*
X195207000Y-92210285D01*
X195159380Y-92115047D01*
X195159380Y-91067428D02*
X195159380Y-90876952D01*
X195207000Y-90781714D01*
X195302238Y-90686476D01*
X195492714Y-90638857D01*
X195826047Y-90638857D01*
X196016523Y-90686476D01*
X196111761Y-90781714D01*
X196159380Y-90876952D01*
X196159380Y-91067428D01*
X196111761Y-91162666D01*
X196016523Y-91257904D01*
X195826047Y-91305523D01*
X195492714Y-91305523D01*
X195302238Y-91257904D01*
X195207000Y-91162666D01*
X195159380Y-91067428D01*
X196159380Y-90210285D02*
X195159380Y-90210285D01*
X195873666Y-89876952D01*
X195159380Y-89543619D01*
X196159380Y-89543619D01*
X197286571Y-102710428D02*
X197286571Y-102377095D01*
X197810380Y-102234238D02*
X197810380Y-102710428D01*
X196810380Y-102710428D01*
X196810380Y-102234238D01*
X197762761Y-101853285D02*
X197810380Y-101758047D01*
X197810380Y-101567571D01*
X197762761Y-101472333D01*
X197667523Y-101424714D01*
X197619904Y-101424714D01*
X197524666Y-101472333D01*
X197477047Y-101567571D01*
X197477047Y-101710428D01*
X197429428Y-101805666D01*
X197334190Y-101853285D01*
X197286571Y-101853285D01*
X197191333Y-101805666D01*
X197143714Y-101710428D01*
X197143714Y-101567571D01*
X197191333Y-101472333D01*
X197143714Y-100996142D02*
X198143714Y-100996142D01*
X197191333Y-100996142D02*
X197143714Y-100900904D01*
X197143714Y-100710428D01*
X197191333Y-100615190D01*
X197238952Y-100567571D01*
X197334190Y-100519952D01*
X197619904Y-100519952D01*
X197715142Y-100567571D01*
X197762761Y-100615190D01*
X197810380Y-100710428D01*
X197810380Y-100900904D01*
X197762761Y-100996142D01*
X197810380Y-100091380D02*
X197143714Y-100091380D01*
X197334190Y-100091380D02*
X197238952Y-100043761D01*
X197191333Y-99996142D01*
X197143714Y-99900904D01*
X197143714Y-99805666D01*
X197762761Y-99091380D02*
X197810380Y-99186619D01*
X197810380Y-99377095D01*
X197762761Y-99472333D01*
X197667523Y-99519952D01*
X197286571Y-99519952D01*
X197191333Y-99472333D01*
X197143714Y-99377095D01*
X197143714Y-99186619D01*
X197191333Y-99091380D01*
X197286571Y-99043761D01*
X197381809Y-99043761D01*
X197477047Y-99519952D01*
X197762761Y-98662809D02*
X197810380Y-98567571D01*
X197810380Y-98377095D01*
X197762761Y-98281857D01*
X197667523Y-98234238D01*
X197619904Y-98234238D01*
X197524666Y-98281857D01*
X197477047Y-98377095D01*
X197477047Y-98519952D01*
X197429428Y-98615190D01*
X197334190Y-98662809D01*
X197286571Y-98662809D01*
X197191333Y-98615190D01*
X197143714Y-98519952D01*
X197143714Y-98377095D01*
X197191333Y-98281857D01*
X197762761Y-97853285D02*
X197810380Y-97758047D01*
X197810380Y-97567571D01*
X197762761Y-97472333D01*
X197667523Y-97424714D01*
X197619904Y-97424714D01*
X197524666Y-97472333D01*
X197477047Y-97567571D01*
X197477047Y-97710428D01*
X197429428Y-97805666D01*
X197334190Y-97853285D01*
X197286571Y-97853285D01*
X197191333Y-97805666D01*
X197143714Y-97710428D01*
X197143714Y-97567571D01*
X197191333Y-97472333D01*
X197810380Y-96996142D02*
X197143714Y-96996142D01*
X196810380Y-96996142D02*
X196858000Y-97043761D01*
X196905619Y-96996142D01*
X196858000Y-96948523D01*
X196810380Y-96996142D01*
X196905619Y-96996142D01*
X197143714Y-96662809D02*
X197143714Y-96281857D01*
X197810380Y-96519952D02*
X196953238Y-96519952D01*
X196858000Y-96472333D01*
X196810380Y-96377095D01*
X196810380Y-96281857D01*
X197762761Y-95234238D02*
X197810380Y-95091380D01*
X197810380Y-94853285D01*
X197762761Y-94758047D01*
X197715142Y-94710428D01*
X197619904Y-94662809D01*
X197524666Y-94662809D01*
X197429428Y-94710428D01*
X197381809Y-94758047D01*
X197334190Y-94853285D01*
X197286571Y-95043761D01*
X197238952Y-95139000D01*
X197191333Y-95186619D01*
X197096095Y-95234238D01*
X197000857Y-95234238D01*
X196905619Y-95186619D01*
X196858000Y-95139000D01*
X196810380Y-95043761D01*
X196810380Y-94805666D01*
X196858000Y-94662809D01*
X197143714Y-94329476D02*
X197810380Y-94091380D01*
X197143714Y-93853285D02*
X197810380Y-94091380D01*
X198048476Y-94186619D01*
X198096095Y-94234238D01*
X198143714Y-94329476D01*
X197762761Y-93519952D02*
X197810380Y-93424714D01*
X197810380Y-93234238D01*
X197762761Y-93139000D01*
X197667523Y-93091380D01*
X197619904Y-93091380D01*
X197524666Y-93139000D01*
X197477047Y-93234238D01*
X197477047Y-93377095D01*
X197429428Y-93472333D01*
X197334190Y-93519952D01*
X197286571Y-93519952D01*
X197191333Y-93472333D01*
X197143714Y-93377095D01*
X197143714Y-93234238D01*
X197191333Y-93139000D01*
X197143714Y-92805666D02*
X197143714Y-92424714D01*
X196810380Y-92662809D02*
X197667523Y-92662809D01*
X197762761Y-92615190D01*
X197810380Y-92519952D01*
X197810380Y-92424714D01*
X197762761Y-91710428D02*
X197810380Y-91805666D01*
X197810380Y-91996142D01*
X197762761Y-92091380D01*
X197667523Y-92139000D01*
X197286571Y-92139000D01*
X197191333Y-92091380D01*
X197143714Y-91996142D01*
X197143714Y-91805666D01*
X197191333Y-91710428D01*
X197286571Y-91662809D01*
X197381809Y-91662809D01*
X197477047Y-92139000D01*
X197810380Y-91234238D02*
X197143714Y-91234238D01*
X197238952Y-91234238D02*
X197191333Y-91186619D01*
X197143714Y-91091380D01*
X197143714Y-90948523D01*
X197191333Y-90853285D01*
X197286571Y-90805666D01*
X197810380Y-90805666D01*
X197286571Y-90805666D02*
X197191333Y-90758047D01*
X197143714Y-90662809D01*
X197143714Y-90519952D01*
X197191333Y-90424714D01*
X197286571Y-90377095D01*
X197810380Y-90377095D01*
X197762761Y-89948523D02*
X197810380Y-89853285D01*
X197810380Y-89662809D01*
X197762761Y-89567571D01*
X197667523Y-89519952D01*
X197619904Y-89519952D01*
X197524666Y-89567571D01*
X197477047Y-89662809D01*
X197477047Y-89805666D01*
X197429428Y-89900904D01*
X197334190Y-89948523D01*
X197286571Y-89948523D01*
X197191333Y-89900904D01*
X197143714Y-89805666D01*
X197143714Y-89662809D01*
X197191333Y-89567571D01*
G04 #@! TO.C,J9*
X201592380Y-83115333D02*
X202306666Y-83115333D01*
X202449523Y-83162952D01*
X202544761Y-83258190D01*
X202592380Y-83401047D01*
X202592380Y-83496285D01*
X202592380Y-82591523D02*
X202592380Y-82401047D01*
X202544761Y-82305809D01*
X202497142Y-82258190D01*
X202354285Y-82162952D01*
X202163809Y-82115333D01*
X201782857Y-82115333D01*
X201687619Y-82162952D01*
X201640000Y-82210571D01*
X201592380Y-82305809D01*
X201592380Y-82496285D01*
X201640000Y-82591523D01*
X201687619Y-82639142D01*
X201782857Y-82686761D01*
X202020952Y-82686761D01*
X202116190Y-82639142D01*
X202163809Y-82591523D01*
X202211428Y-82496285D01*
X202211428Y-82305809D01*
X202163809Y-82210571D01*
X202116190Y-82162952D01*
X202020952Y-82115333D01*
G04 #@! TO.C,J10*
X203660476Y-103526380D02*
X203660476Y-104240666D01*
X203612857Y-104383523D01*
X203517619Y-104478761D01*
X203374761Y-104526380D01*
X203279523Y-104526380D01*
X204660476Y-104526380D02*
X204089047Y-104526380D01*
X204374761Y-104526380D02*
X204374761Y-103526380D01*
X204279523Y-103669238D01*
X204184285Y-103764476D01*
X204089047Y-103812095D01*
X205279523Y-103526380D02*
X205374761Y-103526380D01*
X205470000Y-103574000D01*
X205517619Y-103621619D01*
X205565238Y-103716857D01*
X205612857Y-103907333D01*
X205612857Y-104145428D01*
X205565238Y-104335904D01*
X205517619Y-104431142D01*
X205470000Y-104478761D01*
X205374761Y-104526380D01*
X205279523Y-104526380D01*
X205184285Y-104478761D01*
X205136666Y-104431142D01*
X205089047Y-104335904D01*
X205041428Y-104145428D01*
X205041428Y-103907333D01*
X205089047Y-103716857D01*
X205136666Y-103621619D01*
X205184285Y-103574000D01*
X205279523Y-103526380D01*
G04 #@! TO.C,J15*
X201592380Y-113817523D02*
X202306666Y-113817523D01*
X202449523Y-113865142D01*
X202544761Y-113960380D01*
X202592380Y-114103238D01*
X202592380Y-114198476D01*
X202592380Y-112817523D02*
X202592380Y-113388952D01*
X202592380Y-113103238D02*
X201592380Y-113103238D01*
X201735238Y-113198476D01*
X201830476Y-113293714D01*
X201878095Y-113388952D01*
X201592380Y-111912761D02*
X201592380Y-112388952D01*
X202068571Y-112436571D01*
X202020952Y-112388952D01*
X201973333Y-112293714D01*
X201973333Y-112055619D01*
X202020952Y-111960380D01*
X202068571Y-111912761D01*
X202163809Y-111865142D01*
X202401904Y-111865142D01*
X202497142Y-111912761D01*
X202544761Y-111960380D01*
X202592380Y-112055619D01*
X202592380Y-112293714D01*
X202544761Y-112388952D01*
X202497142Y-112436571D01*
G04 #@! TO.C,J4*
X174418666Y-103741380D02*
X174418666Y-104455666D01*
X174371047Y-104598523D01*
X174275809Y-104693761D01*
X174132952Y-104741380D01*
X174037714Y-104741380D01*
X175323428Y-104074714D02*
X175323428Y-104741380D01*
X175085333Y-103693761D02*
X174847238Y-104408047D01*
X175466285Y-104408047D01*
G04 #@! TO.C,J8*
X176534380Y-107626333D02*
X177248666Y-107626333D01*
X177391523Y-107673952D01*
X177486761Y-107769190D01*
X177534380Y-107912047D01*
X177534380Y-108007285D01*
X176962952Y-107007285D02*
X176915333Y-107102523D01*
X176867714Y-107150142D01*
X176772476Y-107197761D01*
X176724857Y-107197761D01*
X176629619Y-107150142D01*
X176582000Y-107102523D01*
X176534380Y-107007285D01*
X176534380Y-106816809D01*
X176582000Y-106721571D01*
X176629619Y-106673952D01*
X176724857Y-106626333D01*
X176772476Y-106626333D01*
X176867714Y-106673952D01*
X176915333Y-106721571D01*
X176962952Y-106816809D01*
X176962952Y-107007285D01*
X177010571Y-107102523D01*
X177058190Y-107150142D01*
X177153428Y-107197761D01*
X177343904Y-107197761D01*
X177439142Y-107150142D01*
X177486761Y-107102523D01*
X177534380Y-107007285D01*
X177534380Y-106816809D01*
X177486761Y-106721571D01*
X177439142Y-106673952D01*
X177343904Y-106626333D01*
X177153428Y-106626333D01*
X177058190Y-106673952D01*
X177010571Y-106721571D01*
X176962952Y-106816809D01*
G04 #@! TO.C,J16*
X201592380Y-88036523D02*
X202306666Y-88036523D01*
X202449523Y-88084142D01*
X202544761Y-88179380D01*
X202592380Y-88322238D01*
X202592380Y-88417476D01*
X202592380Y-87036523D02*
X202592380Y-87607952D01*
X202592380Y-87322238D02*
X201592380Y-87322238D01*
X201735238Y-87417476D01*
X201830476Y-87512714D01*
X201878095Y-87607952D01*
X201592380Y-86179380D02*
X201592380Y-86369857D01*
X201640000Y-86465095D01*
X201687619Y-86512714D01*
X201830476Y-86607952D01*
X202020952Y-86655571D01*
X202401904Y-86655571D01*
X202497142Y-86607952D01*
X202544761Y-86560333D01*
X202592380Y-86465095D01*
X202592380Y-86274619D01*
X202544761Y-86179380D01*
X202497142Y-86131761D01*
X202401904Y-86084142D01*
X202163809Y-86084142D01*
X202068571Y-86131761D01*
X202020952Y-86179380D01*
X201973333Y-86274619D01*
X201973333Y-86465095D01*
X202020952Y-86560333D01*
X202068571Y-86607952D01*
X202163809Y-86655571D01*
G04 #@! TO.C,R16*
X166175380Y-126202857D02*
X165699190Y-126536190D01*
X166175380Y-126774285D02*
X165175380Y-126774285D01*
X165175380Y-126393333D01*
X165223000Y-126298095D01*
X165270619Y-126250476D01*
X165365857Y-126202857D01*
X165508714Y-126202857D01*
X165603952Y-126250476D01*
X165651571Y-126298095D01*
X165699190Y-126393333D01*
X165699190Y-126774285D01*
X166175380Y-125250476D02*
X166175380Y-125821904D01*
X166175380Y-125536190D02*
X165175380Y-125536190D01*
X165318238Y-125631428D01*
X165413476Y-125726666D01*
X165461095Y-125821904D01*
X165175380Y-124393333D02*
X165175380Y-124583809D01*
X165223000Y-124679047D01*
X165270619Y-124726666D01*
X165413476Y-124821904D01*
X165603952Y-124869523D01*
X165984904Y-124869523D01*
X166080142Y-124821904D01*
X166127761Y-124774285D01*
X166175380Y-124679047D01*
X166175380Y-124488571D01*
X166127761Y-124393333D01*
X166080142Y-124345714D01*
X165984904Y-124298095D01*
X165746809Y-124298095D01*
X165651571Y-124345714D01*
X165603952Y-124393333D01*
X165556333Y-124488571D01*
X165556333Y-124679047D01*
X165603952Y-124774285D01*
X165651571Y-124821904D01*
X165746809Y-124869523D01*
G04 #@! TO.C,R12*
X164143380Y-126202857D02*
X163667190Y-126536190D01*
X164143380Y-126774285D02*
X163143380Y-126774285D01*
X163143380Y-126393333D01*
X163191000Y-126298095D01*
X163238619Y-126250476D01*
X163333857Y-126202857D01*
X163476714Y-126202857D01*
X163571952Y-126250476D01*
X163619571Y-126298095D01*
X163667190Y-126393333D01*
X163667190Y-126774285D01*
X164143380Y-125250476D02*
X164143380Y-125821904D01*
X164143380Y-125536190D02*
X163143380Y-125536190D01*
X163286238Y-125631428D01*
X163381476Y-125726666D01*
X163429095Y-125821904D01*
X163238619Y-124869523D02*
X163191000Y-124821904D01*
X163143380Y-124726666D01*
X163143380Y-124488571D01*
X163191000Y-124393333D01*
X163238619Y-124345714D01*
X163333857Y-124298095D01*
X163429095Y-124298095D01*
X163571952Y-124345714D01*
X164143380Y-124917142D01*
X164143380Y-124298095D01*
G04 #@! TO.C,R10*
X174109142Y-124605880D02*
X173775809Y-124129690D01*
X173537714Y-124605880D02*
X173537714Y-123605880D01*
X173918666Y-123605880D01*
X174013904Y-123653500D01*
X174061523Y-123701119D01*
X174109142Y-123796357D01*
X174109142Y-123939214D01*
X174061523Y-124034452D01*
X174013904Y-124082071D01*
X173918666Y-124129690D01*
X173537714Y-124129690D01*
X175061523Y-124605880D02*
X174490095Y-124605880D01*
X174775809Y-124605880D02*
X174775809Y-123605880D01*
X174680571Y-123748738D01*
X174585333Y-123843976D01*
X174490095Y-123891595D01*
X175680571Y-123605880D02*
X175775809Y-123605880D01*
X175871047Y-123653500D01*
X175918666Y-123701119D01*
X175966285Y-123796357D01*
X176013904Y-123986833D01*
X176013904Y-124224928D01*
X175966285Y-124415404D01*
X175918666Y-124510642D01*
X175871047Y-124558261D01*
X175775809Y-124605880D01*
X175680571Y-124605880D01*
X175585333Y-124558261D01*
X175537714Y-124510642D01*
X175490095Y-124415404D01*
X175442476Y-124224928D01*
X175442476Y-123986833D01*
X175490095Y-123796357D01*
X175537714Y-123701119D01*
X175585333Y-123653500D01*
X175680571Y-123605880D01*
G04 #@! TO.C,R15*
X200271142Y-129937380D02*
X199937809Y-129461190D01*
X199699714Y-129937380D02*
X199699714Y-128937380D01*
X200080666Y-128937380D01*
X200175904Y-128985000D01*
X200223523Y-129032619D01*
X200271142Y-129127857D01*
X200271142Y-129270714D01*
X200223523Y-129365952D01*
X200175904Y-129413571D01*
X200080666Y-129461190D01*
X199699714Y-129461190D01*
X201223523Y-129937380D02*
X200652095Y-129937380D01*
X200937809Y-129937380D02*
X200937809Y-128937380D01*
X200842571Y-129080238D01*
X200747333Y-129175476D01*
X200652095Y-129223095D01*
X202128285Y-128937380D02*
X201652095Y-128937380D01*
X201604476Y-129413571D01*
X201652095Y-129365952D01*
X201747333Y-129318333D01*
X201985428Y-129318333D01*
X202080666Y-129365952D01*
X202128285Y-129413571D01*
X202175904Y-129508809D01*
X202175904Y-129746904D01*
X202128285Y-129842142D01*
X202080666Y-129889761D01*
X201985428Y-129937380D01*
X201747333Y-129937380D01*
X201652095Y-129889761D01*
X201604476Y-129842142D01*
G04 #@! TO.C,R17*
X200271142Y-128159380D02*
X199937809Y-127683190D01*
X199699714Y-128159380D02*
X199699714Y-127159380D01*
X200080666Y-127159380D01*
X200175904Y-127207000D01*
X200223523Y-127254619D01*
X200271142Y-127349857D01*
X200271142Y-127492714D01*
X200223523Y-127587952D01*
X200175904Y-127635571D01*
X200080666Y-127683190D01*
X199699714Y-127683190D01*
X201223523Y-128159380D02*
X200652095Y-128159380D01*
X200937809Y-128159380D02*
X200937809Y-127159380D01*
X200842571Y-127302238D01*
X200747333Y-127397476D01*
X200652095Y-127445095D01*
X201556857Y-127159380D02*
X202223523Y-127159380D01*
X201794952Y-128159380D01*
G04 #@! TO.C,U2*
X196450857Y-129318428D02*
X196450857Y-130552142D01*
X196523428Y-130697285D01*
X196596000Y-130769857D01*
X196741142Y-130842428D01*
X197031428Y-130842428D01*
X197176571Y-130769857D01*
X197249142Y-130697285D01*
X197321714Y-130552142D01*
X197321714Y-129318428D01*
X197974857Y-129463571D02*
X198047428Y-129391000D01*
X198192571Y-129318428D01*
X198555428Y-129318428D01*
X198700571Y-129391000D01*
X198773142Y-129463571D01*
X198845714Y-129608714D01*
X198845714Y-129753857D01*
X198773142Y-129971571D01*
X197902285Y-130842428D01*
X198845714Y-130842428D01*
X193366571Y-129318428D02*
X194237428Y-129318428D01*
X193802000Y-130842428D02*
X193802000Y-129318428D01*
X194745428Y-130842428D02*
X194745428Y-129318428D01*
X195253428Y-130407000D01*
X195761428Y-129318428D01*
X195761428Y-130842428D01*
X196487142Y-130842428D02*
X196487142Y-129318428D01*
X197067714Y-129318428D01*
X197212857Y-129391000D01*
X197285428Y-129463571D01*
X197358000Y-129608714D01*
X197358000Y-129826428D01*
X197285428Y-129971571D01*
X197212857Y-130044142D01*
X197067714Y-130116714D01*
X196487142Y-130116714D01*
X198809428Y-130842428D02*
X197938571Y-130842428D01*
X198374000Y-130842428D02*
X198374000Y-129318428D01*
X198228857Y-129536142D01*
X198083714Y-129681285D01*
X197938571Y-129753857D01*
X199752857Y-129318428D02*
X199898000Y-129318428D01*
X200043142Y-129391000D01*
X200115714Y-129463571D01*
X200188285Y-129608714D01*
X200260857Y-129899000D01*
X200260857Y-130261857D01*
X200188285Y-130552142D01*
X200115714Y-130697285D01*
X200043142Y-130769857D01*
X199898000Y-130842428D01*
X199752857Y-130842428D01*
X199607714Y-130769857D01*
X199535142Y-130697285D01*
X199462571Y-130552142D01*
X199390000Y-130261857D01*
X199390000Y-129899000D01*
X199462571Y-129608714D01*
X199535142Y-129463571D01*
X199607714Y-129391000D01*
X199752857Y-129318428D01*
X200841428Y-129463571D02*
X200914000Y-129391000D01*
X201059142Y-129318428D01*
X201422000Y-129318428D01*
X201567142Y-129391000D01*
X201639714Y-129463571D01*
X201712285Y-129608714D01*
X201712285Y-129753857D01*
X201639714Y-129971571D01*
X200768857Y-130842428D01*
X201712285Y-130842428D01*
G04 #@! TO.C,C9*
X208963333Y-128249142D02*
X208915714Y-128296761D01*
X208772857Y-128344380D01*
X208677619Y-128344380D01*
X208534761Y-128296761D01*
X208439523Y-128201523D01*
X208391904Y-128106285D01*
X208344285Y-127915809D01*
X208344285Y-127772952D01*
X208391904Y-127582476D01*
X208439523Y-127487238D01*
X208534761Y-127392000D01*
X208677619Y-127344380D01*
X208772857Y-127344380D01*
X208915714Y-127392000D01*
X208963333Y-127439619D01*
X209439523Y-128344380D02*
X209630000Y-128344380D01*
X209725238Y-128296761D01*
X209772857Y-128249142D01*
X209868095Y-128106285D01*
X209915714Y-127915809D01*
X209915714Y-127534857D01*
X209868095Y-127439619D01*
X209820476Y-127392000D01*
X209725238Y-127344380D01*
X209534761Y-127344380D01*
X209439523Y-127392000D01*
X209391904Y-127439619D01*
X209344285Y-127534857D01*
X209344285Y-127772952D01*
X209391904Y-127868190D01*
X209439523Y-127915809D01*
X209534761Y-127963428D01*
X209725238Y-127963428D01*
X209820476Y-127915809D01*
X209868095Y-127868190D01*
X209915714Y-127772952D01*
G04 #@! TO.C,F1*
X219260571Y-90503333D02*
X219260571Y-90836666D01*
X219784380Y-90836666D02*
X218784380Y-90836666D01*
X218784380Y-90360476D01*
X219784380Y-89455714D02*
X219784380Y-90027142D01*
X219784380Y-89741428D02*
X218784380Y-89741428D01*
X218927238Y-89836666D01*
X219022476Y-89931904D01*
X219070095Y-90027142D01*
G04 #@! TO.C,H4*
X209726095Y-120736880D02*
X209726095Y-119736880D01*
X209726095Y-120213071D02*
X210297523Y-120213071D01*
X210297523Y-120736880D02*
X210297523Y-119736880D01*
X211202285Y-120070214D02*
X211202285Y-120736880D01*
X210964190Y-119689261D02*
X210726095Y-120403547D01*
X211345142Y-120403547D01*
G04 #@! TO.C,R13*
X188438380Y-114117357D02*
X187962190Y-114450690D01*
X188438380Y-114688785D02*
X187438380Y-114688785D01*
X187438380Y-114307833D01*
X187486000Y-114212595D01*
X187533619Y-114164976D01*
X187628857Y-114117357D01*
X187771714Y-114117357D01*
X187866952Y-114164976D01*
X187914571Y-114212595D01*
X187962190Y-114307833D01*
X187962190Y-114688785D01*
X188438380Y-113164976D02*
X188438380Y-113736404D01*
X188438380Y-113450690D02*
X187438380Y-113450690D01*
X187581238Y-113545928D01*
X187676476Y-113641166D01*
X187724095Y-113736404D01*
X187438380Y-112831642D02*
X187438380Y-112212595D01*
X187819333Y-112545928D01*
X187819333Y-112403071D01*
X187866952Y-112307833D01*
X187914571Y-112260214D01*
X188009809Y-112212595D01*
X188247904Y-112212595D01*
X188343142Y-112260214D01*
X188390761Y-112307833D01*
X188438380Y-112403071D01*
X188438380Y-112688785D01*
X188390761Y-112784023D01*
X188343142Y-112831642D01*
G04 #@! TO.C,R14*
X190470380Y-114117357D02*
X189994190Y-114450690D01*
X190470380Y-114688785D02*
X189470380Y-114688785D01*
X189470380Y-114307833D01*
X189518000Y-114212595D01*
X189565619Y-114164976D01*
X189660857Y-114117357D01*
X189803714Y-114117357D01*
X189898952Y-114164976D01*
X189946571Y-114212595D01*
X189994190Y-114307833D01*
X189994190Y-114688785D01*
X190470380Y-113164976D02*
X190470380Y-113736404D01*
X190470380Y-113450690D02*
X189470380Y-113450690D01*
X189613238Y-113545928D01*
X189708476Y-113641166D01*
X189756095Y-113736404D01*
X189803714Y-112307833D02*
X190470380Y-112307833D01*
X189422761Y-112545928D02*
X190137047Y-112784023D01*
X190137047Y-112164976D01*
G04 #@! TO.C,J13*
X181062380Y-130073523D02*
X181776666Y-130073523D01*
X181919523Y-130121142D01*
X182014761Y-130216380D01*
X182062380Y-130359238D01*
X182062380Y-130454476D01*
X182062380Y-129073523D02*
X182062380Y-129644952D01*
X182062380Y-129359238D02*
X181062380Y-129359238D01*
X181205238Y-129454476D01*
X181300476Y-129549714D01*
X181348095Y-129644952D01*
X181062380Y-128740190D02*
X181062380Y-128121142D01*
X181443333Y-128454476D01*
X181443333Y-128311619D01*
X181490952Y-128216380D01*
X181538571Y-128168761D01*
X181633809Y-128121142D01*
X181871904Y-128121142D01*
X181967142Y-128168761D01*
X182014761Y-128216380D01*
X182062380Y-128311619D01*
X182062380Y-128597333D01*
X182014761Y-128692571D01*
X181967142Y-128740190D01*
G04 #@! TO.C,H1*
X159258095Y-103732380D02*
X159258095Y-102732380D01*
X159258095Y-103208571D02*
X159829523Y-103208571D01*
X159829523Y-103732380D02*
X159829523Y-102732380D01*
X160829523Y-103732380D02*
X160258095Y-103732380D01*
X160543809Y-103732380D02*
X160543809Y-102732380D01*
X160448571Y-102875238D01*
X160353333Y-102970476D01*
X160258095Y-103018095D01*
G04 #@! TO.C,H6*
X217258095Y-103732380D02*
X217258095Y-102732380D01*
X217258095Y-103208571D02*
X217829523Y-103208571D01*
X217829523Y-103732380D02*
X217829523Y-102732380D01*
X218734285Y-102732380D02*
X218543809Y-102732380D01*
X218448571Y-102780000D01*
X218400952Y-102827619D01*
X218305714Y-102970476D01*
X218258095Y-103160952D01*
X218258095Y-103541904D01*
X218305714Y-103637142D01*
X218353333Y-103684761D01*
X218448571Y-103732380D01*
X218639047Y-103732380D01*
X218734285Y-103684761D01*
X218781904Y-103637142D01*
X218829523Y-103541904D01*
X218829523Y-103303809D01*
X218781904Y-103208571D01*
X218734285Y-103160952D01*
X218639047Y-103113333D01*
X218448571Y-103113333D01*
X218353333Y-103160952D01*
X218305714Y-103208571D01*
X218258095Y-103303809D01*
G04 #@! TO.C,H3*
X217258095Y-77732380D02*
X217258095Y-76732380D01*
X217258095Y-77208571D02*
X217829523Y-77208571D01*
X217829523Y-77732380D02*
X217829523Y-76732380D01*
X218210476Y-76732380D02*
X218829523Y-76732380D01*
X218496190Y-77113333D01*
X218639047Y-77113333D01*
X218734285Y-77160952D01*
X218781904Y-77208571D01*
X218829523Y-77303809D01*
X218829523Y-77541904D01*
X218781904Y-77637142D01*
X218734285Y-77684761D01*
X218639047Y-77732380D01*
X218353333Y-77732380D01*
X218258095Y-77684761D01*
X218210476Y-77637142D01*
G04 #@! TO.C,H2*
X159258095Y-77732380D02*
X159258095Y-76732380D01*
X159258095Y-77208571D02*
X159829523Y-77208571D01*
X159829523Y-77732380D02*
X159829523Y-76732380D01*
X160258095Y-76827619D02*
X160305714Y-76780000D01*
X160400952Y-76732380D01*
X160639047Y-76732380D01*
X160734285Y-76780000D01*
X160781904Y-76827619D01*
X160829523Y-76922857D01*
X160829523Y-77018095D01*
X160781904Y-77160952D01*
X160210476Y-77732380D01*
X160829523Y-77732380D01*
G04 #@! TO.C,H5*
X159258095Y-126732380D02*
X159258095Y-125732380D01*
X159258095Y-126208571D02*
X159829523Y-126208571D01*
X159829523Y-126732380D02*
X159829523Y-125732380D01*
X160781904Y-125732380D02*
X160305714Y-125732380D01*
X160258095Y-126208571D01*
X160305714Y-126160952D01*
X160400952Y-126113333D01*
X160639047Y-126113333D01*
X160734285Y-126160952D01*
X160781904Y-126208571D01*
X160829523Y-126303809D01*
X160829523Y-126541904D01*
X160781904Y-126637142D01*
X160734285Y-126684761D01*
X160639047Y-126732380D01*
X160400952Y-126732380D01*
X160305714Y-126684761D01*
X160258095Y-126637142D01*
G04 #@! TO.C,D1*
X213939380Y-108815095D02*
X212939380Y-108815095D01*
X212939380Y-108577000D01*
X212987000Y-108434142D01*
X213082238Y-108338904D01*
X213177476Y-108291285D01*
X213367952Y-108243666D01*
X213510809Y-108243666D01*
X213701285Y-108291285D01*
X213796523Y-108338904D01*
X213891761Y-108434142D01*
X213939380Y-108577000D01*
X213939380Y-108815095D01*
X213939380Y-107291285D02*
X213939380Y-107862714D01*
X213939380Y-107577000D02*
X212939380Y-107577000D01*
X213082238Y-107672238D01*
X213177476Y-107767476D01*
X213225095Y-107862714D01*
G04 #@! TO.C,D2*
X211145380Y-108815095D02*
X210145380Y-108815095D01*
X210145380Y-108577000D01*
X210193000Y-108434142D01*
X210288238Y-108338904D01*
X210383476Y-108291285D01*
X210573952Y-108243666D01*
X210716809Y-108243666D01*
X210907285Y-108291285D01*
X211002523Y-108338904D01*
X211097761Y-108434142D01*
X211145380Y-108577000D01*
X211145380Y-108815095D01*
X210240619Y-107862714D02*
X210193000Y-107815095D01*
X210145380Y-107719857D01*
X210145380Y-107481761D01*
X210193000Y-107386523D01*
X210240619Y-107338904D01*
X210335857Y-107291285D01*
X210431095Y-107291285D01*
X210573952Y-107338904D01*
X211145380Y-107910333D01*
X211145380Y-107291285D01*
G04 #@! TO.C,C1*
X214225142Y-96432666D02*
X214272761Y-96480285D01*
X214320380Y-96623142D01*
X214320380Y-96718380D01*
X214272761Y-96861238D01*
X214177523Y-96956476D01*
X214082285Y-97004095D01*
X213891809Y-97051714D01*
X213748952Y-97051714D01*
X213558476Y-97004095D01*
X213463238Y-96956476D01*
X213368000Y-96861238D01*
X213320380Y-96718380D01*
X213320380Y-96623142D01*
X213368000Y-96480285D01*
X213415619Y-96432666D01*
X214320380Y-95480285D02*
X214320380Y-96051714D01*
X214320380Y-95766000D02*
X213320380Y-95766000D01*
X213463238Y-95861238D01*
X213558476Y-95956476D01*
X213606095Y-96051714D01*
G04 #@! TO.C,C2*
X205827333Y-102537142D02*
X205779714Y-102584761D01*
X205636857Y-102632380D01*
X205541619Y-102632380D01*
X205398761Y-102584761D01*
X205303523Y-102489523D01*
X205255904Y-102394285D01*
X205208285Y-102203809D01*
X205208285Y-102060952D01*
X205255904Y-101870476D01*
X205303523Y-101775238D01*
X205398761Y-101680000D01*
X205541619Y-101632380D01*
X205636857Y-101632380D01*
X205779714Y-101680000D01*
X205827333Y-101727619D01*
X206208285Y-101727619D02*
X206255904Y-101680000D01*
X206351142Y-101632380D01*
X206589238Y-101632380D01*
X206684476Y-101680000D01*
X206732095Y-101727619D01*
X206779714Y-101822857D01*
X206779714Y-101918095D01*
X206732095Y-102060952D01*
X206160666Y-102632380D01*
X206779714Y-102632380D01*
G04 #@! TO.C,C7*
X204049333Y-102973142D02*
X204001714Y-103020761D01*
X203858857Y-103068380D01*
X203763619Y-103068380D01*
X203620761Y-103020761D01*
X203525523Y-102925523D01*
X203477904Y-102830285D01*
X203430285Y-102639809D01*
X203430285Y-102496952D01*
X203477904Y-102306476D01*
X203525523Y-102211238D01*
X203620761Y-102116000D01*
X203763619Y-102068380D01*
X203858857Y-102068380D01*
X204001714Y-102116000D01*
X204049333Y-102163619D01*
X204382666Y-102068380D02*
X205049333Y-102068380D01*
X204620761Y-103068380D01*
G04 #@! TO.C,C8*
X171537333Y-91797142D02*
X171489714Y-91844761D01*
X171346857Y-91892380D01*
X171251619Y-91892380D01*
X171108761Y-91844761D01*
X171013523Y-91749523D01*
X170965904Y-91654285D01*
X170918285Y-91463809D01*
X170918285Y-91320952D01*
X170965904Y-91130476D01*
X171013523Y-91035238D01*
X171108761Y-90940000D01*
X171251619Y-90892380D01*
X171346857Y-90892380D01*
X171489714Y-90940000D01*
X171537333Y-90987619D01*
X172108761Y-91320952D02*
X172013523Y-91273333D01*
X171965904Y-91225714D01*
X171918285Y-91130476D01*
X171918285Y-91082857D01*
X171965904Y-90987619D01*
X172013523Y-90940000D01*
X172108761Y-90892380D01*
X172299238Y-90892380D01*
X172394476Y-90940000D01*
X172442095Y-90987619D01*
X172489714Y-91082857D01*
X172489714Y-91130476D01*
X172442095Y-91225714D01*
X172394476Y-91273333D01*
X172299238Y-91320952D01*
X172108761Y-91320952D01*
X172013523Y-91368571D01*
X171965904Y-91416190D01*
X171918285Y-91511428D01*
X171918285Y-91701904D01*
X171965904Y-91797142D01*
X172013523Y-91844761D01*
X172108761Y-91892380D01*
X172299238Y-91892380D01*
X172394476Y-91844761D01*
X172442095Y-91797142D01*
X172489714Y-91701904D01*
X172489714Y-91511428D01*
X172442095Y-91416190D01*
X172394476Y-91368571D01*
X172299238Y-91320952D01*
G04 #@! TO.C,C10*
X204740642Y-122509142D02*
X204693023Y-122556761D01*
X204550166Y-122604380D01*
X204454928Y-122604380D01*
X204312071Y-122556761D01*
X204216833Y-122461523D01*
X204169214Y-122366285D01*
X204121595Y-122175809D01*
X204121595Y-122032952D01*
X204169214Y-121842476D01*
X204216833Y-121747238D01*
X204312071Y-121652000D01*
X204454928Y-121604380D01*
X204550166Y-121604380D01*
X204693023Y-121652000D01*
X204740642Y-121699619D01*
X205693023Y-122604380D02*
X205121595Y-122604380D01*
X205407309Y-122604380D02*
X205407309Y-121604380D01*
X205312071Y-121747238D01*
X205216833Y-121842476D01*
X205121595Y-121890095D01*
X206312071Y-121604380D02*
X206407309Y-121604380D01*
X206502547Y-121652000D01*
X206550166Y-121699619D01*
X206597785Y-121794857D01*
X206645404Y-121985333D01*
X206645404Y-122223428D01*
X206597785Y-122413904D01*
X206550166Y-122509142D01*
X206502547Y-122556761D01*
X206407309Y-122604380D01*
X206312071Y-122604380D01*
X206216833Y-122556761D01*
X206169214Y-122509142D01*
X206121595Y-122413904D01*
X206073976Y-122223428D01*
X206073976Y-121985333D01*
X206121595Y-121794857D01*
X206169214Y-121699619D01*
X206216833Y-121652000D01*
X206312071Y-121604380D01*
G04 #@! TO.C,C11*
X185015142Y-120508857D02*
X185062761Y-120556476D01*
X185110380Y-120699333D01*
X185110380Y-120794571D01*
X185062761Y-120937428D01*
X184967523Y-121032666D01*
X184872285Y-121080285D01*
X184681809Y-121127904D01*
X184538952Y-121127904D01*
X184348476Y-121080285D01*
X184253238Y-121032666D01*
X184158000Y-120937428D01*
X184110380Y-120794571D01*
X184110380Y-120699333D01*
X184158000Y-120556476D01*
X184205619Y-120508857D01*
X185110380Y-119556476D02*
X185110380Y-120127904D01*
X185110380Y-119842190D02*
X184110380Y-119842190D01*
X184253238Y-119937428D01*
X184348476Y-120032666D01*
X184396095Y-120127904D01*
X185110380Y-118604095D02*
X185110380Y-119175523D01*
X185110380Y-118889809D02*
X184110380Y-118889809D01*
X184253238Y-118985047D01*
X184348476Y-119080285D01*
X184396095Y-119175523D01*
G04 #@! TO.C,D4*
X211272380Y-91162095D02*
X210272380Y-91162095D01*
X210272380Y-90924000D01*
X210320000Y-90781142D01*
X210415238Y-90685904D01*
X210510476Y-90638285D01*
X210700952Y-90590666D01*
X210843809Y-90590666D01*
X211034285Y-90638285D01*
X211129523Y-90685904D01*
X211224761Y-90781142D01*
X211272380Y-90924000D01*
X211272380Y-91162095D01*
X210605714Y-89733523D02*
X211272380Y-89733523D01*
X210224761Y-89971619D02*
X210939047Y-90209714D01*
X210939047Y-89590666D01*
G04 #@! TO.C,D5*
X204762380Y-93448095D02*
X203762380Y-93448095D01*
X203762380Y-93210000D01*
X203810000Y-93067142D01*
X203905238Y-92971904D01*
X204000476Y-92924285D01*
X204190952Y-92876666D01*
X204333809Y-92876666D01*
X204524285Y-92924285D01*
X204619523Y-92971904D01*
X204714761Y-93067142D01*
X204762380Y-93210000D01*
X204762380Y-93448095D01*
X203762380Y-91971904D02*
X203762380Y-92448095D01*
X204238571Y-92495714D01*
X204190952Y-92448095D01*
X204143333Y-92352857D01*
X204143333Y-92114761D01*
X204190952Y-92019523D01*
X204238571Y-91971904D01*
X204333809Y-91924285D01*
X204571904Y-91924285D01*
X204667142Y-91971904D01*
X204714761Y-92019523D01*
X204762380Y-92114761D01*
X204762380Y-92352857D01*
X204714761Y-92448095D01*
X204667142Y-92495714D01*
G04 #@! TO.C,J1*
X219416380Y-94313333D02*
X220130666Y-94313333D01*
X220273523Y-94360952D01*
X220368761Y-94456190D01*
X220416380Y-94599047D01*
X220416380Y-94694285D01*
X220416380Y-93313333D02*
X220416380Y-93884761D01*
X220416380Y-93599047D02*
X219416380Y-93599047D01*
X219559238Y-93694285D01*
X219654476Y-93789523D01*
X219702095Y-93884761D01*
G04 #@! TO.C,J3*
X156511666Y-88711380D02*
X156511666Y-89425666D01*
X156464047Y-89568523D01*
X156368809Y-89663761D01*
X156225952Y-89711380D01*
X156130714Y-89711380D01*
X156892619Y-88711380D02*
X157511666Y-88711380D01*
X157178333Y-89092333D01*
X157321190Y-89092333D01*
X157416428Y-89139952D01*
X157464047Y-89187571D01*
X157511666Y-89282809D01*
X157511666Y-89520904D01*
X157464047Y-89616142D01*
X157416428Y-89663761D01*
X157321190Y-89711380D01*
X157035476Y-89711380D01*
X156940238Y-89663761D01*
X156892619Y-89616142D01*
G04 #@! TO.C,J7*
X212709880Y-124009333D02*
X213424166Y-124009333D01*
X213567023Y-124056952D01*
X213662261Y-124152190D01*
X213709880Y-124295047D01*
X213709880Y-124390285D01*
X212709880Y-123628380D02*
X212709880Y-122961714D01*
X213709880Y-123390285D01*
G04 #@! TO.C,J11*
X170902380Y-134137523D02*
X171616666Y-134137523D01*
X171759523Y-134185142D01*
X171854761Y-134280380D01*
X171902380Y-134423238D01*
X171902380Y-134518476D01*
X171902380Y-133137523D02*
X171902380Y-133708952D01*
X171902380Y-133423238D02*
X170902380Y-133423238D01*
X171045238Y-133518476D01*
X171140476Y-133613714D01*
X171188095Y-133708952D01*
X171902380Y-132185142D02*
X171902380Y-132756571D01*
X171902380Y-132470857D02*
X170902380Y-132470857D01*
X171045238Y-132566095D01*
X171140476Y-132661333D01*
X171188095Y-132756571D01*
G04 #@! TO.C,J12*
X174712380Y-132105523D02*
X175426666Y-132105523D01*
X175569523Y-132153142D01*
X175664761Y-132248380D01*
X175712380Y-132391238D01*
X175712380Y-132486476D01*
X175712380Y-131105523D02*
X175712380Y-131676952D01*
X175712380Y-131391238D02*
X174712380Y-131391238D01*
X174855238Y-131486476D01*
X174950476Y-131581714D01*
X174998095Y-131676952D01*
X174807619Y-130724571D02*
X174760000Y-130676952D01*
X174712380Y-130581714D01*
X174712380Y-130343619D01*
X174760000Y-130248380D01*
X174807619Y-130200761D01*
X174902857Y-130153142D01*
X174998095Y-130153142D01*
X175140952Y-130200761D01*
X175712380Y-130772190D01*
X175712380Y-130153142D01*
G04 #@! TO.C,J14*
X192492380Y-128041523D02*
X193206666Y-128041523D01*
X193349523Y-128089142D01*
X193444761Y-128184380D01*
X193492380Y-128327238D01*
X193492380Y-128422476D01*
X193492380Y-127041523D02*
X193492380Y-127612952D01*
X193492380Y-127327238D02*
X192492380Y-127327238D01*
X192635238Y-127422476D01*
X192730476Y-127517714D01*
X192778095Y-127612952D01*
X192825714Y-126184380D02*
X193492380Y-126184380D01*
X192444761Y-126422476D02*
X193159047Y-126660571D01*
X193159047Y-126041523D01*
G04 #@! TO.C,JP1*
X164383166Y-118070380D02*
X164383166Y-118784666D01*
X164335547Y-118927523D01*
X164240309Y-119022761D01*
X164097452Y-119070380D01*
X164002214Y-119070380D01*
X164859357Y-119070380D02*
X164859357Y-118070380D01*
X165240309Y-118070380D01*
X165335547Y-118118000D01*
X165383166Y-118165619D01*
X165430785Y-118260857D01*
X165430785Y-118403714D01*
X165383166Y-118498952D01*
X165335547Y-118546571D01*
X165240309Y-118594190D01*
X164859357Y-118594190D01*
X166383166Y-119070380D02*
X165811738Y-119070380D01*
X166097452Y-119070380D02*
X166097452Y-118070380D01*
X166002214Y-118213238D01*
X165906976Y-118308476D01*
X165811738Y-118356095D01*
G04 #@! TO.C,JP2*
X164368166Y-115022380D02*
X164368166Y-115736666D01*
X164320547Y-115879523D01*
X164225309Y-115974761D01*
X164082452Y-116022380D01*
X163987214Y-116022380D01*
X164844357Y-116022380D02*
X164844357Y-115022380D01*
X165225309Y-115022380D01*
X165320547Y-115070000D01*
X165368166Y-115117619D01*
X165415785Y-115212857D01*
X165415785Y-115355714D01*
X165368166Y-115450952D01*
X165320547Y-115498571D01*
X165225309Y-115546190D01*
X164844357Y-115546190D01*
X165796738Y-115117619D02*
X165844357Y-115070000D01*
X165939595Y-115022380D01*
X166177690Y-115022380D01*
X166272928Y-115070000D01*
X166320547Y-115117619D01*
X166368166Y-115212857D01*
X166368166Y-115308095D01*
X166320547Y-115450952D01*
X165749119Y-116022380D01*
X166368166Y-116022380D01*
G04 #@! TO.C,JP3*
X167416166Y-115044380D02*
X167416166Y-115758666D01*
X167368547Y-115901523D01*
X167273309Y-115996761D01*
X167130452Y-116044380D01*
X167035214Y-116044380D01*
X167892357Y-116044380D02*
X167892357Y-115044380D01*
X168273309Y-115044380D01*
X168368547Y-115092000D01*
X168416166Y-115139619D01*
X168463785Y-115234857D01*
X168463785Y-115377714D01*
X168416166Y-115472952D01*
X168368547Y-115520571D01*
X168273309Y-115568190D01*
X167892357Y-115568190D01*
X168797119Y-115044380D02*
X169416166Y-115044380D01*
X169082833Y-115425333D01*
X169225690Y-115425333D01*
X169320928Y-115472952D01*
X169368547Y-115520571D01*
X169416166Y-115615809D01*
X169416166Y-115853904D01*
X169368547Y-115949142D01*
X169320928Y-115996761D01*
X169225690Y-116044380D01*
X168939976Y-116044380D01*
X168844738Y-115996761D01*
X168797119Y-115949142D01*
G04 #@! TO.C,R1*
X212939333Y-105768380D02*
X212606000Y-105292190D01*
X212367904Y-105768380D02*
X212367904Y-104768380D01*
X212748857Y-104768380D01*
X212844095Y-104816000D01*
X212891714Y-104863619D01*
X212939333Y-104958857D01*
X212939333Y-105101714D01*
X212891714Y-105196952D01*
X212844095Y-105244571D01*
X212748857Y-105292190D01*
X212367904Y-105292190D01*
X213891714Y-105768380D02*
X213320285Y-105768380D01*
X213606000Y-105768380D02*
X213606000Y-104768380D01*
X213510761Y-104911238D01*
X213415523Y-105006476D01*
X213320285Y-105054095D01*
G04 #@! TO.C,R2*
X213304380Y-90590666D02*
X212828190Y-90924000D01*
X213304380Y-91162095D02*
X212304380Y-91162095D01*
X212304380Y-90781142D01*
X212352000Y-90685904D01*
X212399619Y-90638285D01*
X212494857Y-90590666D01*
X212637714Y-90590666D01*
X212732952Y-90638285D01*
X212780571Y-90685904D01*
X212828190Y-90781142D01*
X212828190Y-91162095D01*
X212399619Y-90209714D02*
X212352000Y-90162095D01*
X212304380Y-90066857D01*
X212304380Y-89828761D01*
X212352000Y-89733523D01*
X212399619Y-89685904D01*
X212494857Y-89638285D01*
X212590095Y-89638285D01*
X212732952Y-89685904D01*
X213304380Y-90257333D01*
X213304380Y-89638285D01*
G04 #@! TO.C,R3*
X209527380Y-92876666D02*
X209051190Y-93210000D01*
X209527380Y-93448095D02*
X208527380Y-93448095D01*
X208527380Y-93067142D01*
X208575000Y-92971904D01*
X208622619Y-92924285D01*
X208717857Y-92876666D01*
X208860714Y-92876666D01*
X208955952Y-92924285D01*
X209003571Y-92971904D01*
X209051190Y-93067142D01*
X209051190Y-93448095D01*
X208527380Y-92543333D02*
X208527380Y-91924285D01*
X208908333Y-92257619D01*
X208908333Y-92114761D01*
X208955952Y-92019523D01*
X209003571Y-91971904D01*
X209098809Y-91924285D01*
X209336904Y-91924285D01*
X209432142Y-91971904D01*
X209479761Y-92019523D01*
X209527380Y-92114761D01*
X209527380Y-92400476D01*
X209479761Y-92495714D01*
X209432142Y-92543333D01*
G04 #@! TO.C,R4*
X206081333Y-95956380D02*
X205748000Y-95480190D01*
X205509904Y-95956380D02*
X205509904Y-94956380D01*
X205890857Y-94956380D01*
X205986095Y-95004000D01*
X206033714Y-95051619D01*
X206081333Y-95146857D01*
X206081333Y-95289714D01*
X206033714Y-95384952D01*
X205986095Y-95432571D01*
X205890857Y-95480190D01*
X205509904Y-95480190D01*
X206938476Y-95289714D02*
X206938476Y-95956380D01*
X206700380Y-94908761D02*
X206462285Y-95623047D01*
X207081333Y-95623047D01*
G04 #@! TO.C,R5*
X203033333Y-99512380D02*
X202700000Y-99036190D01*
X202461904Y-99512380D02*
X202461904Y-98512380D01*
X202842857Y-98512380D01*
X202938095Y-98560000D01*
X202985714Y-98607619D01*
X203033333Y-98702857D01*
X203033333Y-98845714D01*
X202985714Y-98940952D01*
X202938095Y-98988571D01*
X202842857Y-99036190D01*
X202461904Y-99036190D01*
X203938095Y-98512380D02*
X203461904Y-98512380D01*
X203414285Y-98988571D01*
X203461904Y-98940952D01*
X203557142Y-98893333D01*
X203795238Y-98893333D01*
X203890476Y-98940952D01*
X203938095Y-98988571D01*
X203985714Y-99083809D01*
X203985714Y-99321904D01*
X203938095Y-99417142D01*
X203890476Y-99464761D01*
X203795238Y-99512380D01*
X203557142Y-99512380D01*
X203461904Y-99464761D01*
X203414285Y-99417142D01*
G04 #@! TO.C,R6*
X175093333Y-91892380D02*
X174760000Y-91416190D01*
X174521904Y-91892380D02*
X174521904Y-90892380D01*
X174902857Y-90892380D01*
X174998095Y-90940000D01*
X175045714Y-90987619D01*
X175093333Y-91082857D01*
X175093333Y-91225714D01*
X175045714Y-91320952D01*
X174998095Y-91368571D01*
X174902857Y-91416190D01*
X174521904Y-91416190D01*
X175950476Y-90892380D02*
X175760000Y-90892380D01*
X175664761Y-90940000D01*
X175617142Y-90987619D01*
X175521904Y-91130476D01*
X175474285Y-91320952D01*
X175474285Y-91701904D01*
X175521904Y-91797142D01*
X175569523Y-91844761D01*
X175664761Y-91892380D01*
X175855238Y-91892380D01*
X175950476Y-91844761D01*
X175998095Y-91797142D01*
X176045714Y-91701904D01*
X176045714Y-91463809D01*
X175998095Y-91368571D01*
X175950476Y-91320952D01*
X175855238Y-91273333D01*
X175664761Y-91273333D01*
X175569523Y-91320952D01*
X175521904Y-91368571D01*
X175474285Y-91463809D01*
G04 #@! TO.C,R7*
X171622880Y-115508166D02*
X171146690Y-115841500D01*
X171622880Y-116079595D02*
X170622880Y-116079595D01*
X170622880Y-115698642D01*
X170670500Y-115603404D01*
X170718119Y-115555785D01*
X170813357Y-115508166D01*
X170956214Y-115508166D01*
X171051452Y-115555785D01*
X171099071Y-115603404D01*
X171146690Y-115698642D01*
X171146690Y-116079595D01*
X170622880Y-115174833D02*
X170622880Y-114508166D01*
X171622880Y-114936738D01*
G04 #@! TO.C,R8*
X174585333Y-122786380D02*
X174252000Y-122310190D01*
X174013904Y-122786380D02*
X174013904Y-121786380D01*
X174394857Y-121786380D01*
X174490095Y-121834000D01*
X174537714Y-121881619D01*
X174585333Y-121976857D01*
X174585333Y-122119714D01*
X174537714Y-122214952D01*
X174490095Y-122262571D01*
X174394857Y-122310190D01*
X174013904Y-122310190D01*
X175156761Y-122214952D02*
X175061523Y-122167333D01*
X175013904Y-122119714D01*
X174966285Y-122024476D01*
X174966285Y-121976857D01*
X175013904Y-121881619D01*
X175061523Y-121834000D01*
X175156761Y-121786380D01*
X175347238Y-121786380D01*
X175442476Y-121834000D01*
X175490095Y-121881619D01*
X175537714Y-121976857D01*
X175537714Y-122024476D01*
X175490095Y-122119714D01*
X175442476Y-122167333D01*
X175347238Y-122214952D01*
X175156761Y-122214952D01*
X175061523Y-122262571D01*
X175013904Y-122310190D01*
X174966285Y-122405428D01*
X174966285Y-122595904D01*
X175013904Y-122691142D01*
X175061523Y-122738761D01*
X175156761Y-122786380D01*
X175347238Y-122786380D01*
X175442476Y-122738761D01*
X175490095Y-122691142D01*
X175537714Y-122595904D01*
X175537714Y-122405428D01*
X175490095Y-122310190D01*
X175442476Y-122262571D01*
X175347238Y-122214952D01*
G04 #@! TO.C,R9*
X172045333Y-119324380D02*
X171712000Y-118848190D01*
X171473904Y-119324380D02*
X171473904Y-118324380D01*
X171854857Y-118324380D01*
X171950095Y-118372000D01*
X171997714Y-118419619D01*
X172045333Y-118514857D01*
X172045333Y-118657714D01*
X171997714Y-118752952D01*
X171950095Y-118800571D01*
X171854857Y-118848190D01*
X171473904Y-118848190D01*
X172521523Y-119324380D02*
X172712000Y-119324380D01*
X172807238Y-119276761D01*
X172854857Y-119229142D01*
X172950095Y-119086285D01*
X172997714Y-118895809D01*
X172997714Y-118514857D01*
X172950095Y-118419619D01*
X172902476Y-118372000D01*
X172807238Y-118324380D01*
X172616761Y-118324380D01*
X172521523Y-118372000D01*
X172473904Y-118419619D01*
X172426285Y-118514857D01*
X172426285Y-118752952D01*
X172473904Y-118848190D01*
X172521523Y-118895809D01*
X172616761Y-118943428D01*
X172807238Y-118943428D01*
X172902476Y-118895809D01*
X172950095Y-118848190D01*
X172997714Y-118752952D01*
G04 #@! TO.C,R11*
X195592642Y-118486380D02*
X195259309Y-118010190D01*
X195021214Y-118486380D02*
X195021214Y-117486380D01*
X195402166Y-117486380D01*
X195497404Y-117534000D01*
X195545023Y-117581619D01*
X195592642Y-117676857D01*
X195592642Y-117819714D01*
X195545023Y-117914952D01*
X195497404Y-117962571D01*
X195402166Y-118010190D01*
X195021214Y-118010190D01*
X196545023Y-118486380D02*
X195973595Y-118486380D01*
X196259309Y-118486380D02*
X196259309Y-117486380D01*
X196164071Y-117629238D01*
X196068833Y-117724476D01*
X195973595Y-117772095D01*
X197497404Y-118486380D02*
X196925976Y-118486380D01*
X197211690Y-118486380D02*
X197211690Y-117486380D01*
X197116452Y-117629238D01*
X197021214Y-117724476D01*
X196925976Y-117772095D01*
G04 #@! TO.C,SW1*
X167322666Y-86256761D02*
X167465523Y-86304380D01*
X167703619Y-86304380D01*
X167798857Y-86256761D01*
X167846476Y-86209142D01*
X167894095Y-86113904D01*
X167894095Y-86018666D01*
X167846476Y-85923428D01*
X167798857Y-85875809D01*
X167703619Y-85828190D01*
X167513142Y-85780571D01*
X167417904Y-85732952D01*
X167370285Y-85685333D01*
X167322666Y-85590095D01*
X167322666Y-85494857D01*
X167370285Y-85399619D01*
X167417904Y-85352000D01*
X167513142Y-85304380D01*
X167751238Y-85304380D01*
X167894095Y-85352000D01*
X168227428Y-85304380D02*
X168465523Y-86304380D01*
X168656000Y-85590095D01*
X168846476Y-86304380D01*
X169084571Y-85304380D01*
X169989333Y-86304380D02*
X169417904Y-86304380D01*
X169703619Y-86304380D02*
X169703619Y-85304380D01*
X169608380Y-85447238D01*
X169513142Y-85542476D01*
X169417904Y-85590095D01*
G04 #@! TO.C,U1*
X204940380Y-99821904D02*
X205749904Y-99821904D01*
X205845142Y-99774285D01*
X205892761Y-99726666D01*
X205940380Y-99631428D01*
X205940380Y-99440952D01*
X205892761Y-99345714D01*
X205845142Y-99298095D01*
X205749904Y-99250476D01*
X204940380Y-99250476D01*
X205940380Y-98250476D02*
X205940380Y-98821904D01*
X205940380Y-98536190D02*
X204940380Y-98536190D01*
X205083238Y-98631428D01*
X205178476Y-98726666D01*
X205226095Y-98821904D01*
G04 #@! TO.C,U5*
X218909095Y-114111380D02*
X218909095Y-114920904D01*
X218956714Y-115016142D01*
X219004333Y-115063761D01*
X219099571Y-115111380D01*
X219290047Y-115111380D01*
X219385285Y-115063761D01*
X219432904Y-115016142D01*
X219480523Y-114920904D01*
X219480523Y-114111380D01*
X220432904Y-114111380D02*
X219956714Y-114111380D01*
X219909095Y-114587571D01*
X219956714Y-114539952D01*
X220051952Y-114492333D01*
X220290047Y-114492333D01*
X220385285Y-114539952D01*
X220432904Y-114587571D01*
X220480523Y-114682809D01*
X220480523Y-114920904D01*
X220432904Y-115016142D01*
X220385285Y-115063761D01*
X220290047Y-115111380D01*
X220051952Y-115111380D01*
X219956714Y-115063761D01*
X219909095Y-115016142D01*
G04 #@! TO.C,U6*
X179284380Y-117093904D02*
X180093904Y-117093904D01*
X180189142Y-117046285D01*
X180236761Y-116998666D01*
X180284380Y-116903428D01*
X180284380Y-116712952D01*
X180236761Y-116617714D01*
X180189142Y-116570095D01*
X180093904Y-116522476D01*
X179284380Y-116522476D01*
X179284380Y-115617714D02*
X179284380Y-115808190D01*
X179332000Y-115903428D01*
X179379619Y-115951047D01*
X179522476Y-116046285D01*
X179712952Y-116093904D01*
X180093904Y-116093904D01*
X180189142Y-116046285D01*
X180236761Y-115998666D01*
X180284380Y-115903428D01*
X180284380Y-115712952D01*
X180236761Y-115617714D01*
X180189142Y-115570095D01*
X180093904Y-115522476D01*
X179855809Y-115522476D01*
X179760571Y-115570095D01*
X179712952Y-115617714D01*
X179665333Y-115712952D01*
X179665333Y-115903428D01*
X179712952Y-115998666D01*
X179760571Y-116046285D01*
X179855809Y-116093904D01*
G04 #@! TD*
M02*
