G04 #@! TF.GenerationSoftware,KiCad,Pcbnew,5.0.1-33cea8e~68~ubuntu16.04.1*
G04 #@! TF.CreationDate,2019-01-12T14:45:54-05:00*
G04 #@! TF.ProjectId,portia,706F727469612E6B696361645F706362,rev?*
G04 #@! TF.SameCoordinates,Original*
G04 #@! TF.FileFunction,Legend,Top*
G04 #@! TF.FilePolarity,Positive*
%FSLAX46Y46*%
G04 Gerber Fmt 4.6, Leading zero omitted, Abs format (unit mm)*
G04 Created by KiCad (PCBNEW 5.0.1-33cea8e~68~ubuntu16.04.1) date Sat 12 Jan 2019 14:45:54 EST*
%MOMM*%
%LPD*%
G01*
G04 APERTURE LIST*
%ADD10C,0.200000*%
%ADD11C,0.125000*%
%ADD12C,0.120000*%
%ADD13C,0.150000*%
%ADD14C,0.500000*%
%ADD15C,0.127000*%
G04 APERTURE END LIST*
D10*
X163410000Y-97514000D02*
G75*
G03X163410000Y-97514000I-254000J0D01*
G01*
X167474000Y-97514000D02*
G75*
G03X167474000Y-97514000I-254000J0D01*
G01*
X166517961Y-97573961D02*
G75*
G03X166517961Y-97573961I-567961J0D01*
G01*
X164993961Y-97573961D02*
G75*
G03X164993961Y-97573961I-567961J0D01*
G01*
D11*
X163930190Y-95270690D02*
X163930190Y-94770690D01*
X164120666Y-94770690D01*
X164168285Y-94794500D01*
X164192095Y-94818309D01*
X164215904Y-94865928D01*
X164215904Y-94937357D01*
X164192095Y-94984976D01*
X164168285Y-95008785D01*
X164120666Y-95032595D01*
X163930190Y-95032595D01*
X164501619Y-95270690D02*
X164454000Y-95246880D01*
X164430190Y-95223071D01*
X164406380Y-95175452D01*
X164406380Y-95032595D01*
X164430190Y-94984976D01*
X164454000Y-94961166D01*
X164501619Y-94937357D01*
X164573047Y-94937357D01*
X164620666Y-94961166D01*
X164644476Y-94984976D01*
X164668285Y-95032595D01*
X164668285Y-95175452D01*
X164644476Y-95223071D01*
X164620666Y-95246880D01*
X164573047Y-95270690D01*
X164501619Y-95270690D01*
X164882571Y-95270690D02*
X164882571Y-94937357D01*
X164882571Y-95032595D02*
X164906380Y-94984976D01*
X164930190Y-94961166D01*
X164977809Y-94937357D01*
X165025428Y-94937357D01*
X165120666Y-94937357D02*
X165311142Y-94937357D01*
X165192095Y-94770690D02*
X165192095Y-95199261D01*
X165215904Y-95246880D01*
X165263523Y-95270690D01*
X165311142Y-95270690D01*
X165477809Y-95270690D02*
X165477809Y-94937357D01*
X165477809Y-94770690D02*
X165454000Y-94794500D01*
X165477809Y-94818309D01*
X165501619Y-94794500D01*
X165477809Y-94770690D01*
X165477809Y-94818309D01*
X165930190Y-95270690D02*
X165930190Y-95008785D01*
X165906380Y-94961166D01*
X165858761Y-94937357D01*
X165763523Y-94937357D01*
X165715904Y-94961166D01*
X165930190Y-95246880D02*
X165882571Y-95270690D01*
X165763523Y-95270690D01*
X165715904Y-95246880D01*
X165692095Y-95199261D01*
X165692095Y-95151642D01*
X165715904Y-95104023D01*
X165763523Y-95080214D01*
X165882571Y-95080214D01*
X165930190Y-95056404D01*
X166715904Y-95008785D02*
X166787333Y-95032595D01*
X166811142Y-95056404D01*
X166834952Y-95104023D01*
X166834952Y-95175452D01*
X166811142Y-95223071D01*
X166787333Y-95246880D01*
X166739714Y-95270690D01*
X166549238Y-95270690D01*
X166549238Y-94770690D01*
X166715904Y-94770690D01*
X166763523Y-94794500D01*
X166787333Y-94818309D01*
X166811142Y-94865928D01*
X166811142Y-94913547D01*
X166787333Y-94961166D01*
X166763523Y-94984976D01*
X166715904Y-95008785D01*
X166549238Y-95008785D01*
X167120666Y-95270690D02*
X167073047Y-95246880D01*
X167049238Y-95223071D01*
X167025428Y-95175452D01*
X167025428Y-95032595D01*
X167049238Y-94984976D01*
X167073047Y-94961166D01*
X167120666Y-94937357D01*
X167192095Y-94937357D01*
X167239714Y-94961166D01*
X167263523Y-94984976D01*
X167287333Y-95032595D01*
X167287333Y-95175452D01*
X167263523Y-95223071D01*
X167239714Y-95246880D01*
X167192095Y-95270690D01*
X167120666Y-95270690D01*
X167715904Y-95270690D02*
X167715904Y-95008785D01*
X167692095Y-94961166D01*
X167644476Y-94937357D01*
X167549238Y-94937357D01*
X167501619Y-94961166D01*
X167715904Y-95246880D02*
X167668285Y-95270690D01*
X167549238Y-95270690D01*
X167501619Y-95246880D01*
X167477809Y-95199261D01*
X167477809Y-95151642D01*
X167501619Y-95104023D01*
X167549238Y-95080214D01*
X167668285Y-95080214D01*
X167715904Y-95056404D01*
X167954000Y-95270690D02*
X167954000Y-94937357D01*
X167954000Y-95032595D02*
X167977809Y-94984976D01*
X168001619Y-94961166D01*
X168049238Y-94937357D01*
X168096857Y-94937357D01*
X168477809Y-95270690D02*
X168477809Y-94770690D01*
X168477809Y-95246880D02*
X168430190Y-95270690D01*
X168334952Y-95270690D01*
X168287333Y-95246880D01*
X168263523Y-95223071D01*
X168239714Y-95175452D01*
X168239714Y-95032595D01*
X168263523Y-94984976D01*
X168287333Y-94961166D01*
X168334952Y-94937357D01*
X168430190Y-94937357D01*
X168477809Y-94961166D01*
X165370666Y-95716190D02*
X165465904Y-95716190D01*
X165513523Y-95740000D01*
X165561142Y-95787619D01*
X165584952Y-95882857D01*
X165584952Y-96049523D01*
X165561142Y-96144761D01*
X165513523Y-96192380D01*
X165465904Y-96216190D01*
X165370666Y-96216190D01*
X165323047Y-96192380D01*
X165275428Y-96144761D01*
X165251619Y-96049523D01*
X165251619Y-95882857D01*
X165275428Y-95787619D01*
X165323047Y-95740000D01*
X165370666Y-95716190D01*
X165775428Y-96192380D02*
X165846857Y-96216190D01*
X165965904Y-96216190D01*
X166013523Y-96192380D01*
X166037333Y-96168571D01*
X166061142Y-96120952D01*
X166061142Y-96073333D01*
X166037333Y-96025714D01*
X166013523Y-96001904D01*
X165965904Y-95978095D01*
X165870666Y-95954285D01*
X165823047Y-95930476D01*
X165799238Y-95906666D01*
X165775428Y-95859047D01*
X165775428Y-95811428D01*
X165799238Y-95763809D01*
X165823047Y-95740000D01*
X165870666Y-95716190D01*
X165989714Y-95716190D01*
X166061142Y-95740000D01*
X166275428Y-96216190D02*
X166275428Y-95716190D01*
X166275428Y-95954285D02*
X166561142Y-95954285D01*
X166561142Y-96216190D02*
X166561142Y-95716190D01*
X166751619Y-95716190D02*
X166870666Y-96216190D01*
X166965904Y-95859047D01*
X167061142Y-96216190D01*
X167180190Y-95716190D01*
X160735714Y-94057142D02*
X160950000Y-94128571D01*
X161307142Y-94128571D01*
X161450000Y-94057142D01*
X161521428Y-93985714D01*
X161592857Y-93842857D01*
X161592857Y-93700000D01*
X161521428Y-93557142D01*
X161450000Y-93485714D01*
X161307142Y-93414285D01*
X161021428Y-93342857D01*
X160878571Y-93271428D01*
X160807142Y-93200000D01*
X160735714Y-93057142D01*
X160735714Y-92914285D01*
X160807142Y-92771428D01*
X160878571Y-92700000D01*
X161021428Y-92628571D01*
X161378571Y-92628571D01*
X161592857Y-92700000D01*
X162235714Y-93128571D02*
X162235714Y-94628571D01*
X162235714Y-93200000D02*
X162378571Y-93128571D01*
X162664285Y-93128571D01*
X162807142Y-93200000D01*
X162878571Y-93271428D01*
X162950000Y-93414285D01*
X162950000Y-93842857D01*
X162878571Y-93985714D01*
X162807142Y-94057142D01*
X162664285Y-94128571D01*
X162378571Y-94128571D01*
X162235714Y-94057142D01*
X163592857Y-94128571D02*
X163592857Y-93128571D01*
X163592857Y-92628571D02*
X163521428Y-92700000D01*
X163592857Y-92771428D01*
X163664285Y-92700000D01*
X163592857Y-92628571D01*
X163592857Y-92771428D01*
X164950000Y-94128571D02*
X164950000Y-92628571D01*
X164950000Y-94057142D02*
X164807142Y-94128571D01*
X164521428Y-94128571D01*
X164378571Y-94057142D01*
X164307142Y-93985714D01*
X164235714Y-93842857D01*
X164235714Y-93414285D01*
X164307142Y-93271428D01*
X164378571Y-93200000D01*
X164521428Y-93128571D01*
X164807142Y-93128571D01*
X164950000Y-93200000D01*
X166235714Y-94057142D02*
X166092857Y-94128571D01*
X165807142Y-94128571D01*
X165664285Y-94057142D01*
X165592857Y-93914285D01*
X165592857Y-93342857D01*
X165664285Y-93200000D01*
X165807142Y-93128571D01*
X166092857Y-93128571D01*
X166235714Y-93200000D01*
X166307142Y-93342857D01*
X166307142Y-93485714D01*
X165592857Y-93628571D01*
X166950000Y-94128571D02*
X166950000Y-93128571D01*
X166950000Y-93414285D02*
X167021428Y-93271428D01*
X167092857Y-93200000D01*
X167235714Y-93128571D01*
X167378571Y-93128571D01*
X167878571Y-94128571D02*
X167878571Y-92628571D01*
X167878571Y-93200000D02*
X168021428Y-93128571D01*
X168307142Y-93128571D01*
X168450000Y-93200000D01*
X168521428Y-93271428D01*
X168592857Y-93414285D01*
X168592857Y-93842857D01*
X168521428Y-93985714D01*
X168450000Y-94057142D01*
X168307142Y-94128571D01*
X168021428Y-94128571D01*
X167878571Y-94057142D01*
X169450000Y-94128571D02*
X169307142Y-94057142D01*
X169235714Y-93985714D01*
X169164285Y-93842857D01*
X169164285Y-93414285D01*
X169235714Y-93271428D01*
X169307142Y-93200000D01*
X169450000Y-93128571D01*
X169664285Y-93128571D01*
X169807142Y-93200000D01*
X169878571Y-93271428D01*
X169950000Y-93414285D01*
X169950000Y-93842857D01*
X169878571Y-93985714D01*
X169807142Y-94057142D01*
X169664285Y-94128571D01*
X169450000Y-94128571D01*
X170450000Y-94128571D02*
X171235714Y-93128571D01*
X170450000Y-93128571D02*
X171235714Y-94128571D01*
D10*
X184912000Y-112246000D02*
X184912000Y-118342000D01*
X172186500Y-120142000D02*
X172186500Y-119888000D01*
X172186500Y-119126000D02*
X172186500Y-120142000D01*
D12*
G04 #@! TO.C,RESET*
X177902000Y-88248000D02*
X177902000Y-88698000D01*
X171602000Y-88698000D02*
X171602000Y-88248000D01*
X177902000Y-88698000D02*
X171602000Y-88698000D01*
X171602000Y-86948000D02*
X171602000Y-84248000D01*
X177902000Y-84248000D02*
X177902000Y-86948000D01*
X171602000Y-82498000D02*
X171602000Y-82898000D01*
X177902000Y-82498000D02*
X171602000Y-82498000D01*
X177902000Y-82948000D02*
X177902000Y-82498000D01*
G04 #@! TO.C,J2*
X158690000Y-116878000D02*
X161350000Y-116878000D01*
X158690000Y-114278000D02*
X158690000Y-116878000D01*
X161350000Y-114278000D02*
X161350000Y-116878000D01*
X158690000Y-114278000D02*
X161350000Y-114278000D01*
X158690000Y-113008000D02*
X158690000Y-111678000D01*
X158690000Y-111678000D02*
X160020000Y-111678000D01*
G04 #@! TO.C,J5*
X213508000Y-131610000D02*
X213508000Y-128950000D01*
X205828000Y-131610000D02*
X213508000Y-131610000D01*
X205828000Y-128950000D02*
X213508000Y-128950000D01*
X205828000Y-131610000D02*
X205828000Y-128950000D01*
X204558000Y-131610000D02*
X203228000Y-131610000D01*
X203228000Y-131610000D02*
X203228000Y-130280000D01*
G04 #@! TO.C,R10*
X174914779Y-123220500D02*
X174589221Y-123220500D01*
X174914779Y-122200500D02*
X174589221Y-122200500D01*
D13*
G04 #@! TO.C,D3*
X200813500Y-117170000D02*
X200813500Y-118170000D01*
X195313500Y-118170000D02*
X200813500Y-118170000D01*
X195313500Y-115170000D02*
X200713500Y-115170000D01*
D12*
G04 #@! TO.C,R19*
X200208279Y-113366000D02*
X199882721Y-113366000D01*
X200208279Y-114386000D02*
X199882721Y-114386000D01*
G04 #@! TO.C,R18*
X196072721Y-114386000D02*
X196398279Y-114386000D01*
X196072721Y-113366000D02*
X196398279Y-113366000D01*
D13*
G04 #@! TO.C,U4*
X199500000Y-82500000D02*
X181500000Y-82500000D01*
X199500000Y-108000000D02*
X181500000Y-108000000D01*
X199500000Y-82500000D02*
X199500000Y-108000000D01*
X181500000Y-82500000D02*
X181500000Y-108000000D01*
X199500000Y-88500000D02*
X181500000Y-88500000D01*
D14*
X180877981Y-88646000D02*
G75*
G03X180877981Y-88646000I-283981J0D01*
G01*
D12*
G04 #@! TO.C,J9*
X203140000Y-84112000D02*
X203140000Y-82782000D01*
X204470000Y-84112000D02*
X203140000Y-84112000D01*
X205740000Y-84112000D02*
X205740000Y-81452000D01*
X205740000Y-81452000D02*
X208340000Y-81452000D01*
X205740000Y-84112000D02*
X208340000Y-84112000D01*
X208340000Y-84112000D02*
X208340000Y-81452000D01*
G04 #@! TO.C,J10*
X203140000Y-105074000D02*
X204470000Y-105074000D01*
X203140000Y-106404000D02*
X203140000Y-105074000D01*
X203140000Y-107674000D02*
X205800000Y-107674000D01*
X205800000Y-107674000D02*
X205800000Y-110274000D01*
X203140000Y-107674000D02*
X203140000Y-110274000D01*
X203140000Y-110274000D02*
X205800000Y-110274000D01*
G04 #@! TO.C,J15*
X203140000Y-114338000D02*
X203140000Y-113008000D01*
X204470000Y-114338000D02*
X203140000Y-114338000D01*
X205740000Y-114338000D02*
X205740000Y-111678000D01*
X205740000Y-111678000D02*
X208340000Y-111678000D01*
X205740000Y-114338000D02*
X208340000Y-114338000D01*
X208340000Y-114338000D02*
X208340000Y-111678000D01*
G04 #@! TO.C,J4*
X176082000Y-103289000D02*
X174752000Y-103289000D01*
X176082000Y-101959000D02*
X176082000Y-103289000D01*
X176082000Y-100689000D02*
X173422000Y-100689000D01*
X173422000Y-100689000D02*
X173422000Y-93009000D01*
X176082000Y-100689000D02*
X176082000Y-93009000D01*
X176082000Y-93009000D02*
X173422000Y-93009000D01*
G04 #@! TO.C,J8*
X176082000Y-105963000D02*
X176082000Y-107293000D01*
X174752000Y-105963000D02*
X176082000Y-105963000D01*
X173482000Y-105963000D02*
X173482000Y-108623000D01*
X173482000Y-108623000D02*
X165802000Y-108623000D01*
X173482000Y-105963000D02*
X165802000Y-105963000D01*
X165802000Y-105963000D02*
X165802000Y-108623000D01*
G04 #@! TO.C,J16*
X203140000Y-88557000D02*
X203140000Y-87227000D01*
X204470000Y-88557000D02*
X203140000Y-88557000D01*
X205740000Y-88557000D02*
X205740000Y-85897000D01*
X205740000Y-85897000D02*
X213420000Y-85897000D01*
X205740000Y-88557000D02*
X213420000Y-88557000D01*
X213420000Y-88557000D02*
X213420000Y-85897000D01*
G04 #@! TO.C,R16*
X167663000Y-125722779D02*
X167663000Y-125397221D01*
X166643000Y-125722779D02*
X166643000Y-125397221D01*
G04 #@! TO.C,R12*
X165631000Y-125722779D02*
X165631000Y-125397221D01*
X164611000Y-125722779D02*
X164611000Y-125397221D01*
G04 #@! TO.C,R15*
X200751221Y-131425000D02*
X201076779Y-131425000D01*
X200751221Y-130405000D02*
X201076779Y-130405000D01*
G04 #@! TO.C,R17*
X200751221Y-129647000D02*
X201076779Y-129647000D01*
X200751221Y-128627000D02*
X201076779Y-128627000D01*
D15*
G04 #@! TO.C,M1*
X161117960Y-120165040D02*
X159472040Y-120165040D01*
X159472040Y-120165040D02*
X159472040Y-121810960D01*
X161117960Y-121810960D02*
X159472040Y-121810960D01*
X161117960Y-120165040D02*
X161117960Y-121810960D01*
D12*
G04 #@! TO.C,C9*
X211880000Y-126502000D02*
X211880000Y-126002000D01*
X212130000Y-126252000D02*
X211630000Y-126252000D01*
X211390000Y-123496437D02*
X210325563Y-122432000D01*
X211390000Y-125887563D02*
X210325563Y-126952000D01*
X211390000Y-125887563D02*
X211390000Y-125752000D01*
X211390000Y-123496437D02*
X211390000Y-123632000D01*
X210325563Y-122432000D02*
X206870000Y-122432000D01*
X210325563Y-126952000D02*
X206870000Y-126952000D01*
X206870000Y-126952000D02*
X206870000Y-125752000D01*
X206870000Y-122432000D02*
X206870000Y-123632000D01*
G04 #@! TO.C,F1*
X216602000Y-89567936D02*
X216602000Y-90772064D01*
X218422000Y-89567936D02*
X218422000Y-90772064D01*
G04 #@! TO.C,R13*
X186046000Y-113311721D02*
X186046000Y-113637279D01*
X187066000Y-113311721D02*
X187066000Y-113637279D01*
G04 #@! TO.C,R14*
X188078000Y-113311721D02*
X188078000Y-113637279D01*
X189098000Y-113311721D02*
X189098000Y-113637279D01*
G04 #@! TO.C,J13*
X188020000Y-128950000D02*
X188020000Y-130280000D01*
X186690000Y-128950000D02*
X188020000Y-128950000D01*
X185420000Y-128950000D02*
X185420000Y-131610000D01*
X185420000Y-131610000D02*
X182820000Y-131610000D01*
X185420000Y-128950000D02*
X182820000Y-128950000D01*
X182820000Y-128950000D02*
X182820000Y-131610000D01*
G04 #@! TO.C,D1*
X212582000Y-106004000D02*
X212582000Y-109854000D01*
X210582000Y-106004000D02*
X210582000Y-109854000D01*
X212582000Y-106004000D02*
X210582000Y-106004000D01*
G04 #@! TO.C,D2*
X209788000Y-106004000D02*
X209788000Y-109854000D01*
X207788000Y-106004000D02*
X207788000Y-109854000D01*
X209788000Y-106004000D02*
X207788000Y-106004000D01*
G04 #@! TO.C,C1*
X212854000Y-96428779D02*
X212854000Y-96103221D01*
X211834000Y-96428779D02*
X211834000Y-96103221D01*
G04 #@! TO.C,C2*
X205831221Y-104120000D02*
X206156779Y-104120000D01*
X205831221Y-103100000D02*
X206156779Y-103100000D01*
G04 #@! TO.C,C7*
X203799221Y-101602000D02*
X204124779Y-101602000D01*
X203799221Y-100582000D02*
X204124779Y-100582000D01*
G04 #@! TO.C,C8*
X171541221Y-90426000D02*
X171866779Y-90426000D01*
X171541221Y-89406000D02*
X171866779Y-89406000D01*
G04 #@! TO.C,C10*
X209848000Y-120660000D02*
X209848000Y-120160000D01*
X210098000Y-120410000D02*
X209598000Y-120410000D01*
X209358000Y-117654437D02*
X208293563Y-116590000D01*
X209358000Y-120045563D02*
X208293563Y-121110000D01*
X209358000Y-120045563D02*
X209358000Y-119910000D01*
X209358000Y-117654437D02*
X209358000Y-117790000D01*
X208293563Y-116590000D02*
X204838000Y-116590000D01*
X208293563Y-121110000D02*
X204838000Y-121110000D01*
X204838000Y-121110000D02*
X204838000Y-119910000D01*
X204838000Y-116590000D02*
X204838000Y-117790000D01*
G04 #@! TO.C,C11*
X185672000Y-118687221D02*
X185672000Y-119012779D01*
X186692000Y-118687221D02*
X186692000Y-119012779D01*
G04 #@! TO.C,D4*
X213460000Y-94195000D02*
X213460000Y-91910000D01*
X211990000Y-94195000D02*
X213460000Y-94195000D01*
X211990000Y-91910000D02*
X211990000Y-94195000D01*
G04 #@! TO.C,D5*
X206475000Y-94195000D02*
X206475000Y-91910000D01*
X205005000Y-94195000D02*
X206475000Y-94195000D01*
X205005000Y-91910000D02*
X205005000Y-94195000D01*
G04 #@! TO.C,J1*
X215067000Y-100385000D02*
X214617000Y-100785000D01*
X214617000Y-100785000D02*
X214617000Y-99985000D01*
X214617000Y-99985000D02*
X215067000Y-100385000D01*
X220667000Y-95235000D02*
X217867000Y-95235000D01*
X217867000Y-95235000D02*
X217867000Y-94935000D01*
X217867000Y-94935000D02*
X216317000Y-94935000D01*
X220667000Y-102935000D02*
X217867000Y-102935000D01*
X217867000Y-103235000D02*
X217867000Y-102935000D01*
X217867000Y-103235000D02*
X216317000Y-103235000D01*
G04 #@! TO.C,J3*
X161350000Y-91605000D02*
X160020000Y-91605000D01*
X161350000Y-90275000D02*
X161350000Y-91605000D01*
X161350000Y-89005000D02*
X158690000Y-89005000D01*
X158690000Y-89005000D02*
X158690000Y-86405000D01*
X161350000Y-89005000D02*
X161350000Y-86405000D01*
X161350000Y-86405000D02*
X158690000Y-86405000D01*
G04 #@! TO.C,J7*
X214150000Y-126022000D02*
X214150000Y-124692000D01*
X215480000Y-126022000D02*
X214150000Y-126022000D01*
X216750000Y-126022000D02*
X216750000Y-123362000D01*
X216750000Y-123362000D02*
X219350000Y-123362000D01*
X216750000Y-126022000D02*
X219350000Y-126022000D01*
X219350000Y-126022000D02*
X219350000Y-123362000D01*
G04 #@! TO.C,J11*
X174304000Y-128950000D02*
X174304000Y-130280000D01*
X172974000Y-128950000D02*
X174304000Y-128950000D01*
X171704000Y-128950000D02*
X171704000Y-131610000D01*
X171704000Y-131610000D02*
X169104000Y-131610000D01*
X171704000Y-128950000D02*
X169104000Y-128950000D01*
X169104000Y-128950000D02*
X169104000Y-131610000D01*
G04 #@! TO.C,J12*
X181162000Y-128950000D02*
X181162000Y-130280000D01*
X179832000Y-128950000D02*
X181162000Y-128950000D01*
X178562000Y-128950000D02*
X178562000Y-131610000D01*
X178562000Y-131610000D02*
X175962000Y-131610000D01*
X178562000Y-128950000D02*
X175962000Y-128950000D01*
X175962000Y-128950000D02*
X175962000Y-131610000D01*
G04 #@! TO.C,J14*
X194878000Y-128950000D02*
X194878000Y-130280000D01*
X193548000Y-128950000D02*
X194878000Y-128950000D01*
X192278000Y-128950000D02*
X192278000Y-131610000D01*
X192278000Y-131610000D02*
X189678000Y-131610000D01*
X192278000Y-128950000D02*
X189678000Y-128950000D01*
X189678000Y-128950000D02*
X189678000Y-131610000D01*
G04 #@! TO.C,JP1*
X168964500Y-120380000D02*
X167564500Y-120380000D01*
X166864500Y-119680000D02*
X166864500Y-119080000D01*
X167564500Y-118380000D02*
X168964500Y-118380000D01*
X169664500Y-119080000D02*
X169664500Y-119680000D01*
X169664500Y-119680000D02*
G75*
G02X168964500Y-120380000I-700000J0D01*
G01*
X168964500Y-118380000D02*
G75*
G02X169664500Y-119080000I0J-700000D01*
G01*
X166864500Y-119080000D02*
G75*
G02X167564500Y-118380000I700000J0D01*
G01*
X167564500Y-120380000D02*
G75*
G02X166864500Y-119680000I0J700000D01*
G01*
G04 #@! TO.C,JP2*
X168949500Y-117586000D02*
X167549500Y-117586000D01*
X166849500Y-116886000D02*
X166849500Y-116286000D01*
X167549500Y-115586000D02*
X168949500Y-115586000D01*
X169649500Y-116286000D02*
X169649500Y-116886000D01*
X169649500Y-116886000D02*
G75*
G02X168949500Y-117586000I-700000J0D01*
G01*
X168949500Y-115586000D02*
G75*
G02X169649500Y-116286000I0J-700000D01*
G01*
X166849500Y-116286000D02*
G75*
G02X167549500Y-115586000I700000J0D01*
G01*
X167549500Y-117586000D02*
G75*
G02X166849500Y-116886000I0J700000D01*
G01*
G04 #@! TO.C,JP3*
X168949500Y-114792000D02*
X167549500Y-114792000D01*
X166849500Y-114092000D02*
X166849500Y-113492000D01*
X167549500Y-112792000D02*
X168949500Y-112792000D01*
X169649500Y-113492000D02*
X169649500Y-114092000D01*
X169649500Y-114092000D02*
G75*
G02X168949500Y-114792000I-700000J0D01*
G01*
X168949500Y-112792000D02*
G75*
G02X169649500Y-113492000I0J-700000D01*
G01*
X166849500Y-113492000D02*
G75*
G02X167549500Y-112792000I700000J0D01*
G01*
X167549500Y-114792000D02*
G75*
G02X166849500Y-114092000I0J700000D01*
G01*
G04 #@! TO.C,R1*
X213268779Y-103376000D02*
X212943221Y-103376000D01*
X213268779Y-104396000D02*
X212943221Y-104396000D01*
G04 #@! TO.C,R2*
X210310000Y-92547221D02*
X210310000Y-92872779D01*
X211330000Y-92547221D02*
X211330000Y-92872779D01*
G04 #@! TO.C,R3*
X207135000Y-92547221D02*
X207135000Y-92872779D01*
X208155000Y-92547221D02*
X208155000Y-92872779D01*
G04 #@! TO.C,R4*
X203799221Y-96014000D02*
X204124779Y-96014000D01*
X203799221Y-94994000D02*
X204124779Y-94994000D01*
G04 #@! TO.C,R5*
X203799221Y-97792000D02*
X204124779Y-97792000D01*
X203799221Y-96772000D02*
X204124779Y-96772000D01*
G04 #@! TO.C,R6*
X175422779Y-89406000D02*
X175097221Y-89406000D01*
X175422779Y-90426000D02*
X175097221Y-90426000D01*
G04 #@! TO.C,R7*
X172188500Y-113192779D02*
X172188500Y-112867221D01*
X171168500Y-113192779D02*
X171168500Y-112867221D01*
G04 #@! TO.C,R8*
X174914779Y-120394000D02*
X174589221Y-120394000D01*
X174914779Y-121414000D02*
X174589221Y-121414000D01*
G04 #@! TO.C,R9*
X174914779Y-118616000D02*
X174589221Y-118616000D01*
X174914779Y-119636000D02*
X174589221Y-119636000D01*
G04 #@! TO.C,R11*
X196072721Y-119974000D02*
X196398279Y-119974000D01*
X196072721Y-118954000D02*
X196398279Y-118954000D01*
G04 #@! TO.C,U1*
X206678000Y-100695000D02*
X206678000Y-101170000D01*
X210898000Y-96950000D02*
X210423000Y-96950000D01*
X210898000Y-97425000D02*
X210898000Y-96950000D01*
X210898000Y-101170000D02*
X210423000Y-101170000D01*
X210898000Y-100695000D02*
X210898000Y-101170000D01*
X206678000Y-96950000D02*
X207153000Y-96950000D01*
X206678000Y-97425000D02*
X206678000Y-96950000D01*
G04 #@! TO.C,U5*
X211380000Y-115440000D02*
X217390000Y-115440000D01*
X213630000Y-122260000D02*
X217390000Y-122260000D01*
X217390000Y-115440000D02*
X217390000Y-116700000D01*
X217390000Y-122260000D02*
X217390000Y-121000000D01*
D13*
G04 #@! TO.C,U6*
X184873000Y-119165000D02*
X184873000Y-114515000D01*
X176773000Y-120240000D02*
X176773000Y-114515000D01*
X184873000Y-119165000D02*
X184848000Y-119165000D01*
X184873000Y-114515000D02*
X184848000Y-114515000D01*
X176823000Y-114515000D02*
X176848000Y-114515000D01*
G04 #@! TO.C,RESET*
D11*
X167929809Y-86078190D02*
X167763142Y-85840095D01*
X167644095Y-86078190D02*
X167644095Y-85578190D01*
X167834571Y-85578190D01*
X167882190Y-85602000D01*
X167906000Y-85625809D01*
X167929809Y-85673428D01*
X167929809Y-85744857D01*
X167906000Y-85792476D01*
X167882190Y-85816285D01*
X167834571Y-85840095D01*
X167644095Y-85840095D01*
X168144095Y-85816285D02*
X168310761Y-85816285D01*
X168382190Y-86078190D02*
X168144095Y-86078190D01*
X168144095Y-85578190D01*
X168382190Y-85578190D01*
X168572666Y-86054380D02*
X168644095Y-86078190D01*
X168763142Y-86078190D01*
X168810761Y-86054380D01*
X168834571Y-86030571D01*
X168858380Y-85982952D01*
X168858380Y-85935333D01*
X168834571Y-85887714D01*
X168810761Y-85863904D01*
X168763142Y-85840095D01*
X168667904Y-85816285D01*
X168620285Y-85792476D01*
X168596476Y-85768666D01*
X168572666Y-85721047D01*
X168572666Y-85673428D01*
X168596476Y-85625809D01*
X168620285Y-85602000D01*
X168667904Y-85578190D01*
X168786952Y-85578190D01*
X168858380Y-85602000D01*
X169072666Y-85816285D02*
X169239333Y-85816285D01*
X169310761Y-86078190D02*
X169072666Y-86078190D01*
X169072666Y-85578190D01*
X169310761Y-85578190D01*
X169453619Y-85578190D02*
X169739333Y-85578190D01*
X169596476Y-86078190D02*
X169596476Y-85578190D01*
G04 #@! TO.C,J2*
X162227333Y-111210190D02*
X162227333Y-111567333D01*
X162203523Y-111638761D01*
X162155904Y-111686380D01*
X162084476Y-111710190D01*
X162036857Y-111710190D01*
X162441619Y-111257809D02*
X162465428Y-111234000D01*
X162513047Y-111210190D01*
X162632095Y-111210190D01*
X162679714Y-111234000D01*
X162703523Y-111257809D01*
X162727333Y-111305428D01*
X162727333Y-111353047D01*
X162703523Y-111424476D01*
X162417809Y-111710190D01*
X162727333Y-111710190D01*
G04 #@! TO.C,J5*
X203776190Y-127652666D02*
X204133333Y-127652666D01*
X204204761Y-127676476D01*
X204252380Y-127724095D01*
X204276190Y-127795523D01*
X204276190Y-127843142D01*
X203776190Y-127176476D02*
X203776190Y-127414571D01*
X204014285Y-127438380D01*
X203990476Y-127414571D01*
X203966666Y-127366952D01*
X203966666Y-127247904D01*
X203990476Y-127200285D01*
X204014285Y-127176476D01*
X204061904Y-127152666D01*
X204180952Y-127152666D01*
X204228571Y-127176476D01*
X204252380Y-127200285D01*
X204276190Y-127247904D01*
X204276190Y-127366952D01*
X204252380Y-127414571D01*
X204228571Y-127438380D01*
G04 #@! TO.C,R10*
X174430571Y-124366690D02*
X174263904Y-124128595D01*
X174144857Y-124366690D02*
X174144857Y-123866690D01*
X174335333Y-123866690D01*
X174382952Y-123890500D01*
X174406761Y-123914309D01*
X174430571Y-123961928D01*
X174430571Y-124033357D01*
X174406761Y-124080976D01*
X174382952Y-124104785D01*
X174335333Y-124128595D01*
X174144857Y-124128595D01*
X174906761Y-124366690D02*
X174621047Y-124366690D01*
X174763904Y-124366690D02*
X174763904Y-123866690D01*
X174716285Y-123938119D01*
X174668666Y-123985738D01*
X174621047Y-124009547D01*
X175216285Y-123866690D02*
X175263904Y-123866690D01*
X175311523Y-123890500D01*
X175335333Y-123914309D01*
X175359142Y-123961928D01*
X175382952Y-124057166D01*
X175382952Y-124176214D01*
X175359142Y-124271452D01*
X175335333Y-124319071D01*
X175311523Y-124342880D01*
X175263904Y-124366690D01*
X175216285Y-124366690D01*
X175168666Y-124342880D01*
X175144857Y-124319071D01*
X175121047Y-124271452D01*
X175097238Y-124176214D01*
X175097238Y-124057166D01*
X175121047Y-123961928D01*
X175144857Y-123914309D01*
X175168666Y-123890500D01*
X175216285Y-123866690D01*
G04 #@! TO.C,D3*
X200102952Y-119162190D02*
X200102952Y-118662190D01*
X200222000Y-118662190D01*
X200293428Y-118686000D01*
X200341047Y-118733619D01*
X200364857Y-118781238D01*
X200388666Y-118876476D01*
X200388666Y-118947904D01*
X200364857Y-119043142D01*
X200341047Y-119090761D01*
X200293428Y-119138380D01*
X200222000Y-119162190D01*
X200102952Y-119162190D01*
X200555333Y-118662190D02*
X200864857Y-118662190D01*
X200698190Y-118852666D01*
X200769619Y-118852666D01*
X200817238Y-118876476D01*
X200841047Y-118900285D01*
X200864857Y-118947904D01*
X200864857Y-119066952D01*
X200841047Y-119114571D01*
X200817238Y-119138380D01*
X200769619Y-119162190D01*
X200626761Y-119162190D01*
X200579142Y-119138380D01*
X200555333Y-119114571D01*
G04 #@! TO.C,R19*
X199642571Y-112812190D02*
X199475904Y-112574095D01*
X199356857Y-112812190D02*
X199356857Y-112312190D01*
X199547333Y-112312190D01*
X199594952Y-112336000D01*
X199618761Y-112359809D01*
X199642571Y-112407428D01*
X199642571Y-112478857D01*
X199618761Y-112526476D01*
X199594952Y-112550285D01*
X199547333Y-112574095D01*
X199356857Y-112574095D01*
X200118761Y-112812190D02*
X199833047Y-112812190D01*
X199975904Y-112812190D02*
X199975904Y-112312190D01*
X199928285Y-112383619D01*
X199880666Y-112431238D01*
X199833047Y-112455047D01*
X200356857Y-112812190D02*
X200452095Y-112812190D01*
X200499714Y-112788380D01*
X200523523Y-112764571D01*
X200571142Y-112693142D01*
X200594952Y-112597904D01*
X200594952Y-112407428D01*
X200571142Y-112359809D01*
X200547333Y-112336000D01*
X200499714Y-112312190D01*
X200404476Y-112312190D01*
X200356857Y-112336000D01*
X200333047Y-112359809D01*
X200309238Y-112407428D01*
X200309238Y-112526476D01*
X200333047Y-112574095D01*
X200356857Y-112597904D01*
X200404476Y-112621714D01*
X200499714Y-112621714D01*
X200547333Y-112597904D01*
X200571142Y-112574095D01*
X200594952Y-112526476D01*
G04 #@! TO.C,R18*
X195914071Y-112812190D02*
X195747404Y-112574095D01*
X195628357Y-112812190D02*
X195628357Y-112312190D01*
X195818833Y-112312190D01*
X195866452Y-112336000D01*
X195890261Y-112359809D01*
X195914071Y-112407428D01*
X195914071Y-112478857D01*
X195890261Y-112526476D01*
X195866452Y-112550285D01*
X195818833Y-112574095D01*
X195628357Y-112574095D01*
X196390261Y-112812190D02*
X196104547Y-112812190D01*
X196247404Y-112812190D02*
X196247404Y-112312190D01*
X196199785Y-112383619D01*
X196152166Y-112431238D01*
X196104547Y-112455047D01*
X196675976Y-112526476D02*
X196628357Y-112502666D01*
X196604547Y-112478857D01*
X196580738Y-112431238D01*
X196580738Y-112407428D01*
X196604547Y-112359809D01*
X196628357Y-112336000D01*
X196675976Y-112312190D01*
X196771214Y-112312190D01*
X196818833Y-112336000D01*
X196842642Y-112359809D01*
X196866452Y-112407428D01*
X196866452Y-112431238D01*
X196842642Y-112478857D01*
X196818833Y-112502666D01*
X196771214Y-112526476D01*
X196675976Y-112526476D01*
X196628357Y-112550285D01*
X196604547Y-112574095D01*
X196580738Y-112621714D01*
X196580738Y-112716952D01*
X196604547Y-112764571D01*
X196628357Y-112788380D01*
X196675976Y-112812190D01*
X196771214Y-112812190D01*
X196818833Y-112788380D01*
X196842642Y-112764571D01*
X196866452Y-112716952D01*
X196866452Y-112621714D01*
X196842642Y-112574095D01*
X196818833Y-112550285D01*
X196771214Y-112526476D01*
G04 #@! TO.C,H7*
X188595047Y-119648190D02*
X188595047Y-119148190D01*
X188595047Y-119386285D02*
X188880761Y-119386285D01*
X188880761Y-119648190D02*
X188880761Y-119148190D01*
X189071238Y-119148190D02*
X189404571Y-119148190D01*
X189190285Y-119648190D01*
G04 #@! TO.C,U4*
X187159047Y-93430190D02*
X187159047Y-93834952D01*
X187182857Y-93882571D01*
X187206666Y-93906380D01*
X187254285Y-93930190D01*
X187349523Y-93930190D01*
X187397142Y-93906380D01*
X187420952Y-93882571D01*
X187444761Y-93834952D01*
X187444761Y-93430190D01*
X187897142Y-93596857D02*
X187897142Y-93930190D01*
X187778095Y-93406380D02*
X187659047Y-93763523D01*
X187968571Y-93763523D01*
D13*
X195635571Y-100448380D02*
X195635571Y-100115047D01*
X196159380Y-99972190D02*
X196159380Y-100448380D01*
X195159380Y-100448380D01*
X195159380Y-99972190D01*
X196111761Y-99591238D02*
X196159380Y-99448380D01*
X196159380Y-99210285D01*
X196111761Y-99115047D01*
X196064142Y-99067428D01*
X195968904Y-99019809D01*
X195873666Y-99019809D01*
X195778428Y-99067428D01*
X195730809Y-99115047D01*
X195683190Y-99210285D01*
X195635571Y-99400761D01*
X195587952Y-99496000D01*
X195540333Y-99543619D01*
X195445095Y-99591238D01*
X195349857Y-99591238D01*
X195254619Y-99543619D01*
X195207000Y-99496000D01*
X195159380Y-99400761D01*
X195159380Y-99162666D01*
X195207000Y-99019809D01*
X196159380Y-98591238D02*
X195159380Y-98591238D01*
X195159380Y-98210285D01*
X195207000Y-98115047D01*
X195254619Y-98067428D01*
X195349857Y-98019809D01*
X195492714Y-98019809D01*
X195587952Y-98067428D01*
X195635571Y-98115047D01*
X195683190Y-98210285D01*
X195683190Y-98591238D01*
X195159380Y-97686476D02*
X195159380Y-97067428D01*
X195540333Y-97400761D01*
X195540333Y-97257904D01*
X195587952Y-97162666D01*
X195635571Y-97115047D01*
X195730809Y-97067428D01*
X195968904Y-97067428D01*
X196064142Y-97115047D01*
X196111761Y-97162666D01*
X196159380Y-97257904D01*
X196159380Y-97543619D01*
X196111761Y-97638857D01*
X196064142Y-97686476D01*
X195254619Y-96686476D02*
X195207000Y-96638857D01*
X195159380Y-96543619D01*
X195159380Y-96305523D01*
X195207000Y-96210285D01*
X195254619Y-96162666D01*
X195349857Y-96115047D01*
X195445095Y-96115047D01*
X195587952Y-96162666D01*
X196159380Y-96734095D01*
X196159380Y-96115047D01*
X195778428Y-95686476D02*
X195778428Y-94924571D01*
X195159380Y-94543619D02*
X196159380Y-94305523D01*
X195445095Y-94115047D01*
X196159380Y-93924571D01*
X195159380Y-93686476D01*
X196159380Y-92734095D02*
X195683190Y-93067428D01*
X196159380Y-93305523D02*
X195159380Y-93305523D01*
X195159380Y-92924571D01*
X195207000Y-92829333D01*
X195254619Y-92781714D01*
X195349857Y-92734095D01*
X195492714Y-92734095D01*
X195587952Y-92781714D01*
X195635571Y-92829333D01*
X195683190Y-92924571D01*
X195683190Y-93305523D01*
X195159380Y-92115047D02*
X195159380Y-91924571D01*
X195207000Y-91829333D01*
X195302238Y-91734095D01*
X195492714Y-91686476D01*
X195826047Y-91686476D01*
X196016523Y-91734095D01*
X196111761Y-91829333D01*
X196159380Y-91924571D01*
X196159380Y-92115047D01*
X196111761Y-92210285D01*
X196016523Y-92305523D01*
X195826047Y-92353142D01*
X195492714Y-92353142D01*
X195302238Y-92305523D01*
X195207000Y-92210285D01*
X195159380Y-92115047D01*
X195159380Y-91067428D02*
X195159380Y-90876952D01*
X195207000Y-90781714D01*
X195302238Y-90686476D01*
X195492714Y-90638857D01*
X195826047Y-90638857D01*
X196016523Y-90686476D01*
X196111761Y-90781714D01*
X196159380Y-90876952D01*
X196159380Y-91067428D01*
X196111761Y-91162666D01*
X196016523Y-91257904D01*
X195826047Y-91305523D01*
X195492714Y-91305523D01*
X195302238Y-91257904D01*
X195207000Y-91162666D01*
X195159380Y-91067428D01*
X196159380Y-90210285D02*
X195159380Y-90210285D01*
X195873666Y-89876952D01*
X195159380Y-89543619D01*
X196159380Y-89543619D01*
X197286571Y-102710428D02*
X197286571Y-102377095D01*
X197810380Y-102234238D02*
X197810380Y-102710428D01*
X196810380Y-102710428D01*
X196810380Y-102234238D01*
X197762761Y-101853285D02*
X197810380Y-101758047D01*
X197810380Y-101567571D01*
X197762761Y-101472333D01*
X197667523Y-101424714D01*
X197619904Y-101424714D01*
X197524666Y-101472333D01*
X197477047Y-101567571D01*
X197477047Y-101710428D01*
X197429428Y-101805666D01*
X197334190Y-101853285D01*
X197286571Y-101853285D01*
X197191333Y-101805666D01*
X197143714Y-101710428D01*
X197143714Y-101567571D01*
X197191333Y-101472333D01*
X197143714Y-100996142D02*
X198143714Y-100996142D01*
X197191333Y-100996142D02*
X197143714Y-100900904D01*
X197143714Y-100710428D01*
X197191333Y-100615190D01*
X197238952Y-100567571D01*
X197334190Y-100519952D01*
X197619904Y-100519952D01*
X197715142Y-100567571D01*
X197762761Y-100615190D01*
X197810380Y-100710428D01*
X197810380Y-100900904D01*
X197762761Y-100996142D01*
X197810380Y-100091380D02*
X197143714Y-100091380D01*
X197334190Y-100091380D02*
X197238952Y-100043761D01*
X197191333Y-99996142D01*
X197143714Y-99900904D01*
X197143714Y-99805666D01*
X197762761Y-99091380D02*
X197810380Y-99186619D01*
X197810380Y-99377095D01*
X197762761Y-99472333D01*
X197667523Y-99519952D01*
X197286571Y-99519952D01*
X197191333Y-99472333D01*
X197143714Y-99377095D01*
X197143714Y-99186619D01*
X197191333Y-99091380D01*
X197286571Y-99043761D01*
X197381809Y-99043761D01*
X197477047Y-99519952D01*
X197762761Y-98662809D02*
X197810380Y-98567571D01*
X197810380Y-98377095D01*
X197762761Y-98281857D01*
X197667523Y-98234238D01*
X197619904Y-98234238D01*
X197524666Y-98281857D01*
X197477047Y-98377095D01*
X197477047Y-98519952D01*
X197429428Y-98615190D01*
X197334190Y-98662809D01*
X197286571Y-98662809D01*
X197191333Y-98615190D01*
X197143714Y-98519952D01*
X197143714Y-98377095D01*
X197191333Y-98281857D01*
X197762761Y-97853285D02*
X197810380Y-97758047D01*
X197810380Y-97567571D01*
X197762761Y-97472333D01*
X197667523Y-97424714D01*
X197619904Y-97424714D01*
X197524666Y-97472333D01*
X197477047Y-97567571D01*
X197477047Y-97710428D01*
X197429428Y-97805666D01*
X197334190Y-97853285D01*
X197286571Y-97853285D01*
X197191333Y-97805666D01*
X197143714Y-97710428D01*
X197143714Y-97567571D01*
X197191333Y-97472333D01*
X197810380Y-96996142D02*
X197143714Y-96996142D01*
X196810380Y-96996142D02*
X196858000Y-97043761D01*
X196905619Y-96996142D01*
X196858000Y-96948523D01*
X196810380Y-96996142D01*
X196905619Y-96996142D01*
X197143714Y-96662809D02*
X197143714Y-96281857D01*
X197810380Y-96519952D02*
X196953238Y-96519952D01*
X196858000Y-96472333D01*
X196810380Y-96377095D01*
X196810380Y-96281857D01*
X197762761Y-95234238D02*
X197810380Y-95091380D01*
X197810380Y-94853285D01*
X197762761Y-94758047D01*
X197715142Y-94710428D01*
X197619904Y-94662809D01*
X197524666Y-94662809D01*
X197429428Y-94710428D01*
X197381809Y-94758047D01*
X197334190Y-94853285D01*
X197286571Y-95043761D01*
X197238952Y-95139000D01*
X197191333Y-95186619D01*
X197096095Y-95234238D01*
X197000857Y-95234238D01*
X196905619Y-95186619D01*
X196858000Y-95139000D01*
X196810380Y-95043761D01*
X196810380Y-94805666D01*
X196858000Y-94662809D01*
X197143714Y-94329476D02*
X197810380Y-94091380D01*
X197143714Y-93853285D02*
X197810380Y-94091380D01*
X198048476Y-94186619D01*
X198096095Y-94234238D01*
X198143714Y-94329476D01*
X197762761Y-93519952D02*
X197810380Y-93424714D01*
X197810380Y-93234238D01*
X197762761Y-93139000D01*
X197667523Y-93091380D01*
X197619904Y-93091380D01*
X197524666Y-93139000D01*
X197477047Y-93234238D01*
X197477047Y-93377095D01*
X197429428Y-93472333D01*
X197334190Y-93519952D01*
X197286571Y-93519952D01*
X197191333Y-93472333D01*
X197143714Y-93377095D01*
X197143714Y-93234238D01*
X197191333Y-93139000D01*
X197143714Y-92805666D02*
X197143714Y-92424714D01*
X196810380Y-92662809D02*
X197667523Y-92662809D01*
X197762761Y-92615190D01*
X197810380Y-92519952D01*
X197810380Y-92424714D01*
X197762761Y-91710428D02*
X197810380Y-91805666D01*
X197810380Y-91996142D01*
X197762761Y-92091380D01*
X197667523Y-92139000D01*
X197286571Y-92139000D01*
X197191333Y-92091380D01*
X197143714Y-91996142D01*
X197143714Y-91805666D01*
X197191333Y-91710428D01*
X197286571Y-91662809D01*
X197381809Y-91662809D01*
X197477047Y-92139000D01*
X197810380Y-91234238D02*
X197143714Y-91234238D01*
X197238952Y-91234238D02*
X197191333Y-91186619D01*
X197143714Y-91091380D01*
X197143714Y-90948523D01*
X197191333Y-90853285D01*
X197286571Y-90805666D01*
X197810380Y-90805666D01*
X197286571Y-90805666D02*
X197191333Y-90758047D01*
X197143714Y-90662809D01*
X197143714Y-90519952D01*
X197191333Y-90424714D01*
X197286571Y-90377095D01*
X197810380Y-90377095D01*
X197762761Y-89948523D02*
X197810380Y-89853285D01*
X197810380Y-89662809D01*
X197762761Y-89567571D01*
X197667523Y-89519952D01*
X197619904Y-89519952D01*
X197524666Y-89567571D01*
X197477047Y-89662809D01*
X197477047Y-89805666D01*
X197429428Y-89900904D01*
X197334190Y-89948523D01*
X197286571Y-89948523D01*
X197191333Y-89900904D01*
X197143714Y-89805666D01*
X197143714Y-89662809D01*
X197191333Y-89567571D01*
G04 #@! TO.C,J9*
D11*
X201866190Y-82948666D02*
X202223333Y-82948666D01*
X202294761Y-82972476D01*
X202342380Y-83020095D01*
X202366190Y-83091523D01*
X202366190Y-83139142D01*
X202366190Y-82686761D02*
X202366190Y-82591523D01*
X202342380Y-82543904D01*
X202318571Y-82520095D01*
X202247142Y-82472476D01*
X202151904Y-82448666D01*
X201961428Y-82448666D01*
X201913809Y-82472476D01*
X201890000Y-82496285D01*
X201866190Y-82543904D01*
X201866190Y-82639142D01*
X201890000Y-82686761D01*
X201913809Y-82710571D01*
X201961428Y-82734380D01*
X202080476Y-82734380D01*
X202128095Y-82710571D01*
X202151904Y-82686761D01*
X202175714Y-82639142D01*
X202175714Y-82543904D01*
X202151904Y-82496285D01*
X202128095Y-82472476D01*
X202080476Y-82448666D01*
G04 #@! TO.C,J10*
X202607238Y-103800190D02*
X202607238Y-104157333D01*
X202583428Y-104228761D01*
X202535809Y-104276380D01*
X202464380Y-104300190D01*
X202416761Y-104300190D01*
X203107238Y-104300190D02*
X202821523Y-104300190D01*
X202964380Y-104300190D02*
X202964380Y-103800190D01*
X202916761Y-103871619D01*
X202869142Y-103919238D01*
X202821523Y-103943047D01*
X203416761Y-103800190D02*
X203464380Y-103800190D01*
X203512000Y-103824000D01*
X203535809Y-103847809D01*
X203559619Y-103895428D01*
X203583428Y-103990666D01*
X203583428Y-104109714D01*
X203559619Y-104204952D01*
X203535809Y-104252571D01*
X203512000Y-104276380D01*
X203464380Y-104300190D01*
X203416761Y-104300190D01*
X203369142Y-104276380D01*
X203345333Y-104252571D01*
X203321523Y-104204952D01*
X203297714Y-104109714D01*
X203297714Y-103990666D01*
X203321523Y-103895428D01*
X203345333Y-103847809D01*
X203369142Y-103824000D01*
X203416761Y-103800190D01*
G04 #@! TO.C,J15*
X203115238Y-115106190D02*
X203115238Y-115463333D01*
X203091428Y-115534761D01*
X203043809Y-115582380D01*
X202972380Y-115606190D01*
X202924761Y-115606190D01*
X203615238Y-115606190D02*
X203329523Y-115606190D01*
X203472380Y-115606190D02*
X203472380Y-115106190D01*
X203424761Y-115177619D01*
X203377142Y-115225238D01*
X203329523Y-115249047D01*
X204067619Y-115106190D02*
X203829523Y-115106190D01*
X203805714Y-115344285D01*
X203829523Y-115320476D01*
X203877142Y-115296666D01*
X203996190Y-115296666D01*
X204043809Y-115320476D01*
X204067619Y-115344285D01*
X204091428Y-115391904D01*
X204091428Y-115510952D01*
X204067619Y-115558571D01*
X204043809Y-115582380D01*
X203996190Y-115606190D01*
X203877142Y-115606190D01*
X203829523Y-115582380D01*
X203805714Y-115558571D01*
G04 #@! TO.C,J4*
X174585333Y-104015190D02*
X174585333Y-104372333D01*
X174561523Y-104443761D01*
X174513904Y-104491380D01*
X174442476Y-104515190D01*
X174394857Y-104515190D01*
X175037714Y-104181857D02*
X175037714Y-104515190D01*
X174918666Y-103991380D02*
X174799619Y-104348523D01*
X175109142Y-104348523D01*
G04 #@! TO.C,J8*
X176808190Y-107459666D02*
X177165333Y-107459666D01*
X177236761Y-107483476D01*
X177284380Y-107531095D01*
X177308190Y-107602523D01*
X177308190Y-107650142D01*
X177022476Y-107150142D02*
X176998666Y-107197761D01*
X176974857Y-107221571D01*
X176927238Y-107245380D01*
X176903428Y-107245380D01*
X176855809Y-107221571D01*
X176832000Y-107197761D01*
X176808190Y-107150142D01*
X176808190Y-107054904D01*
X176832000Y-107007285D01*
X176855809Y-106983476D01*
X176903428Y-106959666D01*
X176927238Y-106959666D01*
X176974857Y-106983476D01*
X176998666Y-107007285D01*
X177022476Y-107054904D01*
X177022476Y-107150142D01*
X177046285Y-107197761D01*
X177070095Y-107221571D01*
X177117714Y-107245380D01*
X177212952Y-107245380D01*
X177260571Y-107221571D01*
X177284380Y-107197761D01*
X177308190Y-107150142D01*
X177308190Y-107054904D01*
X177284380Y-107007285D01*
X177260571Y-106983476D01*
X177212952Y-106959666D01*
X177117714Y-106959666D01*
X177070095Y-106983476D01*
X177046285Y-107007285D01*
X177022476Y-107054904D01*
G04 #@! TO.C,J16*
X201866190Y-87631761D02*
X202223333Y-87631761D01*
X202294761Y-87655571D01*
X202342380Y-87703190D01*
X202366190Y-87774619D01*
X202366190Y-87822238D01*
X202366190Y-87131761D02*
X202366190Y-87417476D01*
X202366190Y-87274619D02*
X201866190Y-87274619D01*
X201937619Y-87322238D01*
X201985238Y-87369857D01*
X202009047Y-87417476D01*
X201866190Y-86703190D02*
X201866190Y-86798428D01*
X201890000Y-86846047D01*
X201913809Y-86869857D01*
X201985238Y-86917476D01*
X202080476Y-86941285D01*
X202270952Y-86941285D01*
X202318571Y-86917476D01*
X202342380Y-86893666D01*
X202366190Y-86846047D01*
X202366190Y-86750809D01*
X202342380Y-86703190D01*
X202318571Y-86679380D01*
X202270952Y-86655571D01*
X202151904Y-86655571D01*
X202104285Y-86679380D01*
X202080476Y-86703190D01*
X202056666Y-86750809D01*
X202056666Y-86846047D01*
X202080476Y-86893666D01*
X202104285Y-86917476D01*
X202151904Y-86941285D01*
G04 #@! TO.C,R16*
X168716190Y-125521428D02*
X168478095Y-125688095D01*
X168716190Y-125807142D02*
X168216190Y-125807142D01*
X168216190Y-125616666D01*
X168240000Y-125569047D01*
X168263809Y-125545238D01*
X168311428Y-125521428D01*
X168382857Y-125521428D01*
X168430476Y-125545238D01*
X168454285Y-125569047D01*
X168478095Y-125616666D01*
X168478095Y-125807142D01*
X168716190Y-125045238D02*
X168716190Y-125330952D01*
X168716190Y-125188095D02*
X168216190Y-125188095D01*
X168287619Y-125235714D01*
X168335238Y-125283333D01*
X168359047Y-125330952D01*
X168216190Y-124616666D02*
X168216190Y-124711904D01*
X168240000Y-124759523D01*
X168263809Y-124783333D01*
X168335238Y-124830952D01*
X168430476Y-124854761D01*
X168620952Y-124854761D01*
X168668571Y-124830952D01*
X168692380Y-124807142D01*
X168716190Y-124759523D01*
X168716190Y-124664285D01*
X168692380Y-124616666D01*
X168668571Y-124592857D01*
X168620952Y-124569047D01*
X168501904Y-124569047D01*
X168454285Y-124592857D01*
X168430476Y-124616666D01*
X168406666Y-124664285D01*
X168406666Y-124759523D01*
X168430476Y-124807142D01*
X168454285Y-124830952D01*
X168501904Y-124854761D01*
G04 #@! TO.C,R12*
X163917190Y-125881428D02*
X163679095Y-126048095D01*
X163917190Y-126167142D02*
X163417190Y-126167142D01*
X163417190Y-125976666D01*
X163441000Y-125929047D01*
X163464809Y-125905238D01*
X163512428Y-125881428D01*
X163583857Y-125881428D01*
X163631476Y-125905238D01*
X163655285Y-125929047D01*
X163679095Y-125976666D01*
X163679095Y-126167142D01*
X163917190Y-125405238D02*
X163917190Y-125690952D01*
X163917190Y-125548095D02*
X163417190Y-125548095D01*
X163488619Y-125595714D01*
X163536238Y-125643333D01*
X163560047Y-125690952D01*
X163464809Y-125214761D02*
X163441000Y-125190952D01*
X163417190Y-125143333D01*
X163417190Y-125024285D01*
X163441000Y-124976666D01*
X163464809Y-124952857D01*
X163512428Y-124929047D01*
X163560047Y-124929047D01*
X163631476Y-124952857D01*
X163917190Y-125238571D01*
X163917190Y-124929047D01*
G04 #@! TO.C,R15*
X200658571Y-132624190D02*
X200491904Y-132386095D01*
X200372857Y-132624190D02*
X200372857Y-132124190D01*
X200563333Y-132124190D01*
X200610952Y-132148000D01*
X200634761Y-132171809D01*
X200658571Y-132219428D01*
X200658571Y-132290857D01*
X200634761Y-132338476D01*
X200610952Y-132362285D01*
X200563333Y-132386095D01*
X200372857Y-132386095D01*
X201134761Y-132624190D02*
X200849047Y-132624190D01*
X200991904Y-132624190D02*
X200991904Y-132124190D01*
X200944285Y-132195619D01*
X200896666Y-132243238D01*
X200849047Y-132267047D01*
X201587142Y-132124190D02*
X201349047Y-132124190D01*
X201325238Y-132362285D01*
X201349047Y-132338476D01*
X201396666Y-132314666D01*
X201515714Y-132314666D01*
X201563333Y-132338476D01*
X201587142Y-132362285D01*
X201610952Y-132409904D01*
X201610952Y-132528952D01*
X201587142Y-132576571D01*
X201563333Y-132600380D01*
X201515714Y-132624190D01*
X201396666Y-132624190D01*
X201349047Y-132600380D01*
X201325238Y-132576571D01*
G04 #@! TO.C,R17*
X200592571Y-127933190D02*
X200425904Y-127695095D01*
X200306857Y-127933190D02*
X200306857Y-127433190D01*
X200497333Y-127433190D01*
X200544952Y-127457000D01*
X200568761Y-127480809D01*
X200592571Y-127528428D01*
X200592571Y-127599857D01*
X200568761Y-127647476D01*
X200544952Y-127671285D01*
X200497333Y-127695095D01*
X200306857Y-127695095D01*
X201068761Y-127933190D02*
X200783047Y-127933190D01*
X200925904Y-127933190D02*
X200925904Y-127433190D01*
X200878285Y-127504619D01*
X200830666Y-127552238D01*
X200783047Y-127576047D01*
X201235428Y-127433190D02*
X201568761Y-127433190D01*
X201354476Y-127933190D01*
G04 #@! TO.C,M1*
X159854678Y-120063570D02*
X159854678Y-119563570D01*
X160021344Y-119920713D01*
X160188011Y-119563570D01*
X160188011Y-120063570D01*
X160688011Y-120063570D02*
X160402297Y-120063570D01*
X160545154Y-120063570D02*
X160545154Y-119563570D01*
X160497535Y-119634999D01*
X160449916Y-119682618D01*
X160402297Y-119706427D01*
X158778347Y-122359730D02*
X158778347Y-121859730D01*
X158992633Y-122335920D02*
X159064061Y-122359730D01*
X159183109Y-122359730D01*
X159230728Y-122335920D01*
X159254538Y-122312111D01*
X159278347Y-122264492D01*
X159278347Y-122216873D01*
X159254538Y-122169254D01*
X159230728Y-122145444D01*
X159183109Y-122121635D01*
X159087871Y-122097825D01*
X159040252Y-122074016D01*
X159016442Y-122050206D01*
X158992633Y-122002587D01*
X158992633Y-121954968D01*
X159016442Y-121907349D01*
X159040252Y-121883540D01*
X159087871Y-121859730D01*
X159206919Y-121859730D01*
X159278347Y-121883540D01*
X159730728Y-122359730D02*
X159492633Y-122359730D01*
X159492633Y-121859730D01*
X159873585Y-121907349D02*
X159897395Y-121883540D01*
X159945014Y-121859730D01*
X160064061Y-121859730D01*
X160111680Y-121883540D01*
X160135490Y-121907349D01*
X160159300Y-121954968D01*
X160159300Y-122002587D01*
X160135490Y-122074016D01*
X159849776Y-122359730D01*
X160159300Y-122359730D01*
X160397395Y-122359730D02*
X160492633Y-122359730D01*
X160540252Y-122335920D01*
X160564061Y-122312111D01*
X160611680Y-122240682D01*
X160635490Y-122145444D01*
X160635490Y-121954968D01*
X160611680Y-121907349D01*
X160587871Y-121883540D01*
X160540252Y-121859730D01*
X160445014Y-121859730D01*
X160397395Y-121883540D01*
X160373585Y-121907349D01*
X160349776Y-121954968D01*
X160349776Y-122074016D01*
X160373585Y-122121635D01*
X160397395Y-122145444D01*
X160445014Y-122169254D01*
X160540252Y-122169254D01*
X160587871Y-122145444D01*
X160611680Y-122121635D01*
X160635490Y-122074016D01*
X161111680Y-122359730D02*
X160825966Y-122359730D01*
X160968823Y-122359730D02*
X160968823Y-121859730D01*
X160921204Y-121931159D01*
X160873585Y-121978778D01*
X160825966Y-122002587D01*
X161302157Y-121907349D02*
X161325966Y-121883540D01*
X161373585Y-121859730D01*
X161492633Y-121859730D01*
X161540252Y-121883540D01*
X161564061Y-121907349D01*
X161587871Y-121954968D01*
X161587871Y-122002587D01*
X161564061Y-122074016D01*
X161278347Y-122359730D01*
X161587871Y-122359730D01*
X162040252Y-121859730D02*
X161802157Y-121859730D01*
X161778347Y-122097825D01*
X161802157Y-122074016D01*
X161849776Y-122050206D01*
X161968823Y-122050206D01*
X162016442Y-122074016D01*
X162040252Y-122097825D01*
X162064061Y-122145444D01*
X162064061Y-122264492D01*
X162040252Y-122312111D01*
X162016442Y-122335920D01*
X161968823Y-122359730D01*
X161849776Y-122359730D01*
X161802157Y-122335920D01*
X161778347Y-122312111D01*
G04 #@! TO.C,U2*
X196557047Y-131530190D02*
X196557047Y-131934952D01*
X196580857Y-131982571D01*
X196604666Y-132006380D01*
X196652285Y-132030190D01*
X196747523Y-132030190D01*
X196795142Y-132006380D01*
X196818952Y-131982571D01*
X196842761Y-131934952D01*
X196842761Y-131530190D01*
X197057047Y-131577809D02*
X197080857Y-131554000D01*
X197128476Y-131530190D01*
X197247523Y-131530190D01*
X197295142Y-131554000D01*
X197318952Y-131577809D01*
X197342761Y-131625428D01*
X197342761Y-131673047D01*
X197318952Y-131744476D01*
X197033238Y-132030190D01*
X197342761Y-132030190D01*
X194529142Y-126704190D02*
X194814857Y-126704190D01*
X194672000Y-127204190D02*
X194672000Y-126704190D01*
X194981523Y-127204190D02*
X194981523Y-126704190D01*
X195148190Y-127061333D01*
X195314857Y-126704190D01*
X195314857Y-127204190D01*
X195552952Y-127204190D02*
X195552952Y-126704190D01*
X195743428Y-126704190D01*
X195791047Y-126728000D01*
X195814857Y-126751809D01*
X195838666Y-126799428D01*
X195838666Y-126870857D01*
X195814857Y-126918476D01*
X195791047Y-126942285D01*
X195743428Y-126966095D01*
X195552952Y-126966095D01*
X196314857Y-127204190D02*
X196029142Y-127204190D01*
X196172000Y-127204190D02*
X196172000Y-126704190D01*
X196124380Y-126775619D01*
X196076761Y-126823238D01*
X196029142Y-126847047D01*
X196624380Y-126704190D02*
X196672000Y-126704190D01*
X196719619Y-126728000D01*
X196743428Y-126751809D01*
X196767238Y-126799428D01*
X196791047Y-126894666D01*
X196791047Y-127013714D01*
X196767238Y-127108952D01*
X196743428Y-127156571D01*
X196719619Y-127180380D01*
X196672000Y-127204190D01*
X196624380Y-127204190D01*
X196576761Y-127180380D01*
X196552952Y-127156571D01*
X196529142Y-127108952D01*
X196505333Y-127013714D01*
X196505333Y-126894666D01*
X196529142Y-126799428D01*
X196552952Y-126751809D01*
X196576761Y-126728000D01*
X196624380Y-126704190D01*
X196981523Y-126751809D02*
X197005333Y-126728000D01*
X197052952Y-126704190D01*
X197172000Y-126704190D01*
X197219619Y-126728000D01*
X197243428Y-126751809D01*
X197267238Y-126799428D01*
X197267238Y-126847047D01*
X197243428Y-126918476D01*
X196957714Y-127204190D01*
X197267238Y-127204190D01*
G04 #@! TO.C,C9*
X209046666Y-128070571D02*
X209022857Y-128094380D01*
X208951428Y-128118190D01*
X208903809Y-128118190D01*
X208832380Y-128094380D01*
X208784761Y-128046761D01*
X208760952Y-127999142D01*
X208737142Y-127903904D01*
X208737142Y-127832476D01*
X208760952Y-127737238D01*
X208784761Y-127689619D01*
X208832380Y-127642000D01*
X208903809Y-127618190D01*
X208951428Y-127618190D01*
X209022857Y-127642000D01*
X209046666Y-127665809D01*
X209284761Y-128118190D02*
X209380000Y-128118190D01*
X209427619Y-128094380D01*
X209451428Y-128070571D01*
X209499047Y-127999142D01*
X209522857Y-127903904D01*
X209522857Y-127713428D01*
X209499047Y-127665809D01*
X209475238Y-127642000D01*
X209427619Y-127618190D01*
X209332380Y-127618190D01*
X209284761Y-127642000D01*
X209260952Y-127665809D01*
X209237142Y-127713428D01*
X209237142Y-127832476D01*
X209260952Y-127880095D01*
X209284761Y-127903904D01*
X209332380Y-127927714D01*
X209427619Y-127927714D01*
X209475238Y-127903904D01*
X209499047Y-127880095D01*
X209522857Y-127832476D01*
G04 #@! TO.C,F1*
X219296285Y-90336666D02*
X219296285Y-90503333D01*
X219558190Y-90503333D02*
X219058190Y-90503333D01*
X219058190Y-90265238D01*
X219558190Y-89812857D02*
X219558190Y-90098571D01*
X219558190Y-89955714D02*
X219058190Y-89955714D01*
X219129619Y-90003333D01*
X219177238Y-90050952D01*
X219201047Y-90098571D01*
G04 #@! TO.C,H4*
X215353047Y-130569690D02*
X215353047Y-130069690D01*
X215353047Y-130307785D02*
X215638761Y-130307785D01*
X215638761Y-130569690D02*
X215638761Y-130069690D01*
X216091142Y-130236357D02*
X216091142Y-130569690D01*
X215972095Y-130045880D02*
X215853047Y-130403023D01*
X216162571Y-130403023D01*
G04 #@! TO.C,R13*
X185712190Y-114431428D02*
X185474095Y-114598095D01*
X185712190Y-114717142D02*
X185212190Y-114717142D01*
X185212190Y-114526666D01*
X185236000Y-114479047D01*
X185259809Y-114455238D01*
X185307428Y-114431428D01*
X185378857Y-114431428D01*
X185426476Y-114455238D01*
X185450285Y-114479047D01*
X185474095Y-114526666D01*
X185474095Y-114717142D01*
X185712190Y-113955238D02*
X185712190Y-114240952D01*
X185712190Y-114098095D02*
X185212190Y-114098095D01*
X185283619Y-114145714D01*
X185331238Y-114193333D01*
X185355047Y-114240952D01*
X185212190Y-113788571D02*
X185212190Y-113479047D01*
X185402666Y-113645714D01*
X185402666Y-113574285D01*
X185426476Y-113526666D01*
X185450285Y-113502857D01*
X185497904Y-113479047D01*
X185616952Y-113479047D01*
X185664571Y-113502857D01*
X185688380Y-113526666D01*
X185712190Y-113574285D01*
X185712190Y-113717142D01*
X185688380Y-113764761D01*
X185664571Y-113788571D01*
G04 #@! TO.C,R14*
X190244190Y-113795928D02*
X190006095Y-113962595D01*
X190244190Y-114081642D02*
X189744190Y-114081642D01*
X189744190Y-113891166D01*
X189768000Y-113843547D01*
X189791809Y-113819738D01*
X189839428Y-113795928D01*
X189910857Y-113795928D01*
X189958476Y-113819738D01*
X189982285Y-113843547D01*
X190006095Y-113891166D01*
X190006095Y-114081642D01*
X190244190Y-113319738D02*
X190244190Y-113605452D01*
X190244190Y-113462595D02*
X189744190Y-113462595D01*
X189815619Y-113510214D01*
X189863238Y-113557833D01*
X189887047Y-113605452D01*
X189910857Y-112891166D02*
X190244190Y-112891166D01*
X189720380Y-113010214D02*
X190077523Y-113129261D01*
X190077523Y-112819738D01*
G04 #@! TO.C,J13*
X182563238Y-127720190D02*
X182563238Y-128077333D01*
X182539428Y-128148761D01*
X182491809Y-128196380D01*
X182420380Y-128220190D01*
X182372761Y-128220190D01*
X183063238Y-128220190D02*
X182777523Y-128220190D01*
X182920380Y-128220190D02*
X182920380Y-127720190D01*
X182872761Y-127791619D01*
X182825142Y-127839238D01*
X182777523Y-127863047D01*
X183229904Y-127720190D02*
X183539428Y-127720190D01*
X183372761Y-127910666D01*
X183444190Y-127910666D01*
X183491809Y-127934476D01*
X183515619Y-127958285D01*
X183539428Y-128005904D01*
X183539428Y-128124952D01*
X183515619Y-128172571D01*
X183491809Y-128196380D01*
X183444190Y-128220190D01*
X183301333Y-128220190D01*
X183253714Y-128196380D01*
X183229904Y-128172571D01*
G04 #@! TO.C,H1*
X159639047Y-105169690D02*
X159639047Y-104669690D01*
X159639047Y-104907785D02*
X159924761Y-104907785D01*
X159924761Y-105169690D02*
X159924761Y-104669690D01*
X160424761Y-105169690D02*
X160139047Y-105169690D01*
X160281904Y-105169690D02*
X160281904Y-104669690D01*
X160234285Y-104741119D01*
X160186666Y-104788738D01*
X160139047Y-104812547D01*
G04 #@! TO.C,H6*
X217639047Y-109741690D02*
X217639047Y-109241690D01*
X217639047Y-109479785D02*
X217924761Y-109479785D01*
X217924761Y-109741690D02*
X217924761Y-109241690D01*
X218377142Y-109241690D02*
X218281904Y-109241690D01*
X218234285Y-109265500D01*
X218210476Y-109289309D01*
X218162857Y-109360738D01*
X218139047Y-109455976D01*
X218139047Y-109646452D01*
X218162857Y-109694071D01*
X218186666Y-109717880D01*
X218234285Y-109741690D01*
X218329523Y-109741690D01*
X218377142Y-109717880D01*
X218400952Y-109694071D01*
X218424761Y-109646452D01*
X218424761Y-109527404D01*
X218400952Y-109479785D01*
X218377142Y-109455976D01*
X218329523Y-109432166D01*
X218234285Y-109432166D01*
X218186666Y-109455976D01*
X218162857Y-109479785D01*
X218139047Y-109527404D01*
G04 #@! TO.C,H3*
X215099047Y-81547690D02*
X215099047Y-81047690D01*
X215099047Y-81285785D02*
X215384761Y-81285785D01*
X215384761Y-81547690D02*
X215384761Y-81047690D01*
X215575238Y-81047690D02*
X215884761Y-81047690D01*
X215718095Y-81238166D01*
X215789523Y-81238166D01*
X215837142Y-81261976D01*
X215860952Y-81285785D01*
X215884761Y-81333404D01*
X215884761Y-81452452D01*
X215860952Y-81500071D01*
X215837142Y-81523880D01*
X215789523Y-81547690D01*
X215646666Y-81547690D01*
X215599047Y-81523880D01*
X215575238Y-81500071D01*
G04 #@! TO.C,H2*
X162013047Y-81484190D02*
X162013047Y-80984190D01*
X162013047Y-81222285D02*
X162298761Y-81222285D01*
X162298761Y-81484190D02*
X162298761Y-80984190D01*
X162513047Y-81031809D02*
X162536857Y-81008000D01*
X162584476Y-80984190D01*
X162703523Y-80984190D01*
X162751142Y-81008000D01*
X162774952Y-81031809D01*
X162798761Y-81079428D01*
X162798761Y-81127047D01*
X162774952Y-81198476D01*
X162489238Y-81484190D01*
X162798761Y-81484190D01*
G04 #@! TO.C,H5*
X162013047Y-130569690D02*
X162013047Y-130069690D01*
X162013047Y-130307785D02*
X162298761Y-130307785D01*
X162298761Y-130569690D02*
X162298761Y-130069690D01*
X162774952Y-130069690D02*
X162536857Y-130069690D01*
X162513047Y-130307785D01*
X162536857Y-130283976D01*
X162584476Y-130260166D01*
X162703523Y-130260166D01*
X162751142Y-130283976D01*
X162774952Y-130307785D01*
X162798761Y-130355404D01*
X162798761Y-130474452D01*
X162774952Y-130522071D01*
X162751142Y-130545880D01*
X162703523Y-130569690D01*
X162584476Y-130569690D01*
X162536857Y-130545880D01*
X162513047Y-130522071D01*
G04 #@! TO.C,D1*
X213713190Y-108446047D02*
X213213190Y-108446047D01*
X213213190Y-108327000D01*
X213237000Y-108255571D01*
X213284619Y-108207952D01*
X213332238Y-108184142D01*
X213427476Y-108160333D01*
X213498904Y-108160333D01*
X213594142Y-108184142D01*
X213641761Y-108207952D01*
X213689380Y-108255571D01*
X213713190Y-108327000D01*
X213713190Y-108446047D01*
X213713190Y-107684142D02*
X213713190Y-107969857D01*
X213713190Y-107827000D02*
X213213190Y-107827000D01*
X213284619Y-107874619D01*
X213332238Y-107922238D01*
X213356047Y-107969857D01*
G04 #@! TO.C,D2*
X207302190Y-108383047D02*
X206802190Y-108383047D01*
X206802190Y-108264000D01*
X206826000Y-108192571D01*
X206873619Y-108144952D01*
X206921238Y-108121142D01*
X207016476Y-108097333D01*
X207087904Y-108097333D01*
X207183142Y-108121142D01*
X207230761Y-108144952D01*
X207278380Y-108192571D01*
X207302190Y-108264000D01*
X207302190Y-108383047D01*
X206849809Y-107906857D02*
X206826000Y-107883047D01*
X206802190Y-107835428D01*
X206802190Y-107716380D01*
X206826000Y-107668761D01*
X206849809Y-107644952D01*
X206897428Y-107621142D01*
X206945047Y-107621142D01*
X207016476Y-107644952D01*
X207302190Y-107930666D01*
X207302190Y-107621142D01*
G04 #@! TO.C,C1*
X214046571Y-96349333D02*
X214070380Y-96373142D01*
X214094190Y-96444571D01*
X214094190Y-96492190D01*
X214070380Y-96563619D01*
X214022761Y-96611238D01*
X213975142Y-96635047D01*
X213879904Y-96658857D01*
X213808476Y-96658857D01*
X213713238Y-96635047D01*
X213665619Y-96611238D01*
X213618000Y-96563619D01*
X213594190Y-96492190D01*
X213594190Y-96444571D01*
X213618000Y-96373142D01*
X213641809Y-96349333D01*
X214094190Y-95873142D02*
X214094190Y-96158857D01*
X214094190Y-96016000D02*
X213594190Y-96016000D01*
X213665619Y-96063619D01*
X213713238Y-96111238D01*
X213737047Y-96158857D01*
G04 #@! TO.C,C2*
X206738666Y-105398571D02*
X206714857Y-105422380D01*
X206643428Y-105446190D01*
X206595809Y-105446190D01*
X206524380Y-105422380D01*
X206476761Y-105374761D01*
X206452952Y-105327142D01*
X206429142Y-105231904D01*
X206429142Y-105160476D01*
X206452952Y-105065238D01*
X206476761Y-105017619D01*
X206524380Y-104970000D01*
X206595809Y-104946190D01*
X206643428Y-104946190D01*
X206714857Y-104970000D01*
X206738666Y-104993809D01*
X206929142Y-104993809D02*
X206952952Y-104970000D01*
X207000571Y-104946190D01*
X207119619Y-104946190D01*
X207167238Y-104970000D01*
X207191047Y-104993809D01*
X207214857Y-105041428D01*
X207214857Y-105089047D01*
X207191047Y-105160476D01*
X206905333Y-105446190D01*
X207214857Y-105446190D01*
G04 #@! TO.C,C7*
X202674666Y-102604571D02*
X202650857Y-102628380D01*
X202579428Y-102652190D01*
X202531809Y-102652190D01*
X202460380Y-102628380D01*
X202412761Y-102580761D01*
X202388952Y-102533142D01*
X202365142Y-102437904D01*
X202365142Y-102366476D01*
X202388952Y-102271238D01*
X202412761Y-102223619D01*
X202460380Y-102176000D01*
X202531809Y-102152190D01*
X202579428Y-102152190D01*
X202650857Y-102176000D01*
X202674666Y-102199809D01*
X202841333Y-102152190D02*
X203174666Y-102152190D01*
X202960380Y-102652190D01*
G04 #@! TO.C,C8*
X170438666Y-91342571D02*
X170414857Y-91366380D01*
X170343428Y-91390190D01*
X170295809Y-91390190D01*
X170224380Y-91366380D01*
X170176761Y-91318761D01*
X170152952Y-91271142D01*
X170129142Y-91175904D01*
X170129142Y-91104476D01*
X170152952Y-91009238D01*
X170176761Y-90961619D01*
X170224380Y-90914000D01*
X170295809Y-90890190D01*
X170343428Y-90890190D01*
X170414857Y-90914000D01*
X170438666Y-90937809D01*
X170724380Y-91104476D02*
X170676761Y-91080666D01*
X170652952Y-91056857D01*
X170629142Y-91009238D01*
X170629142Y-90985428D01*
X170652952Y-90937809D01*
X170676761Y-90914000D01*
X170724380Y-90890190D01*
X170819619Y-90890190D01*
X170867238Y-90914000D01*
X170891047Y-90937809D01*
X170914857Y-90985428D01*
X170914857Y-91009238D01*
X170891047Y-91056857D01*
X170867238Y-91080666D01*
X170819619Y-91104476D01*
X170724380Y-91104476D01*
X170676761Y-91128285D01*
X170652952Y-91152095D01*
X170629142Y-91199714D01*
X170629142Y-91294952D01*
X170652952Y-91342571D01*
X170676761Y-91366380D01*
X170724380Y-91390190D01*
X170819619Y-91390190D01*
X170867238Y-91366380D01*
X170891047Y-91342571D01*
X170914857Y-91294952D01*
X170914857Y-91199714D01*
X170891047Y-91152095D01*
X170867238Y-91128285D01*
X170819619Y-91104476D01*
G04 #@! TO.C,C10*
X205062071Y-122330571D02*
X205038261Y-122354380D01*
X204966833Y-122378190D01*
X204919214Y-122378190D01*
X204847785Y-122354380D01*
X204800166Y-122306761D01*
X204776357Y-122259142D01*
X204752547Y-122163904D01*
X204752547Y-122092476D01*
X204776357Y-121997238D01*
X204800166Y-121949619D01*
X204847785Y-121902000D01*
X204919214Y-121878190D01*
X204966833Y-121878190D01*
X205038261Y-121902000D01*
X205062071Y-121925809D01*
X205538261Y-122378190D02*
X205252547Y-122378190D01*
X205395404Y-122378190D02*
X205395404Y-121878190D01*
X205347785Y-121949619D01*
X205300166Y-121997238D01*
X205252547Y-122021047D01*
X205847785Y-121878190D02*
X205895404Y-121878190D01*
X205943023Y-121902000D01*
X205966833Y-121925809D01*
X205990642Y-121973428D01*
X206014452Y-122068666D01*
X206014452Y-122187714D01*
X205990642Y-122282952D01*
X205966833Y-122330571D01*
X205943023Y-122354380D01*
X205895404Y-122378190D01*
X205847785Y-122378190D01*
X205800166Y-122354380D01*
X205776357Y-122330571D01*
X205752547Y-122282952D01*
X205728738Y-122187714D01*
X205728738Y-122068666D01*
X205752547Y-121973428D01*
X205776357Y-121925809D01*
X205800166Y-121902000D01*
X205847785Y-121878190D01*
G04 #@! TO.C,C11*
X187718571Y-118917428D02*
X187742380Y-118941238D01*
X187766190Y-119012666D01*
X187766190Y-119060285D01*
X187742380Y-119131714D01*
X187694761Y-119179333D01*
X187647142Y-119203142D01*
X187551904Y-119226952D01*
X187480476Y-119226952D01*
X187385238Y-119203142D01*
X187337619Y-119179333D01*
X187290000Y-119131714D01*
X187266190Y-119060285D01*
X187266190Y-119012666D01*
X187290000Y-118941238D01*
X187313809Y-118917428D01*
X187766190Y-118441238D02*
X187766190Y-118726952D01*
X187766190Y-118584095D02*
X187266190Y-118584095D01*
X187337619Y-118631714D01*
X187385238Y-118679333D01*
X187409047Y-118726952D01*
X187766190Y-117965047D02*
X187766190Y-118250761D01*
X187766190Y-118107904D02*
X187266190Y-118107904D01*
X187337619Y-118155523D01*
X187385238Y-118203142D01*
X187409047Y-118250761D01*
G04 #@! TO.C,D4*
X211046190Y-90793047D02*
X210546190Y-90793047D01*
X210546190Y-90674000D01*
X210570000Y-90602571D01*
X210617619Y-90554952D01*
X210665238Y-90531142D01*
X210760476Y-90507333D01*
X210831904Y-90507333D01*
X210927142Y-90531142D01*
X210974761Y-90554952D01*
X211022380Y-90602571D01*
X211046190Y-90674000D01*
X211046190Y-90793047D01*
X210712857Y-90078761D02*
X211046190Y-90078761D01*
X210522380Y-90197809D02*
X210879523Y-90316857D01*
X210879523Y-90007333D01*
G04 #@! TO.C,D5*
X204536190Y-93079047D02*
X204036190Y-93079047D01*
X204036190Y-92960000D01*
X204060000Y-92888571D01*
X204107619Y-92840952D01*
X204155238Y-92817142D01*
X204250476Y-92793333D01*
X204321904Y-92793333D01*
X204417142Y-92817142D01*
X204464761Y-92840952D01*
X204512380Y-92888571D01*
X204536190Y-92960000D01*
X204536190Y-93079047D01*
X204036190Y-92340952D02*
X204036190Y-92579047D01*
X204274285Y-92602857D01*
X204250476Y-92579047D01*
X204226666Y-92531428D01*
X204226666Y-92412380D01*
X204250476Y-92364761D01*
X204274285Y-92340952D01*
X204321904Y-92317142D01*
X204440952Y-92317142D01*
X204488571Y-92340952D01*
X204512380Y-92364761D01*
X204536190Y-92412380D01*
X204536190Y-92531428D01*
X204512380Y-92579047D01*
X204488571Y-92602857D01*
G04 #@! TO.C,J1*
X219690190Y-94146666D02*
X220047333Y-94146666D01*
X220118761Y-94170476D01*
X220166380Y-94218095D01*
X220190190Y-94289523D01*
X220190190Y-94337142D01*
X220190190Y-93646666D02*
X220190190Y-93932380D01*
X220190190Y-93789523D02*
X219690190Y-93789523D01*
X219761619Y-93837142D01*
X219809238Y-93884761D01*
X219833047Y-93932380D01*
G04 #@! TO.C,J3*
X158417333Y-92414190D02*
X158417333Y-92771333D01*
X158393523Y-92842761D01*
X158345904Y-92890380D01*
X158274476Y-92914190D01*
X158226857Y-92914190D01*
X158607809Y-92414190D02*
X158917333Y-92414190D01*
X158750666Y-92604666D01*
X158822095Y-92604666D01*
X158869714Y-92628476D01*
X158893523Y-92652285D01*
X158917333Y-92699904D01*
X158917333Y-92818952D01*
X158893523Y-92866571D01*
X158869714Y-92890380D01*
X158822095Y-92914190D01*
X158679238Y-92914190D01*
X158631619Y-92890380D01*
X158607809Y-92866571D01*
G04 #@! TO.C,J7*
X214422190Y-127484666D02*
X214779333Y-127484666D01*
X214850761Y-127508476D01*
X214898380Y-127556095D01*
X214922190Y-127627523D01*
X214922190Y-127675142D01*
X214422190Y-127294190D02*
X214422190Y-126960857D01*
X214922190Y-127175142D01*
G04 #@! TO.C,J11*
X168847238Y-127720190D02*
X168847238Y-128077333D01*
X168823428Y-128148761D01*
X168775809Y-128196380D01*
X168704380Y-128220190D01*
X168656761Y-128220190D01*
X169347238Y-128220190D02*
X169061523Y-128220190D01*
X169204380Y-128220190D02*
X169204380Y-127720190D01*
X169156761Y-127791619D01*
X169109142Y-127839238D01*
X169061523Y-127863047D01*
X169823428Y-128220190D02*
X169537714Y-128220190D01*
X169680571Y-128220190D02*
X169680571Y-127720190D01*
X169632952Y-127791619D01*
X169585333Y-127839238D01*
X169537714Y-127863047D01*
G04 #@! TO.C,J12*
X175705238Y-127720190D02*
X175705238Y-128077333D01*
X175681428Y-128148761D01*
X175633809Y-128196380D01*
X175562380Y-128220190D01*
X175514761Y-128220190D01*
X176205238Y-128220190D02*
X175919523Y-128220190D01*
X176062380Y-128220190D02*
X176062380Y-127720190D01*
X176014761Y-127791619D01*
X175967142Y-127839238D01*
X175919523Y-127863047D01*
X176395714Y-127767809D02*
X176419523Y-127744000D01*
X176467142Y-127720190D01*
X176586190Y-127720190D01*
X176633809Y-127744000D01*
X176657619Y-127767809D01*
X176681428Y-127815428D01*
X176681428Y-127863047D01*
X176657619Y-127934476D01*
X176371904Y-128220190D01*
X176681428Y-128220190D01*
G04 #@! TO.C,J14*
X189421238Y-127720190D02*
X189421238Y-128077333D01*
X189397428Y-128148761D01*
X189349809Y-128196380D01*
X189278380Y-128220190D01*
X189230761Y-128220190D01*
X189921238Y-128220190D02*
X189635523Y-128220190D01*
X189778380Y-128220190D02*
X189778380Y-127720190D01*
X189730761Y-127791619D01*
X189683142Y-127839238D01*
X189635523Y-127863047D01*
X190349809Y-127886857D02*
X190349809Y-128220190D01*
X190230761Y-127696380D02*
X190111714Y-128053523D01*
X190421238Y-128053523D01*
G04 #@! TO.C,JP1*
X165279333Y-118322190D02*
X165279333Y-118679333D01*
X165255523Y-118750761D01*
X165207904Y-118798380D01*
X165136476Y-118822190D01*
X165088857Y-118822190D01*
X165517428Y-118822190D02*
X165517428Y-118322190D01*
X165707904Y-118322190D01*
X165755523Y-118346000D01*
X165779333Y-118369809D01*
X165803142Y-118417428D01*
X165803142Y-118488857D01*
X165779333Y-118536476D01*
X165755523Y-118560285D01*
X165707904Y-118584095D01*
X165517428Y-118584095D01*
X166279333Y-118822190D02*
X165993619Y-118822190D01*
X166136476Y-118822190D02*
X166136476Y-118322190D01*
X166088857Y-118393619D01*
X166041238Y-118441238D01*
X165993619Y-118465047D01*
G04 #@! TO.C,JP2*
X165279333Y-115528190D02*
X165279333Y-115885333D01*
X165255523Y-115956761D01*
X165207904Y-116004380D01*
X165136476Y-116028190D01*
X165088857Y-116028190D01*
X165517428Y-116028190D02*
X165517428Y-115528190D01*
X165707904Y-115528190D01*
X165755523Y-115552000D01*
X165779333Y-115575809D01*
X165803142Y-115623428D01*
X165803142Y-115694857D01*
X165779333Y-115742476D01*
X165755523Y-115766285D01*
X165707904Y-115790095D01*
X165517428Y-115790095D01*
X165993619Y-115575809D02*
X166017428Y-115552000D01*
X166065047Y-115528190D01*
X166184095Y-115528190D01*
X166231714Y-115552000D01*
X166255523Y-115575809D01*
X166279333Y-115623428D01*
X166279333Y-115671047D01*
X166255523Y-115742476D01*
X165969809Y-116028190D01*
X166279333Y-116028190D01*
G04 #@! TO.C,JP3*
X167832833Y-111550190D02*
X167832833Y-111907333D01*
X167809023Y-111978761D01*
X167761404Y-112026380D01*
X167689976Y-112050190D01*
X167642357Y-112050190D01*
X168070928Y-112050190D02*
X168070928Y-111550190D01*
X168261404Y-111550190D01*
X168309023Y-111574000D01*
X168332833Y-111597809D01*
X168356642Y-111645428D01*
X168356642Y-111716857D01*
X168332833Y-111764476D01*
X168309023Y-111788285D01*
X168261404Y-111812095D01*
X168070928Y-111812095D01*
X168523309Y-111550190D02*
X168832833Y-111550190D01*
X168666166Y-111740666D01*
X168737595Y-111740666D01*
X168785214Y-111764476D01*
X168809023Y-111788285D01*
X168832833Y-111835904D01*
X168832833Y-111954952D01*
X168809023Y-112002571D01*
X168785214Y-112026380D01*
X168737595Y-112050190D01*
X168594738Y-112050190D01*
X168547119Y-112026380D01*
X168523309Y-112002571D01*
G04 #@! TO.C,R1*
X213022666Y-105542190D02*
X212856000Y-105304095D01*
X212736952Y-105542190D02*
X212736952Y-105042190D01*
X212927428Y-105042190D01*
X212975047Y-105066000D01*
X212998857Y-105089809D01*
X213022666Y-105137428D01*
X213022666Y-105208857D01*
X212998857Y-105256476D01*
X212975047Y-105280285D01*
X212927428Y-105304095D01*
X212736952Y-105304095D01*
X213498857Y-105542190D02*
X213213142Y-105542190D01*
X213356000Y-105542190D02*
X213356000Y-105042190D01*
X213308380Y-105113619D01*
X213260761Y-105161238D01*
X213213142Y-105185047D01*
G04 #@! TO.C,R2*
X213078190Y-90507333D02*
X212840095Y-90674000D01*
X213078190Y-90793047D02*
X212578190Y-90793047D01*
X212578190Y-90602571D01*
X212602000Y-90554952D01*
X212625809Y-90531142D01*
X212673428Y-90507333D01*
X212744857Y-90507333D01*
X212792476Y-90531142D01*
X212816285Y-90554952D01*
X212840095Y-90602571D01*
X212840095Y-90793047D01*
X212625809Y-90316857D02*
X212602000Y-90293047D01*
X212578190Y-90245428D01*
X212578190Y-90126380D01*
X212602000Y-90078761D01*
X212625809Y-90054952D01*
X212673428Y-90031142D01*
X212721047Y-90031142D01*
X212792476Y-90054952D01*
X213078190Y-90340666D01*
X213078190Y-90031142D01*
G04 #@! TO.C,R3*
X209301190Y-92793333D02*
X209063095Y-92960000D01*
X209301190Y-93079047D02*
X208801190Y-93079047D01*
X208801190Y-92888571D01*
X208825000Y-92840952D01*
X208848809Y-92817142D01*
X208896428Y-92793333D01*
X208967857Y-92793333D01*
X209015476Y-92817142D01*
X209039285Y-92840952D01*
X209063095Y-92888571D01*
X209063095Y-93079047D01*
X208801190Y-92626666D02*
X208801190Y-92317142D01*
X208991666Y-92483809D01*
X208991666Y-92412380D01*
X209015476Y-92364761D01*
X209039285Y-92340952D01*
X209086904Y-92317142D01*
X209205952Y-92317142D01*
X209253571Y-92340952D01*
X209277380Y-92364761D01*
X209301190Y-92412380D01*
X209301190Y-92555238D01*
X209277380Y-92602857D01*
X209253571Y-92626666D01*
G04 #@! TO.C,R4*
X206164666Y-95730190D02*
X205998000Y-95492095D01*
X205878952Y-95730190D02*
X205878952Y-95230190D01*
X206069428Y-95230190D01*
X206117047Y-95254000D01*
X206140857Y-95277809D01*
X206164666Y-95325428D01*
X206164666Y-95396857D01*
X206140857Y-95444476D01*
X206117047Y-95468285D01*
X206069428Y-95492095D01*
X205878952Y-95492095D01*
X206593238Y-95396857D02*
X206593238Y-95730190D01*
X206474190Y-95206380D02*
X206355142Y-95563523D01*
X206664666Y-95563523D01*
G04 #@! TO.C,R5*
X203966666Y-98756190D02*
X203800000Y-98518095D01*
X203680952Y-98756190D02*
X203680952Y-98256190D01*
X203871428Y-98256190D01*
X203919047Y-98280000D01*
X203942857Y-98303809D01*
X203966666Y-98351428D01*
X203966666Y-98422857D01*
X203942857Y-98470476D01*
X203919047Y-98494285D01*
X203871428Y-98518095D01*
X203680952Y-98518095D01*
X204419047Y-98256190D02*
X204180952Y-98256190D01*
X204157142Y-98494285D01*
X204180952Y-98470476D01*
X204228571Y-98446666D01*
X204347619Y-98446666D01*
X204395238Y-98470476D01*
X204419047Y-98494285D01*
X204442857Y-98541904D01*
X204442857Y-98660952D01*
X204419047Y-98708571D01*
X204395238Y-98732380D01*
X204347619Y-98756190D01*
X204228571Y-98756190D01*
X204180952Y-98732380D01*
X204157142Y-98708571D01*
G04 #@! TO.C,R6*
X173994666Y-91390190D02*
X173828000Y-91152095D01*
X173708952Y-91390190D02*
X173708952Y-90890190D01*
X173899428Y-90890190D01*
X173947047Y-90914000D01*
X173970857Y-90937809D01*
X173994666Y-90985428D01*
X173994666Y-91056857D01*
X173970857Y-91104476D01*
X173947047Y-91128285D01*
X173899428Y-91152095D01*
X173708952Y-91152095D01*
X174423238Y-90890190D02*
X174328000Y-90890190D01*
X174280380Y-90914000D01*
X174256571Y-90937809D01*
X174208952Y-91009238D01*
X174185142Y-91104476D01*
X174185142Y-91294952D01*
X174208952Y-91342571D01*
X174232761Y-91366380D01*
X174280380Y-91390190D01*
X174375619Y-91390190D01*
X174423238Y-91366380D01*
X174447047Y-91342571D01*
X174470857Y-91294952D01*
X174470857Y-91175904D01*
X174447047Y-91128285D01*
X174423238Y-91104476D01*
X174375619Y-91080666D01*
X174280380Y-91080666D01*
X174232761Y-91104476D01*
X174208952Y-91128285D01*
X174185142Y-91175904D01*
G04 #@! TO.C,R7*
X173288190Y-113091333D02*
X173050095Y-113258000D01*
X173288190Y-113377047D02*
X172788190Y-113377047D01*
X172788190Y-113186571D01*
X172812000Y-113138952D01*
X172835809Y-113115142D01*
X172883428Y-113091333D01*
X172954857Y-113091333D01*
X173002476Y-113115142D01*
X173026285Y-113138952D01*
X173050095Y-113186571D01*
X173050095Y-113377047D01*
X172788190Y-112924666D02*
X172788190Y-112591333D01*
X173288190Y-112805619D01*
G04 #@! TO.C,R8*
X171940666Y-122210190D02*
X171774000Y-121972095D01*
X171654952Y-122210190D02*
X171654952Y-121710190D01*
X171845428Y-121710190D01*
X171893047Y-121734000D01*
X171916857Y-121757809D01*
X171940666Y-121805428D01*
X171940666Y-121876857D01*
X171916857Y-121924476D01*
X171893047Y-121948285D01*
X171845428Y-121972095D01*
X171654952Y-121972095D01*
X172226380Y-121924476D02*
X172178761Y-121900666D01*
X172154952Y-121876857D01*
X172131142Y-121829238D01*
X172131142Y-121805428D01*
X172154952Y-121757809D01*
X172178761Y-121734000D01*
X172226380Y-121710190D01*
X172321619Y-121710190D01*
X172369238Y-121734000D01*
X172393047Y-121757809D01*
X172416857Y-121805428D01*
X172416857Y-121829238D01*
X172393047Y-121876857D01*
X172369238Y-121900666D01*
X172321619Y-121924476D01*
X172226380Y-121924476D01*
X172178761Y-121948285D01*
X172154952Y-121972095D01*
X172131142Y-122019714D01*
X172131142Y-122114952D01*
X172154952Y-122162571D01*
X172178761Y-122186380D01*
X172226380Y-122210190D01*
X172321619Y-122210190D01*
X172369238Y-122186380D01*
X172393047Y-122162571D01*
X172416857Y-122114952D01*
X172416857Y-122019714D01*
X172393047Y-121972095D01*
X172369238Y-121948285D01*
X172321619Y-121924476D01*
G04 #@! TO.C,R9*
X174480666Y-117892190D02*
X174314000Y-117654095D01*
X174194952Y-117892190D02*
X174194952Y-117392190D01*
X174385428Y-117392190D01*
X174433047Y-117416000D01*
X174456857Y-117439809D01*
X174480666Y-117487428D01*
X174480666Y-117558857D01*
X174456857Y-117606476D01*
X174433047Y-117630285D01*
X174385428Y-117654095D01*
X174194952Y-117654095D01*
X174718761Y-117892190D02*
X174814000Y-117892190D01*
X174861619Y-117868380D01*
X174885428Y-117844571D01*
X174933047Y-117773142D01*
X174956857Y-117677904D01*
X174956857Y-117487428D01*
X174933047Y-117439809D01*
X174909238Y-117416000D01*
X174861619Y-117392190D01*
X174766380Y-117392190D01*
X174718761Y-117416000D01*
X174694952Y-117439809D01*
X174671142Y-117487428D01*
X174671142Y-117606476D01*
X174694952Y-117654095D01*
X174718761Y-117677904D01*
X174766380Y-117701714D01*
X174861619Y-117701714D01*
X174909238Y-117677904D01*
X174933047Y-117654095D01*
X174956857Y-117606476D01*
G04 #@! TO.C,R11*
X196594571Y-121194190D02*
X196427904Y-120956095D01*
X196308857Y-121194190D02*
X196308857Y-120694190D01*
X196499333Y-120694190D01*
X196546952Y-120718000D01*
X196570761Y-120741809D01*
X196594571Y-120789428D01*
X196594571Y-120860857D01*
X196570761Y-120908476D01*
X196546952Y-120932285D01*
X196499333Y-120956095D01*
X196308857Y-120956095D01*
X197070761Y-121194190D02*
X196785047Y-121194190D01*
X196927904Y-121194190D02*
X196927904Y-120694190D01*
X196880285Y-120765619D01*
X196832666Y-120813238D01*
X196785047Y-120837047D01*
X197546952Y-121194190D02*
X197261238Y-121194190D01*
X197404095Y-121194190D02*
X197404095Y-120694190D01*
X197356476Y-120765619D01*
X197308857Y-120813238D01*
X197261238Y-120837047D01*
G04 #@! TO.C,U1*
X205214190Y-99440952D02*
X205618952Y-99440952D01*
X205666571Y-99417142D01*
X205690380Y-99393333D01*
X205714190Y-99345714D01*
X205714190Y-99250476D01*
X205690380Y-99202857D01*
X205666571Y-99179047D01*
X205618952Y-99155238D01*
X205214190Y-99155238D01*
X205714190Y-98655238D02*
X205714190Y-98940952D01*
X205714190Y-98798095D02*
X205214190Y-98798095D01*
X205285619Y-98845714D01*
X205333238Y-98893333D01*
X205357047Y-98940952D01*
G04 #@! TO.C,U5*
X215077047Y-114344190D02*
X215077047Y-114748952D01*
X215100857Y-114796571D01*
X215124666Y-114820380D01*
X215172285Y-114844190D01*
X215267523Y-114844190D01*
X215315142Y-114820380D01*
X215338952Y-114796571D01*
X215362761Y-114748952D01*
X215362761Y-114344190D01*
X215838952Y-114344190D02*
X215600857Y-114344190D01*
X215577047Y-114582285D01*
X215600857Y-114558476D01*
X215648476Y-114534666D01*
X215767523Y-114534666D01*
X215815142Y-114558476D01*
X215838952Y-114582285D01*
X215862761Y-114629904D01*
X215862761Y-114748952D01*
X215838952Y-114796571D01*
X215815142Y-114820380D01*
X215767523Y-114844190D01*
X215648476Y-114844190D01*
X215600857Y-114820380D01*
X215577047Y-114796571D01*
G04 #@! TO.C,U6*
X179558190Y-116712952D02*
X179962952Y-116712952D01*
X180010571Y-116689142D01*
X180034380Y-116665333D01*
X180058190Y-116617714D01*
X180058190Y-116522476D01*
X180034380Y-116474857D01*
X180010571Y-116451047D01*
X179962952Y-116427238D01*
X179558190Y-116427238D01*
X179558190Y-115974857D02*
X179558190Y-116070095D01*
X179582000Y-116117714D01*
X179605809Y-116141523D01*
X179677238Y-116189142D01*
X179772476Y-116212952D01*
X179962952Y-116212952D01*
X180010571Y-116189142D01*
X180034380Y-116165333D01*
X180058190Y-116117714D01*
X180058190Y-116022476D01*
X180034380Y-115974857D01*
X180010571Y-115951047D01*
X179962952Y-115927238D01*
X179843904Y-115927238D01*
X179796285Y-115951047D01*
X179772476Y-115974857D01*
X179748666Y-116022476D01*
X179748666Y-116117714D01*
X179772476Y-116165333D01*
X179796285Y-116189142D01*
X179843904Y-116212952D01*
G04 #@! TD*
M02*
