G04 #@! TF.GenerationSoftware,KiCad,Pcbnew,5.0.1+dfsg1-3~bpo9+1*
G04 #@! TF.CreationDate,2019-01-06T07:11:04+00:00*
G04 #@! TF.ProjectId,portia,706F727469612E6B696361645F706362,rev?*
G04 #@! TF.SameCoordinates,Original*
G04 #@! TF.FileFunction,Soldermask,Bot*
G04 #@! TF.FilePolarity,Negative*
%FSLAX46Y46*%
G04 Gerber Fmt 4.6, Leading zero omitted, Abs format (unit mm)*
G04 Created by KiCad (PCBNEW 5.0.1+dfsg1-3~bpo9+1) date Sun 06 Jan 2019 07:11:04 AM UTC*
%MOMM*%
%LPD*%
G01*
G04 APERTURE LIST*
%ADD10C,0.100000*%
G04 APERTURE END LIST*
D10*
G36*
X218372527Y-128768736D02*
X218472410Y-128788604D01*
X218754674Y-128905521D01*
X219008705Y-129075259D01*
X219224741Y-129291295D01*
X219394479Y-129545326D01*
X219511396Y-129827590D01*
X219571000Y-130127240D01*
X219571000Y-130432760D01*
X219511396Y-130732410D01*
X219394479Y-131014674D01*
X219224741Y-131268705D01*
X219008705Y-131484741D01*
X218754674Y-131654479D01*
X218472410Y-131771396D01*
X218372527Y-131791264D01*
X218172762Y-131831000D01*
X217867238Y-131831000D01*
X217667473Y-131791264D01*
X217567590Y-131771396D01*
X217285326Y-131654479D01*
X217031295Y-131484741D01*
X216815259Y-131268705D01*
X216645521Y-131014674D01*
X216528604Y-130732410D01*
X216469000Y-130432760D01*
X216469000Y-130127240D01*
X216528604Y-129827590D01*
X216645521Y-129545326D01*
X216815259Y-129291295D01*
X217031295Y-129075259D01*
X217285326Y-128905521D01*
X217567590Y-128788604D01*
X217667473Y-128768736D01*
X217867238Y-128729000D01*
X218172762Y-128729000D01*
X218372527Y-128768736D01*
X218372527Y-128768736D01*
G37*
G36*
X160372527Y-128768736D02*
X160472410Y-128788604D01*
X160754674Y-128905521D01*
X161008705Y-129075259D01*
X161224741Y-129291295D01*
X161394479Y-129545326D01*
X161511396Y-129827590D01*
X161571000Y-130127240D01*
X161571000Y-130432760D01*
X161511396Y-130732410D01*
X161394479Y-131014674D01*
X161224741Y-131268705D01*
X161008705Y-131484741D01*
X160754674Y-131654479D01*
X160472410Y-131771396D01*
X160372527Y-131791264D01*
X160172762Y-131831000D01*
X159867238Y-131831000D01*
X159667473Y-131791264D01*
X159567590Y-131771396D01*
X159285326Y-131654479D01*
X159031295Y-131484741D01*
X158815259Y-131268705D01*
X158645521Y-131014674D01*
X158528604Y-130732410D01*
X158469000Y-130432760D01*
X158469000Y-130127240D01*
X158528604Y-129827590D01*
X158645521Y-129545326D01*
X158815259Y-129291295D01*
X159031295Y-129075259D01*
X159285326Y-128905521D01*
X159567590Y-128788604D01*
X159667473Y-128768736D01*
X159867238Y-128729000D01*
X160172762Y-128729000D01*
X160372527Y-128768736D01*
X160372527Y-128768736D01*
G37*
G36*
X191118443Y-129385519D02*
X191184627Y-129392037D01*
X191297853Y-129426384D01*
X191354467Y-129443557D01*
X191493087Y-129517652D01*
X191510991Y-129527222D01*
X191533053Y-129545328D01*
X191648186Y-129639814D01*
X191731448Y-129741271D01*
X191760778Y-129777009D01*
X191760779Y-129777011D01*
X191844443Y-129933533D01*
X191844443Y-129933534D01*
X191895963Y-130103373D01*
X191913359Y-130280000D01*
X191895963Y-130456627D01*
X191861616Y-130569853D01*
X191844443Y-130626467D01*
X191787815Y-130732409D01*
X191760778Y-130782991D01*
X191731448Y-130818729D01*
X191648186Y-130920186D01*
X191546729Y-131003448D01*
X191510991Y-131032778D01*
X191510989Y-131032779D01*
X191354467Y-131116443D01*
X191297853Y-131133616D01*
X191184627Y-131167963D01*
X191118442Y-131174482D01*
X191052260Y-131181000D01*
X190963740Y-131181000D01*
X190897558Y-131174482D01*
X190831373Y-131167963D01*
X190718147Y-131133616D01*
X190661533Y-131116443D01*
X190505011Y-131032779D01*
X190505009Y-131032778D01*
X190469271Y-131003448D01*
X190367814Y-130920186D01*
X190284552Y-130818729D01*
X190255222Y-130782991D01*
X190228185Y-130732409D01*
X190171557Y-130626467D01*
X190154384Y-130569853D01*
X190120037Y-130456627D01*
X190102641Y-130280000D01*
X190120037Y-130103373D01*
X190171557Y-129933534D01*
X190171557Y-129933533D01*
X190255221Y-129777011D01*
X190255222Y-129777009D01*
X190284552Y-129741271D01*
X190367814Y-129639814D01*
X190482947Y-129545328D01*
X190505009Y-129527222D01*
X190522913Y-129517652D01*
X190661533Y-129443557D01*
X190718147Y-129426384D01*
X190831373Y-129392037D01*
X190897557Y-129385519D01*
X190963740Y-129379000D01*
X191052260Y-129379000D01*
X191118443Y-129385519D01*
X191118443Y-129385519D01*
G37*
G36*
X180733000Y-131181000D02*
X178931000Y-131181000D01*
X178931000Y-129379000D01*
X180733000Y-129379000D01*
X180733000Y-131181000D01*
X180733000Y-131181000D01*
G37*
G36*
X177402443Y-129385519D02*
X177468627Y-129392037D01*
X177581853Y-129426384D01*
X177638467Y-129443557D01*
X177777087Y-129517652D01*
X177794991Y-129527222D01*
X177817053Y-129545328D01*
X177932186Y-129639814D01*
X178015448Y-129741271D01*
X178044778Y-129777009D01*
X178044779Y-129777011D01*
X178128443Y-129933533D01*
X178128443Y-129933534D01*
X178179963Y-130103373D01*
X178197359Y-130280000D01*
X178179963Y-130456627D01*
X178145616Y-130569853D01*
X178128443Y-130626467D01*
X178071815Y-130732409D01*
X178044778Y-130782991D01*
X178015448Y-130818729D01*
X177932186Y-130920186D01*
X177830729Y-131003448D01*
X177794991Y-131032778D01*
X177794989Y-131032779D01*
X177638467Y-131116443D01*
X177581853Y-131133616D01*
X177468627Y-131167963D01*
X177402442Y-131174482D01*
X177336260Y-131181000D01*
X177247740Y-131181000D01*
X177181558Y-131174482D01*
X177115373Y-131167963D01*
X177002147Y-131133616D01*
X176945533Y-131116443D01*
X176789011Y-131032779D01*
X176789009Y-131032778D01*
X176753271Y-131003448D01*
X176651814Y-130920186D01*
X176568552Y-130818729D01*
X176539222Y-130782991D01*
X176512185Y-130732409D01*
X176455557Y-130626467D01*
X176438384Y-130569853D01*
X176404037Y-130456627D01*
X176386641Y-130280000D01*
X176404037Y-130103373D01*
X176455557Y-129933534D01*
X176455557Y-129933533D01*
X176539221Y-129777011D01*
X176539222Y-129777009D01*
X176568552Y-129741271D01*
X176651814Y-129639814D01*
X176766947Y-129545328D01*
X176789009Y-129527222D01*
X176806913Y-129517652D01*
X176945533Y-129443557D01*
X177002147Y-129426384D01*
X177115373Y-129392037D01*
X177181557Y-129385519D01*
X177247740Y-129379000D01*
X177336260Y-129379000D01*
X177402443Y-129385519D01*
X177402443Y-129385519D01*
G37*
G36*
X173875000Y-131181000D02*
X172073000Y-131181000D01*
X172073000Y-129379000D01*
X173875000Y-129379000D01*
X173875000Y-131181000D01*
X173875000Y-131181000D01*
G37*
G36*
X170544443Y-129385519D02*
X170610627Y-129392037D01*
X170723853Y-129426384D01*
X170780467Y-129443557D01*
X170919087Y-129517652D01*
X170936991Y-129527222D01*
X170959053Y-129545328D01*
X171074186Y-129639814D01*
X171157448Y-129741271D01*
X171186778Y-129777009D01*
X171186779Y-129777011D01*
X171270443Y-129933533D01*
X171270443Y-129933534D01*
X171321963Y-130103373D01*
X171339359Y-130280000D01*
X171321963Y-130456627D01*
X171287616Y-130569853D01*
X171270443Y-130626467D01*
X171213815Y-130732409D01*
X171186778Y-130782991D01*
X171157448Y-130818729D01*
X171074186Y-130920186D01*
X170972729Y-131003448D01*
X170936991Y-131032778D01*
X170936989Y-131032779D01*
X170780467Y-131116443D01*
X170723853Y-131133616D01*
X170610627Y-131167963D01*
X170544442Y-131174482D01*
X170478260Y-131181000D01*
X170389740Y-131181000D01*
X170323558Y-131174482D01*
X170257373Y-131167963D01*
X170144147Y-131133616D01*
X170087533Y-131116443D01*
X169931011Y-131032779D01*
X169931009Y-131032778D01*
X169895271Y-131003448D01*
X169793814Y-130920186D01*
X169710552Y-130818729D01*
X169681222Y-130782991D01*
X169654185Y-130732409D01*
X169597557Y-130626467D01*
X169580384Y-130569853D01*
X169546037Y-130456627D01*
X169528641Y-130280000D01*
X169546037Y-130103373D01*
X169597557Y-129933534D01*
X169597557Y-129933533D01*
X169681221Y-129777011D01*
X169681222Y-129777009D01*
X169710552Y-129741271D01*
X169793814Y-129639814D01*
X169908947Y-129545328D01*
X169931009Y-129527222D01*
X169948913Y-129517652D01*
X170087533Y-129443557D01*
X170144147Y-129426384D01*
X170257373Y-129392037D01*
X170323557Y-129385519D01*
X170389740Y-129379000D01*
X170478260Y-129379000D01*
X170544443Y-129385519D01*
X170544443Y-129385519D01*
G37*
G36*
X187591000Y-131181000D02*
X185789000Y-131181000D01*
X185789000Y-129379000D01*
X187591000Y-129379000D01*
X187591000Y-131181000D01*
X187591000Y-131181000D01*
G37*
G36*
X184260443Y-129385519D02*
X184326627Y-129392037D01*
X184439853Y-129426384D01*
X184496467Y-129443557D01*
X184635087Y-129517652D01*
X184652991Y-129527222D01*
X184675053Y-129545328D01*
X184790186Y-129639814D01*
X184873448Y-129741271D01*
X184902778Y-129777009D01*
X184902779Y-129777011D01*
X184986443Y-129933533D01*
X184986443Y-129933534D01*
X185037963Y-130103373D01*
X185055359Y-130280000D01*
X185037963Y-130456627D01*
X185003616Y-130569853D01*
X184986443Y-130626467D01*
X184929815Y-130732409D01*
X184902778Y-130782991D01*
X184873448Y-130818729D01*
X184790186Y-130920186D01*
X184688729Y-131003448D01*
X184652991Y-131032778D01*
X184652989Y-131032779D01*
X184496467Y-131116443D01*
X184439853Y-131133616D01*
X184326627Y-131167963D01*
X184260442Y-131174482D01*
X184194260Y-131181000D01*
X184105740Y-131181000D01*
X184039558Y-131174482D01*
X183973373Y-131167963D01*
X183860147Y-131133616D01*
X183803533Y-131116443D01*
X183647011Y-131032779D01*
X183647009Y-131032778D01*
X183611271Y-131003448D01*
X183509814Y-130920186D01*
X183426552Y-130818729D01*
X183397222Y-130782991D01*
X183370185Y-130732409D01*
X183313557Y-130626467D01*
X183296384Y-130569853D01*
X183262037Y-130456627D01*
X183244641Y-130280000D01*
X183262037Y-130103373D01*
X183313557Y-129933534D01*
X183313557Y-129933533D01*
X183397221Y-129777011D01*
X183397222Y-129777009D01*
X183426552Y-129741271D01*
X183509814Y-129639814D01*
X183624947Y-129545328D01*
X183647009Y-129527222D01*
X183664913Y-129517652D01*
X183803533Y-129443557D01*
X183860147Y-129426384D01*
X183973373Y-129392037D01*
X184039557Y-129385519D01*
X184105740Y-129379000D01*
X184194260Y-129379000D01*
X184260443Y-129385519D01*
X184260443Y-129385519D01*
G37*
G36*
X194449000Y-131181000D02*
X192647000Y-131181000D01*
X192647000Y-129379000D01*
X194449000Y-129379000D01*
X194449000Y-131181000D01*
X194449000Y-131181000D01*
G37*
G36*
X218130443Y-123797519D02*
X218196627Y-123804037D01*
X218309853Y-123838384D01*
X218366467Y-123855557D01*
X218505087Y-123929652D01*
X218522991Y-123939222D01*
X218558729Y-123968552D01*
X218660186Y-124051814D01*
X218743448Y-124153271D01*
X218772778Y-124189009D01*
X218772779Y-124189011D01*
X218856443Y-124345533D01*
X218856443Y-124345534D01*
X218907963Y-124515373D01*
X218925359Y-124692000D01*
X218907963Y-124868627D01*
X218894382Y-124913396D01*
X218856443Y-125038467D01*
X218782348Y-125177087D01*
X218772778Y-125194991D01*
X218743448Y-125230729D01*
X218660186Y-125332186D01*
X218558729Y-125415448D01*
X218522991Y-125444778D01*
X218522989Y-125444779D01*
X218366467Y-125528443D01*
X218309853Y-125545616D01*
X218196627Y-125579963D01*
X218130443Y-125586481D01*
X218064260Y-125593000D01*
X217975740Y-125593000D01*
X217909557Y-125586481D01*
X217843373Y-125579963D01*
X217730147Y-125545616D01*
X217673533Y-125528443D01*
X217517011Y-125444779D01*
X217517009Y-125444778D01*
X217481271Y-125415448D01*
X217379814Y-125332186D01*
X217296552Y-125230729D01*
X217267222Y-125194991D01*
X217257652Y-125177087D01*
X217183557Y-125038467D01*
X217145618Y-124913396D01*
X217132037Y-124868627D01*
X217114641Y-124692000D01*
X217132037Y-124515373D01*
X217183557Y-124345534D01*
X217183557Y-124345533D01*
X217267221Y-124189011D01*
X217267222Y-124189009D01*
X217296552Y-124153271D01*
X217379814Y-124051814D01*
X217481271Y-123968552D01*
X217517009Y-123939222D01*
X217534913Y-123929652D01*
X217673533Y-123855557D01*
X217730147Y-123838384D01*
X217843373Y-123804037D01*
X217909557Y-123797519D01*
X217975740Y-123791000D01*
X218064260Y-123791000D01*
X218130443Y-123797519D01*
X218130443Y-123797519D01*
G37*
G36*
X216381000Y-125593000D02*
X214579000Y-125593000D01*
X214579000Y-123791000D01*
X216381000Y-123791000D01*
X216381000Y-125593000D01*
X216381000Y-125593000D01*
G37*
G36*
X189328527Y-121910736D02*
X189428410Y-121930604D01*
X189710674Y-122047521D01*
X189964705Y-122217259D01*
X190180741Y-122433295D01*
X190350479Y-122687326D01*
X190467396Y-122969590D01*
X190527000Y-123269240D01*
X190527000Y-123574760D01*
X190467396Y-123874410D01*
X190350479Y-124156674D01*
X190180741Y-124410705D01*
X189964705Y-124626741D01*
X189710674Y-124796479D01*
X189428410Y-124913396D01*
X189328527Y-124933264D01*
X189128762Y-124973000D01*
X188823238Y-124973000D01*
X188623473Y-124933264D01*
X188523590Y-124913396D01*
X188241326Y-124796479D01*
X187987295Y-124626741D01*
X187771259Y-124410705D01*
X187601521Y-124156674D01*
X187484604Y-123874410D01*
X187425000Y-123574760D01*
X187425000Y-123269240D01*
X187484604Y-122969590D01*
X187601521Y-122687326D01*
X187771259Y-122433295D01*
X187987295Y-122217259D01*
X188241326Y-122047521D01*
X188523590Y-121930604D01*
X188623473Y-121910736D01*
X188823238Y-121871000D01*
X189128762Y-121871000D01*
X189328527Y-121910736D01*
X189328527Y-121910736D01*
G37*
G36*
X205371000Y-113909000D02*
X203569000Y-113909000D01*
X203569000Y-112107000D01*
X205371000Y-112107000D01*
X205371000Y-113909000D01*
X205371000Y-113909000D01*
G37*
G36*
X207120442Y-112113518D02*
X207186627Y-112120037D01*
X207299853Y-112154384D01*
X207356467Y-112171557D01*
X207495087Y-112245652D01*
X207512991Y-112255222D01*
X207548729Y-112284552D01*
X207650186Y-112367814D01*
X207733448Y-112469271D01*
X207762778Y-112505009D01*
X207762779Y-112505011D01*
X207846443Y-112661533D01*
X207846443Y-112661534D01*
X207897963Y-112831373D01*
X207915359Y-113008000D01*
X207897963Y-113184627D01*
X207863616Y-113297853D01*
X207846443Y-113354467D01*
X207772348Y-113493087D01*
X207762778Y-113510991D01*
X207733448Y-113546729D01*
X207650186Y-113648186D01*
X207548729Y-113731448D01*
X207512991Y-113760778D01*
X207512989Y-113760779D01*
X207356467Y-113844443D01*
X207299853Y-113861616D01*
X207186627Y-113895963D01*
X207120443Y-113902481D01*
X207054260Y-113909000D01*
X206965740Y-113909000D01*
X206899557Y-113902481D01*
X206833373Y-113895963D01*
X206720147Y-113861616D01*
X206663533Y-113844443D01*
X206507011Y-113760779D01*
X206507009Y-113760778D01*
X206471271Y-113731448D01*
X206369814Y-113648186D01*
X206286552Y-113546729D01*
X206257222Y-113510991D01*
X206247652Y-113493087D01*
X206173557Y-113354467D01*
X206156384Y-113297853D01*
X206122037Y-113184627D01*
X206104641Y-113008000D01*
X206122037Y-112831373D01*
X206173557Y-112661534D01*
X206173557Y-112661533D01*
X206257221Y-112505011D01*
X206257222Y-112505009D01*
X206286552Y-112469271D01*
X206369814Y-112367814D01*
X206471271Y-112284552D01*
X206507009Y-112255222D01*
X206524913Y-112245652D01*
X206663533Y-112171557D01*
X206720147Y-112154384D01*
X206833373Y-112120037D01*
X206899558Y-112113518D01*
X206965740Y-112107000D01*
X207054260Y-112107000D01*
X207120442Y-112113518D01*
X207120442Y-112113518D01*
G37*
G36*
X204580442Y-108049518D02*
X204646627Y-108056037D01*
X204759853Y-108090384D01*
X204816467Y-108107557D01*
X204857412Y-108129443D01*
X204972991Y-108191222D01*
X205008729Y-108220552D01*
X205110186Y-108303814D01*
X205193448Y-108405271D01*
X205222778Y-108441009D01*
X205222779Y-108441011D01*
X205306443Y-108597533D01*
X205306443Y-108597534D01*
X205357963Y-108767373D01*
X205375359Y-108944000D01*
X205357963Y-109120627D01*
X205323616Y-109233853D01*
X205306443Y-109290467D01*
X205232348Y-109429087D01*
X205222778Y-109446991D01*
X205193448Y-109482729D01*
X205110186Y-109584186D01*
X205008729Y-109667448D01*
X204972991Y-109696778D01*
X204972989Y-109696779D01*
X204816467Y-109780443D01*
X204759853Y-109797616D01*
X204646627Y-109831963D01*
X204580442Y-109838482D01*
X204514260Y-109845000D01*
X204425740Y-109845000D01*
X204359558Y-109838482D01*
X204293373Y-109831963D01*
X204180147Y-109797616D01*
X204123533Y-109780443D01*
X203967011Y-109696779D01*
X203967009Y-109696778D01*
X203931271Y-109667448D01*
X203829814Y-109584186D01*
X203746552Y-109482729D01*
X203717222Y-109446991D01*
X203707652Y-109429087D01*
X203633557Y-109290467D01*
X203616384Y-109233853D01*
X203582037Y-109120627D01*
X203564641Y-108944000D01*
X203582037Y-108767373D01*
X203633557Y-108597534D01*
X203633557Y-108597533D01*
X203717221Y-108441011D01*
X203717222Y-108441009D01*
X203746552Y-108405271D01*
X203829814Y-108303814D01*
X203931271Y-108220552D01*
X203967009Y-108191222D01*
X204082588Y-108129443D01*
X204123533Y-108107557D01*
X204180147Y-108090384D01*
X204293373Y-108056037D01*
X204359558Y-108049518D01*
X204425740Y-108043000D01*
X204514260Y-108043000D01*
X204580442Y-108049518D01*
X204580442Y-108049518D01*
G37*
G36*
X218372527Y-105768736D02*
X218472410Y-105788604D01*
X218754674Y-105905521D01*
X219008705Y-106075259D01*
X219224741Y-106291295D01*
X219394479Y-106545326D01*
X219495830Y-106790011D01*
X219511396Y-106827591D01*
X219568839Y-107116373D01*
X219571000Y-107127240D01*
X219571000Y-107432760D01*
X219511396Y-107732410D01*
X219394479Y-108014674D01*
X219224741Y-108268705D01*
X219008705Y-108484741D01*
X218754674Y-108654479D01*
X218472410Y-108771396D01*
X218372527Y-108791264D01*
X218172762Y-108831000D01*
X217867238Y-108831000D01*
X217667473Y-108791264D01*
X217567590Y-108771396D01*
X217285326Y-108654479D01*
X217031295Y-108484741D01*
X216815259Y-108268705D01*
X216645521Y-108014674D01*
X216528604Y-107732410D01*
X216469000Y-107432760D01*
X216469000Y-107127240D01*
X216471162Y-107116373D01*
X216528604Y-106827591D01*
X216544170Y-106790011D01*
X216645521Y-106545326D01*
X216815259Y-106291295D01*
X217031295Y-106075259D01*
X217285326Y-105905521D01*
X217567590Y-105788604D01*
X217667473Y-105768736D01*
X217867238Y-105729000D01*
X218172762Y-105729000D01*
X218372527Y-105768736D01*
X218372527Y-105768736D01*
G37*
G36*
X160372527Y-105768736D02*
X160472410Y-105788604D01*
X160754674Y-105905521D01*
X161008705Y-106075259D01*
X161224741Y-106291295D01*
X161394479Y-106545326D01*
X161495830Y-106790011D01*
X161511396Y-106827591D01*
X161568839Y-107116373D01*
X161571000Y-107127240D01*
X161571000Y-107432760D01*
X161511396Y-107732410D01*
X161394479Y-108014674D01*
X161224741Y-108268705D01*
X161008705Y-108484741D01*
X160754674Y-108654479D01*
X160472410Y-108771396D01*
X160372527Y-108791264D01*
X160172762Y-108831000D01*
X159867238Y-108831000D01*
X159667473Y-108791264D01*
X159567590Y-108771396D01*
X159285326Y-108654479D01*
X159031295Y-108484741D01*
X158815259Y-108268705D01*
X158645521Y-108014674D01*
X158528604Y-107732410D01*
X158469000Y-107432760D01*
X158469000Y-107127240D01*
X158471162Y-107116373D01*
X158528604Y-106827591D01*
X158544170Y-106790011D01*
X158645521Y-106545326D01*
X158815259Y-106291295D01*
X159031295Y-106075259D01*
X159285326Y-105905521D01*
X159567590Y-105788604D01*
X159667473Y-105768736D01*
X159867238Y-105729000D01*
X160172762Y-105729000D01*
X160372527Y-105768736D01*
X160372527Y-105768736D01*
G37*
G36*
X167242442Y-106398518D02*
X167308627Y-106405037D01*
X167421853Y-106439384D01*
X167478467Y-106456557D01*
X167617087Y-106530652D01*
X167634991Y-106540222D01*
X167670729Y-106569552D01*
X167772186Y-106652814D01*
X167855448Y-106754271D01*
X167884778Y-106790009D01*
X167884779Y-106790011D01*
X167968443Y-106946533D01*
X167968443Y-106946534D01*
X168019963Y-107116373D01*
X168037359Y-107293000D01*
X168019963Y-107469627D01*
X167985616Y-107582853D01*
X167968443Y-107639467D01*
X167918764Y-107732409D01*
X167884778Y-107795991D01*
X167855448Y-107831729D01*
X167772186Y-107933186D01*
X167672894Y-108014672D01*
X167634991Y-108045778D01*
X167634989Y-108045779D01*
X167478467Y-108129443D01*
X167421853Y-108146616D01*
X167308627Y-108180963D01*
X167242443Y-108187481D01*
X167176260Y-108194000D01*
X167087740Y-108194000D01*
X167021557Y-108187481D01*
X166955373Y-108180963D01*
X166842147Y-108146616D01*
X166785533Y-108129443D01*
X166629011Y-108045779D01*
X166629009Y-108045778D01*
X166591106Y-108014672D01*
X166491814Y-107933186D01*
X166408552Y-107831729D01*
X166379222Y-107795991D01*
X166345236Y-107732409D01*
X166295557Y-107639467D01*
X166278384Y-107582853D01*
X166244037Y-107469627D01*
X166226641Y-107293000D01*
X166244037Y-107116373D01*
X166295557Y-106946534D01*
X166295557Y-106946533D01*
X166379221Y-106790011D01*
X166379222Y-106790009D01*
X166408552Y-106754271D01*
X166491814Y-106652814D01*
X166593271Y-106569552D01*
X166629009Y-106540222D01*
X166646913Y-106530652D01*
X166785533Y-106456557D01*
X166842147Y-106439384D01*
X166955373Y-106405037D01*
X167021558Y-106398518D01*
X167087740Y-106392000D01*
X167176260Y-106392000D01*
X167242442Y-106398518D01*
X167242442Y-106398518D01*
G37*
G36*
X169782442Y-106398518D02*
X169848627Y-106405037D01*
X169961853Y-106439384D01*
X170018467Y-106456557D01*
X170157087Y-106530652D01*
X170174991Y-106540222D01*
X170210729Y-106569552D01*
X170312186Y-106652814D01*
X170395448Y-106754271D01*
X170424778Y-106790009D01*
X170424779Y-106790011D01*
X170508443Y-106946533D01*
X170508443Y-106946534D01*
X170559963Y-107116373D01*
X170577359Y-107293000D01*
X170559963Y-107469627D01*
X170525616Y-107582853D01*
X170508443Y-107639467D01*
X170458764Y-107732409D01*
X170424778Y-107795991D01*
X170395448Y-107831729D01*
X170312186Y-107933186D01*
X170212894Y-108014672D01*
X170174991Y-108045778D01*
X170174989Y-108045779D01*
X170018467Y-108129443D01*
X169961853Y-108146616D01*
X169848627Y-108180963D01*
X169782443Y-108187481D01*
X169716260Y-108194000D01*
X169627740Y-108194000D01*
X169561557Y-108187481D01*
X169495373Y-108180963D01*
X169382147Y-108146616D01*
X169325533Y-108129443D01*
X169169011Y-108045779D01*
X169169009Y-108045778D01*
X169131106Y-108014672D01*
X169031814Y-107933186D01*
X168948552Y-107831729D01*
X168919222Y-107795991D01*
X168885236Y-107732409D01*
X168835557Y-107639467D01*
X168818384Y-107582853D01*
X168784037Y-107469627D01*
X168766641Y-107293000D01*
X168784037Y-107116373D01*
X168835557Y-106946534D01*
X168835557Y-106946533D01*
X168919221Y-106790011D01*
X168919222Y-106790009D01*
X168948552Y-106754271D01*
X169031814Y-106652814D01*
X169133271Y-106569552D01*
X169169009Y-106540222D01*
X169186913Y-106530652D01*
X169325533Y-106456557D01*
X169382147Y-106439384D01*
X169495373Y-106405037D01*
X169561558Y-106398518D01*
X169627740Y-106392000D01*
X169716260Y-106392000D01*
X169782442Y-106398518D01*
X169782442Y-106398518D01*
G37*
G36*
X175653000Y-108194000D02*
X173851000Y-108194000D01*
X173851000Y-106392000D01*
X175653000Y-106392000D01*
X175653000Y-108194000D01*
X175653000Y-108194000D01*
G37*
G36*
X172322442Y-106398518D02*
X172388627Y-106405037D01*
X172501853Y-106439384D01*
X172558467Y-106456557D01*
X172697087Y-106530652D01*
X172714991Y-106540222D01*
X172750729Y-106569552D01*
X172852186Y-106652814D01*
X172935448Y-106754271D01*
X172964778Y-106790009D01*
X172964779Y-106790011D01*
X173048443Y-106946533D01*
X173048443Y-106946534D01*
X173099963Y-107116373D01*
X173117359Y-107293000D01*
X173099963Y-107469627D01*
X173065616Y-107582853D01*
X173048443Y-107639467D01*
X172998764Y-107732409D01*
X172964778Y-107795991D01*
X172935448Y-107831729D01*
X172852186Y-107933186D01*
X172752894Y-108014672D01*
X172714991Y-108045778D01*
X172714989Y-108045779D01*
X172558467Y-108129443D01*
X172501853Y-108146616D01*
X172388627Y-108180963D01*
X172322443Y-108187481D01*
X172256260Y-108194000D01*
X172167740Y-108194000D01*
X172101557Y-108187481D01*
X172035373Y-108180963D01*
X171922147Y-108146616D01*
X171865533Y-108129443D01*
X171709011Y-108045779D01*
X171709009Y-108045778D01*
X171671106Y-108014672D01*
X171571814Y-107933186D01*
X171488552Y-107831729D01*
X171459222Y-107795991D01*
X171425236Y-107732409D01*
X171375557Y-107639467D01*
X171358384Y-107582853D01*
X171324037Y-107469627D01*
X171306641Y-107293000D01*
X171324037Y-107116373D01*
X171375557Y-106946534D01*
X171375557Y-106946533D01*
X171459221Y-106790011D01*
X171459222Y-106790009D01*
X171488552Y-106754271D01*
X171571814Y-106652814D01*
X171673271Y-106569552D01*
X171709009Y-106540222D01*
X171726913Y-106530652D01*
X171865533Y-106456557D01*
X171922147Y-106439384D01*
X172035373Y-106405037D01*
X172101558Y-106398518D01*
X172167740Y-106392000D01*
X172256260Y-106392000D01*
X172322442Y-106398518D01*
X172322442Y-106398518D01*
G37*
G36*
X205371000Y-107305000D02*
X203569000Y-107305000D01*
X203569000Y-105503000D01*
X205371000Y-105503000D01*
X205371000Y-107305000D01*
X205371000Y-107305000D01*
G37*
G36*
X175653000Y-102860000D02*
X173851000Y-102860000D01*
X173851000Y-101058000D01*
X175653000Y-101058000D01*
X175653000Y-102860000D01*
X175653000Y-102860000D01*
G37*
G36*
X219278991Y-101091101D02*
X219364321Y-101099505D01*
X219501172Y-101141019D01*
X219501174Y-101141020D01*
X219501177Y-101141021D01*
X219627296Y-101208432D01*
X219737843Y-101299157D01*
X219828568Y-101409704D01*
X219895979Y-101535823D01*
X219895980Y-101535826D01*
X219895981Y-101535828D01*
X219937495Y-101672679D01*
X219951512Y-101815000D01*
X219937495Y-101957321D01*
X219895981Y-102094172D01*
X219895979Y-102094177D01*
X219828568Y-102220296D01*
X219737843Y-102330843D01*
X219627296Y-102421568D01*
X219501177Y-102488979D01*
X219501174Y-102488980D01*
X219501172Y-102488981D01*
X219364321Y-102530495D01*
X219278991Y-102538899D01*
X219257660Y-102541000D01*
X218836340Y-102541000D01*
X218815009Y-102538899D01*
X218729679Y-102530495D01*
X218592828Y-102488981D01*
X218592826Y-102488980D01*
X218592823Y-102488979D01*
X218466704Y-102421568D01*
X218356157Y-102330843D01*
X218265432Y-102220296D01*
X218198021Y-102094177D01*
X218198019Y-102094172D01*
X218156505Y-101957321D01*
X218142488Y-101815000D01*
X218156505Y-101672679D01*
X218198019Y-101535828D01*
X218198020Y-101535826D01*
X218198021Y-101535823D01*
X218265432Y-101409704D01*
X218356157Y-101299157D01*
X218466704Y-101208432D01*
X218592823Y-101141021D01*
X218592826Y-101141020D01*
X218592828Y-101141019D01*
X218729679Y-101099505D01*
X218815009Y-101091101D01*
X218836340Y-101089000D01*
X219257660Y-101089000D01*
X219278991Y-101091101D01*
X219278991Y-101091101D01*
G37*
G36*
X216364818Y-100912696D02*
X216478105Y-100947062D01*
X216582513Y-101002869D01*
X216674027Y-101077973D01*
X216749131Y-101169487D01*
X216804938Y-101273895D01*
X216839304Y-101387182D01*
X216850907Y-101505000D01*
X216839304Y-101622818D01*
X216804938Y-101736105D01*
X216749131Y-101840513D01*
X216674027Y-101932027D01*
X216582513Y-102007131D01*
X216478105Y-102062938D01*
X216364818Y-102097304D01*
X216276519Y-102106000D01*
X215817481Y-102106000D01*
X215729182Y-102097304D01*
X215615895Y-102062938D01*
X215511487Y-102007131D01*
X215419973Y-101932027D01*
X215344869Y-101840513D01*
X215289062Y-101736105D01*
X215254696Y-101622818D01*
X215243093Y-101505000D01*
X215254696Y-101387182D01*
X215289062Y-101273895D01*
X215344869Y-101169487D01*
X215419973Y-101077973D01*
X215511487Y-101002869D01*
X215615895Y-100947062D01*
X215729182Y-100912696D01*
X215817481Y-100904000D01*
X216276519Y-100904000D01*
X216364818Y-100912696D01*
X216364818Y-100912696D01*
G37*
G36*
X174862443Y-98524519D02*
X174928627Y-98531037D01*
X175041853Y-98565384D01*
X175098467Y-98582557D01*
X175237087Y-98656652D01*
X175254991Y-98666222D01*
X175290729Y-98695552D01*
X175392186Y-98778814D01*
X175475448Y-98880271D01*
X175504778Y-98916009D01*
X175504779Y-98916011D01*
X175588443Y-99072533D01*
X175588443Y-99072534D01*
X175639963Y-99242373D01*
X175657359Y-99419000D01*
X175639963Y-99595627D01*
X175605616Y-99708853D01*
X175588443Y-99765467D01*
X175514348Y-99904087D01*
X175504778Y-99921991D01*
X175475448Y-99957729D01*
X175392186Y-100059186D01*
X175290729Y-100142448D01*
X175254991Y-100171778D01*
X175254989Y-100171779D01*
X175098467Y-100255443D01*
X175041853Y-100272616D01*
X174928627Y-100306963D01*
X174862443Y-100313481D01*
X174796260Y-100320000D01*
X174707740Y-100320000D01*
X174641557Y-100313481D01*
X174575373Y-100306963D01*
X174462147Y-100272616D01*
X174405533Y-100255443D01*
X174249011Y-100171779D01*
X174249009Y-100171778D01*
X174213271Y-100142448D01*
X174111814Y-100059186D01*
X174028552Y-99957729D01*
X173999222Y-99921991D01*
X173989652Y-99904087D01*
X173915557Y-99765467D01*
X173898384Y-99708853D01*
X173864037Y-99595627D01*
X173846641Y-99419000D01*
X173864037Y-99242373D01*
X173915557Y-99072534D01*
X173915557Y-99072533D01*
X173999221Y-98916011D01*
X173999222Y-98916009D01*
X174028552Y-98880271D01*
X174111814Y-98778814D01*
X174213271Y-98695552D01*
X174249009Y-98666222D01*
X174266913Y-98656652D01*
X174405533Y-98582557D01*
X174462147Y-98565384D01*
X174575373Y-98531037D01*
X174641557Y-98524519D01*
X174707740Y-98518000D01*
X174796260Y-98518000D01*
X174862443Y-98524519D01*
X174862443Y-98524519D01*
G37*
G36*
X174862442Y-95984518D02*
X174928627Y-95991037D01*
X175041853Y-96025384D01*
X175098467Y-96042557D01*
X175219147Y-96107063D01*
X175254991Y-96126222D01*
X175290729Y-96155552D01*
X175392186Y-96238814D01*
X175466598Y-96329487D01*
X175504778Y-96376009D01*
X175504779Y-96376011D01*
X175588443Y-96532533D01*
X175592887Y-96547184D01*
X175639963Y-96702373D01*
X175657359Y-96879000D01*
X175639963Y-97055627D01*
X175632266Y-97081000D01*
X175588443Y-97225467D01*
X175566777Y-97266000D01*
X175504778Y-97381991D01*
X175475448Y-97417729D01*
X175392186Y-97519186D01*
X175290729Y-97602448D01*
X175254991Y-97631778D01*
X175254989Y-97631779D01*
X175098467Y-97715443D01*
X175041853Y-97732616D01*
X174928627Y-97766963D01*
X174862442Y-97773482D01*
X174796260Y-97780000D01*
X174707740Y-97780000D01*
X174641558Y-97773482D01*
X174575373Y-97766963D01*
X174462147Y-97732616D01*
X174405533Y-97715443D01*
X174249011Y-97631779D01*
X174249009Y-97631778D01*
X174213271Y-97602448D01*
X174111814Y-97519186D01*
X174028552Y-97417729D01*
X173999222Y-97381991D01*
X173937223Y-97266000D01*
X173915557Y-97225467D01*
X173871734Y-97081000D01*
X173864037Y-97055627D01*
X173846641Y-96879000D01*
X173864037Y-96702373D01*
X173911113Y-96547184D01*
X173915557Y-96532533D01*
X173999221Y-96376011D01*
X173999222Y-96376009D01*
X174037402Y-96329487D01*
X174111814Y-96238814D01*
X174213271Y-96155552D01*
X174249009Y-96126222D01*
X174284853Y-96107063D01*
X174405533Y-96042557D01*
X174462147Y-96025384D01*
X174575373Y-95991037D01*
X174641558Y-95984518D01*
X174707740Y-95978000D01*
X174796260Y-95978000D01*
X174862442Y-95984518D01*
X174862442Y-95984518D01*
G37*
G36*
X216364818Y-96072696D02*
X216478105Y-96107062D01*
X216582513Y-96162869D01*
X216674027Y-96237973D01*
X216749131Y-96329487D01*
X216804938Y-96433895D01*
X216839304Y-96547182D01*
X216850907Y-96665000D01*
X216839304Y-96782818D01*
X216804938Y-96896105D01*
X216749131Y-97000513D01*
X216674027Y-97092027D01*
X216582513Y-97167131D01*
X216478105Y-97222938D01*
X216364818Y-97257304D01*
X216276519Y-97266000D01*
X215817481Y-97266000D01*
X215729182Y-97257304D01*
X215615895Y-97222938D01*
X215511487Y-97167131D01*
X215419973Y-97092027D01*
X215344869Y-97000513D01*
X215289062Y-96896105D01*
X215254696Y-96782818D01*
X215243093Y-96665000D01*
X215254696Y-96547182D01*
X215289062Y-96433895D01*
X215344869Y-96329487D01*
X215419973Y-96237973D01*
X215511487Y-96162869D01*
X215615895Y-96107062D01*
X215729182Y-96072696D01*
X215817481Y-96064000D01*
X216276519Y-96064000D01*
X216364818Y-96072696D01*
X216364818Y-96072696D01*
G37*
G36*
X219278991Y-95631101D02*
X219364321Y-95639505D01*
X219501172Y-95681019D01*
X219501174Y-95681020D01*
X219501177Y-95681021D01*
X219627296Y-95748432D01*
X219737843Y-95839157D01*
X219828568Y-95949704D01*
X219895979Y-96075823D01*
X219895980Y-96075826D01*
X219895981Y-96075828D01*
X219937495Y-96212679D01*
X219951512Y-96355000D01*
X219937495Y-96497321D01*
X219895981Y-96634172D01*
X219895979Y-96634177D01*
X219828568Y-96760296D01*
X219737843Y-96870843D01*
X219627296Y-96961568D01*
X219501177Y-97028979D01*
X219501174Y-97028980D01*
X219501172Y-97028981D01*
X219364321Y-97070495D01*
X219278991Y-97078899D01*
X219257660Y-97081000D01*
X218836340Y-97081000D01*
X218815009Y-97078899D01*
X218729679Y-97070495D01*
X218592828Y-97028981D01*
X218592826Y-97028980D01*
X218592823Y-97028979D01*
X218466704Y-96961568D01*
X218356157Y-96870843D01*
X218265432Y-96760296D01*
X218198021Y-96634177D01*
X218198019Y-96634172D01*
X218156505Y-96497321D01*
X218142488Y-96355000D01*
X218156505Y-96212679D01*
X218198019Y-96075828D01*
X218198020Y-96075826D01*
X218198021Y-96075823D01*
X218265432Y-95949704D01*
X218356157Y-95839157D01*
X218466704Y-95748432D01*
X218592823Y-95681021D01*
X218592826Y-95681020D01*
X218592828Y-95681019D01*
X218729679Y-95639505D01*
X218815009Y-95631101D01*
X218836340Y-95629000D01*
X219257660Y-95629000D01*
X219278991Y-95631101D01*
X219278991Y-95631101D01*
G37*
G36*
X174862443Y-93444519D02*
X174928627Y-93451037D01*
X175041853Y-93485384D01*
X175098467Y-93502557D01*
X175237087Y-93576652D01*
X175254991Y-93586222D01*
X175290729Y-93615552D01*
X175392186Y-93698814D01*
X175475448Y-93800271D01*
X175504778Y-93836009D01*
X175504779Y-93836011D01*
X175588443Y-93992533D01*
X175588443Y-93992534D01*
X175639963Y-94162373D01*
X175657359Y-94339000D01*
X175639963Y-94515627D01*
X175605616Y-94628853D01*
X175588443Y-94685467D01*
X175514348Y-94824087D01*
X175504778Y-94841991D01*
X175475448Y-94877729D01*
X175392186Y-94979186D01*
X175290729Y-95062448D01*
X175254991Y-95091778D01*
X175254989Y-95091779D01*
X175098467Y-95175443D01*
X175041853Y-95192616D01*
X174928627Y-95226963D01*
X174862443Y-95233481D01*
X174796260Y-95240000D01*
X174707740Y-95240000D01*
X174641557Y-95233481D01*
X174575373Y-95226963D01*
X174462147Y-95192616D01*
X174405533Y-95175443D01*
X174249011Y-95091779D01*
X174249009Y-95091778D01*
X174213271Y-95062448D01*
X174111814Y-94979186D01*
X174028552Y-94877729D01*
X173999222Y-94841991D01*
X173989652Y-94824087D01*
X173915557Y-94685467D01*
X173898384Y-94628853D01*
X173864037Y-94515627D01*
X173846641Y-94339000D01*
X173864037Y-94162373D01*
X173915557Y-93992534D01*
X173915557Y-93992533D01*
X173999221Y-93836011D01*
X173999222Y-93836009D01*
X174028552Y-93800271D01*
X174111814Y-93698814D01*
X174213271Y-93615552D01*
X174249009Y-93586222D01*
X174266913Y-93576652D01*
X174405533Y-93502557D01*
X174462147Y-93485384D01*
X174575373Y-93451037D01*
X174641557Y-93444519D01*
X174707740Y-93438000D01*
X174796260Y-93438000D01*
X174862443Y-93444519D01*
X174862443Y-93444519D01*
G37*
G36*
X160921000Y-91176000D02*
X159119000Y-91176000D01*
X159119000Y-89374000D01*
X160921000Y-89374000D01*
X160921000Y-91176000D01*
X160921000Y-91176000D01*
G37*
G36*
X160130442Y-86840518D02*
X160196627Y-86847037D01*
X160307049Y-86880533D01*
X160366467Y-86898557D01*
X160505087Y-86972652D01*
X160522991Y-86982222D01*
X160558729Y-87011552D01*
X160660186Y-87094814D01*
X160743448Y-87196271D01*
X160772778Y-87232009D01*
X160772779Y-87232011D01*
X160856443Y-87388533D01*
X160873616Y-87445147D01*
X160907963Y-87558373D01*
X160925359Y-87735000D01*
X160907963Y-87911627D01*
X160887289Y-87979779D01*
X160856443Y-88081467D01*
X160831570Y-88128000D01*
X160772778Y-88237991D01*
X160743448Y-88273729D01*
X160660186Y-88375186D01*
X160558729Y-88458448D01*
X160522991Y-88487778D01*
X160522989Y-88487779D01*
X160366467Y-88571443D01*
X160309853Y-88588616D01*
X160196627Y-88622963D01*
X160130442Y-88629482D01*
X160064260Y-88636000D01*
X159975740Y-88636000D01*
X159909558Y-88629482D01*
X159843373Y-88622963D01*
X159730147Y-88588616D01*
X159673533Y-88571443D01*
X159517011Y-88487779D01*
X159517009Y-88487778D01*
X159481271Y-88458448D01*
X159379814Y-88375186D01*
X159296552Y-88273729D01*
X159267222Y-88237991D01*
X159208430Y-88128000D01*
X159183557Y-88081467D01*
X159152711Y-87979779D01*
X159132037Y-87911627D01*
X159114641Y-87735000D01*
X159132037Y-87558373D01*
X159166384Y-87445147D01*
X159183557Y-87388533D01*
X159267221Y-87232011D01*
X159267222Y-87232009D01*
X159296552Y-87196271D01*
X159379814Y-87094814D01*
X159481271Y-87011552D01*
X159517009Y-86982222D01*
X159534913Y-86972652D01*
X159673533Y-86898557D01*
X159732951Y-86880533D01*
X159843373Y-86847037D01*
X159909558Y-86840518D01*
X159975740Y-86834000D01*
X160064260Y-86834000D01*
X160130442Y-86840518D01*
X160130442Y-86840518D01*
G37*
G36*
X207120442Y-86332518D02*
X207186627Y-86339037D01*
X207299853Y-86373384D01*
X207356467Y-86390557D01*
X207495087Y-86464652D01*
X207512991Y-86474222D01*
X207548729Y-86503552D01*
X207650186Y-86586814D01*
X207733448Y-86688271D01*
X207762778Y-86724009D01*
X207762779Y-86724011D01*
X207846443Y-86880533D01*
X207846443Y-86880534D01*
X207897963Y-87050373D01*
X207915359Y-87227000D01*
X207897963Y-87403627D01*
X207863616Y-87516853D01*
X207846443Y-87573467D01*
X207772348Y-87712087D01*
X207762778Y-87729991D01*
X207758667Y-87735000D01*
X207650186Y-87867186D01*
X207548729Y-87950448D01*
X207512991Y-87979778D01*
X207512989Y-87979779D01*
X207356467Y-88063443D01*
X207299853Y-88080616D01*
X207186627Y-88114963D01*
X207120443Y-88121481D01*
X207054260Y-88128000D01*
X206965740Y-88128000D01*
X206899557Y-88121481D01*
X206833373Y-88114963D01*
X206720147Y-88080616D01*
X206663533Y-88063443D01*
X206507011Y-87979779D01*
X206507009Y-87979778D01*
X206471271Y-87950448D01*
X206369814Y-87867186D01*
X206261333Y-87735000D01*
X206257222Y-87729991D01*
X206247652Y-87712087D01*
X206173557Y-87573467D01*
X206156384Y-87516853D01*
X206122037Y-87403627D01*
X206104641Y-87227000D01*
X206122037Y-87050373D01*
X206173557Y-86880534D01*
X206173557Y-86880533D01*
X206257221Y-86724011D01*
X206257222Y-86724009D01*
X206286552Y-86688271D01*
X206369814Y-86586814D01*
X206471271Y-86503552D01*
X206507009Y-86474222D01*
X206524913Y-86464652D01*
X206663533Y-86390557D01*
X206720147Y-86373384D01*
X206833373Y-86339037D01*
X206899558Y-86332518D01*
X206965740Y-86326000D01*
X207054260Y-86326000D01*
X207120442Y-86332518D01*
X207120442Y-86332518D01*
G37*
G36*
X212200442Y-86332518D02*
X212266627Y-86339037D01*
X212379853Y-86373384D01*
X212436467Y-86390557D01*
X212575087Y-86464652D01*
X212592991Y-86474222D01*
X212628729Y-86503552D01*
X212730186Y-86586814D01*
X212813448Y-86688271D01*
X212842778Y-86724009D01*
X212842779Y-86724011D01*
X212926443Y-86880533D01*
X212926443Y-86880534D01*
X212977963Y-87050373D01*
X212995359Y-87227000D01*
X212977963Y-87403627D01*
X212943616Y-87516853D01*
X212926443Y-87573467D01*
X212852348Y-87712087D01*
X212842778Y-87729991D01*
X212838667Y-87735000D01*
X212730186Y-87867186D01*
X212628729Y-87950448D01*
X212592991Y-87979778D01*
X212592989Y-87979779D01*
X212436467Y-88063443D01*
X212379853Y-88080616D01*
X212266627Y-88114963D01*
X212200443Y-88121481D01*
X212134260Y-88128000D01*
X212045740Y-88128000D01*
X211979557Y-88121481D01*
X211913373Y-88114963D01*
X211800147Y-88080616D01*
X211743533Y-88063443D01*
X211587011Y-87979779D01*
X211587009Y-87979778D01*
X211551271Y-87950448D01*
X211449814Y-87867186D01*
X211341333Y-87735000D01*
X211337222Y-87729991D01*
X211327652Y-87712087D01*
X211253557Y-87573467D01*
X211236384Y-87516853D01*
X211202037Y-87403627D01*
X211184641Y-87227000D01*
X211202037Y-87050373D01*
X211253557Y-86880534D01*
X211253557Y-86880533D01*
X211337221Y-86724011D01*
X211337222Y-86724009D01*
X211366552Y-86688271D01*
X211449814Y-86586814D01*
X211551271Y-86503552D01*
X211587009Y-86474222D01*
X211604913Y-86464652D01*
X211743533Y-86390557D01*
X211800147Y-86373384D01*
X211913373Y-86339037D01*
X211979558Y-86332518D01*
X212045740Y-86326000D01*
X212134260Y-86326000D01*
X212200442Y-86332518D01*
X212200442Y-86332518D01*
G37*
G36*
X209660442Y-86332518D02*
X209726627Y-86339037D01*
X209839853Y-86373384D01*
X209896467Y-86390557D01*
X210035087Y-86464652D01*
X210052991Y-86474222D01*
X210088729Y-86503552D01*
X210190186Y-86586814D01*
X210273448Y-86688271D01*
X210302778Y-86724009D01*
X210302779Y-86724011D01*
X210386443Y-86880533D01*
X210386443Y-86880534D01*
X210437963Y-87050373D01*
X210455359Y-87227000D01*
X210437963Y-87403627D01*
X210403616Y-87516853D01*
X210386443Y-87573467D01*
X210312348Y-87712087D01*
X210302778Y-87729991D01*
X210298667Y-87735000D01*
X210190186Y-87867186D01*
X210088729Y-87950448D01*
X210052991Y-87979778D01*
X210052989Y-87979779D01*
X209896467Y-88063443D01*
X209839853Y-88080616D01*
X209726627Y-88114963D01*
X209660443Y-88121481D01*
X209594260Y-88128000D01*
X209505740Y-88128000D01*
X209439557Y-88121481D01*
X209373373Y-88114963D01*
X209260147Y-88080616D01*
X209203533Y-88063443D01*
X209047011Y-87979779D01*
X209047009Y-87979778D01*
X209011271Y-87950448D01*
X208909814Y-87867186D01*
X208801333Y-87735000D01*
X208797222Y-87729991D01*
X208787652Y-87712087D01*
X208713557Y-87573467D01*
X208696384Y-87516853D01*
X208662037Y-87403627D01*
X208644641Y-87227000D01*
X208662037Y-87050373D01*
X208713557Y-86880534D01*
X208713557Y-86880533D01*
X208797221Y-86724011D01*
X208797222Y-86724009D01*
X208826552Y-86688271D01*
X208909814Y-86586814D01*
X209011271Y-86503552D01*
X209047009Y-86474222D01*
X209064913Y-86464652D01*
X209203533Y-86390557D01*
X209260147Y-86373384D01*
X209373373Y-86339037D01*
X209439558Y-86332518D01*
X209505740Y-86326000D01*
X209594260Y-86326000D01*
X209660442Y-86332518D01*
X209660442Y-86332518D01*
G37*
G36*
X205371000Y-88128000D02*
X203569000Y-88128000D01*
X203569000Y-86326000D01*
X205371000Y-86326000D01*
X205371000Y-88128000D01*
X205371000Y-88128000D01*
G37*
G36*
X207120442Y-81887518D02*
X207186627Y-81894037D01*
X207299853Y-81928384D01*
X207356467Y-81945557D01*
X207485770Y-82014672D01*
X207512991Y-82029222D01*
X207548729Y-82058552D01*
X207650186Y-82141814D01*
X207733448Y-82243271D01*
X207762778Y-82279009D01*
X207762779Y-82279011D01*
X207846443Y-82435533D01*
X207846443Y-82435534D01*
X207897963Y-82605373D01*
X207915359Y-82782000D01*
X207897963Y-82958627D01*
X207863616Y-83071853D01*
X207846443Y-83128467D01*
X207772348Y-83267087D01*
X207762778Y-83284991D01*
X207733448Y-83320729D01*
X207650186Y-83422186D01*
X207548729Y-83505448D01*
X207512991Y-83534778D01*
X207512989Y-83534779D01*
X207356467Y-83618443D01*
X207299853Y-83635616D01*
X207186627Y-83669963D01*
X207120443Y-83676481D01*
X207054260Y-83683000D01*
X206965740Y-83683000D01*
X206899557Y-83676481D01*
X206833373Y-83669963D01*
X206720147Y-83635616D01*
X206663533Y-83618443D01*
X206507011Y-83534779D01*
X206507009Y-83534778D01*
X206471271Y-83505448D01*
X206369814Y-83422186D01*
X206286552Y-83320729D01*
X206257222Y-83284991D01*
X206247652Y-83267087D01*
X206173557Y-83128467D01*
X206156384Y-83071853D01*
X206122037Y-82958627D01*
X206104641Y-82782000D01*
X206122037Y-82605373D01*
X206173557Y-82435534D01*
X206173557Y-82435533D01*
X206257221Y-82279011D01*
X206257222Y-82279009D01*
X206286552Y-82243271D01*
X206369814Y-82141814D01*
X206471271Y-82058552D01*
X206507009Y-82029222D01*
X206534230Y-82014672D01*
X206663533Y-81945557D01*
X206720147Y-81928384D01*
X206833373Y-81894037D01*
X206899558Y-81887518D01*
X206965740Y-81881000D01*
X207054260Y-81881000D01*
X207120442Y-81887518D01*
X207120442Y-81887518D01*
G37*
G36*
X205371000Y-83683000D02*
X203569000Y-83683000D01*
X203569000Y-81881000D01*
X205371000Y-81881000D01*
X205371000Y-83683000D01*
X205371000Y-83683000D01*
G37*
G36*
X160372527Y-79768736D02*
X160472410Y-79788604D01*
X160754674Y-79905521D01*
X161008705Y-80075259D01*
X161224741Y-80291295D01*
X161394479Y-80545326D01*
X161511396Y-80827590D01*
X161571000Y-81127240D01*
X161571000Y-81432760D01*
X161511396Y-81732410D01*
X161394479Y-82014674D01*
X161224741Y-82268705D01*
X161008705Y-82484741D01*
X160754674Y-82654479D01*
X160472410Y-82771396D01*
X160419100Y-82782000D01*
X160172762Y-82831000D01*
X159867238Y-82831000D01*
X159620900Y-82782000D01*
X159567590Y-82771396D01*
X159285326Y-82654479D01*
X159031295Y-82484741D01*
X158815259Y-82268705D01*
X158645521Y-82014674D01*
X158528604Y-81732410D01*
X158469000Y-81432760D01*
X158469000Y-81127240D01*
X158528604Y-80827590D01*
X158645521Y-80545326D01*
X158815259Y-80291295D01*
X159031295Y-80075259D01*
X159285326Y-79905521D01*
X159567590Y-79788604D01*
X159667473Y-79768736D01*
X159867238Y-79729000D01*
X160172762Y-79729000D01*
X160372527Y-79768736D01*
X160372527Y-79768736D01*
G37*
G36*
X218372527Y-79768736D02*
X218472410Y-79788604D01*
X218754674Y-79905521D01*
X219008705Y-80075259D01*
X219224741Y-80291295D01*
X219394479Y-80545326D01*
X219511396Y-80827590D01*
X219571000Y-81127240D01*
X219571000Y-81432760D01*
X219511396Y-81732410D01*
X219394479Y-82014674D01*
X219224741Y-82268705D01*
X219008705Y-82484741D01*
X218754674Y-82654479D01*
X218472410Y-82771396D01*
X218419100Y-82782000D01*
X218172762Y-82831000D01*
X217867238Y-82831000D01*
X217620900Y-82782000D01*
X217567590Y-82771396D01*
X217285326Y-82654479D01*
X217031295Y-82484741D01*
X216815259Y-82268705D01*
X216645521Y-82014674D01*
X216528604Y-81732410D01*
X216469000Y-81432760D01*
X216469000Y-81127240D01*
X216528604Y-80827590D01*
X216645521Y-80545326D01*
X216815259Y-80291295D01*
X217031295Y-80075259D01*
X217285326Y-79905521D01*
X217567590Y-79788604D01*
X217667473Y-79768736D01*
X217867238Y-79729000D01*
X218172762Y-79729000D01*
X218372527Y-79768736D01*
X218372527Y-79768736D01*
G37*
M02*
